<svg width="17" height="15" viewBox="0 0 17 15" fill="none" xmlns="http://www.w3.org/2000/svg">
<path d="M0.50117 9.40391C0.397223 9.48707 0.285852 9.49841 0.167057 9.43793C0.0556855 9.37745 0 9.28295 0 9.15443V8.70083C0 8.27747 0.167057 7.93349 0.50117 7.66889L1.69284 6.73901C2.02695 6.48198 2.40562 6.35346 2.82883 6.35346H3.16294C3.33371 6.35346 3.47849 6.41772 3.59729 6.54623C3.72351 6.67475 3.78662 6.82595 3.78662 6.99983V13.9853C3.78662 14.1591 3.72351 14.3103 3.59729 14.4389C3.47849 14.5674 3.33371 14.6316 3.16294 14.6316H2.82883C2.65806 14.6316 2.50956 14.5674 2.38334 14.4389C2.25712 14.3103 2.19401 14.1591 2.19401 13.9853V8.09981L2.18287 8.08847L2.17174 8.09981L0.50117 9.40391Z" fill="#F4F4F4"/>
<path d="M10.6582 5.41548C10.6582 6.12612 10.4355 6.8103 9.98999 7.46801C9.55193 8.11817 8.69808 8.98379 7.42845 10.0649C7.4136 10.08 7.40618 10.0913 7.40618 10.0989C7.40618 10.1064 7.40989 10.1102 7.41731 10.1102H10.0457C10.2164 10.1102 10.3649 10.1745 10.4912 10.303C10.6174 10.424 10.6805 10.5714 10.6805 10.7453C10.6805 10.9191 10.6174 11.0703 10.4912 11.1989C10.3649 11.3274 10.2164 11.3916 10.0457 11.3916H5.95835C5.78758 11.3916 5.63909 11.3274 5.51287 11.1989C5.39407 11.0703 5.33467 10.9191 5.33467 10.7453C5.33467 10.3143 5.49431 9.97037 5.81357 9.71333C7.09805 8.67005 7.95932 7.85735 8.39738 7.27523C8.83544 6.69312 9.05447 6.12612 9.05447 5.57424C9.05447 4.73508 8.6127 4.3155 7.72915 4.3155C7.27624 4.3155 6.72681 4.44402 6.08086 4.70106C5.93979 4.76154 5.80615 4.7502 5.67992 4.66704C5.56113 4.58388 5.50173 4.47048 5.50173 4.32684V4.13406C5.50173 3.9375 5.5537 3.75984 5.65765 3.60108C5.76902 3.43476 5.9138 3.32514 6.092 3.27222C6.7231 3.09078 7.34307 3.00006 7.95189 3.00006C8.82059 3.00006 9.48882 3.21174 9.95657 3.6351C10.4243 4.05846 10.6582 4.65192 10.6582 5.41548Z" fill="#F4F4F4"/>
<path d="M12.3113 1.82487C12.1405 1.82487 11.992 1.76439 11.8658 1.64344C11.7396 1.51492 11.6765 1.36372 11.6765 1.18984C11.6765 1.01596 11.7396 0.864756 11.8658 0.736236C11.992 0.607717 12.1405 0.543457 12.3113 0.543457H16.2649C16.4357 0.543457 16.5805 0.607717 16.6993 0.736236C16.8255 0.864756 16.8886 1.01596 16.8886 1.18984C16.8886 1.62075 16.7327 1.97607 16.4209 2.25579L14.6167 3.92277C14.6092 3.93033 14.6055 3.93789 14.6055 3.94545C14.6055 3.95301 14.6092 3.95679 14.6167 3.95679H14.7949C15.4779 3.95679 16.0162 4.15713 16.4097 4.55781C16.8032 4.95093 17 5.50281 17 6.21345C17 7.08285 16.7401 7.75568 16.2204 8.23196C15.7007 8.70068 14.9582 8.93504 13.993 8.93504C13.4213 8.93504 12.8681 8.867 12.3336 8.73092C12.1554 8.68556 12.0106 8.5835 11.8992 8.42474C11.7878 8.26598 11.7321 8.08832 11.7321 7.89176V7.76702C11.7321 7.61582 11.7915 7.49864 11.9103 7.41548C12.0366 7.32476 12.1739 7.30208 12.3224 7.34744C12.9238 7.55156 13.4584 7.65362 13.9262 7.65362C14.4162 7.65362 14.7949 7.53266 15.0621 7.29074C15.3294 7.04883 15.4631 6.69729 15.4631 6.23613C15.4631 5.81277 15.3109 5.51037 15.0065 5.32893C14.7095 5.13993 14.1823 5.04543 13.425 5.04543H13.3025C13.154 5.04543 13.0241 4.98873 12.9127 4.87533C12.8087 4.76193 12.7568 4.62963 12.7568 4.47843C12.7568 4.10043 12.8904 3.78669 13.1577 3.53721L14.973 1.85889C14.9805 1.85133 14.9842 1.84377 14.9842 1.83621C14.9842 1.82865 14.9805 1.82487 14.973 1.82487H12.3113Z" fill="#F4F4F4"/>
</svg>
