<svg xmlns="http://www.w3.org/2000/svg" width="32" height="32" viewBox="0 0 32 32" fill="none">
  <path d="M16.0001 22C15.6319 22 15.3334 21.7015 15.3334 21.3334V16.6667H10.6667C10.2986 16.6667 10.0001 16.3682 10.0001 16C10.0001 15.6318 10.2986 15.3334 10.6667 15.3334H15.3334V10.6667C15.3334 10.2985 15.6319 10 16.0001 10C16.3683 10 16.6667 10.2985 16.6667 10.6667V15.3334H21.3334C21.7016 15.3334 22.0001 15.6318 22.0001 16C22.0001 16.3682 21.7016 16.6667 21.3334 16.6667H16.6667V21.3334C16.6667 21.7015 16.3683 22 16.0001 22Z" fill="currentColor"/>
  <path fill-rule="evenodd" clip-rule="evenodd" d="M0.666748 16C0.666748 7.53165 7.53172 0.666687 16.0001 0.666687C24.4684 0.666687 31.3334 7.53165 31.3334 16C31.3334 24.4684 24.4684 31.3334 16.0001 31.3334C7.53172 31.3334 0.666748 24.4684 0.666748 16ZM16.0001 2.00002C8.2681 2.00002 2.00008 8.26803 2.00008 16C2.00008 23.732 8.2681 30 16.0001 30C23.7321 30 30.0001 23.732 30.0001 16C30.0001 8.26803 23.7321 2.00002 16.0001 2.00002Z" fill="currentColor"/>
</svg>