<svg width="72" height="72" viewBox="0 0 72 72" fill="none" xmlns="http://www.w3.org/2000/svg">
<path fill-rule="evenodd" clip-rule="evenodd" d="M37.0818 6.36589C36.6004 5.53429 35.3997 5.53429 34.9183 6.36589L5.38717 57.3742C4.90472 58.2075 5.50604 59.2505 6.46896 59.2505H65.5312C66.4941 59.2505 67.0954 58.2075 66.613 57.3742L37.0818 6.36589ZM33.6201 5.61434C34.6793 3.7848 37.3208 3.7848 38.38 5.61434L67.9111 56.6226C68.9725 58.4559 67.6496 60.7505 65.5312 60.7505H6.46896C4.35054 60.7505 3.02763 58.4559 4.08903 56.6226L33.6201 5.61434ZM36 26.2505C36.4143 26.2505 36.75 26.5862 36.75 27.0005V39.0005C36.75 39.4147 36.4143 39.7505 36 39.7505C35.5858 39.7505 35.25 39.4147 35.25 39.0005V27.0005C35.25 26.5862 35.5858 26.2505 36 26.2505ZM36.0001 51.0004C37.6569 51.0004 39.0001 49.6573 39.0001 48.0004C39.0001 46.3436 37.6569 45.0004 36.0001 45.0004C34.3432 45.0004 33.0001 46.3436 33.0001 48.0004C33.0001 49.6573 34.3432 51.0004 36.0001 51.0004Z" fill="#F2B132"/>
</svg>
