<svg width="24" height="24" viewBox="0 0 24 24" fill="none" xmlns="http://www.w3.org/2000/svg">
<path d="M15.3299 18.82C15.3299 20.65 13.8299 22.15 11.9999 22.15C11.0899 22.15 10.2499 21.77 9.6499 21.17C9.0499 20.57 8.6699 19.73 8.6699 18.82M12.0199 2C8.3399 2 5.3599 4.98 5.3599 8.66V10.76C5.3599 11.44 5.0799 12.46 4.7299 13.04L3.4599 15.16C2.6799 16.47 3.2199 17.93 4.6599 18.41C9.4399 20 14.6099 20 19.3899 18.41C20.7399 17.96 21.3199 16.38 20.5899 15.16L19.3199 13.04C18.9699 12.46 18.6899 11.43 18.6899 10.76V8.66C18.6799 5 15.6799 2 12.0199 2Z" stroke="currentColor" stroke-miterlimit="10"/>
<path d="M11.6423 13.5L10.1424 14.9999L8.5 13.5M10.1418 8.99988V14.94" stroke="currentColor" stroke-width="0.750022" stroke-miterlimit="10" stroke-linecap="round" stroke-linejoin="round"/>
<path d="M15 10.5713L13.4283 8.99988L11.9282 10.5M13.4278 14.9999V9.05977" stroke="currentColor" stroke-width="0.750022" stroke-miterlimit="10" stroke-linecap="round" stroke-linejoin="round"/>
</svg>
