<svg width="72" height="72" viewBox="0 0 72 72" fill="none" xmlns="http://www.w3.org/2000/svg">
<path d="M33.7235 5.44736C34.8425 3.78637 37.3536 3.84252 38.3798 5.61435L67.911 56.6222L68.0038 56.795C68.8893 58.5964 67.5833 60.75 65.5311 60.7501H6.46865C4.35036 60.7499 3.0274 58.4554 4.08877 56.6222L33.62 5.61435L33.7235 5.44736ZM37.0819 6.36533C36.6304 5.58608 35.5468 5.53774 35.0165 6.21982L34.9179 6.36533L5.38662 57.3741C4.90463 58.2073 5.50601 59.2499 6.46865 59.2501H65.5311C66.4338 59.25 67.0183 58.3335 66.6903 57.5323L66.6132 57.3741L37.0819 6.36533ZM35.9999 45.0001C37.6566 45.0001 38.9997 46.3434 38.9999 48.0001C38.9999 49.6569 37.6568 51.0001 35.9999 51.0001C34.3431 51.0001 32.9999 49.6569 32.9999 48.0001C33.0001 46.3435 34.3432 45.0001 35.9999 45.0001ZM35.9999 26.2501C36.414 26.2501 36.7497 26.5861 36.7499 27.0001V39.0001C36.7499 39.4143 36.4141 39.7501 35.9999 39.7501C35.5857 39.7501 35.2499 39.4143 35.2499 39.0001V27.0001C35.2501 26.5861 35.5859 26.2501 35.9999 26.2501Z" fill="#F2B132"/>
</svg>
