<svg width="20" height="20" viewBox="0 0 20 20" fill="none" xmlns="http://www.w3.org/2000/svg">
<g clip-path="url(#clip0_15003_45379)">
<rect width="20" height="20" fill="transparent"/>
<path d="M13.039 11.1283C13.2017 11.291 13.4656 11.291 13.6283 11.1283C13.791 10.9656 13.791 10.7017 13.6283 10.539L10.295 7.2057C10.2168 7.12756 10.1108 7.08366 10.0003 7.08366C9.88982 7.08366 9.78384 7.12756 9.7057 7.2057L6.37236 10.539C6.20965 10.7017 6.20965 10.9656 6.37236 11.1283C6.53508 11.291 6.7989 11.291 6.96162 11.1283L10.0003 8.08958L13.039 11.1283Z" fill="currentColor"/>
<path fill-rule="evenodd" clip-rule="evenodd" d="M10.0003 0.416992C4.7076 0.416992 0.416992 4.7076 0.416992 10.0003C0.416992 15.2931 4.7076 19.5837 10.0003 19.5837C15.2931 19.5837 19.5837 15.2931 19.5837 10.0003C19.5837 4.7076 15.2931 0.416992 10.0003 0.416992ZM1.25033 10.0003C1.25033 5.16783 5.16783 1.25033 10.0003 1.25033C14.8328 1.25033 18.7503 5.16783 18.7503 10.0003C18.7503 14.8328 14.8328 18.7503 10.0003 18.7503C5.16783 18.7503 1.25033 14.8328 1.25033 10.0003Z" fill="currentColor"/>
</g>
<defs>
<clipPath id="clip0_15003_45379">
<rect width="20" height="20" fill="white"/>
</clipPath>
</defs>
</svg>
