<svg width="30" height="30" viewBox="0 0 30 30" fill="none" xmlns="http://www.w3.org/2000/svg">
<g clip-path="url(#clip0_15073_56893)">
<path d="M19.3782 13.1223C19.6082 12.8885 19.9811 12.8885 20.211 13.1223C20.441 13.3562 20.441 13.7353 20.211 13.9692L15.4999 18.7597C15.3895 18.872 15.2397 18.9351 15.0835 18.9351C14.9273 18.9351 14.7775 18.872 14.6671 18.7597L9.95599 13.9692C9.72602 13.7353 9.72602 13.3562 9.95599 13.1223C10.186 12.8885 10.5588 12.8885 10.7888 13.1223L15.0835 17.4894L19.3782 13.1223Z" fill="currentColor"/>
<path fill-rule="evenodd" clip-rule="evenodd" d="M15.0835 0.970703C7.60312 0.970703 1.53906 7.13694 1.53906 14.7434C1.53906 22.3498 7.60312 28.5161 15.0835 28.5161C22.5639 28.5161 28.628 22.3498 28.628 14.7434C28.628 7.13694 22.5639 0.970703 15.0835 0.970703ZM2.71684 14.7434C2.71684 7.79837 8.25359 2.16833 15.0835 2.16833C21.9134 2.16833 27.4502 7.79837 27.4502 14.7434C27.4502 21.6884 21.9134 27.3184 15.0835 27.3184C8.25359 27.3184 2.71684 21.6884 2.71684 14.7434Z" fill="currentColor"/>
</g>
<defs>
<clipPath id="clip0_15073_56893">
<rect width="28.2667" height="28.743" fill="white" transform="translate(0.949219 0.371094)"/>
</clipPath>
</defs>
</svg>
