<svg width="32" height="32" viewBox="0 0 32 32" fill="none" xmlns="http://www.w3.org/2000/svg">
<path fill-rule="evenodd" clip-rule="evenodd" d="M25.9994 4.15207C25.5797 3.9441 25.087 3.9441 24.6673 4.15207C24.4653 4.25218 24.2607 4.44742 23.6869 5.02122L23.1429 5.56516C22.9723 7.44568 24.5553 9.02866 26.4358 8.85806L26.9798 8.31411C27.5536 7.74032 27.7488 7.53573 27.8489 7.33369C28.0569 6.91402 28.0569 6.42131 27.8489 6.00164C27.7488 5.79961 27.5536 5.59502 26.9798 5.02122C26.406 4.44742 26.2014 4.25218 25.9994 4.15207ZM27.0238 9.68427L27.6869 9.02122L27.7548 8.95337C28.2344 8.47416 28.5621 8.1467 28.745 7.77771C29.0916 7.07826 29.0916 6.25707 28.745 5.55763C28.5621 5.18863 28.2344 4.86118 27.7548 4.38196L27.6869 4.31411L27.619 4.24623C27.1398 3.76662 26.8124 3.4389 26.4434 3.25605C25.7439 2.90944 24.9227 2.90944 24.2233 3.25605C23.8543 3.4389 23.5268 3.76662 23.0476 4.24623L22.9798 4.31411L22.3167 4.97723C22.3141 4.97975 22.3115 4.9823 22.309 4.98487L16.8999 10.394L16.8676 10.4263C16.4317 10.8621 16.1716 11.1222 15.958 11.4194C15.7685 11.6829 15.6081 11.9662 15.4796 12.2642C15.3347 12.6002 15.2455 12.9571 15.0961 13.5551L15.085 13.5995L14.1816 17.2131C14.139 17.3835 14.1889 17.5637 14.3131 17.6879C14.4373 17.8121 14.6175 17.862 14.7879 17.8194L18.4015 16.916L18.4459 16.9049L18.4459 16.9049L18.446 16.9049C19.0439 16.7554 19.4008 16.6663 19.7368 16.5214C20.0348 16.3929 20.3181 16.2325 20.5816 16.043C20.8788 15.8294 21.1389 15.5693 21.5747 15.1334L21.607 15.1011L27.0161 9.69205C27.0187 9.68948 27.0213 9.68689 27.0238 9.68427ZM25.4801 9.8138C23.8056 9.52739 22.4736 8.19541 22.1872 6.5209L17.607 11.1011C17.1294 11.5787 16.9305 11.7798 16.7699 12.0031C16.6226 12.208 16.4979 12.4284 16.3979 12.6602C16.289 12.9127 16.219 13.1867 16.0551 13.842L15.3538 16.6472L18.159 15.9459C18.8143 15.782 19.0883 15.712 19.3408 15.6031C19.5726 15.5031 19.793 15.3784 19.9979 15.231C20.2212 15.0705 20.4223 14.8716 20.8999 14.394L25.4801 9.8138ZM10.3774 3.501H10.4H16C16.2761 3.501 16.5 3.72486 16.5 4.001C16.5 4.27714 16.2761 4.501 16 4.501H10.4C9.27165 4.501 8.45545 4.50139 7.81352 4.55384C7.17744 4.60581 6.75662 4.70639 6.41103 4.88248C5.75247 5.21803 5.21703 5.75347 4.88148 6.41203C4.70539 6.75762 4.60481 7.17844 4.55284 7.81452C4.50039 8.45645 4.5 9.27264 4.5 10.401V21.601C4.5 22.7294 4.50039 23.5456 4.55284 24.1875C4.60481 24.8236 4.70539 25.2444 4.88148 25.59C5.21703 26.2485 5.75247 26.784 6.41103 27.1195C6.75662 27.2956 7.17744 27.3962 7.81352 27.4482C8.45545 27.5006 9.27164 27.501 10.4 27.501H21.6C22.7284 27.501 23.5446 27.5006 24.1865 27.4482C24.8226 27.3962 25.2434 27.2956 25.589 27.1195C26.2475 26.784 26.783 26.2485 27.1185 25.59C27.2946 25.2444 27.3952 24.8236 27.4472 24.1875C27.4996 23.5456 27.5 22.7294 27.5 21.601V16.001C27.5 15.7249 27.7239 15.501 28 15.501C28.2761 15.501 28.5 15.7249 28.5 16.001V21.601V21.6236V21.6237V21.6237C28.5 22.7246 28.5 23.5815 28.4438 24.2689C28.3868 24.9668 28.2694 25.5339 28.0095 26.044C27.5781 26.8907 26.8897 27.5791 26.043 28.0105C25.5329 28.2704 24.9658 28.3878 24.2679 28.4448C23.5805 28.501 22.7236 28.501 21.6227 28.501H21.6227H21.6226H21.6H10.4H10.3774H10.3773H10.3773C9.27638 28.501 8.41947 28.501 7.73209 28.4448C7.03416 28.3878 6.4671 28.2704 5.95704 28.0105C5.11031 27.5791 4.4219 26.8907 3.99047 26.044C3.73058 25.5339 3.61318 24.9668 3.55616 24.2689C3.5 23.5815 3.5 22.7246 3.5 21.6236V21.601V10.401V10.3784C3.5 9.27741 3.5 8.42048 3.55616 7.73309C3.61318 7.03516 3.73058 6.4681 3.99047 5.95804C4.4219 5.11131 5.11031 4.4229 5.95704 3.99147C6.4671 3.73158 7.03416 3.61418 7.73209 3.55716C8.41948 3.501 9.27641 3.501 10.3774 3.501Z" fill="currentColor"/>
</svg>
