<svg width="24" height="24" viewBox="0 0 24 24" fill="none" xmlns="http://www.w3.org/2000/svg">
<path fill-rule="evenodd" clip-rule="evenodd" d="M2.5 12C2.5 6.75329 6.75329 2.5 12 2.5C17.2467 2.5 21.5 6.75329 21.5 12C21.5 17.2467 17.2467 21.5 12 21.5C6.75329 21.5 2.5 17.2467 2.5 12ZM12 1.5C6.20101 1.5 1.5 6.20101 1.5 12C1.5 17.799 6.20101 22.5 12 22.5C17.799 22.5 22.5 17.799 22.5 12C22.5 6.20101 17.799 1.5 12 1.5ZM12.5 7.99997C12.5 7.72383 12.2762 7.49997 12 7.49997C11.7239 7.49997 11.5 7.72383 11.5 7.99997V14.7929L9.35356 12.6464C9.1583 12.4512 8.84172 12.4512 8.64646 12.6464C8.45119 12.8417 8.45119 13.1583 8.64646 13.3535L11.6465 16.3535C11.8417 16.5488 12.1583 16.5488 12.3536 16.3535L15.3536 13.3535C15.5488 13.1583 15.5488 12.8417 15.3536 12.6464C15.1583 12.4512 14.8417 12.4512 14.6465 12.6464L12.5 14.7929V7.99997Z" fill="currentColor"/>
</svg>
