<svg width="12" height="13" viewBox="0 0 12 13" fill="none" xmlns="http://www.w3.org/2000/svg">
  <path d="M3.69868 5.57646L5.3001 3.93302V10.7855C5.3001 10.975 5.37377 11.1567 5.50492 11.2907C5.63606 11.4247 5.81394 11.5 5.9994 11.5C6.18487 11.5 6.36274 11.4247 6.49389 11.2907C6.62503 11.1567 6.69871 10.975 6.69871 10.7855V3.93302L8.30013 5.57646C8.36514 5.64343 8.44248 5.69659 8.5277 5.73287C8.61292 5.76914 8.70432 5.78782 8.79664 5.78782C8.88895 5.78782 8.98036 5.76914 9.06557 5.73287C9.15079 5.69659 9.22814 5.64343 9.29314 5.57646C9.35869 5.51004 9.41072 5.43101 9.44622 5.34393C9.48172 5.25686 9.5 5.16347 9.5 5.06914C9.5 4.97481 9.48172 4.88142 9.44622 4.79434C9.41072 4.70727 9.35869 4.62824 9.29314 4.56181L6.49591 1.70365C6.42941 1.6386 6.35098 1.58761 6.26514 1.5536C6.09489 1.48213 5.90392 1.48213 5.73367 1.5536C5.64783 1.58761 5.5694 1.6386 5.50289 1.70365L2.70566 4.56181C2.64046 4.62844 2.58874 4.70753 2.55345 4.79458C2.51816 4.88162 2.5 4.97492 2.5 5.06914C2.5 5.16336 2.51816 5.25665 2.55345 5.3437C2.58874 5.43075 2.64046 5.50984 2.70566 5.57646C2.77086 5.64308 2.84827 5.69593 2.93346 5.73199C3.01865 5.76804 3.10996 5.7866 3.20217 5.7866C3.29438 5.7866 3.38569 5.76804 3.47088 5.73199C3.55607 5.69593 3.63348 5.64308 3.69868 5.57646Z"
                                                                                                                          fill="currentColor" />
</svg>