<svg width="24" height="24" viewBox="0 0 24 24" fill="none" xmlns="http://www.w3.org/2000/svg">
<path d="M12.4697 5.46984C12.7443 5.19524 13.1791 5.17778 13.4736 5.41809L13.5303 5.46984L19.5303 11.4698L19.582 11.5265C19.8063 11.8014 19.8063 12.1988 19.582 12.4737L19.5303 12.5304L13.5303 18.5304C13.2374 18.8233 12.7626 18.8233 12.4697 18.5304C12.1768 18.2375 12.1768 17.7627 12.4697 17.4698L17.1895 12.7501H5C4.58579 12.7501 4.25 12.4143 4.25 12.0001C4.25 11.5859 4.58579 11.2501 5 11.2501H17.1895L12.4697 6.53039L12.418 6.47375C12.1777 6.17917 12.1951 5.74445 12.4697 5.46984Z" fill="currentColor"/>
</svg>
