<svg width="6" height="11" viewBox="0 0 6 11" fill="none" xmlns="http://www.w3.org/2000/svg">
<path d="M5.64395 5.16853L0.95645 0.481029C0.890891 0.415477 0.807366 0.370837 0.716438 0.352754C0.625509 0.33467 0.531261 0.343956 0.445609 0.379437C0.359958 0.414918 0.286751 0.474999 0.235246 0.552085C0.183741 0.629171 0.15625 0.719798 0.15625 0.812507V10.1875C0.156252 10.2802 0.183744 10.3708 0.23525 10.4479C0.286755 10.525 0.359962 10.5851 0.445612 10.6206C0.531262 10.656 0.62551 10.6653 0.716438 10.6473C0.807366 10.6292 0.89089 10.5845 0.95645 10.519L5.64395 5.83148C5.68748 5.78796 5.72201 5.73628 5.74557 5.6794C5.76913 5.62253 5.78126 5.56157 5.78126 5.50001C5.78126 5.43845 5.76913 5.37749 5.74557 5.32061C5.72201 5.26374 5.68748 5.21206 5.64395 5.16853Z" fill="currentColor"/>
</svg>
