<svg width="13" height="12" viewBox="0 0 13 12" fill="none" xmlns="http://www.w3.org/2000/svg">
  <path d="M4.33857 6.52862L5.93999 8.0625V1.66688C5.93999 1.49001 6.01366 1.32038 6.14481 1.19531C6.27596 1.07024 6.45383 0.99998 6.6393 0.99998C6.82476 0.99998 7.00264 1.07024 7.13378 1.19531C7.26493 1.32038 7.3386 1.49001 7.3386 1.66688V8.0625L8.94002 6.52862C9.00503 6.46611 9.08237 6.41649 9.16759 6.38264C9.25281 6.34878 9.34421 6.33135 9.43653 6.33135C9.52885 6.33135 9.62025 6.34878 9.70547 6.38264C9.79068 6.41649 9.86803 6.46611 9.93304 6.52862C9.99858 6.59061 10.0506 6.66437 10.0861 6.74564C10.1216 6.82691 10.1399 6.91408 10.1399 7.00212C10.1399 7.09016 10.1216 7.17732 10.0861 7.25859C10.0506 7.33986 9.99858 7.41362 9.93304 7.47562L7.1358 10.1432C7.0693 10.204 6.99087 10.2515 6.90503 10.2833C6.73478 10.35 6.54381 10.35 6.37356 10.2833C6.28772 10.2515 6.20929 10.204 6.14279 10.1432L3.34555 7.47562C3.28035 7.41344 3.22863 7.33962 3.19334 7.25837C3.15805 7.17713 3.13989 7.09005 3.13989 7.00212C3.13989 6.91418 3.15805 6.8271 3.19334 6.74586C3.22863 6.66462 3.28035 6.5908 3.34555 6.52862C3.41076 6.46643 3.48816 6.41711 3.57335 6.38346C3.65854 6.34981 3.74985 6.33248 3.84206 6.33248C3.93427 6.33248 4.02558 6.34981 4.11077 6.38346C4.19596 6.41711 4.27337 6.46643 4.33857 6.52862Z"
                                                                                                                          fill="currentColor" />
</svg>