<svg width="20" height="20" viewBox="0 0 20 20" fill="none" xmlns="http://www.w3.org/2000/svg">
<path d="M5.3747 3.8323C6.66295 2.86465 8.26332 2.2915 9.99936 2.2915C14.2566 2.2915 17.7077 5.74264 17.7077 9.99984C17.7077 14.257 14.2566 17.7082 9.99936 17.7082C6.54879 17.7082 3.62623 15.4405 2.64381 12.3126C2.54037 11.9832 2.18956 11.8001 1.86024 11.9036C1.53093 12.007 1.34781 12.3578 1.45124 12.6871C2.59259 16.321 5.98719 18.9582 9.99936 18.9582C14.9469 18.9582 18.9577 14.9474 18.9577 9.99984C18.9577 5.05229 14.9469 1.0415 9.99936 1.0415C7.98336 1.0415 6.12126 1.70818 4.62398 2.83285C4.00309 3.29921 3.34543 3.96022 2.79129 4.60022C2.61612 4.80253 2.44763 5.00699 2.29102 5.20701L2.29102 2.08317C2.29102 1.73799 2.01119 1.45817 1.66602 1.45817C1.32084 1.45817 1.04102 1.73799 1.04102 2.08317V6.6665C1.04102 7.01168 1.32084 7.2915 1.66602 7.2915H2.03474C2.0429 7.29166 2.05106 7.29166 2.05921 7.2915H6.24935C6.59453 7.2915 6.87435 7.01168 6.87435 6.6665C6.87435 6.32133 6.59453 6.0415 6.24935 6.0415H3.22553C3.3791 5.84287 3.55106 5.63237 3.73629 5.41844C4.25907 4.81466 4.8514 4.22537 5.3747 3.8323Z" fill="currentColor"/>
</svg>
