<svg width="20" height="18" viewBox="0 0 20 18" fill="none" xmlns="http://www.w3.org/2000/svg">
<path d="M7.32843 6.73926H5.11735C4.81181 6.73926 4.56458 6.98649 4.56458 7.29203V14.5518H7.8812V7.29203C7.8812 6.98649 7.63397 6.73926 7.32843 6.73926Z" fill="currentColor"/>
<path d="M11.7506 8.9502H9.5395C9.23396 8.9502 8.98672 9.19743 8.98672 9.50297V14.5516H12.3034V9.50297C12.3034 9.19743 12.0561 8.9502 11.7506 8.9502Z" fill="currentColor"/>
<path d="M16.1728 4.52832H13.9617C13.6561 4.52832 13.4089 4.77556 13.4089 5.08109V14.5519H16.7255V5.08109C16.7255 4.77556 16.4783 4.52832 16.1728 4.52832Z" fill="currentColor"/>
<path d="M2.90625 10.0557H0.695166C0.389631 10.0557 0.142395 10.3029 0.142395 10.6084V14.5515H3.45902V10.6084C3.45902 10.3029 3.21179 10.0557 2.90625 10.0557Z" fill="currentColor"/>
<path d="M19.4141 16.4268C16.7975 16.4268 15.5965 16.4268 15.1222 16.4268C14.9054 16.4268 14.828 16.4268 14.8286 16.4268C13.9652 16.4268 10.7515 16.4268 0.585938 16.4268C0.26207 16.4268 0 16.7787 0 17.2136C0 17.6485 0.26207 18.0004 0.585938 18.0004C7.67656 18.0004 12.7902 18.0004 19.4141 18.0004C19.7379 18.0004 20 17.6485 20 17.2136C20 16.7787 19.7379 16.4268 19.4141 16.4268Z" fill="currentColor"/>
<path d="M20 16.9088C20 14.6299 20 13.5839 20 13.1708C20 12.982 20 12.9145 20 12.915C20 12.1631 20 9.36412 20 0.510327C20 0.228252 19.6646 -1.4663e-08 19.25 -3.27835e-08C18.8354 -5.09041e-08 18.5 0.228252 18.5 0.510327C18.5 6.68596 18.5 11.1398 18.5 16.9088C18.5 17.1909 18.8354 17.4192 19.25 17.4192C19.6645 17.4192 20 17.1909 20 16.9088Z" fill="currentColor"/>
</svg>
