<svg xmlns="http://www.w3.org/2000/svg" width="24" height="24" viewBox="0 0 24 24" fill="none">
<path fill-rule="evenodd" clip-rule="evenodd" d="M12 2.5C8.32009 2.5 5.21607 5.24017 4.75963 8.89165L3.77071 16.803C3.5917 18.2351 4.70835 19.5 6.15158 19.5H7.67501L7.79334 19.7662C8.53219 21.4286 10.1808 22.5 11.9999 22.5C13.8191 22.5 15.4677 21.4286 16.2066 19.7662L16.3249 19.5H17.8484C19.2916 19.5 20.4083 18.2351 20.2292 16.803L19.2403 8.89165C18.7839 5.24018 15.6799 2.5 12 2.5ZM16.0114 18.5C16.0039 18.4998 15.9965 18.4998 15.9891 18.5H8.0108C8.0034 18.4998 7.99598 18.4998 7.98854 18.5H6.15158C5.30985 18.5 4.65859 17.7623 4.76299 16.927L5.75191 9.01569C6.14579 5.86464 8.82441 3.5 12 3.5C15.1755 3.5 17.8542 5.86464 18.248 9.01569L19.237 16.927C19.3414 17.7623 18.6901 18.5 17.8484 18.5H16.0114ZM8.77294 19.5H15.227C14.6205 20.7212 13.3723 21.5 11.9999 21.5C10.6276 21.5 9.37938 20.7212 8.77294 19.5Z" fill="currentColor"/>
</svg>