<svg width="26" height="26" viewBox="0 0 26 26" fill="none" xmlns="http://www.w3.org/2000/svg">
<path d="M12.4255 13.5746C12.4281 13.5772 12.4311 13.5794 12.4337 13.582C12.4502 13.598 12.4671 13.6136 12.4849 13.6282C12.4948 13.6364 12.5053 13.6435 12.5155 13.6511C12.5265 13.6594 12.5373 13.6679 12.5488 13.6756C12.5606 13.6835 12.5729 13.6904 12.585 13.6976C12.5957 13.7039 12.606 13.7106 12.617 13.7164C12.6292 13.723 12.6418 13.7285 12.6542 13.7344C12.6658 13.7399 12.6772 13.7457 12.6891 13.7506C12.7011 13.7556 12.7134 13.7596 12.7256 13.764C12.7384 13.7686 12.7511 13.7735 12.7642 13.7774C12.7763 13.7811 12.7887 13.7838 12.801 13.7869C12.8144 13.7903 12.8276 13.7941 12.8413 13.7968C12.8555 13.7996 12.8697 13.8012 12.884 13.8033C12.896 13.805 12.9077 13.8072 12.9198 13.8084C12.9465 13.8111 12.9732 13.8125 13 13.8125C13.0268 13.8125 13.0535 13.8111 13.0802 13.8084C13.0923 13.8072 13.1041 13.805 13.1161 13.8033C13.1303 13.8012 13.1446 13.7996 13.1588 13.7968C13.1724 13.7941 13.1857 13.7903 13.1991 13.7869C13.2114 13.7838 13.2237 13.7811 13.2359 13.7774C13.249 13.7735 13.2617 13.7686 13.2745 13.764C13.2867 13.7596 13.299 13.7556 13.311 13.7506C13.3228 13.7457 13.3342 13.7399 13.3458 13.7344C13.3583 13.7285 13.3709 13.723 13.3831 13.7164C13.394 13.7106 13.4044 13.7039 13.415 13.6976C13.4271 13.6904 13.4394 13.6835 13.4512 13.6756C13.4627 13.6679 13.4735 13.6594 13.4845 13.6511C13.4947 13.6435 13.5053 13.6364 13.5152 13.6282C13.5333 13.6133 13.5505 13.5975 13.5672 13.5812C13.5696 13.5788 13.5722 13.5769 13.5745 13.5746L18.4495 8.69956C18.525 8.62412 18.5848 8.53455 18.6257 8.43597C18.6665 8.33739 18.6875 8.23174 18.6875 8.12503C18.6875 8.01833 18.6665 7.91268 18.6257 7.8141C18.5849 7.71551 18.525 7.62594 18.4496 7.55049C18.3741 7.47503 18.2846 7.41518 18.186 7.37434C18.0874 7.33351 17.9818 7.31249 17.8751 7.31248C17.7684 7.31248 17.6627 7.33349 17.5641 7.37432C17.4655 7.41515 17.376 7.47499 17.3005 7.55044L13.8125 11.0385V2.4375C13.8125 2.22201 13.7269 2.01535 13.5745 1.86298C13.4222 1.7106 13.2155 1.625 13 1.625C12.7845 1.625 12.5779 1.7106 12.4255 1.86298C12.2731 2.01535 12.1875 2.22201 12.1875 2.4375V11.0385L8.69953 7.55044C8.62408 7.47499 8.5345 7.41515 8.43592 7.37432C8.33734 7.33349 8.23169 7.31248 8.12498 7.31248C8.01828 7.31249 7.91263 7.33351 7.81405 7.37434C7.71547 7.41518 7.6259 7.47503 7.55046 7.55049C7.47501 7.62594 7.41516 7.71551 7.37434 7.8141C7.33351 7.91268 7.3125 8.01833 7.3125 8.12503C7.3125 8.23174 7.33353 8.33739 7.37436 8.43597C7.4152 8.53455 7.47505 8.62412 7.55051 8.69956L12.4255 13.5746Z" fill="#319CFF"/>
<path d="M22.75 12.1875H17.2597L14.7236 14.7236C14.2665 15.1807 13.6465 15.4375 13 15.4375C12.3535 15.4375 11.7335 15.1807 11.2764 14.7236L8.74033 12.1875H3.25C2.81917 12.188 2.40614 12.3594 2.1015 12.664C1.79686 12.9686 1.62549 13.3817 1.625 13.8125V20.3125C1.62549 20.7433 1.79686 21.1564 2.1015 21.461C2.40614 21.7656 2.81917 21.937 3.25 21.9375H22.75C23.1808 21.937 23.5939 21.7656 23.8985 21.461C24.2031 21.1564 24.3745 20.7433 24.375 20.3125V13.8125C24.3745 13.3817 24.2031 12.9686 23.8985 12.664C23.5939 12.3594 23.1808 12.188 22.75 12.1875ZM19.0938 18.2812C18.8528 18.2812 18.6171 18.2098 18.4167 18.0759C18.2163 17.9419 18.0601 17.7516 17.9678 17.5289C17.8756 17.3062 17.8514 17.0611 17.8985 16.8247C17.9455 16.5883 18.0616 16.3712 18.232 16.2007C18.4025 16.0303 18.6196 15.9142 18.856 15.8672C19.0924 15.8201 19.3375 15.8443 19.5602 15.9365C19.7829 16.0288 19.9732 16.185 20.1072 16.3854C20.2411 16.5858 20.3125 16.8215 20.3125 17.0625C20.3125 17.3857 20.1841 17.6957 19.9556 17.9243C19.727 18.1528 19.417 18.2812 19.0938 18.2812Z" fill="#319CFF"/>
</svg>
