<svg xmlns="http://www.w3.org/2000/svg" width="20" height="20" viewBox="0 0 20 20" fill="none">
<path fill-rule="evenodd" clip-rule="evenodd" d="M7.16667 0.833984C7.16667 0.557842 6.94281 0.333984 6.66667 0.333984C6.39053 0.333984 6.16667 0.557842 6.16667 0.833984V2.01598C6.06302 2.0223 5.96854 2.03122 5.8783 2.0438C3.88659 2.32164 2.32099 3.88724 2.04316 5.87895C1.99995 6.18866 1.99997 6.54836 2 7.15702L2 7.20653V11.1006V11.1233C2 12.2242 2 13.0812 2.05616 13.7686C2.11318 14.4665 2.23059 15.0336 2.49047 15.5436C2.9219 16.3903 3.61032 17.0788 4.45705 17.5102C4.9671 17.7701 5.53417 17.8875 6.23209 17.9445C6.91943 18.0007 7.77629 18.0007 8.87714 18.0007H8.87717H8.87719H8.87722H8.87724H8.87726H8.87729H8.87731H8.87734H8.87736H8.9H11.1H11.1226H11.1227H11.1227H11.1227H11.1227H11.1228H11.1228H11.1228H11.1228H11.1229C12.2237 18.0007 13.0806 18.0007 13.7679 17.9445C14.4658 17.8875 15.0329 17.7701 15.543 17.5102C16.3897 17.0788 17.0781 16.3903 17.5095 15.5436C17.7694 15.0336 17.8868 14.4665 17.9438 13.7686C18 13.0812 18 12.2242 18 11.1232V11.1007V8.90065V8.87806C18 7.77709 18 6.92014 17.9438 6.23274C17.8868 5.53481 17.7694 4.96775 17.5095 4.45769C17.0781 3.61096 16.3897 2.92255 15.543 2.49112C15.0489 2.2394 14.5014 2.12135 13.8333 2.06237V0.833984C13.8333 0.557842 13.6095 0.333984 13.3333 0.333984C13.0572 0.333984 12.8333 0.557842 12.8333 0.833984V2.01222C12.338 2.00065 11.7729 2.00065 11.1227 2.00065H11.1226H11.1H7.20588L7.16667 2.00065V0.833984ZM12.8333 3.33398V3.01246C12.3492 3.00079 11.7815 3.00065 11.1 3.00065H7.20588L7.16667 3.00065V3.33398C7.16667 3.61013 6.94281 3.83398 6.66667 3.83398C6.39053 3.83398 6.16667 3.61013 6.16667 3.33398V3.01814C6.11257 3.02239 6.06343 3.02766 6.01646 3.03421C4.46735 3.25031 3.24966 4.46799 3.03357 6.0171C3.00121 6.24905 3 6.53401 3 7.20653V11.1006C3 12.229 3.00039 13.0452 3.05284 13.6871C3.10481 14.3232 3.20539 14.744 3.38148 15.0896C3.71704 15.7482 4.25247 16.2836 4.91104 16.6192C5.25663 16.7953 5.67744 16.8958 6.31353 16.9478C6.95545 17.0003 7.77165 17.0007 8.9 17.0007H11.1C12.2284 17.0007 13.0446 17.0003 13.6865 16.9478C14.3226 16.8958 14.7434 16.7953 15.089 16.6192C15.7475 16.2836 16.283 15.7482 16.6185 15.0896C16.7946 14.744 16.8952 14.3232 16.9472 13.6871C16.9996 13.0452 17 12.229 17 11.1007V8.90065C17 7.7723 16.9996 6.9561 16.9472 6.31418C16.8952 5.67809 16.7946 5.25727 16.6185 4.91168C16.283 4.25312 15.7475 3.71769 15.089 3.38213C14.7707 3.21996 14.3886 3.12183 13.8333 3.06673V3.33398C13.8333 3.61013 13.6095 3.83398 13.3333 3.83398C13.0572 3.83398 12.8333 3.61013 12.8333 3.33398ZM5.83335 6.16732C5.5572 6.16732 5.33335 6.39118 5.33335 6.66732C5.33335 6.94346 5.5572 7.16732 5.83335 7.16732H14.1667C14.4428 7.16732 14.6667 6.94346 14.6667 6.66732C14.6667 6.39118 14.4428 6.16732 14.1667 6.16732H5.83335ZM7.50001 10.0007C7.50001 10.4609 7.12692 10.834 6.66668 10.834C6.20644 10.834 5.83335 10.4609 5.83335 10.0007C5.83335 9.54041 6.20644 9.16732 6.66668 9.16732C7.12692 9.16732 7.50001 9.54041 7.50001 10.0007ZM6.66668 14.1673C7.12692 14.1673 7.50001 13.7942 7.50001 13.334C7.50001 12.8737 7.12692 12.5007 6.66668 12.5007C6.20644 12.5007 5.83335 12.8737 5.83335 13.334C5.83335 13.7942 6.20644 14.1673 6.66668 14.1673ZM10.8333 13.334C10.8333 13.7942 10.4602 14.1673 10 14.1673C9.53978 14.1673 9.16668 13.7942 9.16668 13.334C9.16668 12.8737 9.53978 12.5007 10 12.5007C10.4602 12.5007 10.8333 12.8737 10.8333 13.334ZM13.3333 14.1673C13.7936 14.1673 14.1667 13.7942 14.1667 13.334C14.1667 12.8737 13.7936 12.5007 13.3333 12.5007C12.8731 12.5007 12.5 12.8737 12.5 13.334C12.5 13.7942 12.8731 14.1673 13.3333 14.1673ZM10.8333 10.0007C10.8333 10.4609 10.4602 10.834 10 10.834C9.53978 10.834 9.16668 10.4609 9.16668 10.0007C9.16668 9.54041 9.53978 9.16732 10 9.16732C10.4602 9.16732 10.8333 9.54041 10.8333 10.0007ZM13.3333 10.834C13.7936 10.834 14.1667 10.4609 14.1667 10.0007C14.1667 9.54041 13.7936 9.16732 13.3333 9.16732C12.8731 9.16732 12.5 9.54041 12.5 10.0007C12.5 10.4609 12.8731 10.834 13.3333 10.834Z" fill="currentColor"/>
</svg>