<svg xmlns="http://www.w3.org/2000/svg" width="18" height="18" viewBox="0 0 18 18" fill="none">
<path fill-rule="evenodd" clip-rule="evenodd" d="M9 0.750008L8.94422 0.750004C8.41424 0.749949 8.07308 0.749913 7.74128 0.79687C6.94657 0.909334 6.19333 1.22134 5.55187 1.70375C5.28404 1.90517 5.04283 2.14643 4.66812 2.52122L4.62868 2.56067L4.18922 3.00013C2.2871 3.01585 0.75 4.56267 0.75 6.4685L0.750001 9.75001L0.75 9.77739C0.749997 10.6861 0.749994 11.4063 0.789801 11.9897C0.830467 12.5857 0.91517 13.0936 1.11157 13.5678C1.59367 14.7316 2.51837 15.6563 3.68226 16.1384C4.15642 16.3348 4.66431 16.4195 5.26033 16.4602C5.84374 16.5 6.5639 16.5 7.47256 16.5H7.47262H7.5H10.5H10.5274H10.5275C11.4361 16.5 12.1563 16.5 12.7397 16.4602C13.3357 16.4195 13.8436 16.3348 14.3177 16.1384C15.4816 15.6563 16.4063 14.7316 16.8884 13.5678C17.0848 13.0936 17.1695 12.5857 17.2102 11.9897C17.25 11.4063 17.25 10.6861 17.25 9.77739V9.75001V6.4685C17.25 4.56267 15.7129 3.01585 13.8108 3.00013L13.3713 2.56067L13.3319 2.52122C12.9572 2.14643 12.716 1.90517 12.4481 1.70375C11.8067 1.22134 11.0534 0.909334 10.2587 0.796869C9.92692 0.749913 9.58575 0.749949 9.05577 0.750004L9 0.750008ZM7.95146 2.28207C8.16586 2.25173 8.39573 2.25001 9 2.25001C9.60427 2.25001 9.83413 2.25173 10.0485 2.28207C10.5923 2.35902 11.1077 2.5725 11.5466 2.90257C11.7196 3.03272 11.8834 3.19405 12.3107 3.62133L12.7706 4.08128C13.0387 4.34939 13.4023 4.50001 13.7815 4.50001C14.8687 4.50001 15.75 5.38133 15.75 6.4685V9.75001C15.75 10.6922 15.7496 11.3612 15.7137 11.8876C15.6782 12.4072 15.6107 12.7328 15.5026 12.9937C15.1728 13.7901 14.5401 14.4228 13.7437 14.7526C13.4828 14.8607 13.1572 14.9282 12.6376 14.9637C12.1112 14.9996 11.4421 15 10.5 15H7.5C6.55786 15 5.88881 14.9996 5.36243 14.9637C4.84279 14.9282 4.5172 14.8607 4.25628 14.7526C3.45994 14.4228 2.82725 13.7901 2.49739 12.9937C2.38931 12.7328 2.32178 12.4072 2.28632 11.8876C2.25041 11.3612 2.25 10.6922 2.25 9.75001L2.25 6.4685C2.25 5.38133 3.13132 4.50001 4.21849 4.50001C4.59765 4.50001 4.96128 4.34939 5.22939 4.08128L5.68934 3.62133C6.11662 3.19405 6.28038 3.03272 6.45344 2.90257C6.89234 2.5725 7.40772 2.35902 7.95146 2.28207ZM6.75 9.00001C6.75 7.75737 7.75736 6.75001 9 6.75001C10.2426 6.75001 11.25 7.75737 11.25 9.00001C11.25 10.2426 10.2426 11.25 9 11.25C7.75736 11.25 6.75 10.2426 6.75 9.00001ZM9 5.25001C6.92893 5.25001 5.25 6.92894 5.25 9.00001C5.25 11.0711 6.92893 12.75 9 12.75C11.0711 12.75 12.75 11.0711 12.75 9.00001C12.75 6.92894 11.0711 5.25001 9 5.25001Z" fill="#FF6A24"/>
</svg>