<svg width="22" height="21" viewBox="0 0 22 21" fill="none" xmlns="http://www.w3.org/2000/svg">
<path d="M11.3486 0.500012C12.3031 0.500012 12.8623 0.496528 13.3936 0.624036C13.8527 0.734266 14.2917 0.916389 14.6943 1.1631L14.8662 1.2754C15.2628 1.55196 15.6378 1.92979 16.2285 2.52052L17.0879 3.38087L17.1504 3.43165C17.2165 3.47567 17.2944 3.49995 17.375 3.50001C19.653 3.50001 21.5 5.34704 21.5 7.62501L21.5 13.5996C21.5 14.7113 21.4999 15.5756 21.4434 16.2676C21.3935 16.8782 21.2979 17.3889 21.1006 17.8486L21.0098 18.043C20.6322 18.784 20.0576 19.4036 19.3525 19.836L19.043 20.0098C18.5329 20.2696 17.9655 20.3864 17.2676 20.4434C16.5755 20.4999 15.7113 20.5 14.5996 20.5L7.40039 20.5C6.28869 20.5 5.42446 20.4999 4.73242 20.4434C4.12184 20.3935 3.61108 20.2979 3.15136 20.1006L2.95703 20.0098C2.1103 19.5783 1.42166 18.8897 0.990231 18.043C0.730382 17.5329 0.613657 16.9655 0.556638 16.2676C0.500117 15.5755 0.499998 14.7113 0.499998 13.5996L0.499999 7.62501C0.500011 5.34704 2.34702 3.50001 4.625 3.50001C4.7326 3.49992 4.83602 3.45696 4.91211 3.38087L5.77148 2.52052C6.44645 1.84555 6.83981 1.44858 7.30566 1.1631L7.61426 0.990246C7.92905 0.829891 8.26213 0.706699 8.60645 0.624035L8.80762 0.582043C9.28351 0.497227 9.81618 0.500012 10.6514 0.500012L11.3486 0.500012ZM10.6514 1.50001C9.77449 1.50001 9.34317 1.5022 8.98828 1.56544L8.83984 1.59669C8.57202 1.66099 8.31322 1.75711 8.06836 1.88185L7.82812 2.01564C7.57194 2.17263 7.3397 2.37774 6.94043 2.76954L6.47949 3.22853L5.61914 4.0879C5.35551 4.35153 4.99781 4.49992 4.625 4.50001C2.89931 4.50001 1.50001 5.89932 1.5 7.62501L1.5 13.5996C1.5 14.728 1.50029 15.5446 1.55273 16.1865C1.6047 16.8226 1.70576 17.2433 1.88183 17.5889C2.21738 18.2474 2.75262 18.7826 3.41113 19.1182L3.54394 19.1807C3.8648 19.3187 4.2566 19.4018 4.81347 19.4473C5.4554 19.4997 6.27203 19.5 7.40039 19.5L14.5996 19.5C15.728 19.5 16.5446 19.4997 17.1865 19.4473C17.8226 19.3953 18.2433 19.2943 18.5889 19.1182L18.8301 18.9834C19.3783 18.6471 19.8246 18.1651 20.1182 17.5889L20.1807 17.4561C20.3187 17.1352 20.4018 16.7434 20.4473 16.1865C20.4997 15.5446 20.5 14.728 20.5 13.5996L20.5 7.62501C20.5 5.89932 19.1007 4.50001 17.375 4.50001C17.0489 4.49993 16.7345 4.38652 16.4844 4.18165L16.3809 4.0879L15.5205 3.22853C14.9004 2.6084 14.5945 2.30487 14.2988 2.09865L14.1719 2.01564C13.8587 1.82376 13.5173 1.68242 13.1602 1.59669C12.7707 1.50321 12.3507 1.50001 11.3486 1.50001L10.6514 1.50001ZM11 6.50001C13.4853 6.50001 15.5 8.51474 15.5 11C15.5 13.4853 13.4853 15.5 11 15.5C8.51472 15.5 6.5 13.4853 6.5 11C6.50001 8.51474 8.51472 6.50001 11 6.50001ZM11 7.50001C9.06701 7.50001 7.50001 9.06703 7.5 11C7.5 12.933 9.067 14.5 11 14.5C12.933 14.5 14.5 12.933 14.5 11C14.5 9.06703 12.933 7.50001 11 7.50001Z" fill="currentColor"/>
</svg>
