<svg width="19" height="19" viewBox="0 0 19 19" fill="none" xmlns="http://www.w3.org/2000/svg">
<path d="M10.9 8.43445H9.85521V6.9649C9.85521 6.40343 9.53154 5.94824 9.13229 5.94824C8.73305 5.94824 8.40938 6.40343 8.40938 6.9649V8.43445H7.36452C6.96528 8.43445 6.6416 8.88964 6.6416 9.45111V14.423C6.6416 14.9844 6.96528 15.4396 7.36452 15.4396H8.40938V16.992C8.40938 17.5535 8.73305 18.0087 9.13229 18.0087C9.53154 18.0087 9.85521 17.5535 9.85521 16.992V15.4396H10.9C11.2993 15.4396 11.6229 14.9844 11.6229 14.423V9.45111C11.6229 8.88964 11.2993 8.43445 10.9 8.43445Z" fill="#EB000D"/>
<path d="M17.5416 4.90715H16.4968V3.58364C16.4968 3.07795 16.1731 2.66797 15.7739 2.66797C15.3747 2.66797 15.051 3.07795 15.051 3.58364V4.90715H14.0061C13.6069 4.90715 13.2832 5.31713 13.2832 5.82283V10.3008C13.2832 10.8065 13.6069 11.2165 14.0061 11.2165H15.051V17.0932C15.051 17.5989 15.3747 18.0088 15.7739 18.0088C16.1731 18.0088 16.4968 17.5989 16.4968 17.0932V11.2165H17.5416C17.9409 11.2165 18.2645 10.8065 18.2645 10.3008V5.82283C18.2645 5.31713 17.9409 4.90715 17.5416 4.90715Z" fill="#069C06"/>
<path d="M4.29825 5.90492H3.24371V1.42588C3.24371 1.0278 2.917 0.705078 2.51402 0.705078C2.11104 0.705078 1.78433 1.0278 1.78433 1.42588V5.90492H0.729688C0.326706 5.90492 0 6.22765 0 6.62572V12.0307C0 12.4287 0.326706 12.7515 0.729688 12.7515H1.78433V13.7933C1.78433 14.1914 2.11104 14.5141 2.51402 14.5141C2.917 14.5141 3.24371 14.1914 3.24371 13.7933V12.7515H4.2983C4.70128 12.7515 5.02799 12.4287 5.02799 12.0307V6.62572C5.02794 6.22765 4.70128 5.90492 4.29825 5.90492Z" fill="#069C06"/>
</svg>
