<svg width="64" height="64" viewBox="0 0 64 64" fill="none" xmlns="http://www.w3.org/2000/svg">
<path d="M15.3804 5.99951H45.9516C48.1192 5.99949 49.8675 5.99948 51.2833 6.11515C52.741 6.23425 54.0213 6.48588 55.2059 7.08945C57.0875 8.04818 58.6173 9.57799 59.5761 11.4596C60.1797 12.6442 60.4313 13.9246 60.5504 15.3823C60.6531 16.639 60.6646 18.1578 60.6659 19.9993C60.6661 20.3675 60.3675 20.6663 59.9994 20.6663H1.33268C0.96449 20.6663 0.665918 20.3675 0.666173 19.9993C0.667452 18.1578 0.678972 16.639 0.781653 15.3823C0.900753 13.9246 1.15238 12.6442 1.75595 11.4596C2.71469 9.57799 4.24449 8.04818 6.12612 7.08945C7.3107 6.48587 8.59107 6.23425 10.0488 6.11515C11.4645 5.99948 13.2129 5.99949 15.3804 5.99951Z" fill="currentColor"/>
<path fill-rule="evenodd" clip-rule="evenodd" d="M1.33268 24.6663C0.964495 24.6663 0.666016 24.9647 0.666016 25.3329V37.9518C0.665999 40.1193 0.665985 41.8677 0.781655 43.2834C0.900755 44.7411 1.15238 46.0215 1.75595 47.2061C2.71469 49.0877 4.2445 50.6175 6.12612 51.5762C7.3107 52.1798 8.59107 52.4314 10.0488 52.5505C11.4645 52.6662 13.2128 52.6662 15.3804 52.6662H34.794C35.3933 52.6662 35.9609 52.3975 36.3408 51.934C36.7207 51.4706 36.8727 50.8612 36.7551 50.2736C36.522 49.109 36.3993 47.9029 36.3993 46.6662C36.3993 36.5778 44.5776 28.3995 54.666 28.3995C55.9028 28.3995 57.1089 28.5221 58.2734 28.7553C58.861 28.8729 59.4704 28.7208 59.9339 28.341C60.3973 27.9611 60.666 27.3934 60.666 26.7942V25.3329C60.666 24.9647 60.3675 24.6663 59.9994 24.6663H1.33268ZM23.9993 36.6663C25.1039 36.6663 25.9993 37.5617 25.9993 38.6663C25.9993 39.7708 25.1039 40.6663 23.9993 40.6663H11.9993C10.8948 40.6663 9.99935 39.7708 9.99935 38.6663C9.99935 37.5617 10.8948 36.6663 11.9993 36.6663H23.9993Z" fill="currentColor"/>
<path d="M51.3327 55.9995C51.3327 57.1041 52.2281 57.9995 53.3327 57.9995C54.4373 57.9995 55.3327 57.1041 55.3327 55.9995L55.3327 42.1613L59.9185 46.7471C60.6995 47.5281 61.9658 47.5281 62.7469 46.7471C63.5279 45.966 63.5279 44.6997 62.7469 43.9186L54.7469 35.9186C54.3718 35.5436 53.8631 35.3328 53.3327 35.3328C52.8023 35.3328 52.2935 35.5436 51.9185 35.9186L43.9185 43.9186C43.1374 44.6997 43.1374 45.966 43.9185 46.7471C44.6995 47.5281 45.9658 47.5281 46.7469 46.7471L51.3327 42.1613L51.3327 55.9995Z" fill="currentColor"/>
</svg>
