<svg width="64" height="64" viewBox="0 0 64 64" fill="none" xmlns="http://www.w3.org/2000/svg">
<path d="M15.3804 6H45.9516C48.1192 5.99998 49.8675 5.99997 51.2833 6.11564C52.741 6.23474 54.0213 6.48636 55.2059 7.08994C57.0875 8.04867 58.6173 9.57848 59.5761 11.4601C60.1797 12.6447 60.4313 13.9251 60.5504 15.3828C60.6531 16.6395 60.6646 18.1583 60.6659 19.9997C60.6661 20.3679 60.3675 20.6667 59.9994 20.6667H1.33268C0.96449 20.6667 0.665918 20.3679 0.666174 19.9997C0.667454 18.1583 0.678975 16.6395 0.781654 15.3828C0.900753 13.9251 1.15238 12.6447 1.75595 11.4601C2.71469 9.57848 4.24449 8.04867 6.12611 7.08994C7.3107 6.48636 8.59107 6.23474 10.0488 6.11564C11.4645 5.99997 13.2129 5.99998 15.3804 6Z" fill="currentColor"/>
<path fill-rule="evenodd" clip-rule="evenodd" d="M1.33268 24.6667C0.964495 24.6667 0.666016 24.9651 0.666016 25.3333V37.9523C0.665998 40.1198 0.665983 41.8682 0.781654 43.2839C0.900753 44.7416 1.15238 46.022 1.75595 47.2066C2.71469 49.0882 4.24449 50.618 6.12612 51.5767C7.3107 52.1803 8.59107 52.4319 10.0488 52.551C11.4645 52.6667 13.2128 52.6667 15.3804 52.6667H34.794C35.3933 52.6667 35.9609 52.398 36.3408 51.9345C36.7207 51.4711 36.8727 50.8617 36.7551 50.2741C36.522 49.1095 36.3993 47.9034 36.3993 46.6667C36.3993 36.5783 44.5776 28.4 54.666 28.4C55.9028 28.4 57.1089 28.5226 58.2734 28.7558C58.861 28.8734 59.4704 28.7213 59.9339 28.3415C60.3973 27.9616 60.666 27.3939 60.666 26.7947V25.3333C60.666 24.9651 60.3675 24.6667 59.9994 24.6667H1.33268ZM23.9993 36.6667C25.1039 36.6667 25.9993 37.5621 25.9993 38.6667C25.9993 39.7712 25.1039 40.6667 23.9993 40.6667H11.9993C10.8948 40.6667 9.99935 39.7712 9.99935 38.6667C9.99935 37.5621 10.8948 36.6667 11.9993 36.6667H23.9993Z" fill="currentColor"/>
<path d="M55.3327 37.3333C55.3327 36.2288 54.4373 35.3333 53.3327 35.3333C52.2281 35.3333 51.3327 36.2288 51.3327 37.3333V51.1716L46.7469 46.5858C45.9658 45.8047 44.6995 45.8047 43.9185 46.5858C43.1374 47.3668 43.1374 48.6332 43.9185 49.4142L51.9185 57.4142C52.2935 57.7893 52.8023 58 53.3327 58C53.8631 58 54.3718 57.7893 54.7469 57.4142L62.7469 49.4142C63.5279 48.6332 63.5279 47.3668 62.7469 46.5858C61.9658 45.8047 60.6995 45.8047 59.9185 46.5858L55.3327 51.1716V37.3333Z" fill="currentColor"/>
</svg>
