<svg width="24" height="24" viewBox="0 0 24 24" fill="none" xmlns="http://www.w3.org/2000/svg">
<path d="M12 5.56006H22" stroke="url(#paint0_linear_1339_26725)" stroke-miterlimit="10" stroke-linecap="round" stroke-linejoin="round"/>
<path d="M14.22 2H19.78C21.56 2 22 2.44 22 4.2V8.31C22 10.07 21.56 10.51 19.78 10.51H14.22C12.44 10.51 12 10.07 12 8.31V4.2C12 2.44 12.44 2 14.22 2Z" stroke="url(#paint1_linear_1339_26725)" stroke-linecap="round" stroke-linejoin="round"/>
<path d="M2 17.0601H12" stroke="url(#paint2_linear_1339_26725)" stroke-miterlimit="10" stroke-linecap="round" stroke-linejoin="round"/>
<path d="M4.22 13.5H9.78C11.56 13.5 12 13.94 12 15.7V19.81C12 21.57 11.56 22.01 9.78 22.01H4.22C2.44 22.01 2 21.57 2 19.81V15.7C2 13.94 2.44 13.5 4.22 13.5Z" stroke="url(#paint3_linear_1339_26725)" stroke-linecap="round" stroke-linejoin="round"/>
<path d="M22 15C22 18.87 18.87 22 15 22L16.05 20.25" stroke="url(#paint4_linear_1339_26725)" stroke-linecap="round" stroke-linejoin="round"/>
<path d="M2 9C2 5.13 5.13 2 9 2L7.95001 3.75" stroke="url(#paint5_linear_1339_26725)" stroke-linecap="round" stroke-linejoin="round"/>
<defs>
<linearGradient id="paint0_linear_1339_26725" x1="12" y1="5.56006" x2="12.198" y2="7.54026" gradientUnits="userSpaceOnUse">
<stop stop-color="currentColor"/>
<stop offset="1" stop-color="currentColor"/>
</linearGradient>
<linearGradient id="paint1_linear_1339_26725" x1="12" y1="2" x2="20.4004" y2="11.8712" gradientUnits="userSpaceOnUse">
<stop stop-color="currentColor"/>
<stop offset="1" stop-color="currentColor"/>
</linearGradient>
<linearGradient id="paint2_linear_1339_26725" x1="2" y1="17.0601" x2="2.19802" y2="19.0403" gradientUnits="userSpaceOnUse">
<stop stop-color="currentColor"/>
<stop offset="1" stop-color="currentColor"/>
</linearGradient>
<linearGradient id="paint3_linear_1339_26725" x1="2" y1="13.5" x2="10.4004" y2="23.3712" gradientUnits="userSpaceOnUse">
<stop stop-color="currentColor"/>
<stop offset="1" stop-color="currentColor"/>
</linearGradient>
<linearGradient id="paint4_linear_1339_26725" x1="15" y1="15" x2="22" y2="22" gradientUnits="userSpaceOnUse">
<stop stop-color="currentColor"/>
<stop offset="1" stop-color="currentColor"/>
</linearGradient>
<linearGradient id="paint5_linear_1339_26725" x1="2" y1="2" x2="9" y2="9" gradientUnits="userSpaceOnUse">
<stop stop-color="currentColor"/>
<stop offset="1" stop-color="currentColor"/>
</linearGradient>
</defs>
</svg>
