<svg width="24" height="24" viewBox="0 0 24 24" fill="none" xmlns="http://www.w3.org/2000/svg">
<path d="M9.5 13.7502C9.5 14.7202 10.25 15.5002 11.17 15.5002H13.05C13.85 15.5002 14.5 14.8202 14.5 13.9702C14.5 13.0602 14.1 12.7302 13.51 12.5202L10.5 11.4702C9.91 11.2602 9.51001 10.9402 9.51001 10.0202C9.51001 9.18023 10.16 8.49023 10.96 8.49023H12.84C13.76 8.49023 14.51 9.27023 14.51 10.2402" stroke="#FF6A24" stroke-width="1.5" stroke-linecap="round" stroke-linejoin="round"/>
<path d="M12 7.5V16.5" stroke="#FF6A24" stroke-width="1.5" stroke-linecap="round" stroke-linejoin="round"/>
<path d="M16 2.21973H21.34C21.98 2.21973 22.5 2.7397 22.5 3.3797V4.65973" stroke="#FF6A24" stroke-width="1.5" stroke-miterlimit="10" stroke-linecap="round" stroke-linejoin="round"/>
<path d="M17.22 1L16 2.21997L17.22 3.43994" stroke="#FF6A24" stroke-width="1.5" stroke-miterlimit="10" stroke-linecap="round" stroke-linejoin="round"/>
<path d="M22.5 7.50006H17.16C16.52 7.50006 16 6.98003 16 6.34003V5.06006" stroke="#FF6A24" stroke-width="1.5" stroke-miterlimit="10" stroke-linecap="round" stroke-linejoin="round"/>
<path d="M21.28 8.71979L22.5 7.49982L21.28 6.27979" stroke="#FF6A24" stroke-width="1.5" stroke-miterlimit="10" stroke-linecap="round" stroke-linejoin="round"/>
<path d="M22 12V17.61C22 21.12 21.11 22 17.56 22H6.44C2.89 22 2 21.12 2 17.61V6.39C2 2.88 2.89 2 6.44 2H11.5" stroke="#DEDEDE" stroke-width="1.5" stroke-linecap="round" stroke-linejoin="round"/>
</svg>
