<svg width="24" height="24" viewBox="0 0 24 24" fill="none" xmlns="http://www.w3.org/2000/svg">
<path d="M9.5 13.75C9.5 14.72 10.25 15.5 11.17 15.5H13.05C13.85 15.5 14.5 14.82 14.5 13.97C14.5 13.06 14.1 12.73 13.51 12.52L10.5 11.47C9.91 11.26 9.51001 10.94 9.51001 10.02C9.51001 9.17999 10.16 8.48999 10.96 8.48999H12.84C13.76 8.48999 14.51 9.26999 14.51 10.24" stroke="#FF6A24" stroke-width="1.5" stroke-linecap="round" stroke-linejoin="round"/>
<path d="M12 7.5V16.5" stroke="#FF6A24" stroke-width="1.5" stroke-linecap="round" stroke-linejoin="round"/>
<path d="M16 2.21997H21.34C21.98 2.21997 22.5 2.73994 22.5 3.37994V4.65997" stroke="#FF6A24" stroke-width="1.5" stroke-miterlimit="10" stroke-linecap="round" stroke-linejoin="round"/>
<path d="M17.22 1L16 2.21997L17.22 3.43994" stroke="#FF6A24" stroke-width="1.5" stroke-miterlimit="10" stroke-linecap="round" stroke-linejoin="round"/>
<path d="M22.5 7.5H17.16C16.52 7.5 16 6.97997 16 6.33997V5.06" stroke="#FF6A24" stroke-width="1.5" stroke-miterlimit="10" stroke-linecap="round" stroke-linejoin="round"/>
<path d="M21.28 8.71997L22.5 7.5L21.28 6.27997" stroke="#FF6A24" stroke-width="1.5" stroke-miterlimit="10" stroke-linecap="round" stroke-linejoin="round"/>
<path className="theme" d="M22 12V17.61C22 21.12 21.11 22 17.56 22H6.44C2.89 22 2 21.12 2 17.61V6.39C2 2.88 2.89 2 6.44 2H11.5" stroke="#DEDEDE" stroke-width="1.5" stroke-linecap="round" stroke-linejoin="round"/>
</svg>
