<svg width="64" height="32" viewBox="0 0 64 32" fill="none" xmlns="http://www.w3.org/2000/svg">
<path fill-rule="evenodd" clip-rule="evenodd" d="M43.3372 10.3331C43.152 9.96265 42.7018 9.81201 42.3314 9.99715L31.9993 15.1622L21.6683 9.99715C21.2979 9.81221 20.8476 9.96274 20.6624 10.3331C20.4775 10.7035 20.628 11.1538 20.9984 11.339L31.6644 16.672C31.8755 16.7775 32.1241 16.7775 32.3353 16.672L43.0023 11.339C43.3726 11.1537 43.5222 10.7035 43.3372 10.3331ZM48.6709 15.6664C48.4857 15.2961 48.0354 15.1455 47.665 15.3305L32 23.1625L16.3349 15.3305C15.9645 15.1455 15.5143 15.2961 15.3291 15.6664C15.1441 16.0368 15.2947 16.4871 15.665 16.6723L31.5752 24.6274C31.8426 24.7611 32.1573 24.7611 32.4248 24.6274L48.3349 16.6723C48.7053 16.4871 48.8558 16.0368 48.6709 15.6664Z" fill="#0A2762"/>
</svg>
