<svg width="64" height="32" viewBox="0 0 64 32" fill="none" xmlns="http://www.w3.org/2000/svg">
<path d="M47.7354 15.2995C48.0907 15.1649 48.4973 15.3186 48.6709 15.6657C48.8443 16.0129 48.7232 16.43 48.4024 16.6335L48.335 16.6716L32.4248 24.6267C32.1574 24.7604 31.8427 24.7604 31.5752 24.6267L15.6651 16.6716L15.5977 16.6335C15.2769 16.43 15.1558 16.0129 15.3291 15.6657C15.5027 15.3185 15.9093 15.165 16.2647 15.2995L16.335 15.3298L32 23.1618L47.6651 15.3298L47.7354 15.2995ZM42.4014 9.9665C42.7568 9.83169 43.1633 9.98537 43.3369 10.3327C43.522 10.7031 43.3723 11.1533 43.002 11.3386L32.335 16.6716C32.1239 16.7769 31.8751 16.7771 31.6641 16.6716L20.9981 11.3386L20.9307 11.3005C20.6101 11.0971 20.4891 10.6798 20.6621 10.3327C20.8357 9.98556 21.2424 9.83209 21.5977 9.9665L21.668 9.99678L31.999 15.1618L42.3311 9.99678L42.4014 9.9665Z" fill="url(#paint0_linear_6787_167019)"/>
<defs>
<linearGradient id="paint0_linear_6787_167019" x1="15.25" y1="9.91797" x2="26.2026" y2="34.6943" gradientUnits="userSpaceOnUse">
<stop stop-color="#FA9528"/>
<stop offset="1" stop-color="#F76F08"/>
</linearGradient>
</defs>
</svg>
