<svg xmlns="http://www.w3.org/2000/svg" width="39" height="39" viewBox="0 0 39 39" fill="none">
  <path fill-rule="evenodd" clip-rule="evenodd" d="M5.875 19.5C5.875 11.9751 11.9751 5.875 19.5 5.875C27.0249 5.875 33.125 11.9751 33.125 19.5C33.125 27.0249 27.0249 33.125 19.5 33.125C11.9751 33.125 5.875 27.0249 5.875 19.5ZM19.5 3.875C10.8706 3.875 3.875 10.8706 3.875 19.5C3.875 28.1294 10.8706 35.125 19.5 35.125C28.1294 35.125 35.125 28.1294 35.125 19.5C35.125 10.8706 28.1294 3.875 19.5 3.875ZM26.7071 15.3321C27.0976 14.9416 27.0976 14.3084 26.7071 13.9179C26.3166 13.5274 25.6834 13.5274 25.2929 13.9179L17.875 21.3358L15.3321 18.7929C14.9416 18.4024 14.3084 18.4024 13.9179 18.7929C13.5274 19.1834 13.5274 19.8166 13.9179 20.2071L17.1679 23.4571C17.3554 23.6446 17.6098 23.75 17.875 23.75C18.1402 23.75 18.3946 23.6446 18.5821 23.4571L26.7071 15.3321Z" fill="#09E384"/>
</svg>