<svg xmlns="http://www.w3.org/2000/svg" width="79" height="79" viewBox="0 0 79 79" fill="none">
<path fill-rule="evenodd" clip-rule="evenodd" d="M11.375 39.5C11.375 23.967 23.967 11.375 39.5 11.375C43.9928 11.375 48.2356 12.4274 51.9991 14.2977C52.741 14.6664 53.6413 14.3638 54.0099 13.622C54.3786 12.8801 54.0761 11.9798 53.3342 11.6111C49.1651 9.53928 44.4664 8.375 39.5 8.375C22.3101 8.375 8.375 22.3101 8.375 39.5C8.375 56.6899 22.3101 70.625 39.5 70.625C56.6899 70.625 70.625 56.6899 70.625 39.5C70.625 38.3322 70.5606 37.1789 70.4351 36.0435C70.3441 35.2201 69.6028 34.6264 68.7794 34.7174C67.956 34.8084 67.3623 35.5497 67.4533 36.3731C67.5667 37.3993 67.625 38.4426 67.625 39.5C67.625 55.033 55.033 67.625 39.5 67.625C23.967 67.625 11.375 55.033 11.375 39.5ZM70.1857 17.519C70.7714 16.9332 70.7714 15.9835 70.1857 15.3977C69.5999 14.8119 68.6501 14.8119 68.0643 15.3977L39.5 43.962L30.6857 35.1477C30.0999 34.5619 29.1501 34.5619 28.5643 35.1477C27.9786 35.7335 27.9786 36.6832 28.5643 37.269L38.4393 47.144C38.7206 47.4253 39.1022 47.5833 39.5 47.5833C39.8978 47.5833 40.2794 47.4253 40.5607 47.144L70.1857 17.519Z" fill="currentColor"/>
</svg>