<svg width="160" height="160" viewBox="0 0 160 160" fill="none" xmlns="http://www.w3.org/2000/svg">
<path d="M80 17.5C89.6618 17.5 98.8179 19.6941 106.991 23.6133L107.779 23.998L108.002 24.123C109.074 24.7986 109.481 26.1903 108.905 27.3496C108.329 28.5085 106.975 29.0242 105.789 28.5781L105.554 28.4756L104.83 28.1221C97.3165 24.5191 88.8974 22.5 80 22.5C48.2436 22.5 22.5 48.2436 22.5 80C22.5 111.756 48.2436 137.5 80 137.5C111.756 137.5 137.5 111.756 137.5 80C137.5 78.1088 137.409 76.2396 137.23 74.3965L137.149 73.6084L137.134 73.3525C137.123 72.0855 138.073 70.9909 139.359 70.8486C140.646 70.7065 141.812 71.5669 142.078 72.8057L142.119 73.0586L142.207 73.915C142.401 75.9179 142.5 77.9477 142.5 80C142.5 114.518 114.518 142.5 80 142.5C45.4822 142.5 17.5 114.518 17.5 80C17.5 45.4822 45.4822 17.5 80 17.5ZM138.232 31.5654C139.209 30.5893 140.791 30.5893 141.768 31.5654C142.744 32.5417 142.744 34.1243 141.768 35.1006L81.7676 95.1006C80.7913 96.0769 79.2087 96.0769 78.2324 95.1006L58.2324 75.1006L58.0605 74.9111C57.2597 73.9292 57.3172 72.4807 58.2324 71.5654C59.1477 70.6503 60.5962 70.5928 61.5781 71.3936L61.7676 71.5654L80 89.7979L138.232 31.5654Z" fill="#09E384"/>
</svg>
