<svg width="44" height="44" viewBox="0 0 44 44" fill="none" xmlns="http://www.w3.org/2000/svg">
<rect x="10" y="10" width="24" height="24" rx="8" fill="#0A2762"/>
<rect x="10.5" y="10.5" width="23" height="23" rx="7.5" stroke="url(#paint0_linear_19765_121464)" style="mix-blend-mode:overlay"/>
<path d="M26.9619 17.6621C27.1485 17.4586 27.4654 17.4452 27.6689 17.6318C27.8721 17.8185 27.8857 18.1345 27.6992 18.3379L20.3662 26.3379C20.2741 26.4384 20.1442 26.497 20.0078 26.5C19.8716 26.5028 19.7399 26.4498 19.6436 26.3535L16.3105 23.0205C16.1153 22.8253 16.1154 22.5088 16.3105 22.3135C16.5058 22.1182 16.8223 22.1182 17.0176 22.3135L19.9814 25.2773L26.9619 17.6621Z" fill="white"/>
<defs>
<linearGradient id="paint0_linear_19765_121464" x1="11.2923" y1="13.7251" x2="19.5802" y2="31.7544" gradientUnits="userSpaceOnUse">
<stop stop-color="white" stop-opacity="0.5"/>
<stop offset="0.352567" stop-color="white" stop-opacity="0.05"/>
<stop offset="0.646925" stop-color="white" stop-opacity="0.05"/>
<stop offset="1" stop-color="white" stop-opacity="0.54"/>
</linearGradient>
</defs>
</svg>