<svg xmlns="http://www.w3.org/2000/svg" width="20" height="20" viewBox="0 0 20 20" fill="none">
<path fill-rule="evenodd" clip-rule="evenodd" d="M3 10C3 6.13401 6.13401 3 10 3C13.866 3 17 6.13401 17 10C17 13.866 13.866 17 10 17C6.13401 17 3 13.866 3 10ZM10 2C5.58172 2 2 5.58172 2 10C2 14.4183 5.58172 18 10 18C14.4183 18 18 14.4183 18 10C18 5.58172 14.4183 2 10 2ZM13.6869 7.85355C13.8821 7.65829 13.8821 7.34171 13.6869 7.14645C13.4916 6.95118 13.175 6.95118 12.9798 7.14645L9.16667 10.9596L7.85355 9.64645C7.65829 9.45118 7.34171 9.45118 7.14645 9.64645C6.95118 9.84171 6.95118 10.1583 7.14645 10.3536L8.81311 12.0202C8.90688 12.114 9.03406 12.1667 9.16667 12.1667C9.29927 12.1667 9.42645 12.114 9.52022 12.0202L13.6869 7.85355Z" fill="#09E384"/>
</svg>