<svg width="44" height="44" viewBox="0 0 44 44" fill="none" xmlns="http://www.w3.org/2000/svg">
<g filter="url(#filter0_dd_3371_37235)">
<rect x="10" y="10" width="24" height="24" rx="8" fill="url(#paint0_linear_3371_37235)"/>
<rect x="10.5" y="10.5" width="23" height="23" rx="7.5" stroke="#222222"/>
</g>
<path fill-rule="evenodd" clip-rule="evenodd" d="M27.6705 17.6314C27.8741 17.818 27.8879 18.1343 27.7013 18.3379L20.3679 26.3379C20.2758 26.4384 20.1466 26.4969 20.0102 26.4999C19.8739 26.5028 19.7422 26.45 19.6458 26.3536L16.3125 23.0202C16.1172 22.825 16.1172 22.5084 16.3125 22.3131C16.5077 22.1179 16.8243 22.1179 17.0196 22.3131L19.9836 25.2772L26.9641 17.6621C27.1507 17.4586 27.467 17.4448 27.6705 17.6314Z" fill="black"/>
<defs>
<filter id="filter0_dd_3371_37235" x="0" y="0" width="44" height="44" filterUnits="userSpaceOnUse" color-interpolation-filters="sRGB">
<feFlood flood-opacity="0" result="BackgroundImageFix"/>
<feColorMatrix in="SourceAlpha" type="matrix" values="0 0 0 0 0 0 0 0 0 0 0 0 0 0 0 0 0 0 127 0" result="hardAlpha"/>
<feOffset dx="-5" dy="-5"/>
<feGaussianBlur stdDeviation="2.5"/>
<feComposite in2="hardAlpha" operator="out"/>
<feColorMatrix type="matrix" values="0 0 0 0 0 0 0 0 0 0 0 0 0 0 0 0 0 0 0.25 0"/>
<feBlend mode="normal" in2="BackgroundImageFix" result="effect1_dropShadow_3371_37235"/>
<feColorMatrix in="SourceAlpha" type="matrix" values="0 0 0 0 0 0 0 0 0 0 0 0 0 0 0 0 0 0 127 0" result="hardAlpha"/>
<feOffset dx="5" dy="5"/>
<feGaussianBlur stdDeviation="2.5"/>
<feComposite in2="hardAlpha" operator="out"/>
<feColorMatrix type="matrix" values="0 0 0 0 0 0 0 0 0 0 0 0 0 0 0 0 0 0 0.25 0"/>
<feBlend mode="normal" in2="effect1_dropShadow_3371_37235" result="effect2_dropShadow_3371_37235"/>
<feBlend mode="normal" in="SourceGraphic" in2="effect2_dropShadow_3371_37235" result="shape"/>
</filter>
<linearGradient id="paint0_linear_3371_37235" x1="10" y1="10" x2="34" y2="34" gradientUnits="userSpaceOnUse">
<stop stop-color="#FA9528"/>
<stop offset="1" stop-color="#F76F08"/>
</linearGradient>
</defs>
</svg>
