<svg xmlns="http://www.w3.org/2000/svg" width="24" height="24" viewBox="0 0 24 24" fill="none">
  <path d="M12 2.5C13.5157 2.5 14.9501 2.85492 16.2227 3.4873C16.4699 3.61019 16.5711 3.91092 16.4482 4.1582C16.3253 4.40549 16.0246 4.5057 15.7773 4.38281C14.6401 3.81768 13.3578 3.5 12 3.5C7.30558 3.5 3.5 7.30558 3.5 12C3.5 16.6944 7.30558 20.5 12 20.5C16.6944 20.5 20.5 16.6944 20.5 12C20.5 11.6804 20.4825 11.3648 20.4482 11.0547C20.4181 10.7805 20.6155 10.5335 20.8896 10.5029C21.1641 10.4726 21.412 10.6708 21.4424 10.9453C21.4807 11.2918 21.5 11.6437 21.5 12C21.5 17.2467 17.2467 21.5 12 21.5C6.75329 21.5 2.5 17.2467 2.5 12C2.5 6.75329 6.75329 2.5 12 2.5ZM20.6465 4.64648C20.8417 4.45122 21.1583 4.45122 21.3535 4.64648C21.5488 4.84175 21.5488 5.15825 21.3535 5.35352L12.3535 14.3535C12.2597 14.4473 12.1326 14.5 12 14.5C11.8674 14.5 11.7403 14.4473 11.6465 14.3535L8.64648 11.3535C8.45122 11.1583 8.45122 10.8417 8.64648 10.6465C8.84175 10.4512 9.15825 10.4512 9.35352 10.6465L12 13.293L20.6465 4.64648Z" fill="#FA9528"/>
</svg>