<svg xmlns="http://www.w3.org/2000/svg" width="20" height="20" viewBox="0 0 20 20" fill="none">
  <path d="M10 2C11.2763 2 12.484 2.29945 13.5557 2.83203C13.8029 2.95489 13.904 3.2547 13.7812 3.50195C13.6584 3.74924 13.3576 3.85043 13.1104 3.72754C12.1739 3.26221 11.1183 3 10 3C6.13401 3 3 6.13401 3 10C3 13.866 6.13401 17 10 17C13.866 17 17 13.866 17 10C17 9.73673 16.9853 9.47707 16.957 9.22168C16.9267 8.94721 17.1249 8.70026 17.3994 8.66992C17.6737 8.63965 17.9206 8.8371 17.9512 9.11133C17.9834 9.40315 18 9.69994 18 10C18 14.4183 14.4183 18 10 18C5.58172 18 2 14.4183 2 10C2 5.58172 5.58172 2 10 2ZM17.1465 3.81348C17.3417 3.61821 17.6583 3.61821 17.8535 3.81348C18.0486 4.00875 18.0487 4.3253 17.8535 4.52051L10.3535 12.0205C10.2598 12.1142 10.1325 12.167 10 12.167C9.86747 12.167 9.74024 12.1142 9.64648 12.0205L7.14648 9.52051C6.95128 9.3253 6.95138 9.00875 7.14648 8.81348C7.34175 8.61821 7.65825 8.61821 7.85352 8.81348L10 10.96L17.1465 3.81348Z" fill="url(#paint0_linear_846_50432)"/>
  <defs>
    <linearGradient id="paint0_linear_846_50432" x1="2" y1="2" x2="18" y2="18" gradientUnits="userSpaceOnUse">
      <stop stop-color="#FA9528"/>
      <stop offset="1" stop-color="#F76F08"/>
    </linearGradient>
  </defs>
</svg>