<svg width="24" height="24" viewBox="0 0 24 24" fill="none" xmlns="http://www.w3.org/2000/svg">
<path d="M12 2.5C13.4211 2.5 14.7707 2.81189 15.9824 3.37207L16.2227 3.4873L16.3086 3.54199C16.4916 3.68518 16.5557 3.94198 16.4482 4.1582C16.3407 4.37464 16.0969 4.47869 15.8721 4.41895L15.7773 4.38281L15.3447 4.18262C14.3187 3.74303 13.1883 3.5 12 3.5C7.30558 3.5 3.5 7.30558 3.5 12C3.5 16.6944 7.30558 20.5 12 20.5C16.6944 20.5 20.5 16.6944 20.5 12C20.5 11.84 20.496 11.6811 20.4873 11.5234L20.4482 11.0547L20.4473 10.9541C20.4684 10.7225 20.6496 10.5297 20.8896 10.5029C21.1297 10.4764 21.3494 10.6245 21.4209 10.8457L21.4424 10.9453L21.4854 11.4688C21.4951 11.6446 21.5 11.8218 21.5 12C21.5 17.2467 17.2467 21.5 12 21.5C6.75329 21.5 2.5 17.2467 2.5 12C2.5 6.75329 6.75329 2.5 12 2.5ZM20.7246 4.58203C20.9187 4.45387 21.1827 4.47562 21.3535 4.64648C21.5244 4.81735 21.5461 5.08131 21.418 5.27539L21.3535 5.35352L12.3535 14.3535C12.2597 14.4473 12.1326 14.5 12 14.5C11.8674 14.5 11.7403 14.4473 11.6465 14.3535L8.64648 11.3535L8.58203 11.2754C8.45387 11.0813 8.47562 10.8173 8.64648 10.6465C8.81735 10.4756 9.08131 10.4539 9.27539 10.582L9.35352 10.6465L12 13.293L20.6465 4.64648L20.7246 4.58203Z" fill="url(#paint0_linear_6787_165869)"/>
<defs>
<linearGradient id="paint0_linear_6787_165869" x1="2.5" y1="2.5" x2="21.5" y2="21.5002" gradientUnits="userSpaceOnUse">
<stop stop-color="var(--gradient-start)"/>
<stop offset="1" stop-color="var(--gradient-end)"/>
</linearGradient>
</defs>
</svg>
