<svg width="12" height="12" viewBox="0 0 12 12" fill="none" xmlns="http://www.w3.org/2000/svg">
<path fill-rule="evenodd" clip-rule="evenodd" d="M7.64645 8.35355C7.84171 8.54882 8.15829 8.54882 8.35355 8.35355C8.54882 8.15829 8.54882 7.84171 8.35355 7.64645L6.35355 5.64645C6.25979 5.55268 6.13261 5.5 6 5.5C5.86739 5.5 5.74022 5.55268 5.64645 5.64645L3.64645 7.64645C3.45118 7.84171 3.45118 8.15829 3.64645 8.35355C3.84171 8.54882 4.15829 8.54882 4.35355 8.35355L6 6.70711L7.64645 8.35355ZM8.64645 6.35355C8.84171 6.54882 9.15829 6.54882 9.35355 6.35355C9.54882 6.15829 9.54882 5.84171 9.35355 5.64645L6.49497 2.78787C6.22161 2.5145 5.77839 2.5145 5.50503 2.78787L2.64645 5.64645C2.45118 5.84171 2.45118 6.15829 2.64645 6.35355C2.84171 6.54882 3.15829 6.54882 3.35355 6.35355L6 3.70711L8.64645 6.35355Z" fill="currentColor"/>
</svg>
