<svg width="16" height="16" viewBox="0 0 16 16" fill="none" xmlns="http://www.w3.org/2000/svg">
<path fill-rule="evenodd" clip-rule="evenodd" d="M5.68689 4.98043C5.49162 4.78517 5.17504 4.78517 4.97978 4.98043C4.78452 5.17569 4.78452 5.49228 4.97978 5.68754L7.64645 8.3542C7.74021 8.44797 7.86739 8.50065 8 8.50065C8.13261 8.50065 8.25978 8.44797 8.35355 8.3542L11.0202 5.68754C11.2155 5.49228 11.2155 5.17569 11.0202 4.98043C10.825 4.78517 10.5084 4.78517 10.3131 4.98043L8 7.29354L5.68689 4.98043ZM4.35355 7.6471C4.15829 7.45184 3.84171 7.45184 3.64645 7.6471C3.45118 7.84236 3.45118 8.15894 3.64645 8.3542L7.50503 12.2128C7.77839 12.4862 8.22161 12.4861 8.49497 12.2128L12.3536 8.3542C12.5488 8.15894 12.5488 7.84236 12.3536 7.6471C12.1583 7.45184 11.8417 7.45184 11.6464 7.6471L8 11.2935L4.35355 7.6471Z" fill="currentColor"/>
</svg>
