<svg xmlns="http://www.w3.org/2000/svg" width="32" height="32" viewBox="0 0 32 32" fill="none">
  <path d="M7.71394 3.62811C7.3165 3.43931 6.87155 3.33333 6.4 3.33333C4.70633 3.33333 3.33333 4.70633 3.33333 6.4C3.33333 6.87156 3.43931 7.3165 3.62811 7.71394C3.7861 8.04651 3.64457 8.44419 3.312 8.60217C2.97943 8.76016 2.58175 8.61863 2.42376 8.28606C2.15183 7.71363 2 7.07362 2 6.4C2 3.96995 3.96995 2 6.4 2C7.07362 2 7.71363 2.15183 8.28606 2.42376C8.61863 2.58175 8.76016 2.97943 8.60217 3.312C8.44419 3.64457 8.04651 3.7861 7.71394 3.62811Z" fill="currentColor"/>
  <path d="M25.6 3.33333C25.1284 3.33333 24.6835 3.43931 24.286 3.62811C23.9535 3.7861 23.5558 3.64457 23.3978 3.312C23.2398 2.97943 23.3814 2.58175 23.7139 2.42376C24.2864 2.15183 24.9264 2 25.6 2C28.03 2 30 3.96995 30 6.4C30 7.07362 29.8482 7.71363 29.5762 8.28606C29.4182 8.61863 29.0206 8.76016 28.688 8.60217C28.3554 8.44419 28.2139 8.04651 28.3719 7.71394C28.5607 7.3165 28.6667 6.87156 28.6667 6.4C28.6667 4.70633 27.2937 3.33333 25.6 3.33333Z" fill="currentColor"/>
  <path d="M20.6667 16.6667C20.6667 17.0349 20.3682 17.3333 20 17.3333H16.6667V20.6667C16.6667 21.0349 16.3682 21.3333 16 21.3333C15.6318 21.3333 15.3333 21.0349 15.3333 20.6667V17.3333H12C11.6318 17.3333 11.3333 17.0349 11.3333 16.6667C11.3333 16.2985 11.6318 16 12 16H15.3333V12.6667C15.3333 12.2985 15.6318 12 16 12C16.3682 12 16.6667 12.2985 16.6667 12.6667V16H20C20.3682 16 20.6667 16.2985 20.6667 16.6667Z" fill="currentColor"/>
  <path fill-rule="evenodd" clip-rule="evenodd" d="M3.33333 16.6667C3.33333 9.67106 9.00439 4 16 4C22.9956 4 28.6667 9.67106 28.6667 16.6667C28.6667 20.0942 27.3053 23.2038 25.0937 25.4842L28.4714 28.8619C28.7317 29.1223 28.7317 29.5444 28.4714 29.8047C28.211 30.0651 27.7889 30.0651 27.5286 29.8047L24.1159 26.3921C21.918 28.2283 19.088 29.3333 16 29.3333C12.912 29.3333 10.082 28.2283 7.88405 26.3921L4.4714 29.8047C4.21105 30.0651 3.78894 30.0651 3.52859 29.8047C3.26824 29.5444 3.26824 29.1223 3.52859 28.8619L6.90629 25.4842C4.69473 23.2038 3.33333 20.0942 3.33333 16.6667ZM16 5.33333C9.74077 5.33333 4.66666 10.4074 4.66666 16.6667C4.66666 22.9259 9.74077 28 16 28C22.2592 28 27.3333 22.9259 27.3333 16.6667C27.3333 10.4074 22.2592 5.33333 16 5.33333Z" fill="currentColor"/>
</svg>