<svg xmlns="http://www.w3.org/2000/svg" width="23" height="23" viewBox="0 0 23 23" fill="none">
  <path fill-rule="evenodd" clip-rule="evenodd" d="M3.625 11.5C3.625 7.15076 7.15076 3.625 11.5 3.625C15.8492 3.625 19.375 7.15076 19.375 11.5C19.375 15.8492 15.8492 19.375 11.5 19.375C7.15076 19.375 3.625 15.8492 3.625 11.5ZM11.5 2.125C6.32233 2.125 2.125 6.32233 2.125 11.5C2.125 16.6777 6.32233 20.875 11.5 20.875C16.6777 20.875 20.875 16.6777 20.875 11.5C20.875 6.32233 16.6777 2.125 11.5 2.125ZM9.15533 8.09467C8.86244 7.80178 8.38756 7.80178 8.09467 8.09467C7.80178 8.38756 7.80178 8.86244 8.09467 9.15533L10.4393 11.5L8.09467 13.8447C7.80178 14.1376 7.80178 14.6124 8.09467 14.9053C8.38756 15.1982 8.86244 15.1982 9.15533 14.9053L11.5 12.5607L13.8447 14.9053C14.1376 15.1982 14.6124 15.1982 14.9053 14.9053C15.1982 14.6124 15.1982 14.1376 14.9053 13.8447L12.5607 11.5L14.9053 9.15533C15.1982 8.86244 15.1982 8.38756 14.9053 8.09467C14.6124 7.80178 14.1376 7.80178 13.8447 8.09467L11.5 10.4393L9.15533 8.09467Z"
                                                                                                                          fill="currentColor" />
</svg>