<svg width="20" height="20" viewBox="0 0 20 20" fill="none" xmlns="http://www.w3.org/2000/svg">
<g clip-path="url(#clip0_8812_55718)">
<path fill-rule="evenodd" clip-rule="evenodd" d="M5.29593 2.83021C5.13321 2.66749 4.86939 2.66749 4.70667 2.83021L2.83167 4.70521C2.66896 4.86793 2.66896 5.13175 2.83167 5.29447L4.70667 7.16947C4.86939 7.33218 5.13321 7.33218 5.29593 7.16947L7.17093 5.29447C7.33365 5.13175 7.33365 4.86793 7.17093 4.70521L5.29593 2.83021ZM5.0013 6.28558L3.71556 4.99984L5.0013 3.71409L6.28705 4.99984L5.0013 6.28558Z" fill="currentColor"/>
<path fill-rule="evenodd" clip-rule="evenodd" d="M0.417969 4.99984C0.417969 2.46853 2.47 0.416504 5.0013 0.416504C7.53261 0.416504 9.58464 2.46853 9.58464 4.99984C9.58464 7.53114 7.53261 9.58317 5.0013 9.58317C2.47 9.58317 0.417969 7.53114 0.417969 4.99984ZM5.0013 1.24984C2.93023 1.24984 1.2513 2.92877 1.2513 4.99984C1.2513 7.07091 2.93023 8.74984 5.0013 8.74984C7.07237 8.74984 8.7513 7.07091 8.7513 4.99984C8.7513 2.92877 7.07237 1.24984 5.0013 1.24984Z" fill="currentColor"/>
<path d="M12.918 2.08317C14.5288 2.08317 15.8346 3.38901 15.8346 4.99984V7.74392L17.2067 6.37188C17.3694 6.20916 17.6332 6.20916 17.7959 6.37188C17.9586 6.53459 17.9586 6.79841 17.7959 6.96113L15.7126 9.04447C15.5499 9.20718 15.2861 9.20718 15.1233 9.04447L13.04 6.96113C12.8773 6.79841 12.8773 6.53459 13.04 6.37188C13.2027 6.20916 13.4665 6.20916 13.6293 6.37188L15.0013 7.74392V4.99984C15.0013 3.84924 14.0686 2.9165 12.918 2.9165H11.668C11.4379 2.9165 11.2513 2.72996 11.2513 2.49984C11.2513 2.26972 11.4379 2.08317 11.668 2.08317H12.918Z" fill="currentColor"/>
<path d="M7.08464 17.9165H8.33464C8.56475 17.9165 8.7513 17.73 8.7513 17.4998C8.7513 17.2697 8.56475 17.0832 8.33463 17.0832H7.08464C5.93404 17.0832 5.0013 16.1504 5.0013 14.9998V12.2558L6.37334 13.6278C6.53606 13.7905 6.79988 13.7905 6.9626 13.6278C7.12532 13.4651 7.12532 13.2013 6.9626 13.0385L4.87926 10.9552C4.71654 10.7925 4.45273 10.7925 4.29001 10.9552L2.20667 13.0385C2.04396 13.2013 2.04396 13.4651 2.20667 13.6278C2.36939 13.7905 2.63321 13.7905 2.79593 13.6278L4.16797 12.2558V14.9998C4.16797 16.6107 5.4738 17.9165 7.08464 17.9165Z" fill="currentColor"/>
<path fill-rule="evenodd" clip-rule="evenodd" d="M17.1709 14.7052L15.2959 12.8302C15.1332 12.6675 14.8694 12.6675 14.7067 12.8302L12.8317 14.7052C12.669 14.8679 12.669 15.1317 12.8317 15.2945L14.7067 17.1695C14.8694 17.3322 15.1332 17.3322 15.2959 17.1695L17.1709 15.2945C17.3337 15.1317 17.3337 14.8679 17.1709 14.7052ZM15.0013 16.2856L13.7156 14.9998L15.0013 13.7141L16.287 14.9998L15.0013 16.2856Z" fill="currentColor"/>
<path fill-rule="evenodd" clip-rule="evenodd" d="M10.418 14.9998C10.418 12.4685 12.47 10.4165 15.0013 10.4165C17.5326 10.4165 19.5846 12.4685 19.5846 14.9998C19.5846 17.5311 17.5326 19.5832 15.0013 19.5832C12.47 19.5832 10.418 17.5311 10.418 14.9998ZM15.0013 11.2498C12.9302 11.2498 11.2513 12.9288 11.2513 14.9998C11.2513 17.0709 12.9302 18.7498 15.0013 18.7498C17.0724 18.7498 18.7513 17.0709 18.7513 14.9998C18.7513 12.9288 17.0724 11.2498 15.0013 11.2498Z" fill="currentColor"/>
</g>
<defs>
<clipPath id="clip0_8812_55718">
<rect width="20" height="20" fill="white"/>
</clipPath>
</defs>
</svg>
