<svg width="24" height="24" viewBox="0 0 24 24" fill="none" xmlns="http://www.w3.org/2000/svg">
<path d="M8.35012 1.95001L9.69012 3.28998M2.07012 11.92L17.1901 11.26M3.00012 22H16.0001M7.01012 18L3.00012 13.99C1.66012 12.65 1.66012 11.32 3.00012 9.97998L9.68012 3.29999L17.0301 10.65C17.4001 11.02 17.4001 11.62 17.0301 11.99L11.0101 18.01C9.69012 19.33 8.35012 19.33 7.01012 18ZM18.8501 15C18.8501 15 17.0001 17.01 17.0001 18.24C17.0001 19.26 17.8301 20.09 18.8501 20.09C19.8701 20.09 20.7001 19.26 20.7001 18.24C20.7001 17.01 18.8501 15 18.8501 15Z" stroke="currentColor" stroke-linecap="round" stroke-linejoin="round"/>
</svg>
