<svg width="20" height="20" viewBox="0 0 20 20" fill="none" xmlns="http://www.w3.org/2000/svg">
<path fill-rule="evenodd" clip-rule="evenodd" d="M6.46675 1.16699L6.44454 1.16699H6.44454C5.62327 1.16699 4.97629 1.16699 4.45564 1.20953C3.92446 1.25292 3.48088 1.34308 3.07778 1.54847C2.41921 1.88403 1.88378 2.41946 1.54823 3.07803C1.34283 3.48113 1.25268 3.92471 1.20928 4.45588C1.16674 4.97654 1.16674 5.62351 1.16675 6.44478V6.44479L1.16675 6.467V8.53366L1.16675 8.55587V8.55587C1.16674 9.37714 1.16674 10.0241 1.20928 10.5448C1.25268 11.0759 1.34283 11.5195 1.54823 11.9226C1.88378 12.5812 2.41921 13.1166 3.07778 13.4522C3.48088 13.6576 3.92446 13.7477 4.45564 13.7911C4.91615 13.8288 5.47547 13.8331 6.16681 13.8336C6.16731 14.5249 6.17166 15.0843 6.20928 15.5448C6.25268 16.0759 6.34283 16.5195 6.54823 16.9226C6.88378 17.5812 7.41921 18.1166 8.07778 18.4522C8.48088 18.6576 8.92446 18.7477 9.45564 18.7911C9.97629 18.8337 10.6233 18.8337 11.4445 18.8337H11.4668H13.5334H13.5556C14.3769 18.8337 15.0239 18.8337 15.5445 18.7911C16.0757 18.7477 16.5193 18.6576 16.9224 18.4522C17.5809 18.1166 18.1164 17.5812 18.4519 16.9226C18.6573 16.5195 18.7475 16.0759 18.7909 15.5448C18.8334 15.0241 18.8334 14.3771 18.8334 13.5559V13.5337V11.467V11.4448C18.8334 10.6235 18.8334 9.97654 18.7909 9.45588C18.7475 8.92471 18.6573 8.48113 18.4519 8.07803C18.1164 7.41946 17.5809 6.88403 16.9224 6.54847C16.5193 6.34308 16.0757 6.25292 15.5445 6.20953C15.084 6.1719 14.5247 6.16756 13.8334 6.16706C13.8329 5.47572 13.8285 4.91639 13.7909 4.45588C13.7475 3.92471 13.6573 3.48113 13.4519 3.07803C13.1164 2.41946 12.5809 1.88403 11.9224 1.54847C11.5193 1.34308 11.0757 1.25292 10.5445 1.20953C10.0239 1.16699 9.3769 1.16699 8.55563 1.16699H8.55562L8.53341 1.16699H6.46675ZM13.8334 7.16708V8.53366V8.55588C13.8334 9.37714 13.8334 10.0241 13.7909 10.5448C13.7475 11.0759 13.6573 11.5195 13.4519 11.9226C13.1164 12.5812 12.5809 13.1166 11.9224 13.4522C11.5193 13.6576 11.0757 13.7477 10.5445 13.7911C10.0239 13.8337 9.3769 13.8337 8.55563 13.8337H8.53341H7.16683C7.16742 14.528 7.17188 15.0462 7.20596 15.4633C7.24431 15.9327 7.31764 16.23 7.43923 16.4686C7.67892 16.939 8.06137 17.3215 8.53177 17.5612C8.77041 17.6828 9.06773 17.7561 9.53707 17.7944C10.0122 17.8333 10.6184 17.8337 11.4668 17.8337H13.5334C14.3817 17.8337 14.9879 17.8333 15.4631 17.7944C15.9324 17.7561 16.2298 17.6828 16.4684 17.5612C16.9388 17.3215 17.3212 16.939 17.5609 16.4686C17.6825 16.23 17.7559 15.9327 17.7942 15.4633C17.833 14.9882 17.8334 14.382 17.8334 13.5337V11.467C17.8334 10.6187 17.833 10.0125 17.7942 9.53731C17.7559 9.06798 17.6825 8.77065 17.5609 8.53202C17.3212 8.06161 16.9388 7.67916 16.4684 7.43948C16.2298 7.31789 15.9324 7.24455 15.4631 7.2062C15.0459 7.17212 14.5278 7.16766 13.8334 7.16708ZM3.53177 2.43948C3.77041 2.31789 4.06773 2.24455 4.53707 2.2062C5.01224 2.16738 5.61842 2.16699 6.46675 2.16699H8.53341C9.38174 2.16699 9.98792 2.16738 10.4631 2.2062C10.9324 2.24455 11.2298 2.31789 11.4684 2.43948C11.9388 2.67916 12.3212 3.06161 12.5609 3.53202C12.6825 3.77065 12.7559 4.06798 12.7942 4.53731C12.833 5.01249 12.8334 5.61866 12.8334 6.46699V8.53366C12.8334 9.38199 12.833 9.98816 12.7942 10.4633C12.7559 10.9327 12.6825 11.23 12.5609 11.4686C12.3212 11.939 11.9388 12.3215 11.4684 12.5612C11.2298 12.6828 10.9324 12.7561 10.4631 12.7944C9.98792 12.8333 9.38174 12.8337 8.53341 12.8337H6.46675C5.61842 12.8337 5.01224 12.8333 4.53707 12.7944C4.06773 12.7561 3.77041 12.6828 3.53177 12.5612C3.06137 12.3215 2.67892 11.939 2.43923 11.4686C2.31764 11.23 2.24431 10.9327 2.20596 10.4633C2.16714 9.98816 2.16675 9.38199 2.16675 8.53366V6.467C2.16675 5.61867 2.16714 5.01249 2.20596 4.53731C2.24431 4.06798 2.31764 3.77065 2.43923 3.53202C2.67892 3.06161 3.06137 2.67916 3.53177 2.43948Z" fill="white"/>
</svg>
