<svg xmlns="http://www.w3.org/2000/svg" width="24" height="24" viewBox="0 0 24 24" fill="none">
<path fill-rule="evenodd" clip-rule="evenodd" d="M6.80012 1.5L6.77792 1.5H6.77791C5.95664 1.5 5.30967 1.49999 4.78901 1.54253C4.25784 1.58593 3.81426 1.67609 3.41116 1.88148C2.75259 2.21703 2.21716 2.75247 1.8816 3.41103C1.67621 3.81413 1.58605 4.25771 1.54266 4.78889C1.50012 5.30955 1.50012 5.95652 1.50012 6.77779V6.77779L1.50012 6.8V11.2L1.50012 11.2222C1.50012 12.0435 1.50012 12.6905 1.54266 13.2111C1.58605 13.7423 1.67621 14.1859 1.8816 14.589C2.21716 15.2475 2.75259 15.783 3.41116 16.1185C3.81426 16.3239 4.25784 16.4141 4.78901 16.4575C5.30967 16.5 5.95664 16.5 6.7779 16.5H6.80012H7.50012V17.2V17.2222V17.2222C7.50012 18.0435 7.50012 18.6905 7.54265 19.2111C7.58605 19.7423 7.67621 20.1859 7.8816 20.589C8.21716 21.2475 8.75259 21.783 9.41116 22.1185C9.81426 22.3239 10.2578 22.4141 10.789 22.4575C11.3097 22.5 11.9567 22.5 12.778 22.5H12.8001H17.2001H17.2223C18.0436 22.5 18.6906 22.5 19.2112 22.4575C19.7424 22.4141 20.186 22.3239 20.5891 22.1185C21.2477 21.783 21.7831 21.2475 22.1186 20.589C22.324 20.1859 22.4142 19.7423 22.4576 19.2111C22.5001 18.6904 22.5001 18.0435 22.5001 17.2222V17.2V12.8V12.7778C22.5001 11.9565 22.5001 11.3096 22.4576 10.7889C22.4142 10.2577 22.324 9.81413 22.1186 9.41103C21.7831 8.75247 21.2477 8.21703 20.5891 7.88148C20.186 7.67609 19.7424 7.58593 19.2112 7.54253C18.6906 7.49999 18.0436 7.5 17.2223 7.5H17.2223H17.2001H16.5001V6.8V6.77778C16.5001 5.95651 16.5001 5.30954 16.4576 4.78889C16.4142 4.25771 16.324 3.81413 16.1186 3.41103C15.7831 2.75247 15.2477 2.21703 14.5891 1.88148C14.186 1.67609 13.7424 1.58593 13.2112 1.54253C12.6906 1.49999 12.0436 1.5 11.2223 1.5L11.2001 1.5H6.80012ZM16.5001 8.5V11.2V11.2222C16.5001 12.0435 16.5001 12.6905 16.4576 13.2111C16.4142 13.7423 16.324 14.1859 16.1186 14.589C15.7831 15.2475 15.2477 15.783 14.5891 16.1185C14.186 16.3239 13.7424 16.4141 13.2112 16.4575C12.6906 16.5 12.0436 16.5 11.2223 16.5H11.2001H8.50012V17.2C8.50012 18.0483 8.50051 18.6545 8.53933 19.1297C8.57768 19.599 8.65102 19.8963 8.77261 20.135C9.01229 20.6054 9.39474 20.9878 9.86515 21.2275C10.1038 21.3491 10.4011 21.4224 10.8704 21.4608C11.3456 21.4996 11.9518 21.5 12.8001 21.5H17.2001C18.0485 21.5 18.6546 21.4996 19.1298 21.4608C19.5991 21.4224 19.8965 21.3491 20.1351 21.2275C20.6055 20.9878 20.988 20.6054 21.2276 20.135C21.3492 19.8963 21.4226 19.599 21.4609 19.1297C21.4997 18.6545 21.5001 18.0483 21.5001 17.2V12.8C21.5001 11.9517 21.4997 11.3455 21.4609 10.8703C21.4226 10.401 21.3492 10.1037 21.2276 9.86502C20.988 9.39462 20.6055 9.01217 20.1351 8.77248C19.8965 8.65089 19.5991 8.57756 19.1298 8.53921C18.6546 8.50039 18.0485 8.5 17.2001 8.5H16.5001ZM3.86515 2.77248C4.10378 2.65089 4.40111 2.57756 4.87044 2.53921C5.34562 2.50039 5.95179 2.5 6.80012 2.5H11.2001C12.0485 2.5 12.6546 2.50039 13.1298 2.53921C13.5991 2.57756 13.8965 2.65089 14.1351 2.77248C14.6055 3.01217 14.988 3.39462 15.2276 3.86502C15.3492 4.10366 15.4226 4.40099 15.4609 4.87032C15.4997 5.34549 15.5001 5.95167 15.5001 6.8V11.2C15.5001 12.0483 15.4997 12.6545 15.4609 13.1297C15.4226 13.599 15.3492 13.8963 15.2276 14.135C14.988 14.6054 14.6055 14.9878 14.1351 15.2275C13.8965 15.3491 13.5991 15.4224 13.1298 15.4608C12.6546 15.4996 12.0485 15.5 11.2001 15.5H6.80012C5.95179 15.5 5.34562 15.4996 4.87044 15.4608C4.40111 15.4224 4.10378 15.3491 3.86515 15.2275C3.39474 14.9878 3.01229 14.6054 2.77261 14.135C2.65102 13.8963 2.57768 13.599 2.53933 13.1297C2.50051 12.6545 2.50012 12.0483 2.50012 11.2V6.8C2.50012 5.95167 2.50051 5.3455 2.53933 4.87032C2.57768 4.40099 2.65102 4.10366 2.77261 3.86502C3.01229 3.39462 3.39474 3.01217 3.86515 2.77248Z" fill="currentColor"/>
</svg>