<svg xmlns="http://www.w3.org/2000/svg" width="39" height="39" viewBox="0 0 39 39" fill="none">
  <path fill-rule="evenodd" clip-rule="evenodd" d="M13 3.875C12.7348 3.875 12.4804 3.98036 12.2929 4.16789L4.16789 12.2929C3.98036 12.4804 3.875 12.7348 3.875 13V26C3.875 26.2652 3.98036 26.5196 4.16789 26.7071L12.2929 34.8321C12.4804 35.0196 12.7348 35.125 13 35.125H26C26.2652 35.125 26.5196 35.0196 26.7071 34.8321L34.8321 26.7071C35.0196 26.5196 35.125 26.2652 35.125 26V13C35.125 12.7348 35.0196 12.4804 34.8321 12.2929L26.7071 4.16789C26.5196 3.98036 26.2652 3.875 26 3.875H13ZM5.875 13.4142L13.4142 5.875H25.5858L33.125 13.4142V25.5858L25.5858 33.125H13.4142L5.875 25.5858V13.4142ZM15.3321 13.9179C14.9416 13.5274 14.3084 13.5274 13.9179 13.9179C13.5274 14.3084 13.5274 14.9416 13.9179 15.3321L18.0858 19.5L13.9179 23.6679C13.5274 24.0584 13.5274 24.6916 13.9179 25.0821C14.3084 25.4726 14.9416 25.4726 15.3321 25.0821L19.5 20.9142L23.6679 25.0821C24.0584 25.4726 24.6916 25.4726 25.0821 25.0821C25.4726 24.6916 25.4726 24.0584 25.0821 23.6679L20.9142 19.5L25.0821 15.3321C25.4726 14.9416 25.4726 14.3084 25.0821 13.9179C24.6916 13.5274 24.0584 13.5274 23.6679 13.9179L19.5 18.0858L15.3321 13.9179Z" fill="#ED3636"/>
</svg>