<svg width="40" height="40" viewBox="0 0 40 40" fill="none" xmlns="http://www.w3.org/2000/svg">
<circle cx="20" cy="20" r="20" fill="#E3FFF3"/>
<path d="M20 10C25.5228 10 30 14.4772 30 20C30 25.5228 25.5228 30 20 30C14.4772 30 10 25.5228 10 20C10 14.4772 14.4772 10 20 10ZM24.5303 16.4697C24.2374 16.1768 23.7626 16.1768 23.4697 16.4697L19 20.9395L17.5303 19.4697C17.2374 19.1768 16.7626 19.1768 16.4697 19.4697C16.1768 19.7626 16.1768 20.2374 16.4697 20.5303L18.4697 22.5303C18.6104 22.6709 18.8011 22.75 19 22.75C19.1989 22.75 19.3896 22.6709 19.5303 22.5303L24.5303 17.5303C24.8232 17.2374 24.8232 16.7626 24.5303 16.4697Z" fill="#00CC8E"/>
</svg>
