<svg xmlns="http://www.w3.org/2000/svg" width="20" height="20" viewBox="0 0 20 20" fill="none">
<path fill-rule="evenodd" clip-rule="evenodd" d="M3 10C3 6.13401 6.13401 3 10 3C13.866 3 17 6.13401 17 10C17 13.866 13.866 17 10 17C6.13401 17 3 13.866 3 10ZM10 2C5.58172 2 2 5.58172 2 10C2 14.4183 5.58172 18 10 18C14.4183 18 18 14.4183 18 10C18 5.58172 14.4183 2 10 2ZM7.85355 7.14645C7.65829 6.95118 7.34171 6.95118 7.14645 7.14645C6.95118 7.34171 6.95118 7.65829 7.14645 7.85355L9.29289 10L7.14645 12.1464C6.95118 12.3417 6.95118 12.6583 7.14645 12.8536C7.34171 13.0488 7.65829 13.0488 7.85355 12.8536L10 10.7071L12.1464 12.8536C12.3417 13.0488 12.6583 13.0488 12.8536 12.8536C13.0488 12.6583 13.0488 12.3417 12.8536 12.1464L10.7071 10L12.8536 7.85355C13.0488 7.65829 13.0488 7.34171 12.8536 7.14645C12.6583 6.95118 12.3417 6.95118 12.1464 7.14645L10 9.29289L7.85355 7.14645Z" fill="#ED3636"/>
</svg>