<svg width="20" height="20" viewBox="0 0 20 20" fill="none" xmlns="http://www.w3.org/2000/svg">
<path fill-rule="evenodd" clip-rule="evenodd" d="M9.64645 14.5205C9.84171 14.7158 10.1583 14.7158 10.3536 14.5205L15.3536 9.52055C15.5488 9.32528 15.5488 9.0087 15.3536 8.81344C15.1583 8.61818 14.8417 8.61818 14.6464 8.81344L10 13.4599L5.35355 8.81344C5.15829 8.61818 4.84171 8.61818 4.64645 8.81344C4.45118 9.0087 4.45118 9.32528 4.64645 9.52055L9.64645 14.5205ZM9.64645 9.52055C9.74021 9.61431 9.86739 9.66699 10 9.66699C10.1326 9.66699 10.2598 9.61431 10.3536 9.52055L13.6869 6.18721C13.8821 5.99195 13.8821 5.67537 13.6869 5.48011C13.4916 5.28484 13.175 5.28484 12.9798 5.48011L10 8.45989L7.02022 5.48011C6.82496 5.28484 6.50838 5.28484 6.31311 5.48011C6.11785 5.67537 6.11785 5.99195 6.31311 6.18721L9.64645 9.52055Z" fill="currentColor"/>
</svg>
