<svg width="10" height="7" viewBox="0 0 10 7" fill="none" xmlns="http://www.w3.org/2000/svg">
<path fill-rule="evenodd" clip-rule="evenodd" d="M0.125 6C0.125 6.20711 0.292893 6.375 0.5 6.375H9C9.20711 6.375 9.375 6.20711 9.375 6C9.375 5.79289 9.20711 5.625 9 5.625H0.5C0.292893 5.625 0.125 5.79289 0.125 6ZM7.48484 4.76517C7.63128 4.91161 7.86872 4.91161 8.01516 4.76517L9.26517 3.51517C9.41161 3.36872 9.41161 3.13128 9.26517 2.98483C9.11872 2.83839 8.88128 2.83839 8.73483 2.98483L8.125 3.59467V0.5C8.125 0.292893 7.95711 0.125 7.75 0.125C7.54289 0.125 7.375 0.292893 7.375 0.5V3.59467L6.76516 2.98483C6.61872 2.83839 6.38128 2.83839 6.23484 2.98483C6.08839 3.13128 6.08839 3.36872 6.23484 3.51517L7.48484 4.76517ZM0.125 3.5C0.125 3.70711 0.292893 3.875 0.5 3.875H4.5C4.70711 3.875 4.875 3.70711 4.875 3.5C4.875 3.29289 4.70711 3.125 4.5 3.125H0.5C0.292893 3.125 0.125 3.29289 0.125 3.5ZM0.125 1C0.125 1.20711 0.292893 1.375 0.5 1.375H5C5.20711 1.375 5.375 1.20711 5.375 1C5.375 0.792893 5.20711 0.625 5 0.625H0.5C0.292893 0.625 0.125 0.792893 0.125 1Z" fill="#09e384"/>
</svg>
