<svg width="17" height="17" viewBox="0 0 17 17" fill="none" xmlns="http://www.w3.org/2000/svg">
<circle cx="8.5" cy="8.5" r="6.9375" stroke="#A6A6A6"/>
<path d="M8.50015 9.74065C8.9943 9.74065 9.39489 9.34006 9.39489 8.84591C9.39489 8.35176 8.9943 7.95117 8.50015 7.95117C8.006 7.95117 7.60542 8.35176 7.60542 8.84591C7.60542 9.34006 8.006 9.74065 8.50015 9.74065Z" fill="#A6A6A6"/>
<path d="M4.47384 9.76883C4.96799 9.76883 5.36858 9.36825 5.36858 8.8741C5.36858 8.37995 4.96799 7.97936 4.47384 7.97936C3.97969 7.97936 3.5791 8.37995 3.5791 8.8741C3.5791 9.36825 3.97969 9.76883 4.47384 9.76883Z" fill="#A6A6A6"/>
<path d="M12.5265 9.75826C13.0206 9.75826 13.4212 9.35767 13.4212 8.86352C13.4212 8.36937 13.0206 7.96878 12.5265 7.96878C12.0323 7.96878 11.6317 8.36937 11.6317 8.86352C11.6317 9.35767 12.0323 9.75826 12.5265 9.75826Z" fill="#A6A6A6"/>
</svg>
