<svg width="24" height="24" viewBox="0 0 24 24" fill="none" xmlns="http://www.w3.org/2000/svg">
<path fill-rule="evenodd" clip-rule="evenodd" d="M12.4313 7.95819C12.1321 8.2446 12.1217 8.71936 12.4081 9.01859L15.2617 12L12.4081 14.9814C12.1217 15.2806 12.1321 15.7554 12.4313 16.0418C12.7306 16.3282 13.2053 16.3178 13.4917 16.0186L16.8417 12.5186C17.1193 12.2286 17.1193 11.7714 16.8417 11.4814L13.4917 7.98141C13.2053 7.68217 12.7306 7.67178 12.4313 7.95819Z" fill="#FF6A24"/>
<path fill-rule="evenodd" clip-rule="evenodd" d="M7.08136 7.95819C6.78212 8.2446 6.77173 8.71936 7.05814 9.01859L9.91177 12L7.05814 14.9814C6.77173 15.2806 6.78212 15.7554 7.08136 16.0418C7.38059 16.3282 7.85535 16.3178 8.14176 16.0186L11.4918 12.5186C11.7693 12.2286 11.7693 11.7714 11.4918 11.4814L8.14176 7.98141C7.85535 7.68217 7.38059 7.67178 7.08136 7.95819Z" fill="#FF6A24"/>
</svg>
