<svg width="24" height="24" viewBox="0 0 24 24" fill="none" xmlns="http://www.w3.org/2000/svg">
<path fill-rule="evenodd" clip-rule="evenodd" d="M11.4686 7.95819C11.7678 8.2446 11.7782 8.71936 11.4918 9.01859L8.63816 12L11.4918 14.9814C11.7782 15.2806 11.7678 15.7554 11.4686 16.0418C11.1693 16.3282 10.6946 16.3178 10.4082 16.0186L7.05816 12.5186C6.78058 12.2286 6.78058 11.7714 7.05816 11.4814L10.4082 7.98141C10.6946 7.68217 11.1693 7.67178 11.4686 7.95819Z" fill="#FF6A24"/>
<path fill-rule="evenodd" clip-rule="evenodd" d="M16.8185 7.95819C17.1178 8.2446 17.1282 8.71936 16.8418 9.01859L13.9881 12L16.8418 14.9814C17.1282 15.2806 17.1178 15.7554 16.8185 16.0418C16.5193 16.3282 16.0445 16.3178 15.7581 16.0186L12.4081 12.5186C12.1306 12.2286 12.1306 11.7714 12.4081 11.4814L15.7581 7.98141C16.0445 7.68217 16.5193 7.67178 16.8185 7.95819Z" fill="#FF6A24"/>
</svg>
