<svg xmlns="http://www.w3.org/2000/svg" width="24" height="24" viewBox="0 0 24 24" fill="none">
<path fill-rule="evenodd" clip-rule="evenodd" d="M12.75 4.00003C12.75 3.58582 12.4142 3.25003 12 3.25003C11.5858 3.25003 11.25 3.58582 11.25 4.00003V12.1894L8.53031 9.4697C8.23742 9.17681 7.76255 9.17681 7.46965 9.4697C7.17676 9.76259 7.17676 10.2375 7.46965 10.5304L11.4697 14.5304C11.6103 14.671 11.8011 14.75 12 14.75C12.1989 14.75 12.3897 14.671 12.5303 14.5304L16.5303 10.5304C16.8232 10.2375 16.8232 9.76259 16.5303 9.4697C16.2374 9.17681 15.7625 9.17681 15.4697 9.4697L12.75 12.1894V4.00003ZM3.75 15.0001C3.75 14.5858 3.41421 14.2501 3 14.2501C2.58579 14.2501 2.25 14.5858 2.25 15.0001V16.2001V16.2322C2.24999 17.045 2.24999 17.7006 2.29336 18.2315C2.33803 18.7782 2.43238 19.2583 2.65873 19.7025C3.01825 20.4081 3.59193 20.9818 4.29754 21.3413C4.74175 21.5677 5.22189 21.662 5.76853 21.7067C6.2994 21.7501 6.95494 21.7501 7.76769 21.7501H7.76785H7.8H16.2H16.2321C17.0449 21.7501 17.7006 21.7501 18.2315 21.7067C18.7781 21.662 19.2582 21.5677 19.7025 21.3413C20.4081 20.9818 20.9817 20.4081 21.3413 19.7025C21.5676 19.2583 21.662 18.7782 21.7066 18.2315C21.75 17.7006 21.75 17.045 21.75 16.2322V16.2001V15.0001C21.75 14.5858 21.4142 14.2501 21 14.2501C20.5858 14.2501 20.25 14.5858 20.25 15.0001V16.2001C20.25 17.0525 20.2494 17.6467 20.2116 18.1094C20.1745 18.5632 20.1054 18.824 20.0048 19.0215C19.789 19.4449 19.4448 19.7891 19.0215 20.0048C18.824 20.1055 18.5632 20.1746 18.1093 20.2117C17.6467 20.2495 17.0525 20.2501 16.2 20.2501H7.8C6.94755 20.2501 6.35331 20.2495 5.89068 20.2117C5.4368 20.1746 5.17604 20.1055 4.97852 20.0048C4.55516 19.7891 4.21095 19.4449 3.99524 19.0215C3.8946 18.824 3.82546 18.5632 3.78838 18.1094C3.75058 17.6467 3.75 17.0525 3.75 16.2001V15.0001Z" fill="currentColor"/>
</svg>