<svg xmlns="http://www.w3.org/2000/svg" width="16" height="16" viewBox="0 0 16 16" fill="none">
<path fill-rule="evenodd" clip-rule="evenodd" d="M5.68689 4.97848C5.49162 4.78322 5.17504 4.78322 4.97978 4.97848C4.78452 5.17374 4.78452 5.49032 4.97978 5.68558L7.64645 8.35225C7.84171 8.54751 8.15829 8.54751 8.35355 8.35225L11.0202 5.68558C11.2155 5.49032 11.2155 5.17374 11.0202 4.97848C10.825 4.78322 10.5084 4.78322 10.3131 4.97848L8 7.29159L5.68689 4.97848ZM4.35355 7.64514C4.15829 7.44988 3.84171 7.44988 3.64645 7.64514C3.45118 7.84041 3.45118 8.15699 3.64645 8.35225L7.50503 12.2108C7.77839 12.4842 8.22161 12.4842 8.49497 12.2108L12.3536 8.35225C12.5488 8.15699 12.5488 7.84041 12.3536 7.64514C12.1583 7.44988 11.8417 7.44988 11.6464 7.64514L8 11.2916L4.35355 7.64514Z" fill="#ED3636"/>
</svg>