<svg width="24" height="24" viewBox="0 0 24 24" fill="none" xmlns="http://www.w3.org/2000/svg">
<path className="theme" d="M12 22.75C6.07 22.75 1.25 17.93 1.25 12C1.25 6.07 6.07 1.25 12 1.25C17.93 1.25 22.75 6.07 22.75 12C22.75 17.93 17.93 22.75 12 22.75ZM12 2.75C6.9 2.75 2.75 6.9 2.75 12C2.75 17.1 6.9 21.25 12 21.25C17.1 21.25 21.25 17.1 21.25 12C21.25 6.9 17.1 2.75 12 2.75Z" fill="#DEDEDE"/>
<path d="M12 7.7525C11.59 7.7525 11.25 8.0925 11.25 8.5025V14.5025C11.25 14.9125 11.59 15.2525 12 15.2525C12.41 15.2525 12.75 14.9125 12.75 14.5025V8.5025C12.75 8.0925 12.41 7.7525 12 7.7525Z" fill="#FF6A24"/>
<path d="M14.9999 11.7525C14.8099 11.7525 14.6199 11.8225 14.4699 11.9725L11.9999 14.4425L9.52994 11.9725C9.23994 11.6825 8.75994 11.6825 8.46994 11.9725C8.17994 12.2625 8.17994 12.7425 8.46994 13.0325L11.4699 16.0325C11.7599 16.3225 12.2399 16.3225 12.5299 16.0325L15.5299 13.0325C15.8199 12.7425 15.8199 12.2625 15.5299 11.9725C15.3799 11.8225 15.1899 11.7525 14.9999 11.7525Z" fill="#FF6A24"/>
</svg>
