<svg width="10" height="11" viewBox="0 0 10 11" fill="none" xmlns="http://www.w3.org/2000/svg">
<path d="M4.39331 5.35732C4.40212 5.244 4.36768 5.12827 4.28078 5.04177L0.707931 1.47492C0.550158 1.31755 0.294667 1.31755 0.136895 1.47492C-0.0208921 1.6323 -0.0208921 1.8874 0.136895 2.04517L3.45466 5.35732L0.136895 8.66948C-0.0208921 8.82684 -0.0208921 9.08194 0.136895 9.23932C0.294682 9.39669 0.550173 9.39669 0.707931 9.23932L4.2808 5.67247C4.36768 5.58597 4.40173 5.47066 4.39331 5.35732ZM9.12589 5.04177L4.74533 0.668805C4.58754 0.51144 4.33205 0.51144 4.17428 0.668805C4.01649 0.826186 4.01649 1.08168 4.17428 1.23865L8.29976 5.35732L4.17426 9.47559C4.01648 9.63297 4.01648 9.88805 4.17426 10.0458C4.33205 10.2032 4.58754 10.2032 4.74532 10.0458L9.12547 5.67289C9.21237 5.5864 9.2464 5.47066 9.23759 5.35733C9.24683 5.244 9.21239 5.12827 9.12589 5.04177Z" fill="currentColor"/>
</svg>
