<svg xmlns="http://www.w3.org/2000/svg" width="20" height="20" viewBox="0 0 20 20" fill="none">
<path fill-rule="evenodd" clip-rule="evenodd" d="M13.5672 2.40787C14.4579 1.68115 15.772 1.73277 16.6024 2.56314L16.7576 2.73501C17.4843 3.62569 17.4326 4.93983 16.6024 5.77017L16.1927 6.1798C16.188 6.18472 16.1832 6.18954 16.1783 6.19426L10.7723 11.6002L10.7363 11.6362C10.414 11.9585 10.188 12.1846 9.97149 12.3669L9.74688 12.5417C9.54933 12.6837 9.3405 12.8095 9.12286 12.9176L8.90216 13.0202C8.73007 13.0944 8.55226 13.1539 8.33966 13.2145L7.56622 13.4147L5.95294 13.818C5.78265 13.8606 5.6025 13.8112 5.47833 13.6872C5.35414 13.563 5.3039 13.382 5.34649 13.2116L5.74981 11.5983L5.95001 10.8258C6.01059 10.6131 6.07014 10.4355 6.14435 10.2633L6.24688 10.0426C6.35505 9.82492 6.48082 9.61623 6.62286 9.41861L6.79864 9.194C6.98092 8.97745 7.20701 8.7514 7.52942 8.42903L7.56524 8.39322L13.3953 2.56314L13.5672 2.40787ZM15.605 5.35343L15.8953 5.06314C16.3902 4.5681 16.3902 3.76523 15.8953 3.27017C15.4311 2.80593 14.696 2.7769 14.1981 3.18326L14.1024 3.27017L13.8122 3.56034C13.7595 4.56808 14.5973 5.40632 15.605 5.35343ZM12.9283 4.44427C13.1915 5.29717 13.8683 5.974 14.7212 6.23726L10.0652 10.8932C9.70708 11.2514 9.50398 11.4523 9.33087 11.5983L9.1629 11.7301C9.00924 11.8406 8.84682 11.938 8.67755 12.0221L8.50567 12.1022C8.37954 12.1566 8.24796 12.2011 8.06622 12.2526L7.32403 12.445L6.51935 12.6461L6.72052 11.8415C6.88436 11.1861 6.95439 10.9114 7.06329 10.6588L7.14239 10.4879C7.2266 10.3184 7.32475 10.1555 7.43536 10.0016L7.56622 9.83365C7.71226 9.66055 7.91415 9.45837 8.27227 9.10025L12.9283 4.44427ZM16.665 17L16.7666 17.0098C16.9943 17.0565 17.165 17.2585 17.165 17.5C17.165 17.7415 16.9943 17.9435 16.7666 17.9902L16.665 18H3.33203C3.05589 18 2.83203 17.7761 2.83203 17.5C2.83203 17.2238 3.05589 17 3.33203 17H16.665Z" fill="currentColor"/>
</svg>