<svg xmlns="http://www.w3.org/2000/svg" width="20" height="20" viewBox="0 0 20 20" fill="none">
<path fill-rule="evenodd" clip-rule="evenodd" d="M15.8964 3.26977C15.4013 2.77467 14.5986 2.77466 14.1035 3.26974L13.8131 3.56019C13.7604 4.56774 14.5982 5.40571 15.6058 5.35319L15.8964 5.06259C16.3914 4.56752 16.3914 3.76485 15.8964 3.26977ZM16.1955 6.17762L16.6035 5.7697C17.4891 4.88411 17.4891 3.44829 16.6035 2.56268C15.7179 1.67704 14.282 1.67702 13.3964 2.56263L7.56648 8.39248L7.53412 8.42484L7.53411 8.42485L7.5341 8.42486C7.09824 8.86067 6.83811 9.12077 6.62451 9.4179C6.43506 9.68144 6.27467 9.96471 6.14616 10.2628C6.00126 10.5988 5.91206 10.9557 5.7626 11.5537L5.7515 11.5981L5.34812 13.2116C5.30552 13.382 5.35544 13.5622 5.47963 13.6864C5.60382 13.8106 5.78407 13.8605 5.95446 13.8179L7.56802 13.4145L7.61239 13.4035L7.61243 13.4034L7.61244 13.4034C8.21041 13.254 8.56728 13.1648 8.90331 13.0199C9.20135 12.8914 9.48461 12.731 9.74815 12.5416C10.0453 12.328 10.3054 12.0678 10.7412 11.632L10.7736 11.5996L16.1776 6.19557C16.1837 6.18974 16.1897 6.18375 16.1955 6.17762ZM14.7222 6.23676C13.8694 5.97341 13.1927 5.29663 12.9294 4.44383L8.27358 9.09959C7.7959 9.57727 7.59701 9.77828 7.43648 10.0016C7.28913 10.2066 7.16438 10.4269 7.06443 10.6587C6.95553 10.9113 6.88549 11.1852 6.72164 11.8406L6.52037 12.6457L7.32548 12.4444C7.98084 12.2806 8.25481 12.2105 8.50736 12.1016C8.73917 12.0017 8.95948 11.8769 9.16446 11.7296C9.38777 11.5691 9.58879 11.3702 10.0665 10.8925L14.7222 6.23676ZM2.83337 17.4995C2.83337 17.2234 3.05723 16.9995 3.33337 16.9995H16.6667C16.9429 16.9995 17.1667 17.2234 17.1667 17.4995C17.1667 17.7757 16.9429 17.9995 16.6667 17.9995H3.33337C3.05723 17.9995 2.83337 17.7757 2.83337 17.4995Z" fill="currentColor"/>
</svg>