<svg width="16" height="16" viewBox="0 0 16 16" fill="none" xmlns="http://www.w3.org/2000/svg">
<path fill-rule="evenodd" clip-rule="evenodd" d="M12.6462 2.68672C12.2892 2.32969 11.7103 2.32969 11.3533 2.6867L11.1487 2.8913C11.1325 3.60874 11.7241 4.20036 12.4415 4.18427L12.6462 3.97956C13.0032 3.62255 13.0032 3.04373 12.6462 2.68672ZM13.0279 5.01202L13.3533 4.68667C14.1008 3.93914 14.1008 2.72717 13.3533 1.97963C12.6058 1.23207 11.3938 1.23205 10.6462 1.97959L6.23298 6.39277L6.20063 6.42512C5.76475 6.86095 5.50461 7.12105 5.29101 7.41819C5.10156 7.68173 4.94117 7.965 4.81266 8.26304C4.66776 8.59907 4.57856 8.95595 4.4291 9.55393L4.4291 9.55394L4.4291 9.55395L4.418 9.59834L4.18128 10.5452C4.13869 10.7156 4.18861 10.8959 4.3128 11.02C4.43699 11.1442 4.61724 11.1942 4.78762 11.1516L5.73452 10.9148L5.77891 10.9037C6.3769 10.7543 6.73378 10.6651 7.06981 10.5202C7.36785 10.3917 7.65111 10.2313 7.91465 10.0418C8.21178 9.82825 8.47188 9.56812 8.9077 9.13225L8.94006 9.09989L13.0115 5.02846C13.0171 5.0231 13.0226 5.01762 13.0279 5.01202ZM11.5942 5.03152C11.004 4.80106 10.5318 4.32884 10.3014 3.73861L6.94008 7.09988C6.4624 7.57756 6.26351 7.77857 6.10298 8.00189C5.95563 8.20686 5.83088 8.42718 5.73093 8.65899C5.62203 8.91154 5.55199 9.18551 5.38815 9.84088L5.35354 9.9793L5.49198 9.94469C6.14734 9.78085 6.42131 9.71081 6.67386 9.60191C6.90567 9.50196 7.12598 9.37722 7.33096 9.22987C7.55427 9.06934 7.75529 8.87045 8.23295 8.39278L11.5942 5.03152ZM2.1665 13.9998C2.1665 13.7237 2.39036 13.4998 2.6665 13.4998H13.3332C13.6093 13.4998 13.8332 13.7237 13.8332 13.9998C13.8332 14.276 13.6093 14.4998 13.3332 14.4998H2.6665C2.39036 14.4998 2.1665 14.276 2.1665 13.9998Z" fill="currentColor"/>
</svg>
