<svg width="24" height="24" viewBox="0 0 24 24" fill="none" xmlns="http://www.w3.org/2000/svg">
<path fill-rule="evenodd" clip-rule="evenodd" d="M11.7499 3.5C10.95 3.5 9.98218 4.04889 9.16576 5.52121L3.10577 16.4212C2.34528 17.7928 2.3778 18.8747 2.7854 19.5691C3.19259 20.2628 4.11961 20.8175 5.68985 20.8175H11.7499C11.7917 20.8175 11.8327 20.8209 11.8726 20.8275H17.8099C19.3743 20.8275 20.3022 20.2732 20.7109 19.5785C21.1197 18.8835 21.1539 17.8018 20.3939 16.4312L14.3343 5.52184C13.5179 4.04952 12.5497 3.5 11.7499 3.5ZM11.6271 22.3175H5.68985C3.79009 22.3175 2.25711 21.6322 1.4918 20.3284C0.726903 19.0253 0.87442 17.3522 1.79393 15.6938L7.85394 4.79379C7.85407 4.79357 7.85382 4.79401 7.85394 4.79379C8.8175 3.0565 10.1999 2 11.7499 2C13.2998 2 14.6819 3.05585 15.6454 4.79316L18.5854 10.0832L21.7056 15.7035C22.6257 17.3629 22.77 19.0365 22.0038 20.339C21.2375 21.6418 19.7054 22.3275 17.8099 22.3275H11.7499C11.708 22.3275 11.667 22.3241 11.6271 22.3175Z" fill="#DEDEDE"/>
<path fill-rule="evenodd" clip-rule="evenodd" d="M15.0352 11.2148C15.3216 11.5011 15.3216 11.9654 15.0352 12.2517L9.50172 17.7852C9.21537 18.0716 8.75111 18.0716 8.46476 17.7852C8.17841 17.4989 8.17841 17.0346 8.46476 16.7483L13.9983 11.2148C14.2846 10.9284 14.7489 10.9284 15.0352 11.2148Z" fill="#FF6A24"/>
<path fill-rule="evenodd" clip-rule="evenodd" d="M8.46476 11.2148C8.75111 10.9284 9.21537 10.9284 9.50172 11.2148L15.0352 16.7483C15.3216 17.0346 15.3216 17.4989 15.0352 17.7852C14.7489 18.0716 14.2846 18.0716 13.9983 17.7852L8.46476 12.2517C8.17841 11.9654 8.17841 11.5011 8.46476 11.2148Z" fill="#FF6A24"/>
</svg>
