<svg width="75" height="75" viewBox="0 0 75 75" fill="none" xmlns="http://www.w3.org/2000/svg">
<path fill-rule="evenodd" clip-rule="evenodd" d="M25 8.375C24.7348 8.375 24.4804 8.48036 24.2929 8.66789L8.66789 24.2929C8.48036 24.4804 8.375 24.7348 8.375 25V50C8.375 50.2652 8.48036 50.5196 8.66789 50.7071L24.2929 66.3321C24.4804 66.5196 24.7348 66.625 25 66.625H50C50.2652 66.625 50.5196 66.5196 50.7071 66.3321L66.3321 50.7071C66.5196 50.5196 66.625 50.2652 66.625 50V25C66.625 24.7348 66.5196 24.4804 66.3321 24.2929L50.7071 8.66789C50.5196 8.48036 50.2652 8.375 50 8.375H25ZM10.375 25.4142L25.4142 10.375H49.5858L64.625 25.4142V49.5858L49.5858 64.625H25.4142L10.375 49.5858V25.4142ZM28.8321 27.4179C28.4416 27.0274 27.8084 27.0274 27.4179 27.4179C27.0274 27.8084 27.0274 28.4416 27.4179 28.8321L36.0858 37.5L27.4179 46.1679C27.0274 46.5584 27.0274 47.1916 27.4179 47.5821C27.8084 47.9726 28.4416 47.9726 28.8321 47.5821L37.5 38.9142L46.1679 47.5821C46.5584 47.9726 47.1916 47.9726 47.5821 47.5821C47.9726 47.1916 47.9726 46.5584 47.5821 46.1679L38.9142 37.5L47.5821 28.8321C47.9726 28.4416 47.9726 27.8084 47.5821 27.4179C47.1916 27.0274 46.5584 27.0274 46.1679 27.4179L37.5 36.0858L28.8321 27.4179Z" fill="currentColor"/>
</svg>
