<svg xmlns="http://www.w3.org/2000/svg" width="20" height="20" viewBox="0 0 20 20" fill="none">
<path fill-rule="evenodd" clip-rule="evenodd" d="M2.77244 4.49655C1.91258 3.52919 2.59929 2 3.89356 2H16.1065C17.4008 2 18.0875 3.52919 17.2276 4.49655L13.0508 9.19552C12.4813 9.8362 12.1667 10.6636 12.1667 11.5208V15.8333C12.1667 17.0299 11.1967 18 10 18C8.80343 18 7.83338 17.0299 7.83338 15.8333V11.5208C7.83338 10.6636 7.51881 9.8362 6.94931 9.19552L2.77244 4.49655ZM3.89356 3C3.46213 3 3.23323 3.50973 3.51985 3.83218L7.69672 8.53116C8.42893 9.35489 8.83338 10.4187 8.83338 11.5208V15.8333C8.83338 16.4777 9.35571 17 10 17C10.6444 17 11.1667 16.4777 11.1667 15.8333V11.5208C11.1667 10.4187 11.5712 9.35489 12.3034 8.53116L16.4802 3.83218C16.7669 3.50973 16.538 3 16.1065 3H3.89356Z" fill="currentColor"/>
</svg>