<svg width="10" height="10" viewBox="0 0 10 10"  strocke="currentColor" fill="currentColor" xmlns="http://www.w3.org/2000/svg">
<g clip-path="url(#clip0_28_22)">
<path d="M3.81924 4.94357C3.95751 5.14366 3.91618 4.97693 3.91618 8.96539C3.91618 9.32231 4.32338 9.52658 4.61038 9.3131C5.83676 8.38846 6.08178 8.30838 6.08178 7.87589C6.08178 4.96942 6.04791 5.13287 6.17872 4.94357L8.17022 2.23279H1.82776L3.81924 4.94357Z" />
<path d="M8.92256 0.821037C8.8514 0.68474 8.71184 0.600006 8.5582 0.600006H1.43989C1.10809 0.600006 0.912856 0.974298 1.10319 1.24626C1.10475 1.24887 1.08159 1.21716 1.449 1.71719H8.54907C8.86218 1.29106 9.07147 1.10695 8.92256 0.821037Z" />
</g>
<defs>
<clipPath id="clip0_28_22">
<rect width="8.8" height="8.8" fill="white" transform="translate(0.599976 0.600006)"/>
</clipPath>
</defs>
</svg>
