<svg xmlns="http://www.w3.org/2000/svg" width="192" height="192" viewBox="0 0 192 192" fill="none">
  <path d="M47.1437 128.375L48.015 123.362H26.2306L21.104 152.663H26.8551L28.8447 141.279H43.3677L44.2391 136.252H29.7161L31.0958 128.375H47.1437Z"
                                                                                                                          fill="white" />
  <path d="M50.4699 131.766L46.8101 152.664H52.474L56.1338 131.766H50.4699Z" fill="white" />
  <path d="M79.1086 133.095C77.9032 131.985 76.2621 131.444 74.1853 131.444H71.8616C70.9757 131.444 70.0608 131.693 69.1168 132.189C68.1728 132.686 67.2869 133.388 66.4881 134.279L66.9529 131.766H61.7101L58.0503 152.664H63.6997L65.8637 140.227C66.3139 139.087 66.9819 138.152 67.8823 137.451C68.7828 136.734 69.7268 136.384 70.6853 136.384H73.1832C73.7932 136.384 74.2724 136.574 74.621 136.968C74.9695 137.348 75.1438 137.889 75.1438 138.547C75.1438 138.853 75.1293 139.102 75.1003 139.263L72.7766 152.664H78.426L80.7933 139.058C80.8804 138.503 80.924 137.977 80.924 137.509C80.924 135.668 80.314 134.192 79.1086 133.095Z"
                                                                                                                          fill="white" />
  <path d="M108.838 125.116C107.4 123.947 105.439 123.362 102.971 123.362H88.2879L83.1758 152.663H88.9123L90.5389 143.413H100.473C103.159 143.413 105.352 142.697 107.022 141.25C108.707 139.818 109.767 137.801 110.203 135.2L110.871 131.312C110.958 130.815 111.002 130.318 111.002 129.851C111.002 127.863 110.276 126.285 108.838 125.116ZM105.134 131.561L104.466 134.951C104.278 136.047 103.842 136.88 103.159 137.479C102.477 138.093 101.62 138.385 100.603 138.385H91.4103L93.1531 128.375H102.68C103.45 128.375 104.074 128.594 104.525 129.032C104.989 129.456 105.222 130.055 105.222 130.815C105.222 130.976 105.193 131.224 105.134 131.561Z"
                                                                                                                          fill="white" />
  <path d="M117.276 147.461C117.029 147.242 116.898 146.905 116.898 146.467C116.898 146.219 116.912 146.014 116.941 145.882L120.892 123.362H115.242L111.248 146.219C111.132 146.774 111.074 147.358 111.074 147.972C111.074 149.594 111.583 150.778 112.599 151.524C113.616 152.283 115.17 152.663 117.276 152.663H119.933L120.776 147.797H118.525C117.944 147.797 117.522 147.695 117.276 147.461Z"
                                                                                                                          fill="white" />
  <path d="M140.482 131.766L138.362 143.866C137.81 145.152 137.113 146.175 136.271 146.921C135.414 147.681 134.528 148.061 133.584 148.061H131.173C130.534 148.061 130.04 147.841 129.677 147.432C129.314 147.008 129.125 146.453 129.125 145.752C129.125 145.62 129.154 145.342 129.212 144.962L131.507 131.766H125.843L123.563 144.875C123.447 145.649 123.389 146.248 123.389 146.628C123.389 148.558 123.984 150.092 125.16 151.261C126.337 152.416 127.934 153 129.968 153H132.625C133.38 153 134.194 152.723 135.094 152.182C136.009 151.626 136.866 150.896 137.694 149.975L137.244 152.664H142.486L146.146 131.766H140.482Z"
                                                                                                                          fill="white" />
  <path d="M168.527 138.21C168.614 137.801 168.643 137.407 168.643 137.041C168.643 135.346 167.99 133.987 166.668 132.964C165.361 131.941 163.575 131.444 161.324 131.444H158.085C155.674 131.444 153.699 131.941 152.16 132.949C150.62 133.943 149.691 135.346 149.386 137.129L149.139 138.517C149.081 138.839 149.052 139.102 149.052 139.263C149.052 140.359 149.473 141.279 150.301 142.054C151.143 142.814 152.29 143.34 153.757 143.618L160.743 144.874C161.193 144.962 161.527 145.123 161.759 145.357C162.006 145.591 162.093 145.854 162.035 146.131L161.904 146.847C161.832 147.286 161.556 147.637 161.077 147.87C160.612 148.104 159.973 148.221 159.16 148.221H155.427C154.672 148.221 154.091 148.046 153.67 147.68C153.263 147.315 153.045 146.818 153.045 146.175C153.045 145.971 153.06 145.824 153.089 145.707H147.512C147.44 146.131 147.396 146.555 147.396 146.964C147.396 148.806 148.093 150.267 149.487 151.363C150.896 152.445 152.784 153 155.166 153H158.913C161.324 153 163.284 152.474 164.809 151.451C166.319 150.413 167.22 148.966 167.525 147.096L167.772 145.591C167.801 145.444 167.815 145.24 167.815 144.962C167.815 143.954 167.423 143.062 166.639 142.302C165.84 141.528 164.751 141.016 163.371 140.724L156.052 139.35C155.601 139.263 155.282 139.117 155.093 138.883C154.89 138.663 154.832 138.415 154.875 138.137L155.006 137.465C155.093 137.071 155.384 136.764 155.906 136.544C156.415 136.325 157.083 136.208 157.925 136.208H161.077C161.658 136.208 162.122 136.354 162.471 136.647C162.819 136.939 162.994 137.334 162.994 137.845C162.994 138.006 162.979 138.137 162.95 138.21H168.527Z"
                                                                                                                          fill="white" />
  <path d="M52.9749 126.374H50.0703L50.4043 124.474H53.3089L53.8172 121.552H55.9957L55.4874 124.474H58.392L58.0579 126.374H55.1533L54.645 129.297H52.4666L52.9749 126.374Z"
                                                                                                                          fill="white" />
  <g filter="url(#filter0_d_283_2940)">
    <path d="M113.92 77.4662C113.016 77.4662 112.441 76.7208 112.655 75.8097L115.168 64.7773L120.622 41.0559C120.835 40.1448 121.739 39.3994 122.642 39.3994H131.94C132.843 39.3994 133.418 40.1448 133.205 41.0559L127.768 64.7773L125.238 75.8097C125.024 76.7208 124.121 77.4662 123.217 77.4662H113.92Z"
                                                                                                                            fill="#C596FF" />
    <path d="M84.5812 88.5153L86.7331 79.1228C86.9467 78.2117 87.8501 77.4663 88.7536 77.4663H99.6938H112.293L112.277 77.4829L109.747 88.5153C109.533 89.4264 108.63 90.1718 107.726 90.1718L85.8461 90.1884C84.9426 90.1718 84.3677 89.4264 84.5812 88.5153Z"
                                                                                                                            fill="#DBBEFF" />
    <path d="M99.6948 77.4826L102.225 66.4336C102.438 65.5225 103.342 64.7771 104.245 64.7771H115.185L126.125 64.7937C127.029 64.7937 127.604 65.5391 127.39 66.4502L125.238 75.8261C125.025 76.7372 124.121 77.4826 123.218 77.4826H112.278L112.261 77.4992L99.6948 77.4826Z"
                                                                                                                            fill="#DBBEFF" />
    <path d="M57.7084 103.01C56.8049 103.01 56.23 102.264 56.4435 101.353L64.8376 64.7773L67.3673 53.7449C67.5808 52.8338 68.4843 52.0884 69.3878 52.0884H78.6853C79.5888 52.0884 80.1637 52.8338 79.9501 53.7449L77.4369 64.7773L69.01 101.353C68.7964 102.264 67.8929 103.01 66.9895 103.01H57.7084Z"
                                                                                                                            fill="#50FFFF" />
    <path d="M80.3438 52.0884L82.8735 41.0559C83.087 40.1448 83.9905 39.3994 84.8939 39.3994H106.758C107.661 39.3994 108.236 40.1448 108.023 41.0559L105.887 50.4318C105.674 51.3429 104.77 52.0884 103.867 52.0884L92.9266 52.0718L92.9102 52.0884H80.3438Z"
                                                                                                                            fill="#4FDFDF" />
    <path d="M65.2159 63.1205L67.3678 53.7446C67.5814 52.8335 68.4848 52.0881 69.3883 52.0881H80.3285L80.3449 52.0715L92.9114 52.0881L90.3981 63.1205C90.1845 64.0316 89.2811 64.777 88.3776 64.777H66.4972C65.5773 64.7936 65.0024 64.0482 65.2159 63.1205Z"
                                                                                                                            fill="#50FFFF" />
  </g>
  <defs>
    <filter id="filter0_d_283_2940" x="48.1989" y="32.1994" width="95.2506" height="82.0104" filterUnits="userSpaceOnUse"
                                                                                                                            color-interpolation-filters="sRGB">
      <feFlood flood-opacity="0" result="BackgroundImageFix" />
      <feColorMatrix in="SourceAlpha" type="matrix" values="0 0 0 0 0 0 0 0 0 0 0 0 0 0 0 0 0 0 127 0"
                                                                                                                              result="hardAlpha" />
      <feOffset dx="1" dy="2" />
      <feGaussianBlur stdDeviation="4.6" />
      <feComposite in2="hardAlpha" operator="out" />
      <feColorMatrix type="matrix" values="0 0 0 0 0.318368 0 0 0 0 0.449867 0 0 0 0 0.720833 0 0 0 0.3 0" />
      <feBlend mode="normal" in2="BackgroundImageFix" result="effect1_dropShadow_283_2940" />
      <feBlend mode="normal" in="SourceGraphic" in2="effect1_dropShadow_283_2940" result="shape" />
    </filter>
  </defs>
</svg>