<svg width="20" height="20" viewBox="0 0 20 20" fill="none" xmlns="http://www.w3.org/2000/svg">
<path d="M17.5 10C17.5 14.1421 14.1421 17.5 10 17.5C5.85786 17.5 2.5 14.1421 2.5 10C2.5 5.85786 5.85786 2.5 10 2.5C14.1421 2.5 17.5 5.85786 17.5 10Z" fill="#0052B4"/>
<path d="M8.125 6.625V2.73628C8.4304 2.65768 8.74334 2.59782 9.0625 2.55803C9.36962 2.51973 9.68251 2.5 10 2.5C10.3175 2.5 10.6304 2.51973 10.9375 2.55803C11.2567 2.59782 11.5696 2.65768 11.875 2.73628V7.65625L15.0625 4.4663C15.4061 4.78082 15.9073 5.40817 16.1875 5.78125L13.75 8.125H17.2637C17.3423 8.4304 17.4022 8.74334 17.442 9.0625C17.4803 9.36962 17.5 9.68251 17.5 10C17.5 10.3175 17.4803 10.6304 17.442 10.9375C17.4022 11.2567 17.3423 11.5696 17.2637 11.875H13.1875L16.0005 14.5C15.5974 15.0367 15.1239 15.5176 14.5938 15.929L11.875 13.1875V17.2637C11.5696 17.3423 11.2567 17.4022 10.9375 17.442C10.6304 17.4803 10.3175 17.5 10 17.5C9.6825 17.5 9.36962 17.4803 9.0625 17.442C8.74334 17.4022 8.4304 17.3423 8.125 17.2637L8.125 12.4375L5.03125 15.6181C4.61168 15.2467 4.23402 14.8291 3.90625 14.3732L6.625 11.875H2.73628C2.65768 11.5696 2.59782 11.2567 2.55803 10.9375C2.51973 10.6304 2.5 10.3175 2.5 10C2.5 9.68251 2.51973 9.36962 2.55803 9.0625C2.59782 8.74334 2.65768 8.4304 2.73628 8.125H6.71875L4 5.49927C4.41612 4.94542 4.90714 4.45105 5.45803 4.03121L8.125 6.625Z" fill="#EAECEF" fill-opacity="0.9"/>
<path d="M8.125 8.125L4.70217 4.69123C4.52118 4.87185 4.34937 5.06167 4.1875 5.25992L7.1875 8.125H8.125Z" fill="#D80027"/>
<path d="M11.875 8.125L15.2978 4.69123C15.4788 4.87185 15.6506 5.06167 15.8125 5.25992L12.8125 8.125H11.875Z" fill="#D80027"/>
<path d="M11.875 11.9394L15.2978 15.3731C15.4788 15.1925 15.6506 15.0027 15.8125 14.8044L12.8125 11.9394H11.875Z" fill="#D80027"/>
<path d="M8.125 11.9394L4.70217 15.3731C4.52118 15.1925 4.34937 15.0027 4.1875 14.8044L7.1875 11.9394H8.125Z" fill="#D80027"/>
<path d="M2.55803 9.0625C2.51973 9.36962 2.5 9.68251 2.5 10C2.5 10.3175 2.51973 10.6304 2.55803 10.9375H9.0625V17.442C9.36962 17.4803 9.6825 17.5 10 17.5C10.3175 17.5 10.6304 17.4803 10.9375 17.442V10.9375H17.442C17.4803 10.6304 17.5 10.3175 17.5 10C17.5 9.68251 17.4803 9.36962 17.442 9.0625H10.9375V2.55803C10.5705 2.50282 10.3824 2.5 10 2.5C9.68251 2.5 9.36962 2.51973 9.0625 2.55803V9.0625H2.55803Z" fill="#D80027"/>
</svg>
