<svg xmlns="http://www.w3.org/2000/svg" width="24" height="24" viewBox="0 0 24 24" fill="none">
  <path d="M8.01172 2.25C8.70979 2.25 9.18116 2.24508 9.63281 2.35352C10.0154 2.44538 10.3813 2.59713 10.7168 2.80273C11.1128 3.04542 11.443 3.38241 11.9365 3.87598L12.124 4.06348C12.6681 4.60758 12.8579 4.78961 13.0674 4.91797C13.2687 5.04132 13.4882 5.13239 13.7178 5.1875C13.9566 5.24478 14.2191 5.25 14.9883 5.25H17.2002C18.0278 5.25 18.6936 5.24903 19.2314 5.29297C19.7781 5.33763 20.2579 5.43286 20.7021 5.65918C21.4078 6.0187 21.9813 6.59224 22.3408 7.29785C22.5671 7.74205 22.6624 8.22195 22.707 8.76855C22.751 9.30638 22.75 9.97222 22.75 10.7998V15.2002C22.75 16.0278 22.751 16.6936 22.707 17.2314C22.6624 17.7781 22.5671 18.2579 22.3408 18.7021C21.9813 19.4078 21.4078 19.9813 20.7021 20.3408C20.2579 20.5671 19.7781 20.6624 19.2314 20.707C18.6936 20.751 18.0278 20.75 17.2002 20.75H6.7998C5.97222 20.75 5.30638 20.751 4.76855 20.707C4.22195 20.6624 3.74205 20.5671 3.29785 20.3408C2.59224 19.9813 2.0187 19.4078 1.65918 18.7021C1.43286 18.2579 1.33763 17.7781 1.29297 17.2314C1.24903 16.6936 1.25 16.0278 1.25 15.2002V7C1.25 6.11831 1.24371 5.53021 1.37793 5.0293C1.72471 3.73533 2.73533 2.72471 4.0293 2.37793C4.53021 2.24371 5.11831 2.25 6 2.25H8.01172ZM6 3.75C5.02195 3.75 4.68003 3.75697 4.41797 3.82715C3.64151 4.0352 3.0352 4.64151 2.82715 5.41797C2.75697 5.68003 2.75 6.02195 2.75 7V15.2002C2.75 16.0525 2.75029 16.6468 2.78809 17.1094C2.82517 17.5632 2.89449 17.824 2.99512 18.0215C3.21083 18.4448 3.55515 18.7892 3.97852 19.0049C4.17602 19.1055 4.4368 19.1748 4.89062 19.2119C5.35322 19.2497 5.94745 19.25 6.7998 19.25H17.2002C18.0525 19.25 18.6468 19.2497 19.1094 19.2119C19.5632 19.1748 19.824 19.1055 20.0215 19.0049C20.4448 18.7892 20.7892 18.4448 21.0049 18.0215C21.1055 17.824 21.1748 17.5632 21.2119 17.1094C21.2497 16.6468 21.25 16.0525 21.25 15.2002V10.7998C21.25 9.94745 21.2497 9.35322 21.2119 8.89062C21.1748 8.4368 21.1055 8.17602 21.0049 7.97852C20.7892 7.55515 20.4448 7.21083 20.0215 6.99512C19.824 6.89449 19.5632 6.82517 19.1094 6.78809C18.6468 6.75029 18.0525 6.75 17.2002 6.75H14.9883C14.2902 6.75 13.8188 6.75492 13.3672 6.64648C12.9846 6.55462 12.6187 6.40287 12.2832 6.19727C11.8872 5.95458 11.557 5.61759 11.0635 5.12402L10.876 4.93652C10.3319 4.39243 10.1421 4.21039 9.93262 4.08203C9.73132 3.95868 9.51179 3.86761 9.28223 3.8125C9.04343 3.75522 8.78088 3.75 8.01172 3.75H6ZM12 9.25C12.4142 9.25 12.7499 9.58584 12.75 10V14.1895L13.9697 12.9697C14.2626 12.6769 14.7374 12.6769 15.0303 12.9697C15.3231 13.2626 15.3231 13.7374 15.0303 14.0303L12.5303 16.5303C12.2374 16.8232 11.7626 16.8232 11.4697 16.5303L8.96973 14.0303C8.67689 13.7374 8.67685 13.2626 8.96973 12.9697C9.2626 12.6769 9.7374 12.6769 10.0303 12.9697L11.25 14.1895V10C11.2501 9.58584 11.5858 9.25 12 9.25Z" fill="currentColor"/>
</svg>