<svg width="15" height="15" viewBox="0 0 15 15" fill="none" xmlns="http://www.w3.org/2000/svg">
<path d="M2.46875 3H12.537C12.6278 3 12.7167 3.02638 12.7928 3.07593C12.8689 3.12548 12.9289 3.19607 12.9657 3.27912C13.0024 3.36216 13.0142 3.4541 12.9997 3.54374C12.9852 3.63338 12.9449 3.71687 12.8838 3.78407L9.03102 8.02216C8.95258 8.10844 8.90912 8.22086 8.90912 8.33747V11.6554C8.90912 11.7326 8.89006 11.8085 8.85365 11.8766C8.81724 11.9446 8.76459 12.0026 8.70038 12.0454L6.82538 13.2954C6.75479 13.3425 6.67274 13.3695 6.588 13.3736C6.50325 13.3777 6.41899 13.3587 6.34418 13.3187C6.26938 13.2786 6.20684 13.219 6.16324 13.1463C6.11964 13.0735 6.09662 12.9902 6.09662 12.9054V8.33747C6.09662 8.22086 6.05315 8.10844 5.97471 8.02216L2.1219 3.78407C2.06082 3.71687 2.02056 3.63338 2.00604 3.54374C1.99151 3.4541 2.00333 3.36216 2.04007 3.27912C2.07681 3.19607 2.13688 3.12548 2.21298 3.07593C2.28908 3.02638 2.37794 3 2.46875 3Z" fill="currentColor"/>
</svg>
