<svg  viewBox="0 0 24 24" fill="none" xmlns="http://www.w3.org/2000/svg"><path fill="currentColor" d="M24 14.251C24 12.345 22.846 10.645 21.12 10.012V9.25098C21.12 4.28098 17.252 0.250977 12.48 0.250977C7.70799 0.250977 3.83999 4.28098 3.83999 9.25098V10.012C2.11199 10.646 0.955994 12.347 0.955994 14.256C0.955994 16.165 2.11199 17.866 3.83999 18.5C4.28199 18.663 4.77199 18.591 5.15399 18.309C5.34417 18.1659 5.49809 17.9801 5.60334 17.7666C5.7086 17.5532 5.76226 17.318 5.75999 17.08V9.25098C5.75999 6.75098 7.03999 4.43898 9.11999 3.18898C10.1334 2.57549 11.2954 2.25116 12.48 2.25116C13.6646 2.25116 14.8266 2.57549 15.84 3.18898C17.92 4.43898 19.2 6.74998 19.2 9.25098V17.08C19.204 17.5 19.378 17.9 19.68 18.18V18.748C19.68 20.222 18.44 20.748 17.28 20.748H15.573C15.139 19.964 14.253 19.582 13.413 19.816C12.574 20.05 11.99 20.843 11.99 21.748C11.99 22.653 12.574 23.445 13.413 23.68C14.253 23.914 15.139 23.532 15.573 22.748H17.28C19.823 22.748 21.6 21.103 21.6 18.748V18.27C23.066 17.512 23.996 15.956 24 14.251Z"></path></svg>