<svg xmlns="http://www.w3.org/2000/svg" width="32" height="32" viewBox="0 0 32 32" fill="none">
  <path d="M20.28 7.66665C19.9118 7.66665 19.6134 7.96512 19.6134 8.33331C19.6134 8.7015 19.9118 8.99998 20.28 8.99998C22.651 8.99998 24.328 11.0126 24.328 13.5128C24.328 13.881 24.6265 14.1795 24.9947 14.1795C25.3629 14.1795 25.6614 13.881 25.6614 13.5128C25.6614 10.454 23.5535 7.66665 20.28 7.66665Z" fill="currentColor"/>
  <path fill-rule="evenodd" clip-rule="evenodd" d="M10.5244 3.33331C5.36953 3.33331 2 7.72069 2 12.6325C2 17.5952 4.99819 21.6038 8.13921 24.4096C11.2812 27.2162 14.6922 28.9334 15.7892 29.2991L16 29.3694L16.2108 29.2991C17.3078 28.9334 20.7188 27.2162 23.8608 24.4096C27.0018 21.6038 30 17.5952 30 12.6325C30 7.72069 26.6305 3.33331 21.4756 3.33331C18.9316 3.33331 17.1443 4.52452 16 5.67935C14.8557 4.52452 13.0684 3.33331 10.5244 3.33331ZM3.33333 12.6325C3.33333 8.27926 6.27195 4.66665 10.5244 4.66665C12.9431 4.66665 14.5395 5.9702 15.4906 7.09672L16 7.70006L16.5094 7.09672C17.4605 5.9702 19.0569 4.66665 21.4756 4.66665C25.7281 4.66665 28.6667 8.27926 28.6667 12.6325C28.6667 17.0372 25.9982 20.7124 22.9725 23.4152C20.1492 25.9372 17.1245 27.5132 16 27.9567C14.8755 27.5132 11.8508 25.9372 9.02746 23.4152C6.00181 20.7124 3.33333 17.0372 3.33333 12.6325Z" fill="currentColor"/>
</svg>