<svg width="22" height="21" viewBox="0 0 22 21" fill="none" xmlns="http://www.w3.org/2000/svg">
<path fill-rule="evenodd" clip-rule="evenodd" d="M0.5 7.47438C0.5 3.79054 3.02715 0.5 6.89333 0.5C8.80129 0.5 10.1418 1.3934 11 2.25953C11.8582 1.3934 13.1987 0.5 15.1067 0.5C18.9729 0.5 21.5 3.79054 21.5 7.47438C21.5 11.1964 19.2514 14.2028 16.8956 16.3072C14.5391 18.4122 11.9809 19.7001 11.1581 19.9743L11 20.027L10.8419 19.9743C10.0191 19.7001 7.4609 18.4122 5.1044 16.3072C2.74864 14.2028 0.5 11.1964 0.5 7.47438ZM14.21 3.5C13.7958 3.5 13.46 3.83579 13.46 4.25C13.46 4.66421 13.7958 5 14.21 5C15.8191 5 16.996 6.3642 16.996 8.13463C16.996 8.54884 17.3318 8.88463 17.746 8.88463C18.1602 8.88463 18.496 8.54884 18.496 8.13463C18.496 5.7358 16.8343 3.5 14.21 3.5Z" fill="#ED3636"/>
</svg>
