<svg width="24" height="24" viewBox="0 0 24 24" fill="none" xmlns="http://www.w3.org/2000/svg">
<path d="M18.04 13.55C17.62 13.96 17.38 14.55 17.44 15.18C17.53 16.26 18.52 17.05 19.6 17.05H21.5V18.24C21.5 20.31 19.81 22 17.74 22H7.63C7.94 21.74 8.21 21.42 8.42 21.06C8.79 20.46 9 19.75 9 19C9 16.79 7.21 15 5 15C4.06 15 3.19 15.33 2.5 15.88V11.51C2.5 9.44001 4.18999 7.75 6.25999 7.75H17.74C19.81 7.75 21.5 9.44001 21.5 11.51V12.95H19.48C18.92 12.95 18.41 13.17 18.04 13.55Z" stroke="url(#paint0_linear_3173_366)" stroke-linecap="round" stroke-linejoin="round"/>
<path d="M2.5 12.4101V7.8401C2.5 6.6501 3.23 5.59006 4.34 5.17006L12.28 2.17006C13.52 1.70006 14.85 2.62009 14.85 3.95009V7.75008" stroke="url(#paint1_linear_3173_366)" stroke-linecap="round" stroke-linejoin="round"/>
<path d="M22.5588 13.9702V16.0302C22.5588 16.5802 22.1188 17.0302 21.5588 17.0502H19.5988C18.5188 17.0502 17.5288 16.2602 17.4388 15.1802C17.3788 14.5502 17.6188 13.9602 18.0388 13.5502C18.4088 13.1702 18.9188 12.9502 19.4788 12.9502H21.5588C22.1188 12.9702 22.5588 13.4202 22.5588 13.9702Z" stroke="url(#paint2_linear_3173_366)" stroke-linecap="round" stroke-linejoin="round"/>
<path d="M7 12H14" stroke="url(#paint3_linear_3173_366)" stroke-linecap="round" stroke-linejoin="round"/>
<path d="M9 19C9 19.75 8.79 20.46 8.42 21.06C8.21 21.42 7.94 21.74 7.63 22C6.93 22.63 6.01 23 5 23C3.54 23 2.27 22.22 1.58 21.06C1.21 20.46 1 19.75 1 19C1 17.74 1.58 16.61 2.5 15.88C3.19 15.33 4.06 15 5 15C7.21 15 9 16.79 9 19Z" stroke="url(#paint4_linear_3173_366)" stroke-miterlimit="10" stroke-linecap="round" stroke-linejoin="round"/>
<path d="M3.44141 18.9995L4.4314 19.9895L6.5614 18.0195" stroke="url(#paint5_linear_3173_366)" stroke-linecap="round" stroke-linejoin="round"/>
<defs>
<linearGradient id="paint0_linear_3173_366" x1="2.5" y1="7.75" x2="16.18" y2="25.99" gradientUnits="userSpaceOnUse">
<stop stop-color="currentColor"/>
<stop offset="1" stop-color="currentColor"/>
</linearGradient>
<linearGradient id="paint1_linear_3173_366" x1="2.5" y1="2.04565" x2="12.7072" y2="14.2083" gradientUnits="userSpaceOnUse">
<stop stop-color="currentColor"/>
<stop offset="1" stop-color="currentColor"/>
</linearGradient>
<linearGradient id="paint2_linear_3173_366" x1="17.4297" y1="12.9502" x2="21.429" y2="17.9533" gradientUnits="userSpaceOnUse">
<stop stop-color="currentColor"/>
<stop offset="1" stop-color="currentColor"/>
</linearGradient>
<linearGradient id="paint3_linear_3173_366" x1="7" y1="12" x2="7.28" y2="13.96" gradientUnits="userSpaceOnUse">
<stop stop-color="currentColor"/>
<stop offset="1" stop-color="currentColor"/>
</linearGradient>
<linearGradient id="paint4_linear_3173_366" x1="1" y1="15" x2="9" y2="23" gradientUnits="userSpaceOnUse">
<stop stop-color="currentColor"/>
<stop offset="1" stop-color="currentColor"/>
</linearGradient>
<linearGradient id="paint5_linear_3173_366" x1="3.44141" y1="18.0195" x2="5.22002" y2="20.8365" gradientUnits="userSpaceOnUse">
<stop stop-color="currentColor"/>
<stop offset="1" stop-color="currentColor"/>
</linearGradient>
</defs>
</svg>
