<svg width="140" height="75" viewBox="0 0 140 75" fill="none" xmlns="http://www.w3.org/2000/svg">
<g opacity="0.75">
<rect width="140" height="75" rx="8" fill="#191919"/>
<path opacity="0.25" d="M108.777 49.0312C112.909 49.0313 116.335 52.714 116.335 57.3545C116.335 61.9951 112.909 65.6787 108.777 65.6787C104.645 65.6787 101.22 61.9952 101.22 57.3545C101.22 52.714 104.645 49.0312 108.777 49.0312Z" stroke="currentColor"/>
<rect opacity="0.25" y="4.41406" width="140" height="11.0294" fill="currentColor"/>
<rect opacity="0.25" x="54.3882" y="17.6484" width="67.482" height="4.41177" fill="currentColor"/>
<rect opacity="0.25" x="54.3882" y="24.2656" width="51.3669" height="4.41177" fill="currentColor"/>
<rect opacity="0.25" x="54.3882" y="30.8828" width="55.3957" height="4.41177" fill="currentColor"/>
<rect opacity="0.25" x="88.6328" y="39.707" width="40.2878" height="4.41177" fill="currentColor"/>
<rect opacity="0.25" x="85.6118" y="45.2188" width="46.3309" height="2.20588" fill="currentColor"/>
<rect opacity="0.25" x="8.05786" y="17.6484" width="38.2734" height="23.1618" fill="currentColor"/>
<rect opacity="0.25" x="8.05786" y="43.0117" width="38.2734" height="23.1618" fill="currentColor"/>
</g>
</svg>
