<svg width="20" height="20" viewBox="0 0 20 20" fill="none" xmlns="http://www.w3.org/2000/svg">
<path fill-rule="evenodd" clip-rule="evenodd" d="M10.5 3.33203C10.5 3.05589 10.2761 2.83203 9.99999 2.83203C9.72385 2.83203 9.49999 3.05589 9.49999 3.33203V10.4583L7.02021 7.97848C6.82495 7.78322 6.50836 7.78322 6.3131 7.97848C6.11784 8.17374 6.11784 8.49032 6.3131 8.68558L9.64643 12.0189C9.7402 12.1127 9.86738 12.1654 9.99999 12.1654C10.1326 12.1654 10.2598 12.1127 10.3535 12.0189L13.6869 8.68558C13.8821 8.49032 13.8821 8.17374 13.6869 7.97848C13.4916 7.78322 13.175 7.78322 12.9798 7.97848L10.5 10.4583V3.33203ZM3 12.4987C3 12.2226 2.77614 11.9987 2.5 11.9987C2.22386 11.9987 2 12.2226 2 12.4987V12.6987L2 12.7209C2 13.5422 1.99999 14.1892 2.04253 14.7098C2.08593 15.241 2.17609 15.6846 2.38148 16.0877C2.71703 16.7463 3.25247 17.2817 3.91103 17.6172C4.31413 17.8226 4.75771 17.9128 5.28889 17.9562C5.80954 17.9987 6.45651 17.9987 7.27777 17.9987H7.27781H7.3H12.7H12.7222C13.5435 17.9987 14.1904 17.9987 14.7111 17.9562C15.2423 17.9128 15.6859 17.8226 16.089 17.6172C16.7475 17.2817 17.283 16.7463 17.6185 16.0877C17.8239 15.6846 17.9141 15.241 17.9575 14.7098C18 14.1892 18 13.5422 18 12.7209V12.6987V12.4987C18 12.2226 17.7761 11.9987 17.5 11.9987C17.2239 11.9987 17 12.2226 17 12.4987V12.6987C17 13.547 16.9996 14.1532 16.9608 14.6284C16.9224 15.0977 16.8491 15.3951 16.7275 15.6337C16.4878 16.1041 16.1054 16.4865 15.635 16.7262C15.3963 16.8478 15.099 16.9212 14.6297 16.9595C14.1545 16.9983 13.5483 16.9987 12.7 16.9987H7.3C6.45167 16.9987 5.84549 16.9983 5.37032 16.9595C4.90099 16.9212 4.60366 16.8478 4.36502 16.7262C3.89462 16.4865 3.51217 16.1041 3.27248 15.6337C3.15089 15.3951 3.07756 15.0977 3.03921 14.6284C3.00039 14.1532 3 13.547 3 12.6987V12.4987Z" fill="currentColor"/>
</svg>
