<svg width="20" height="20" viewBox="0 0 20 20" fill="none" xmlns="http://www.w3.org/2000/svg">
<path fill-rule="evenodd" clip-rule="evenodd" d="M10.3536 5.47945C10.1583 5.28419 9.84171 5.28419 9.64645 5.47945L4.64645 10.4795C4.45118 10.6747 4.45118 10.9913 4.64645 11.1866C4.84171 11.3818 5.15829 11.3818 5.35355 11.1866L10 6.54011L14.6464 11.1866C14.8417 11.3818 15.1583 11.3818 15.3536 11.1866C15.5488 10.9913 15.5488 10.6747 15.3536 10.4795L10.3536 5.47945ZM10.3536 10.4795C10.2598 10.3857 10.1326 10.333 10 10.333C9.86739 10.333 9.74022 10.3857 9.64645 10.4795L6.31311 13.8128C6.11785 14.008 6.11785 14.3246 6.31311 14.5199C6.50838 14.7152 6.82496 14.7152 7.02022 14.5199L10 11.5401L12.9798 14.5199C13.175 14.7152 13.4916 14.7152 13.6869 14.5199C13.8821 14.3246 13.8821 14.008 13.6869 13.8128L10.3536 10.4795Z" fill="currentColor"/>
</svg>
