<svg width="40" height="40" viewBox="0 0 40 40" fill="none" xmlns="http://www.w3.org/2000/svg">
<path d="M24.8334 3.33203H15.1667C14.0334 3.33203 12.4334 3.99871 11.6334 4.79871L4.80005 11.632C4.00005 12.432 3.33337 14.032 3.33337 15.1654V24.832C3.33337 25.9654 4.00005 27.5653 4.80005 28.3653L11.6334 35.1987C12.4334 35.9987 14.0334 36.6654 15.1667 36.6654H24.8334C25.9667 36.6654 27.5667 35.9987 28.3667 35.1987L35.2 28.3653C36 27.5653 36.6667 25.9654 36.6667 24.832V15.1654C36.6667 14.032 36 12.432 35.2 11.632L28.3667 4.79871C27.5667 3.99871 25.9667 3.33203 24.8334 3.33203Z" stroke="currentColor" stroke-linecap="round" stroke-linejoin="round"/>
<path d="M14.1666 25.8346L25.8333 14.168" stroke="currentColor" stroke-linecap="round" stroke-linejoin="round"/>
<path d="M25.8333 25.8346L14.1666 14.168" stroke="currentColor" stroke-linecap="round" stroke-linejoin="round"/>
</svg>
