<svg width="16" height="16" viewBox="0 0 16 16" fill="none" xmlns="http://www.w3.org/2000/svg">
  <defs>
    <linearGradient id="gradient1" x1="2" y1="2" x2="14" y2="14" gradientUnits="userSpaceOnUse">
      <stop stop-color="#FA9528"/>
      <stop offset="1" stop-color="#F76F08"/>
    </linearGradient>
  </defs>
  <path d="M1.33334 14.668H14.6667" stroke="url(#gradient1)" stroke-miterlimit="10" stroke-linecap="round" stroke-linejoin="round"/>
  <path d="M6.5 2.66536V14.6654H9.5V2.66536C9.5 1.93203 9.2 1.33203 8.3 1.33203H7.7C6.8 1.33203 6.5 1.93203 6.5 2.66536Z" stroke="url(#gradient1)" stroke-linecap="round" stroke-linejoin="round"/>
  <path d="M2 6.66536V14.6654H4.66667V6.66536C4.66667 5.93203 4.4 5.33203 3.6 5.33203H3.06667C2.26667 5.33203 2 5.93203 2 6.66536Z" stroke="url(#gradient1)" stroke-linecap="round" stroke-linejoin="round"/>
  <path d="M11.3333 10.0013V14.668H14V10.0013C14 9.26797 13.7333 8.66797 12.9333 8.66797H12.4C11.6 8.66797 11.3333 9.26797 11.3333 10.0013Z" stroke="url(#gradient1)" stroke-linecap="round" stroke-linejoin="round"/>
</svg>