<svg width="16" height="16" viewBox="0 0 16 16" fill="none" xmlns="http://www.w3.org/2000/svg">
<path d="M5.71338 10.1803L10.0734 5.82031" stroke="white" stroke-linecap="round" stroke-linejoin="round"/>
<path d="M5.98676 6.91343C6.43963 6.91343 6.80674 6.54632 6.80674 6.09344C6.80674 5.64057 6.43963 5.27344 5.98676 5.27344C5.53388 5.27344 5.16675 5.64057 5.16675 6.09344C5.16675 6.54632 5.53388 6.91343 5.98676 6.91343Z" stroke="white" stroke-linecap="round" stroke-linejoin="round"/>
<path d="M10.3466 10.7259C10.7995 10.7259 11.1666 10.3588 11.1666 9.90592C11.1666 9.45305 10.7995 9.08594 10.3466 9.08594C9.89372 9.08594 9.52661 9.45305 9.52661 9.90592C9.52661 10.3588 9.89372 10.7259 10.3466 10.7259Z" stroke="white" stroke-linecap="round" stroke-linejoin="round"/>
<path d="M7.99992 14.6654C11.6818 14.6654 14.6666 11.6806 14.6666 7.9987C14.6666 4.3168 11.6818 1.33203 7.99992 1.33203C4.31802 1.33203 1.33325 4.3168 1.33325 7.9987C1.33325 11.6806 4.31802 14.6654 7.99992 14.6654Z" stroke="white" stroke-linecap="round" stroke-linejoin="round"/>
</svg>
