<svg width="24" height="24" viewBox="0 0 24 24" fill="none" xmlns="http://www.w3.org/2000/svg">
<path d="M8.57031 15.27L15.1103 8.72998" stroke="url(#paint0_linear_3173_1563)" stroke-linecap="round" stroke-linejoin="round"/>
<path d="M8.98001 10.3701C9.65932 10.3701 10.21 9.81948 10.21 9.14017C10.21 8.46086 9.65932 7.91016 8.98001 7.91016C8.3007 7.91016 7.75 8.46086 7.75 9.14017C7.75 9.81948 8.3007 10.3701 8.98001 10.3701Z" stroke="url(#paint1_linear_3173_1563)" stroke-linecap="round" stroke-linejoin="round"/>
<path d="M15.52 16.0899C16.1993 16.0899 16.75 15.5392 16.75 14.8599C16.75 14.1806 16.1993 13.6299 15.52 13.6299C14.8407 13.6299 14.29 14.1806 14.29 14.8599C14.29 15.5392 14.8407 16.0899 15.52 16.0899Z" stroke="url(#paint2_linear_3173_1563)" stroke-linecap="round" stroke-linejoin="round"/>
<path d="M12 22C17.5228 22 22 17.5228 22 12C22 6.47715 17.5228 2 12 2C6.47715 2 2 6.47715 2 12C2 17.5228 6.47715 22 12 22Z" stroke="url(#paint3_linear_3173_1563)" stroke-linecap="round" stroke-linejoin="round"/>
<defs>
<linearGradient id="paint0_linear_3173_1563" x1="8.57031" y1="8.72998" x2="15.1103" y2="15.27" gradientUnits="userSpaceOnUse">
<stop stop-color="currentColor"/>
<stop offset="1" stop-color="currentColor"/>
</linearGradient>
<linearGradient id="paint1_linear_3173_1563" x1="7.75" y1="7.91016" x2="10.21" y2="10.3701" gradientUnits="userSpaceOnUse">
<stop stop-color="currentColor"/>
<stop offset="1" stop-color="currentColor"/>
</linearGradient>
<linearGradient id="paint2_linear_3173_1563" x1="14.29" y1="13.6299" x2="16.75" y2="16.0899" gradientUnits="userSpaceOnUse">
<stop stop-color="currentColor"/>
<stop offset="1" stop-color="currentColor"/>
</linearGradient>
<linearGradient id="paint3_linear_3173_1563" x1="2" y1="2" x2="22" y2="22" gradientUnits="userSpaceOnUse">
<stop stop-color="currentColor"/>
<stop offset="1" stop-color="currentColor"/>
</linearGradient>
</defs>
</svg>
