<svg xmlns="http://www.w3.org/2000/svg" width="24" height="24" viewBox="0 0 24 24" fill="none">
<path fill-rule="evenodd" clip-rule="evenodd" d="M7.80012 1.25049H7.76802H7.76801C6.95517 1.25048 6.29956 1.25048 5.76866 1.29385C5.22202 1.33851 4.74188 1.43287 4.29766 1.65921C3.59205 2.01874 3.01838 2.59242 2.65885 3.29802C2.43251 3.74224 2.33815 4.22238 2.29349 4.76902C2.25011 5.29991 2.25012 5.9555 2.25012 6.76831V6.76838V6.80049L2.25012 17.2005V17.2326V17.2326C2.25011 18.0454 2.25011 18.701 2.29349 19.232C2.33815 19.7786 2.43251 20.2587 2.65885 20.703C3.01837 21.4086 3.59205 21.9822 4.29766 22.3418C4.74188 22.5681 5.22202 22.6625 5.76865 22.7071C6.29956 22.7505 6.95517 22.7505 7.768 22.7505H7.80012H8.20012H8.23225C9.04508 22.7505 9.70068 22.7505 10.2316 22.7071C10.7782 22.6625 11.2584 22.5681 11.7026 22.3418C12.4082 21.9822 12.9819 21.4086 13.3414 20.703C13.5677 20.2587 13.6621 19.7786 13.7068 19.232C13.7501 18.7011 13.7501 18.0454 13.7501 17.2326V17.2005V16.0005C13.7501 15.5863 13.4143 15.2505 13.0001 15.2505C12.5859 15.2505 12.2501 15.5863 12.2501 16.0005V17.2005C12.2501 18.0529 12.2495 18.6472 12.2117 19.1098C12.1747 19.5637 12.1055 19.8244 12.0049 20.022C11.7892 20.4453 11.445 20.7895 11.0216 21.0053C10.8241 21.1059 10.5633 21.175 10.1094 21.2121C9.64681 21.2499 9.05258 21.2505 8.20012 21.2505H7.80012C6.94767 21.2505 6.35343 21.2499 5.8908 21.2121C5.43693 21.175 5.17616 21.1059 4.97864 21.0053C4.55528 20.7895 4.21107 20.4453 3.99536 20.022C3.89472 19.8244 3.82559 19.5637 3.7885 19.1098C3.75071 18.6472 3.75012 18.0529 3.75012 17.2005L3.75012 6.80049C3.75012 5.94803 3.75071 5.3538 3.78851 4.89117C3.82559 4.43729 3.89472 4.17653 3.99536 3.97901C4.21108 3.55565 4.55528 3.21144 4.97865 2.99572C5.17616 2.89508 5.43693 2.82595 5.8908 2.78887C6.35343 2.75107 6.94767 2.75049 7.80012 2.75049H8.20012C9.05258 2.75049 9.64681 2.75107 10.1094 2.78887C10.5633 2.82595 10.8241 2.89508 11.0216 2.99572C11.445 3.21144 11.7892 3.55565 12.0049 3.97901C12.1055 4.17653 12.1747 4.43729 12.2117 4.89117C12.2495 5.3538 12.2501 5.94803 12.2501 6.80049V8.00049C12.2501 8.4147 12.5859 8.75049 13.0001 8.75049C13.4143 8.75049 13.7501 8.4147 13.7501 8.00049V6.80049L13.7501 6.76836C13.7501 5.95553 13.7501 5.29993 13.7068 4.76902C13.6621 4.22238 13.5677 3.74224 13.3414 3.29802C12.9819 2.59242 12.4082 2.01874 11.7026 1.65921C11.2584 1.43287 10.7782 1.33851 10.2316 1.29385C9.70068 1.25048 9.04507 1.25048 8.23224 1.25049H8.23223H8.20012H7.80012ZM17.5305 7.46967C17.2376 7.17678 16.7627 7.17678 16.4698 7.46967C16.1769 7.76256 16.1769 8.23744 16.4698 8.53033L19.1895 11.25L8.00012 11.25C7.58591 11.25 7.25012 11.5858 7.25012 12C7.25012 12.4142 7.58591 12.75 8.00012 12.75L19.1895 12.75L16.4698 15.4697C16.1769 15.7626 16.1769 16.2374 16.4698 16.5303C16.7627 16.8232 17.2376 16.8232 17.5305 16.5303L21.5305 12.5303C21.8233 12.2374 21.8233 11.7626 21.5305 11.4697L17.5305 7.46967Z" fill="#ED3636"/>
</svg>