<svg width="18" height="18" viewBox="0 0 18 18" fill="none" xmlns="http://www.w3.org/2000/svg">
<path d="M8.53871 10.5098C7.05335 10.5098 5.83997 9.30335 5.83997 7.81102C5.83997 6.31869 7.05335 5.11925 8.53871 5.11925C10.0241 5.11925 11.2375 6.32566 11.2375 7.81799C11.2375 9.31032 10.0241 10.5098 8.53871 10.5098ZM8.53871 6.16527C7.63216 6.16527 6.88599 6.90446 6.88599 7.81799C6.88599 8.73152 7.62518 9.47071 8.53871 9.47071C9.45224 9.47071 10.1914 8.73152 10.1914 7.81799C10.1914 6.90446 9.44527 6.16527 8.53871 6.16527Z" fill="#FF6A24"/>
<path d="M8.5388 16.5C7.50672 16.5 6.46767 16.1095 5.65875 15.3354C3.60156 13.355 1.3282 10.196 2.18594 6.43724C2.96 3.0272 5.93769 1.5 8.5388 1.5C8.5388 1.5 8.5388 1.5 8.54578 1.5C11.1469 1.5 14.1246 3.0272 14.8986 6.44421C15.7494 10.2029 13.476 13.355 11.4189 15.3354C10.6099 16.1095 9.57088 16.5 8.5388 16.5ZM8.5388 2.54603C6.50951 2.54603 3.90142 3.62692 3.21105 6.66736C2.45791 9.95188 4.52206 12.7831 6.39096 14.5753C7.59738 15.7399 9.4872 15.7399 10.6936 14.5753C12.5555 12.7831 14.6197 9.95188 13.8805 6.66736C13.1832 3.62692 10.5681 2.54603 8.5388 2.54603Z" fill="#DEDEDE"/>
</svg>
