<?xml version="1.0" encoding="utf-8"?>
<!-- Generator: Adobe Illustrator 27.3.1, SVG Export Plug-In . SVG Version: 6.00 Build 0)  -->
<svg version="1.1" id="Layer_1" xmlns="http://www.w3.org/2000/svg" xmlns:xlink="http://www.w3.org/1999/xlink" x="0px" y="0px"
	 viewBox="0 0 19 15" style="enable-background:new 0 0 19 15;" xml:space="preserve">
<style type="text/css">
	.st0{fill:#F48120;}
</style>
<path class="st0" d="M18.5,3.26L16.39,0.6C16.09,0.22,15.64,0,15.15,0H3.85C3.36,0,2.91,0.22,2.61,0.6L0.5,3.26
	C0.23,3.6,0.24,4.07,0.51,4.4l8.28,10.25C8.96,14.88,9.22,15,9.5,15s0.54-0.12,0.72-0.34L18.49,4.4C18.76,4.07,18.77,3.6,18.5,3.26z
	 M16.12,6.5h-3.71c-0.32,0-0.62-0.14-0.82-0.39L7.13,0.59C7.11,0.56,7.09,0.55,7.07,0.53h3.96c0.32,0,0.62,0.14,0.82,0.39l2.11,2.59
	c0.3,0.37,0.75,0.59,1.23,0.59h2.88L16.12,6.5z M15.98,0.92l2.1,2.64h-2.89c-0.32,0-0.62-0.14-0.82-0.39l-2.11-2.59
	c-0.02-0.02-0.03-0.04-0.05-0.06h2.94C15.48,0.53,15.78,0.67,15.98,0.92z M3.02,0.92c0.2-0.25,0.5-0.4,0.82-0.4H5.9
	c0.32,0,0.62,0.14,0.82,0.39l4.47,5.53c0.3,0.37,0.75,0.59,1.23,0.59h3.29l-2.33,2.88h-2.86c-0.32,0-0.62-0.14-0.82-0.39L5.35,4.15
	C5.05,3.78,4.6,3.56,4.12,3.56h-3.2L3.02,0.92z M9.81,14.33c-0.08,0.09-0.19,0.15-0.31,0.15c-0.12,0-0.23-0.05-0.31-0.15L0.93,4.09
	h3.2c0.32,0,0.62,0.14,0.82,0.39l4.34,5.37c0.3,0.37,0.75,0.59,1.23,0.59h2.44L9.81,14.33z"/>
</svg>
