<svg width="20" height="20" viewBox="0 0 20 20" fill="none" xmlns="http://www.w3.org/2000/svg">
<path d="M5.47152 1.875H13.6925C14.4862 1.87499 15.12 1.87499 15.6319 1.91681C16.1569 1.95971 16.6085 2.04969 17.0232 2.26102C17.6897 2.60057 18.2315 3.14238 18.571 3.80878C18.7823 4.22353 18.8723 4.6751 18.9152 5.20011C18.957 5.71198 18.957 6.34575 18.957 7.13942V7.55855C18.957 7.90373 18.6772 8.18355 18.332 8.18355C17.9869 8.18355 17.707 7.90373 17.707 7.55855V7.16667C17.707 6.33961 17.7065 5.75691 17.6694 5.3019C17.6328 4.85419 17.5638 4.58543 17.4573 4.37627C17.2375 3.94507 16.887 3.59449 16.4558 3.37478C16.2466 3.2682 15.9778 3.19924 15.5301 3.16266C15.0751 3.12549 14.4924 3.125 13.6654 3.125H5.4987C4.67164 3.125 4.08894 3.12549 3.63393 3.16266C3.18622 3.19924 2.91747 3.2682 2.7083 3.37478C2.2771 3.59449 1.92652 3.94507 1.70681 4.37627C1.60023 4.58543 1.53127 4.85419 1.49469 5.3019C1.45752 5.75691 1.45703 6.33961 1.45703 7.16667V11.1667C1.45703 11.9937 1.45752 12.5764 1.49469 13.0314C1.53127 13.4791 1.60023 13.7479 1.70681 13.9571C1.92652 14.3883 2.2771 14.7388 2.7083 14.9586C2.91747 15.0651 3.18622 15.1341 3.63393 15.1707C4.08894 15.2078 4.67164 15.2083 5.4987 15.2083H8.81663C9.16181 15.2083 9.44163 15.4882 9.44163 15.8333C9.44163 16.1785 9.16181 16.4583 8.81663 16.4583H5.47151C4.67784 16.4583 4.04401 16.4583 3.53214 16.4165C3.00713 16.3736 2.55556 16.2836 2.14082 16.0723C1.47441 15.7328 0.932602 15.191 0.59305 14.5245C0.381726 14.1098 0.29174 13.6582 0.248845 13.1332C0.207022 12.6213 0.207026 11.9876 0.207031 11.1939V7.13949C0.207026 6.34579 0.207022 5.71199 0.248845 5.20011C0.29174 4.6751 0.381726 4.22353 0.59305 3.80878C0.932602 3.14238 1.47441 2.60057 2.14082 2.26102C2.55556 2.04969 3.00713 1.95971 3.53214 1.91681C4.04403 1.87499 4.67782 1.87499 5.47152 1.875Z" fill="currentColor"/>
<path d="M9.58203 7.29167C8.5465 7.29167 7.70703 8.13113 7.70703 9.16667C7.70703 9.93899 8.1741 10.6036 8.84369 10.8909C9.16092 11.0269 9.30777 11.3944 9.17169 11.7116C9.03561 12.0289 8.66814 12.1757 8.35091 12.0396C7.23831 11.5624 6.45703 10.4565 6.45703 9.16667C6.45703 7.44078 7.85614 6.04167 9.58203 6.04167C10.5818 6.04167 11.4721 6.51188 12.0431 7.24071C12.256 7.51243 12.2083 7.90527 11.9366 8.11815C11.6649 8.33102 11.272 8.28332 11.0591 8.0116C10.7149 7.57218 10.1814 7.29167 9.58203 7.29167Z" fill="currentColor"/>
<path d="M3.33203 9.16667C3.33203 8.70643 3.70513 8.33333 4.16536 8.33333C4.6256 8.33333 4.99878 8.70643 4.99878 9.16667C4.99878 9.6269 4.62568 10 4.16545 10C3.70521 10 3.33203 9.6269 3.33203 9.16667Z" fill="currentColor"/>
<path d="M15.5195 14.1593L16.2971 13.3817C16.5005 13.1783 16.8303 13.1783 17.0337 13.3817C17.2371 13.5851 17.2371 13.9149 17.0337 14.1183L15.367 15.785C15.2693 15.8826 15.1368 15.9375 14.9987 15.9375C14.8606 15.9375 14.7281 15.8826 14.6304 15.785L12.9638 14.1183C12.7604 13.9149 12.7604 13.5851 12.9638 13.3817C13.1672 13.1783 13.4969 13.1783 13.7003 13.3817L14.4779 14.1593V11.25C14.4779 10.9624 14.711 10.7292 14.9987 10.7292C15.2863 10.7292 15.5195 10.9624 15.5195 11.25V14.1593Z" fill="currentColor"/>
<path fill-rule="evenodd" clip-rule="evenodd" d="M14.9987 8.54167C12.3523 8.54167 10.207 10.687 10.207 13.3333C10.207 15.9797 12.3523 18.125 14.9987 18.125C17.6451 18.125 19.7904 15.9797 19.7904 13.3333C19.7904 10.687 17.6451 8.54167 14.9987 8.54167ZM11.457 13.3333C11.457 11.3773 13.0427 9.79167 14.9987 9.79167C16.9547 9.79167 18.5404 11.3773 18.5404 13.3333C18.5404 15.2893 16.9547 16.875 14.9987 16.875C13.0427 16.875 11.457 15.2893 11.457 13.3333Z" fill="currentColor"/>
</svg>
