<svg width="64" height="64" viewBox="0 0 64 64" fill="none" xmlns="http://www.w3.org/2000/svg">
<path fill-rule="evenodd" clip-rule="evenodd" d="M26.5858 2.58579C27.3668 1.80474 28.6332 1.80474 29.4142 2.58579L36.0809 9.25246C36.456 9.62753 36.6667 10.1362 36.6667 10.6667C36.6667 11.1971 36.456 11.7058 36.0809 12.0809L29.4142 18.7475C28.6332 19.5286 27.3668 19.5286 26.5858 18.7475C25.8047 17.9665 25.8047 16.7002 26.5858 15.9191L29.8382 12.6667H26.067L24.7002 14.0335C22.8777 15.856 22.8777 18.8107 24.7002 20.6332C26.5226 22.4556 29.4774 22.4556 31.2998 20.6332L37.9665 13.9665C38.8417 13.0913 39.3333 11.9043 39.3333 10.6667C39.3333 9.96822 39.1768 9.28591 38.883 8.66667H45.1536C47.6935 8.66665 49.7216 8.66664 51.3596 8.80047C53.0397 8.93773 54.4847 9.22569 55.8119 9.90193C57.9444 10.9885 59.6782 12.7223 60.7647 14.8548C61.441 16.182 61.7289 17.627 61.8662 19.307C61.8829 19.5118 61.8976 19.7226 61.9104 19.9398C62 21.46 62 23.2907 62 25.513V38.4872C62 41.0269 62 43.055 61.8662 44.693C61.7289 46.373 61.441 47.818 60.7647 49.1452C59.6782 51.2777 57.9444 53.0115 55.8119 54.0981C54.4847 54.7743 53.0397 55.0623 51.3596 55.1995C49.7217 55.3334 47.6934 55.3334 45.1537 55.3333H34.1618L37.4142 58.5858C38.1953 59.3668 38.1953 60.6332 37.4142 61.4142C36.6332 62.1953 35.3668 62.1953 34.5858 61.4142L27.9191 54.7476C27.544 54.3725 27.3333 53.8638 27.3333 53.3333C27.3333 52.8029 27.544 52.2942 27.9191 51.9191L34.5858 45.2525C35.3668 44.4714 36.6332 44.4714 37.4142 45.2525C38.1953 46.0335 38.1953 47.2998 37.4142 48.0809L34.1618 51.3333H37.933L39.2998 49.9665C41.1223 48.1441 41.1223 45.1893 39.2998 43.3668C37.4774 41.5444 34.5226 41.5444 32.7002 43.3668L26.0335 50.0335C25.1583 50.9087 24.6667 52.0957 24.6667 53.3333C24.6667 54.0318 24.8232 54.7141 25.117 55.3333H18.8461C16.6239 55.3334 14.7933 55.3334 13.2731 55.2437C13.0559 55.2309 12.8451 55.2163 12.6404 55.1995C11.1703 55.0794 9.88023 54.8439 8.69156 54.3339C8.52175 54.2611 8.35401 54.1826 8.18811 54.0981C6.18889 53.0794 4.54011 51.4919 3.44652 49.5403C3.37361 49.4102 3.30317 49.2785 3.23526 49.1452C2.60129 47.901 2.30858 46.5532 2.16136 45.0053C2.15155 44.9021 2.14238 44.798 2.1338 44.693C2.10034 44.2835 2.07525 43.8496 2.05643 43.3894C2.01095 42.2771 2.00212 41.0113 2.00041 39.5651C2 39.2164 2 38.8571 2 38.487L2.00026 24.5843C2.0014 23.2497 2.00767 22.0669 2.04167 21.0153C2.05379 20.6405 2.06943 20.2823 2.08963 19.9398C2.10244 19.7226 2.11707 19.5118 2.1338 19.307C2.27107 17.627 2.55902 16.182 3.23526 14.8548C4.32183 12.7223 6.05561 10.9885 8.18811 9.90193C9.5153 9.22569 10.9603 8.93773 12.6404 8.80047C13.2546 8.75028 13.9237 8.71892 14.6541 8.69932C15.1784 8.68525 15.7343 8.67724 16.3241 8.67268C17.1037 8.66666 17.9427 8.66666 18.8464 8.66667H29.8382L26.5858 5.41421C25.8047 4.63316 25.8047 3.36683 26.5858 2.58579ZM32 22.6667C26.8453 22.6667 22.6667 26.8453 22.6667 32C22.6667 37.1547 26.8453 41.3333 32 41.3333C37.1547 41.3333 41.3333 37.1547 41.3333 32C41.3333 26.8453 37.1547 22.6667 32 22.6667ZM46.6667 32C46.6667 30.5272 47.8606 29.3333 49.3333 29.3333C50.8061 29.3333 52.0003 30.5272 52.0003 32C52.0003 33.4728 50.8064 34.6667 49.3336 34.6667C47.8608 34.6667 46.6667 33.4728 46.6667 32ZM12 32C12 30.5272 13.1939 29.3333 14.6667 29.3333C16.1394 29.3333 17.3336 30.5272 17.3336 32C17.3336 33.4728 16.1394 34.6667 14.6667 34.6667C13.1939 34.6667 12 33.4728 12 32Z" fill="currentColor"/>

</svg>
