<svg width="20" height="20" viewBox="0 0 20 20" fill="none" xmlns="http://www.w3.org/2000/svg">
<path d="M13.6925 1.875H5.47152C4.67782 1.87499 4.04403 1.87499 3.53214 1.91681C3.00713 1.95971 2.55556 2.04969 2.14082 2.26102C1.47441 2.60057 0.932602 3.14238 0.59305 3.80878C0.381726 4.22353 0.29174 4.6751 0.248845 5.20011C0.207022 5.71199 0.207026 6.34578 0.207031 7.13948V11.1938C0.207026 11.9875 0.207022 12.6213 0.248845 13.1332C0.29174 13.6582 0.381726 14.1098 0.59305 14.5245C0.932602 15.191 1.47441 15.7328 2.14082 16.0723C2.55556 16.2836 3.00713 16.3736 3.53214 16.4165C4.04401 16.4583 4.67778 16.4583 5.47145 16.4583H8.81663C9.16181 16.4583 9.44163 16.1785 9.44163 15.8333C9.44163 15.4882 9.16181 15.2083 8.81663 15.2083H5.4987C4.67164 15.2083 4.08894 15.2078 3.63393 15.1707C3.18622 15.1341 2.91747 15.0651 2.7083 14.9586C2.2771 14.7388 1.92652 14.3883 1.70681 13.9571C1.60023 13.7479 1.53127 13.4791 1.49469 13.0314C1.45752 12.5764 1.45703 11.9937 1.45703 11.1667V7.16667C1.45703 6.33961 1.45752 5.75691 1.49469 5.3019C1.53127 4.85419 1.60023 4.58543 1.70681 4.37627C1.92652 3.94507 2.2771 3.59449 2.7083 3.37478C2.91747 3.2682 3.18622 3.19924 3.63393 3.16266C4.08894 3.12549 4.67164 3.125 5.4987 3.125H13.6654C14.4924 3.125 15.0751 3.12549 15.5301 3.16266C15.9778 3.19924 16.2466 3.2682 16.4558 3.37478C16.887 3.59449 17.2375 3.94507 17.4573 4.37627C17.5638 4.58543 17.6328 4.85419 17.6694 5.3019C17.7065 5.75691 17.707 6.33961 17.707 7.16667V7.55855C17.707 7.90373 17.9869 8.18355 18.332 8.18355C18.6772 8.18355 18.957 7.90373 18.957 7.55855V7.13947C18.957 6.3458 18.957 5.71198 18.9152 5.20011C18.8723 4.6751 18.7823 4.22353 18.571 3.80878C18.2315 3.14238 17.6897 2.60057 17.0232 2.26102C16.6085 2.04969 16.1569 1.95971 15.6319 1.91681C15.12 1.87499 14.4862 1.87499 13.6925 1.875Z" fill="currentColor"/>
<path d="M7.70703 9.16667C7.70703 8.13113 8.5465 7.29167 9.58203 7.29167C10.1814 7.29167 10.7149 7.57218 11.0591 8.0116C11.272 8.28332 11.6649 8.33102 11.9366 8.11815C12.2083 7.90527 12.256 7.51243 12.0431 7.24071C11.4721 6.51188 10.5818 6.04167 9.58203 6.04167C7.85614 6.04167 6.45703 7.44078 6.45703 9.16667C6.45703 10.4565 7.23831 11.5624 8.35091 12.0396C8.66814 12.1757 9.03561 12.0289 9.17169 11.7116C9.30777 11.3944 9.16092 11.0269 8.84369 10.8909C8.1741 10.6036 7.70703 9.93899 7.70703 9.16667Z" fill="currentColor"/>
<path d="M4.16536 8.33333C3.70513 8.33333 3.33203 8.70643 3.33203 9.16667C3.33203 9.6269 3.70513 10 4.16536 10C4.6256 10 4.99878 9.6269 4.99878 9.16667C4.99878 8.70643 4.6256 8.33333 4.16536 8.33333Z" fill="currentColor"/>
<path d="M16.6654 13.8542C16.953 13.8542 17.1862 13.621 17.1862 13.3333C17.1862 13.0457 16.953 12.8125 16.6654 12.8125H13.332C13.0444 12.8125 12.8112 13.0457 12.8112 13.3333C12.8112 13.621 13.0444 13.8542 13.332 13.8542H16.6654Z" fill="currentColor"/>
<path fill-rule="evenodd" clip-rule="evenodd" d="M10.207 13.3333C10.207 10.687 12.3523 8.54167 14.9987 8.54167C17.6451 8.54167 19.7904 10.687 19.7904 13.3333C19.7904 15.9797 17.6451 18.125 14.9987 18.125C12.3523 18.125 10.207 15.9797 10.207 13.3333ZM14.9987 9.79167C13.0427 9.79167 11.457 11.3773 11.457 13.3333C11.457 15.2893 13.0427 16.875 14.9987 16.875C16.9547 16.875 18.5404 15.2893 18.5404 13.3333C18.5404 11.3773 16.9547 9.79167 14.9987 9.79167Z" fill="currentColor"/>
</svg>
