<svg width="64" height="64" viewBox="0 0 64 64" fill="none" xmlns="http://www.w3.org/2000/svg">
<path d="M34 2.6665C34 1.56193 33.1046 0.666504 32 0.666504C30.8954 0.666504 30 1.56193 30 2.6665V19.1714L25.4142 14.5856C24.6332 13.8046 23.3668 13.8046 22.5858 14.5856C21.8047 15.3667 21.8047 16.633 22.5858 17.4141L30.5858 25.4141C30.9609 25.7891 31.4696 25.9998 32 25.9998C32.5304 25.9998 33.0391 25.7891 33.4142 25.4141L41.4142 17.4141C42.1953 16.633 42.1953 15.3667 41.4142 14.5856C40.6332 13.8046 39.3668 13.8046 38.5858 14.5856L34 19.1714V2.6665Z" fill="currentColor"/>
<path fill-rule="evenodd" clip-rule="evenodd" d="M18.0362 19.3338C18.6051 19.3334 19.1473 19.5753 19.527 19.999C19.601 20.0815 19.6778 20.1627 19.7574 20.2423L27.7574 28.2423C28.8826 29.3675 30.4087 29.9996 32 29.9996C33.5913 29.9996 35.1174 29.3675 36.2426 28.2423L44.2426 20.2423C44.3223 20.1627 44.399 20.0815 44.473 19.999C44.8527 19.5753 45.3949 19.3334 45.9638 19.3338C48.2613 19.3355 50.1241 19.3488 51.6553 19.4934C53.2095 19.6402 54.5621 19.9321 55.8119 20.5689C57.9444 21.6554 59.6782 23.3892 60.7647 25.5217C61.441 26.8489 61.7289 28.2939 61.8662 29.974C62 31.612 62 33.6402 62 36.1799V46.4875C62 49.0272 62 51.0553 61.8662 52.6933C61.7289 54.3733 61.441 55.8183 60.7647 57.1455C59.6782 59.278 57.9444 61.0118 55.8119 62.0984C54.4847 62.7746 53.0397 63.0626 51.3596 63.1998C49.7216 63.3336 47.6934 63.3336 45.1535 63.3336H18.8465C16.3066 63.3336 14.2784 63.3336 12.6404 63.1998C10.9603 63.0626 9.5153 62.7746 8.18811 62.0984C6.05561 61.0118 4.32183 59.278 3.23526 57.1455C2.55902 55.8183 2.27107 54.3733 2.1338 52.6933C1.99997 51.0552 1.99998 49.0271 2 46.4873V36.18C1.99998 33.6401 1.99997 31.612 2.1338 29.974C2.27107 28.2939 2.55902 26.8489 3.23526 25.5217C4.32183 23.3892 6.05561 21.6554 8.18811 20.5689C9.43789 19.9321 10.7905 19.6402 12.3447 19.4934C13.8759 19.3488 15.7387 19.3355 18.0362 19.3338ZM32 32.0005C26.8453 32.0005 22.6667 36.1792 22.6667 41.3338C22.6667 46.4885 26.8453 50.6672 32 50.6672C37.1547 50.6672 41.3333 46.4885 41.3333 41.3338C41.3333 36.4213 37.1455 32.0005 32 32.0005ZM12 41.3338C12 39.8611 13.1939 38.6672 14.6667 38.6672C16.1394 38.6672 17.3336 39.8611 17.3336 41.3338C17.3336 42.8066 16.1397 44.0005 14.6669 44.0005C13.1942 44.0005 12 42.8066 12 41.3338ZM46.6667 41.3338C46.6667 39.8611 47.8606 38.6672 49.3333 38.6672C50.8061 38.6672 52.0003 39.8611 52.0003 41.3338C52.0003 42.8066 50.8061 44.0005 49.3333 44.0005C47.8606 44.0005 46.6667 42.8066 46.6667 41.3338Z" fill="currentColor"/>
</svg>
