<svg width="20" height="20" viewBox="0 0 20 20" fill="none" xmlns="http://www.w3.org/2000/svg">
<path fill-rule="evenodd" clip-rule="evenodd" d="M5.41797 3.33333C4.38244 3.33333 3.54297 4.1728 3.54297 5.20833C3.54297 6.24387 4.38244 7.08333 5.41797 7.08333C6.4535 7.08333 7.29297 6.24387 7.29297 5.20833C7.29297 4.1728 6.4535 3.33333 5.41797 3.33333ZM4.3763 5.20833C4.3763 4.63304 4.84267 4.16667 5.41797 4.16667C5.99327 4.16667 6.45964 4.63304 6.45964 5.20833C6.45964 5.78363 5.99327 6.25 5.41797 6.25C4.84267 6.25 4.3763 5.78363 4.3763 5.20833Z" fill="currentColor"/>
<path fill-rule="evenodd" clip-rule="evenodd" d="M3.48347 1.25H7.35247C7.80405 1.25 8.16828 1.24999 8.46323 1.27409C8.76692 1.2989 9.03366 1.35133 9.28045 1.47707C9.67245 1.67681 9.99116 1.99552 10.1909 2.38752C10.3166 2.63431 10.3691 2.90105 10.3939 3.20474C10.418 3.49968 10.418 3.86389 10.418 4.31544V6.10118C10.418 6.55273 10.418 6.91699 10.3939 7.21193C10.3691 7.51561 10.3166 7.78236 10.1909 8.02915C9.99116 8.42115 9.67245 8.73986 9.28045 8.9396C9.03366 9.06534 8.76692 9.11776 8.46323 9.14258C8.16829 9.16667 7.80408 9.16667 7.35253 9.16667H3.48346C3.0319 9.16667 2.66765 9.16667 2.37271 9.14258C2.06902 9.11776 1.80228 9.06534 1.55549 8.9396C1.16348 8.73986 0.844775 8.42115 0.645039 8.02915C0.519294 7.78236 0.466872 7.51561 0.44206 7.21193C0.417962 6.91698 0.417965 6.55275 0.417969 6.10118V4.3155C0.417965 3.86392 0.417962 3.49969 0.44206 3.20474C0.466872 2.90105 0.519294 2.63431 0.645039 2.38752C0.844775 1.99552 1.16348 1.67681 1.55549 1.47707C1.80228 1.35133 2.06902 1.2989 2.37271 1.27409C2.66766 1.24999 3.03189 1.25 3.48347 1.25ZM2.44057 2.10466C2.18842 2.12526 2.04355 2.16366 1.93381 2.21958C1.69861 2.33942 1.50739 2.53064 1.38754 2.76585C1.33163 2.87558 1.29323 3.02045 1.27263 3.2726C1.25163 3.52962 1.2513 3.85975 1.2513 4.33333V6.08333C1.2513 6.55692 1.25163 6.88705 1.27263 7.14407C1.29323 7.39622 1.33163 7.54109 1.38754 7.65082C1.50739 7.88602 1.69861 8.07725 1.93381 8.19709C2.04355 8.253 2.18842 8.29141 2.44057 8.31201C2.69759 8.33301 3.02772 8.33333 3.5013 8.33333H7.33464C7.80822 8.33333 8.13835 8.33301 8.39537 8.31201C8.64752 8.29141 8.79239 8.253 8.90212 8.19709C9.13733 8.07725 9.32855 7.88602 9.44839 7.65082C9.50431 7.54109 9.54271 7.39622 9.56331 7.14407C9.58431 6.88705 9.58464 6.55692 9.58464 6.08333V4.33333C9.58464 3.85975 9.58431 3.52962 9.56331 3.2726C9.54271 3.02045 9.50431 2.87558 9.44839 2.76585C9.32855 2.53064 9.13733 2.33942 8.90212 2.21958C8.79239 2.16366 8.64752 2.12526 8.39537 2.10466C8.13835 2.08366 7.80822 2.08333 7.33464 2.08333H3.5013C3.02772 2.08333 2.69759 2.08366 2.44057 2.10466Z" fill="currentColor"/>
<path d="M13.7513 2.08333C15.3621 2.08333 16.668 3.38917 16.668 5V7.74408L18.04 6.37204C18.2027 6.20932 18.4665 6.20932 18.6293 6.37204C18.792 6.53476 18.792 6.79858 18.6293 6.96129L16.5459 9.04463C16.3832 9.20735 16.1194 9.20735 15.9567 9.04463L13.8733 6.96129C13.7106 6.79858 13.7106 6.53476 13.8733 6.37204C14.0361 6.20932 14.2999 6.20932 14.4626 6.37204L15.8346 7.74408V5C15.8346 3.84941 14.9019 2.91667 13.7513 2.91667H12.5013C12.2712 2.91667 12.0846 2.73012 12.0846 2.5C12.0846 2.26988 12.2712 2.08333 12.5013 2.08333H13.7513Z" fill="currentColor"/>
<path d="M6.2513 17.9167H7.5013C7.73142 17.9167 7.91797 17.7301 7.91797 17.5C7.91797 17.2699 7.73142 17.0833 7.5013 17.0833H6.2513C5.10071 17.0833 4.16797 16.1506 4.16797 15V12.2559L5.54001 13.628C5.70273 13.7907 5.96655 13.7907 6.12926 13.628C6.29198 13.4652 6.29198 13.2014 6.12926 13.0387L4.04593 10.9554C3.88321 10.7927 3.61939 10.7927 3.45667 10.9554L1.37334 13.0387C1.21062 13.2014 1.21062 13.4652 1.37334 13.628C1.53606 13.7907 1.79988 13.7907 1.9626 13.628L3.33464 12.2559V15C3.33464 16.6108 4.64047 17.9167 6.2513 17.9167Z" fill="currentColor"/>
<path fill-rule="evenodd" clip-rule="evenodd" d="M14.5846 12.9167C13.5491 12.9167 12.7096 13.7561 12.7096 14.7917C12.7096 15.8272 13.5491 16.6667 14.5846 16.6667C15.6202 16.6667 16.4596 15.8272 16.4596 14.7917C16.4596 13.7561 15.6202 12.9167 14.5846 12.9167ZM13.543 14.7917C13.543 14.2164 14.0093 13.75 14.5846 13.75C15.1599 13.75 15.6263 14.2164 15.6263 14.7917C15.6263 15.367 15.1599 15.8333 14.5846 15.8333C14.0093 15.8333 13.543 15.367 13.543 14.7917Z" fill="currentColor"/>
<path fill-rule="evenodd" clip-rule="evenodd" d="M12.6501 10.8333H16.5191C16.9707 10.8333 17.3349 10.8333 17.6299 10.8574C17.9336 10.8822 18.2003 10.9347 18.4471 11.0604C18.8391 11.2601 19.1578 11.5788 19.3576 11.9709C19.4833 12.2176 19.5357 12.4844 19.5605 12.7881C19.5846 13.083 19.5846 13.4472 19.5846 13.8987V15.6845C19.5846 16.136 19.5846 16.5003 19.5605 16.7953C19.5357 17.0989 19.4833 17.3657 19.3576 17.6125C19.1578 18.0045 18.8391 18.3232 18.4471 18.5229C18.2003 18.6487 17.9336 18.7011 17.6299 18.7259C17.335 18.75 16.9708 18.75 16.5193 18.75H12.6501C12.1986 18.75 11.8343 18.75 11.5394 18.7259C11.2357 18.7011 10.9689 18.6487 10.7222 18.5229C10.3302 18.3232 10.0114 18.0045 9.81171 17.6125C9.68596 17.3657 9.63354 17.0989 9.60873 16.7953C9.58463 16.5003 9.58463 16.1361 9.58464 15.6845V13.8988C9.58463 13.4473 9.58463 13.083 9.60873 12.7881C9.63354 12.4844 9.68596 12.2176 9.81171 11.9709C10.0114 11.5788 10.3302 11.2601 10.7222 11.0604C10.9689 10.9347 11.2357 10.8822 11.5394 10.8574C11.8343 10.8333 12.1986 10.8333 12.6501 10.8333ZM11.6072 11.688C11.3551 11.7086 11.2102 11.747 11.1005 11.8029C10.8653 11.9228 10.6741 12.114 10.5542 12.3492C10.4983 12.4589 10.4599 12.6038 10.4393 12.8559C10.4183 13.113 10.418 13.4431 10.418 13.9167V15.6667C10.418 16.1403 10.4183 16.4704 10.4393 16.7274C10.4599 16.9796 10.4983 17.1244 10.5542 17.2342C10.6741 17.4694 10.8653 17.6606 11.1005 17.7804C11.2102 17.8363 11.3551 17.8747 11.6072 17.8953C11.8643 17.9163 12.1944 17.9167 12.668 17.9167H16.5013C16.9749 17.9167 17.305 17.9163 17.562 17.8953C17.8142 17.8747 17.9591 17.8363 18.0688 17.7804C18.304 17.6606 18.4952 17.4694 18.6151 17.2342C18.671 17.1244 18.7094 16.9796 18.73 16.7274C18.751 16.4704 18.7513 16.1403 18.7513 15.6667V13.9167C18.7513 13.4431 18.751 13.113 18.73 12.8559C18.7094 12.6038 18.671 12.4589 18.6151 12.3492C18.4952 12.114 18.304 11.9228 18.0688 11.8029C17.9591 11.747 17.8142 11.7086 17.562 11.688C17.305 11.667 16.9749 11.6667 16.5013 11.6667H12.668C12.1944 11.6667 11.8643 11.667 11.6072 11.688Z" fill="currentColor"/>
</svg>
