<svg width="64" height="64" viewBox="0 0 64 64" fill="none" xmlns="http://www.w3.org/2000/svg">
<path d="M13.2509 3.3335H50.7517C52.5474 3.33348 54.016 3.33346 55.2095 3.43097C56.4448 3.5319 57.5606 3.7472 58.6026 4.27811C60.2333 5.10901 61.5591 6.43484 62.39 8.06558C62.9209 9.10756 63.1362 10.2233 63.2372 11.4586C63.3347 12.6521 63.3347 14.1207 63.3346 15.9163V24.084C63.3347 25.8797 63.3347 27.3482 63.2372 28.5417C63.1362 29.777 62.9209 30.8928 62.39 31.9348C61.5591 33.5655 60.2333 34.8913 58.6025 35.7222C57.8834 36.0886 57.1305 36.3044 56.3248 36.4365C55.7456 36.5315 55.1539 36.3672 54.7065 35.9872C54.2591 35.6072 54.0013 35.0498 54.0013 34.4629V12.6668H10.0013V34.4629C10.0013 35.0498 9.74345 35.6072 9.29609 35.9872C8.84873 36.3672 8.25702 36.5315 7.67778 36.4365C6.87208 36.3044 6.11921 36.0886 5.40005 35.7222C3.76932 34.8913 2.44348 33.5655 1.61258 31.9348C1.08167 30.8928 0.866375 29.777 0.765442 28.5417C0.667931 27.3482 0.667948 25.8796 0.667969 24.084V15.9164C0.667948 14.1207 0.667931 12.6521 0.765442 11.4586C0.866375 10.2233 1.08167 9.10756 1.61258 8.06558C2.44348 6.43484 3.76932 5.10901 5.40005 4.27811C6.44203 3.7472 7.55776 3.5319 8.79312 3.43097C9.9866 3.33346 11.4552 3.33348 13.2509 3.3335Z" fill="currentColor"/>
<path fill-rule="evenodd" clip-rule="evenodd" d="M14.0013 16.6668H50.0013V50.2147C50.0013 51.6391 50.0014 52.828 49.922 53.7993C49.8392 54.8123 49.6603 55.7634 49.202 56.6628C48.4989 58.0426 47.3771 59.1645 45.9972 59.8676C45.0979 60.3258 44.1468 60.5048 43.1338 60.5875C42.1625 60.6669 40.9735 60.6669 39.5491 60.6669H24.4534C23.029 60.6669 21.8401 60.6669 20.8689 60.5875C19.8558 60.5048 18.9047 60.3258 18.0054 59.8676C16.6255 59.1645 15.5037 58.0426 14.8006 56.6628C14.3423 55.7634 14.1634 54.8123 14.0806 53.7993C14.0013 52.828 14.0013 51.6391 14.0013 50.2147L14.0013 16.6668ZM32.0013 42.6668C27.583 42.6668 24.0013 39.0851 24.0013 34.6668C24.0013 30.2486 27.583 26.6668 32.0013 26.6668C36.4196 26.6668 40.0013 30.2486 40.0013 34.6668C40.0013 39.0851 36.4196 42.6668 32.0013 42.6668Z" fill="currentColor"/>
</svg>
