<svg width="20" height="20" viewBox="0 0 20 20" fill="none" xmlns="http://www.w3.org/2000/svg">
<path d="M11.8358 0C11.5554 0 11.3285 0.226881 11.3285 0.507262V7.64275C11.3285 7.92313 11.5554 8.15001 11.8358 8.15001H18.9374C19.2178 8.15001 19.4447 7.92313 19.4447 7.64275C19.4447 3.44695 16.0316 0 11.8358 0Z" fill="currentColor"/>
<path d="M13.4467 17.8286L10.3375 9.49487V0.640752C10.3375 0.286587 10.0509 0 9.69671 0C4.39675 0 0 4.31132 0 9.61128C0 14.9112 4.39675 19.2653 9.69671 19.2653C10.8568 19.2653 11.9925 19.0594 13.0719 18.6539C13.4029 18.5294 13.5707 18.1602 13.4467 17.8286Z" fill="currentColor"/>
<path d="M19.5 9.3291H12.5001C12.336 9.3291 12.1827 9.41827 12.089 9.56742C11.9957 9.71658 11.9742 9.90679 12.0318 10.077L14.4898 17.3684C14.5367 17.5057 14.6304 17.617 14.7515 17.6775C14.8727 17.7385 15.0092 17.7436 15.1343 17.6916C18.0445 16.4794 20 13.3195 20 9.88248C20 9.57661 19.7764 9.3291 19.5 9.3291Z" fill="currentColor"/>
</svg>
