<svg width="8" height="8" viewBox="0 0 8 8" fill="none" xmlns="http://www.w3.org/2000/svg">
<g clip-path="url(#clip0_590_5942)">
<path d="M6.11361 2.80193L5.19807 1.88639C4.56707 1.2554 4.25158 0.9399 3.90701 1.00948C3.56244 1.07906 3.3941 1.49227 3.05742 2.31867L2.74166 3.09372C2.6488 3.32165 2.60237 3.43562 2.52234 3.5226C2.49509 3.55222 2.46517 3.57926 2.43297 3.60339C2.33836 3.67426 2.2203 3.70898 1.98418 3.77843C1.42603 3.94259 1.14696 4.02467 1.05139 4.21666C1.02028 4.27915 1.00284 4.34754 1.00023 4.4173C0.992196 4.63161 1.19789 4.8373 1.60928 5.24869L2.75131 6.39072C3.1627 6.80211 3.36839 7.0078 3.5827 6.99977C3.65246 6.99716 3.72085 6.97972 3.78334 6.94861C3.97533 6.85304 4.05741 6.57397 4.22157 6.01582C4.29102 5.7797 4.32574 5.66164 4.39661 5.56703C4.42074 5.53483 4.44778 5.50491 4.4774 5.47766C4.56439 5.39763 4.67835 5.3512 4.90628 5.25834L5.68132 4.94258C6.50773 4.6059 6.92094 4.43756 6.99052 4.09299C7.0601 3.74842 6.7446 3.43293 6.11361 2.80193Z" stroke="CURRENTCOLOR"/>
<path d="M0.999947 6.97783L2.18628 5.79065" stroke="CURRENTCOLOR" stroke-linecap="round"/>
</g>
<defs>
<clipPath id="clip0_590_5942">
<rect width="8" height="8" fill="white"/>
</clipPath>
</defs>
</svg>
