<svg width="24" height="24" viewBox="0 0 24 24" fill="none" xmlns="http://www.w3.org/2000/svg">
<path d="M15 21H20.0935C20.741 21 21 20.7673 21 20.1891V19.8109C21 19.2327 20.741 19 20.0935 19H15" stroke="white" stroke-width="1.5" stroke-linecap="round" stroke-linejoin="round"/>
<path d="M12.4953 12.7933L10.5861 10.8841C8.99513 9.29315 8.96482 8.05066 10.4801 6.53544C11.9953 5.02021 13.2378 5.05051 14.8288 6.6415L16.7379 8.55069C18.3289 10.1417 18.3592 11.3842 16.844 12.8994C15.3288 14.4146 14.0863 14.3843 12.4953 12.7933Z" stroke="white" stroke-width="1.5" stroke-linecap="round" stroke-linejoin="round"/>
<path d="M16.1368 16.435L20.3794 12.1924" stroke="white" stroke-width="1.5" stroke-linecap="round" stroke-linejoin="round"/>
<path d="M6.94437 7.24264L11.187 3" stroke="white" stroke-width="1.5" stroke-linecap="round" stroke-linejoin="round"/>
<path d="M3.0549 19.4972C3.83122 17.5615 5.77706 14.9301 7.40531 13.6244L8.3984 12.8279C8.52442 12.7372 8.65045 12.6565 8.7916 12.6011C8.7916 12.6918 8.79664 12.7927 8.81176 12.8884C8.86722 13.3119 9.05878 13.7051 9.39652 14.0428C9.73932 14.3856 10.1577 14.5873 10.5862 14.6427C10.687 14.6478 10.7879 14.6578 10.8887 14.6478C10.8332 14.804 10.7475 14.9502 10.6417 15.0712L9.85526 16.0643C8.55467 17.6925 5.91317 19.6485 3.98245 20.4197C3.68503 20.5307 3.39769 20.45 3.21621 20.2635C3.02465 20.077 2.93391 19.7896 3.0549 19.4972Z" stroke="white" stroke-width="1.5" stroke-linecap="round" stroke-linejoin="round"/>
</svg>
