<svg width="24" height="24" viewBox="0 0 24 24" fill="none" xmlns="http://www.w3.org/2000/svg">
<path fill-rule="evenodd" clip-rule="evenodd" d="M12.0003 4.5C7.85821 4.5 4.50034 7.85787 4.50034 12C4.50034 12.2973 4.51762 12.5904 4.55118 12.8784C4.78583 14.8914 5.81794 16.6611 7.32321 17.8633C9.24169 17.3049 11.4753 16.3447 13.7506 15.0311C16.0261 13.7173 17.9745 12.263 19.4174 10.8806C19.1187 8.88381 18.0329 7.14428 16.4843 5.98743C15.2336 5.05306 13.6823 4.5 12.0003 4.5ZM19.4985 12.1661C18.0697 13.4376 16.2779 14.7267 14.2506 15.8971C12.2225 17.068 10.2094 17.9755 8.39326 18.5772C9.46355 19.1654 10.6929 19.5 12.0003 19.5C16.087 19.5 19.4102 16.2315 19.4985 12.1661ZM7.11725 18.9583C8.49889 19.9297 10.183 20.5 12.0003 20.5C16.6948 20.5 20.5003 16.6944 20.5003 12C20.5003 11.7475 20.4893 11.4976 20.4678 11.2507C20.7056 11.0111 20.9291 10.7735 21.1374 10.5386C21.9171 9.65928 22.503 8.79734 22.8191 8.00524C23.1326 7.21979 23.2115 6.41783 22.8259 5.74999C22.3775 4.97325 21.4617 4.64905 20.4351 4.58374C19.4452 4.52077 18.2277 4.68668 16.8835 5.04181C15.5017 4.07044 13.817 3.5 12.0003 3.5C7.30592 3.5 3.50034 7.30558 3.50034 12C3.50034 12.2526 3.51137 12.5027 3.53299 12.7498C2.55336 13.7364 1.80093 14.7079 1.36058 15.5966C0.903948 16.5182 0.726896 17.4733 1.1753 18.25C1.56088 18.9178 2.29485 19.2505 3.13181 19.3717C3.97588 19.494 5.01525 19.4176 6.1666 19.182C6.4739 19.1191 6.7912 19.0444 7.11725 18.9583ZM6.14751 18.164C4.97728 17.0524 4.1233 15.611 3.73435 13.9887C3.0593 14.7313 2.5605 15.4273 2.25663 16.0406C1.8505 16.8603 1.84667 17.4128 2.04133 17.75C2.20804 18.0387 2.5818 18.2816 3.27515 18.382C3.9614 18.4814 4.87491 18.4256 5.96612 18.2023C6.02614 18.19 6.0866 18.1772 6.14751 18.164ZM17.8532 5.83613C18.8349 5.62244 19.6879 5.53823 20.3716 5.58172C21.2847 5.63981 21.7652 5.9128 21.9599 6.24999C22.1266 6.53874 22.1501 6.98387 21.8904 7.63454C21.6333 8.27854 21.1282 9.04174 20.3892 9.87511C20.3489 9.92052 20.308 9.96608 20.2665 10.0118C19.8775 8.38912 19.0232 6.94751 17.8532 5.83613Z" fill="currentColor"/>
</svg>
