<svg width="20" height="20" viewBox="0 0 20 20" fill="none" xmlns="http://www.w3.org/2000/svg">
<path fill-rule="evenodd" clip-rule="evenodd" d="M8.9 2H8.87737C7.77641 2 6.91948 2 6.23209 2.05616C5.53416 2.11318 4.9671 2.23058 4.45704 2.49047C3.61031 2.9219 2.9219 3.61031 2.49047 4.45704C2.23058 4.9671 2.11318 5.53416 2.05616 6.23209C2 6.91948 2 7.77641 2 8.87737V8.9V11.1V11.1226C2 12.2236 2 13.0805 2.05616 13.7679C2.11318 14.4658 2.23058 15.0329 2.49047 15.543C2.9219 16.3897 3.61031 17.0781 4.45704 17.5095C4.9671 17.7694 5.53416 17.8868 6.23209 17.9438C6.91948 18 7.77641 18 8.87736 18H8.9H11.1H11.1226C12.2236 18 13.0805 18 13.7679 17.9438C14.4658 17.8868 15.0329 17.7694 15.543 17.5095C16.3897 17.0781 17.0781 16.3897 17.5095 15.543C17.7694 15.0329 17.8868 14.4658 17.9438 13.7679C18 13.0805 18 12.2236 18 11.1227V11.1226V11.1V8.9V8.87736V8.87734C18 7.77639 18 6.91947 17.9438 6.23209C17.8868 5.53416 17.7694 4.9671 17.5095 4.45704C17.0781 3.61031 16.3897 2.9219 15.543 2.49047C15.0329 2.23058 14.4658 2.11318 13.7679 2.05616C13.0805 2 12.2236 2 11.1226 2H11.1H8.9ZM4.91103 3.38148C5.25662 3.20539 5.67744 3.10481 6.31352 3.05284C6.95545 3.00039 7.77164 3 8.9 3H11.1C12.2284 3 13.0446 3.00039 13.6865 3.05284C14.3226 3.10481 14.7434 3.20539 15.089 3.38148C15.7475 3.71703 16.283 4.25247 16.6185 4.91103C16.7946 5.25662 16.8952 5.67744 16.9472 6.31352C16.9996 6.95545 17 7.77164 17 8.9V11.1C17 12.2284 16.9996 13.0446 16.9472 13.6865C16.8952 14.3226 16.7946 14.7434 16.6185 15.089C16.283 15.7475 15.7475 16.283 15.089 16.6185C14.7434 16.7946 14.3226 16.8952 13.6865 16.9472C13.0446 16.9996 12.2284 17 11.1 17H8.9C7.77164 17 6.95545 16.9996 6.31352 16.9472C5.67744 16.8952 5.25662 16.7946 4.91103 16.6185C4.25247 16.283 3.71703 15.7475 3.38148 15.089C3.20539 14.7434 3.10481 14.3226 3.05284 13.6865C3.00039 13.0446 3 12.2284 3 11.1V8.9C3 7.77164 3.00039 6.95545 3.05284 6.31352C3.10481 5.67744 3.20539 5.25662 3.38148 4.91103C3.71703 4.25247 4.25247 3.71703 4.91103 3.38148ZM10.5 6.66667C10.5 6.39052 10.2761 6.16667 9.99998 6.16667C9.72383 6.16667 9.49998 6.39052 9.49998 6.66667V9.5H6.66664C6.3905 9.5 6.16664 9.72386 6.16664 10C6.16664 10.2761 6.3905 10.5 6.66664 10.5H9.49998V13.3333C9.49998 13.6095 9.72383 13.8333 9.99998 13.8333C10.2761 13.8333 10.5 13.6095 10.5 13.3333V10.5H13.3333C13.6095 10.5 13.8333 10.2761 13.8333 10C13.8333 9.72386 13.6095 9.5 13.3333 9.5H10.5V6.66667Z" fill="currentColor"/>
</svg>
