<svg width="19" height="19" viewBox="0 0 19 19" fill="none" xmlns="http://www.w3.org/2000/svg">
<path d="M14 18.6667H4.66675C2.0918 18.6667 0 16.575 0 14V4.66675C0 2.09155 2.0918 0 4.66675 0H14C16.5752 0 18.6667 2.09155 18.6667 4.66675V14C18.6667 16.575 16.5752 18.6667 14 18.6667Z" fill="#8CA0B4"/>
<path d="M6.10345 15V16H4.89655V15C3.93103 15 2.96552 14.3333 2 13.3333L3.2069 11.6667C3.93103 12.6667 4.89655 13 5.86207 13C6.58621 13 7.06896 12.6667 7.06896 12C7.06896 11.3333 6.58621 11.3333 5.62069 11C3.93103 10.3333 2.72414 10 2.72414 7.66667C2.72414 5.66667 3.68966 4.66667 5.13793 4.33333V3H6.34483V4C7.31035 4 8.03448 4.66667 8.75862 5.33333L7.7931 7.33333C7.06897 6.66667 6.34483 6.33333 5.62069 6.33333C4.89655 6.33333 4.65517 6.66667 4.65517 7.33333C4.65517 8 5.13793 8.33333 6.10345 8.66667C7.7931 9.33333 9 10 9 12C8.75862 13.3333 7.7931 14.6667 6.10345 15Z" fill="#FFFCFA"/>
<path d="M13.6647 15.6454L11.8088 12.3454C11.7612 12.2608 11.7136 12.1762 11.714 12.0918C11.7143 12.0074 11.7151 11.8386 11.7154 11.7541C11.7158 11.6697 11.812 11.5857 11.9082 11.5017C11.9565 11.4175 12.0044 11.4177 12.1003 11.4181L12.8673 11.4213L12.8805 4.06769C13.4078 4.06988 14.8445 4.06149 14.8445 4.06149C14.9092 4.06129 14.9113 4.08551 14.9075 5.01408L14.8807 11.4297L15.7436 11.4333C15.7915 11.4335 15.8874 11.4339 15.935 11.5185C15.9826 11.6031 16.0302 11.6877 16.0298 11.7721C16.0295 11.8565 16.0771 11.9412 16.0284 12.1098C16.0281 12.1942 15.9798 12.2784 15.9315 12.3626L14.0482 15.647C14.0478 15.7315 13.9516 15.8155 13.9037 15.8153C13.8078 15.8149 13.7123 15.7301 13.6647 15.6454Z" fill="#F58220"/>
</svg>
