<svg width="19" height="19" viewBox="0 0 19 19" fill="none" xmlns="http://www.w3.org/2000/svg">
<path d="M14 18.6667H4.66675C2.0918 18.6667 0 16.575 0 14V4.66675C0 2.09155 2.0918 0 4.66675 0H14C16.5752 0 18.6667 2.09155 18.6667 4.66675V14C18.6667 16.575 16.5752 18.6667 14 18.6667Z" fill="#8CA0B4"/>
<path d="M6.10345 15V16H4.89655V15C3.93103 15 2.96552 14.3333 2 13.3333L3.2069 11.6667C3.93103 12.6667 4.89655 13 5.86207 13C6.58621 13 7.06896 12.6667 7.06896 12C7.06896 11.3333 6.58621 11.3333 5.62069 11C3.93103 10.3333 2.72414 10 2.72414 7.66667C2.72414 5.66667 3.68966 4.66667 5.13793 4.33333V3H6.34483V4C7.31035 4 8.03448 4.66667 8.75862 5.33333L7.7931 7.33333C7.06897 6.66667 6.34483 6.33333 5.62069 6.33333C4.89655 6.33333 4.65517 6.66667 4.65517 7.33333C4.65517 8 5.13793 8.33333 6.10345 8.66667C7.7931 9.33333 9 10 9 12C8.75862 13.3333 7.7931 14.6667 6.10345 15Z" fill="#FFFCFA"/>
<path d="M14.0933 4.22641L15.9629 7.51865C16.0109 7.60306 16.0588 7.68748 16.0588 7.7719C16.0588 7.85631 16.0588 8.02514 16.0588 8.10956C16.0588 8.19398 15.9629 8.27839 15.867 8.36281C15.8191 8.44723 15.7712 8.44723 15.6753 8.44723H14.9083L14.9257 15.8008C14.3984 15.8008 12.9618 15.8152 12.9618 15.8152C12.8971 15.8157 12.8948 15.7914 12.8948 14.8629V8.44723H12.032C11.984 8.44723 11.8881 8.44723 11.8402 8.36281C11.7923 8.27839 11.7443 8.19398 11.7443 8.10956C11.7443 8.02514 11.6964 7.94073 11.7443 7.7719C11.7443 7.68748 11.7923 7.60306 11.8402 7.51865L13.7098 4.22641C13.7098 4.14199 13.8057 4.05757 13.8536 4.05757C13.9495 4.05757 14.0454 4.14199 14.0933 4.22641Z" fill="#F58220"/>
</svg>
