<svg width="75" height="75" viewBox="0 0 75 75" fill="none" xmlns="http://www.w3.org/2000/svg">
<path d="M59.375 62.5H62.5M50 62.5H43.75V53.125M53.125 53.125H62.5V43.75H59.375M43.75 43.75H50M12.5 53.1242C12.5 50.2121 12.5 48.756 12.9758 47.6074C13.6101 46.076 14.826 44.8601 16.3574 44.2258C17.506 43.75 18.9621 43.75 21.8742 43.75C24.7863 43.75 26.244 43.75 27.3926 44.2258C28.924 44.8601 30.1396 46.076 30.7739 47.6074C31.2497 48.756 31.2497 50.2129 31.2497 53.125C31.2497 56.0371 31.2497 57.4932 30.7739 58.6418C30.1396 60.1732 28.924 61.3896 27.3926 62.0239C26.244 62.4997 24.7863 62.4997 21.8742 62.4997C18.9621 62.4997 17.506 62.4997 16.3574 62.0239C14.826 61.3896 13.6101 60.174 12.9758 58.6426C12.5 57.494 12.5 56.0363 12.5 53.1242ZM43.75 21.8742C43.75 18.9621 43.75 17.506 44.2258 16.3574C44.8601 14.826 46.076 13.6101 47.6074 12.9758C48.756 12.5 50.2121 12.5 53.1242 12.5C56.0363 12.5 57.494 12.5 58.6426 12.9758C60.174 13.6101 61.3896 14.826 62.0239 16.3574C62.4997 17.506 62.4997 18.9629 62.4997 21.875C62.4997 24.7871 62.4997 26.2432 62.0239 27.3918C61.3896 28.9232 60.174 30.1396 58.6426 30.7739C57.494 31.2497 56.0363 31.2497 53.1242 31.2497C50.2121 31.2497 48.756 31.2497 47.6074 30.7739C46.076 30.1396 44.8601 28.924 44.2258 27.3926C43.75 26.244 43.75 24.7863 43.75 21.8742ZM12.5 21.8742C12.5 18.9621 12.5 17.506 12.9758 16.3574C13.6101 14.826 14.826 13.6101 16.3574 12.9758C17.506 12.5 18.9621 12.5 21.8742 12.5C24.7863 12.5 26.244 12.5 27.3926 12.9758C28.924 13.6101 30.1396 14.826 30.7739 16.3574C31.2497 17.506 31.2497 18.9629 31.2497 21.875C31.2497 24.7871 31.2497 26.2432 30.7739 27.3918C30.1396 28.9232 28.924 30.1396 27.3926 30.7739C26.244 31.2497 24.7863 31.2497 21.8742 31.2497C18.9621 31.2497 17.506 31.2497 16.3574 30.7739C14.826 30.1396 13.6101 28.924 12.9758 27.3926C12.5 26.244 12.5 24.7863 12.5 21.8742Z" stroke="#686868" stroke-width="2" stroke-linecap="round" stroke-linejoin="round"/>
</svg>
