<svg xmlns="http://www.w3.org/2000/svg" width="752pt" height="752pt" version="1.1" viewBox="0 0 752 752">
 <path d="m498.13 224.46-138.4 138.4c-8.125 8.125-8.1367 21.332 0 29.469 8.1211 8.1211 21.332 8.1367 29.469 0l138.35-138.35v46.266c0 10.434 8.4805 18.93 18.945 18.93 10.438 0 18.941-8.4766 18.941-18.93v-94.746c0-5.2109-2.1172-9.9414-5.543-13.371-3.4297-3.4336-8.1602-5.5547-13.387-5.5547h-94.746c-10.43 0-18.926 8.4805-18.926 18.941 0 10.441 8.4727 18.945 18.926 18.945zm67.305 189.43v-90.051 194.38c0 26.078-18.789 47.219-41.992 47.219h-294.88c-23.191 0-41.992-21.18-41.992-47.219v-284.43c0-26.074 18.785-47.215 41.992-47.215h202.21-92.664c10.465 0 18.945 8.4805 18.945 18.941 0 10.461-8.4805 18.945-18.945 18.945h-102.87c-6.0273 0-10.785 5.6562-10.785 12.637v277.82c0 6.8516 4.8281 12.637 10.785 12.637h281.52c6.0234 0 10.785-5.6562 10.785-12.637v-101.02c0-10.461 8.4805-18.941 18.945-18.941 10.461 0 18.941 8.4805 18.941 18.941z" fill-rule="evenodd"/>
</svg>