<svg width="65" height="65" viewBox="0 0 65 65" fill="none" xmlns="http://www.w3.org/2000/svg">
<g filter="url(#filter0_d_19765_144267)">
<circle cx="31.5" cy="30.5" r="24.5" fill="#0A2762"/>
<path d="M17.7188 29.75C18.133 29.75 18.4688 30.0858 18.4688 30.5C18.4688 37.697 24.303 43.5312 31.5 43.5312C35.0454 43.5312 37.9355 41.7471 39.9756 39.8975C40.9849 38.9824 41.7692 38.0653 42.3027 37.375H37.5264C37.1122 37.375 36.7764 37.0392 36.7764 36.625C36.7764 36.2108 37.1122 35.875 37.5264 35.875H43.75C44.1642 35.875 44.5 36.2108 44.5 36.625V43.5156C44.5 43.9298 44.1642 44.2656 43.75 44.2656C43.3358 44.2656 43 43.9298 43 43.5156V38.9014C42.4709 39.5358 41.7958 40.2722 40.9834 41.0088C38.8012 42.9873 35.5658 45.0312 31.5 45.0312C23.4746 45.0312 16.9688 38.5254 16.9688 30.5C16.9688 30.0858 17.3045 29.75 17.7188 29.75ZM31.5 15.9688C39.5721 15.9688 46.0312 22.4762 46.0312 30.5C46.0312 30.9142 45.6955 31.25 45.2812 31.25C44.867 31.25 44.5312 30.9142 44.5312 30.5C44.5312 23.3014 38.7404 17.4688 31.5 17.4688C27.1289 17.4688 23.8479 19.287 21.6445 21.123C20.5545 22.0314 19.7342 22.9405 19.1846 23.625H23.8438C24.258 23.625 24.5938 23.9608 24.5938 24.375C24.5938 24.7892 24.258 25.125 23.8438 25.125H17.7188C17.3045 25.125 16.9688 24.7892 16.9688 24.375V17.4844C16.9688 17.0702 17.3045 16.7344 17.7188 16.7344C18.133 16.7344 18.4688 17.0702 18.4688 17.4844V22.1416C19.0333 21.4914 19.7712 20.731 20.6836 19.9707C23.074 17.9787 26.6837 15.9688 31.5 15.9688Z" fill="white"/>
</g>
<defs>
<filter id="filter0_d_19765_144267" x="0" y="0" width="65" height="65" filterUnits="userSpaceOnUse" color-interpolation-filters="sRGB">
<feFlood flood-opacity="0" result="BackgroundImageFix"/>
<feColorMatrix in="SourceAlpha" type="matrix" values="0 0 0 0 0 0 0 0 0 0 0 0 0 0 0 0 0 0 127 0" result="hardAlpha"/>
<feOffset dx="1" dy="2"/>
<feGaussianBlur stdDeviation="4"/>
<feComposite in2="hardAlpha" operator="out"/>
<feColorMatrix type="matrix" values="0 0 0 0 0.0117647 0 0 0 0 0.192157 0 0 0 0 0.294118 0 0 0 0.16 0"/>
<feBlend mode="normal" in2="BackgroundImageFix" result="effect1_dropShadow_19765_144267"/>
<feBlend mode="normal" in="SourceGraphic" in2="effect1_dropShadow_19765_144267" result="shape"/>
</filter>
</defs>
</svg>
