<svg xmlns="http://www.w3.org/2000/svg" width="20" height="20" viewBox="0 0 20 20" fill="currentColor">
  <path fill-rule="evenodd" clip-rule="evenodd" d="M3 9.16667C3 5.76091 5.76091 3 9.16667 3C12.5724 3 15.3333 5.76091 15.3333 9.16667C15.3333 12.5724 12.5724 15.3333 9.16667 15.3333C5.76091 15.3333 3 12.5724 3 9.16667ZM9.16667 2C5.20863 2 2 5.20863 2 9.16667C2 13.1247 5.20863 16.3333 9.16667 16.3333C10.9657 16.3333 12.61 15.6704 13.8684 14.5755L16.3131 17.0202C16.5084 17.2155 16.825 17.2155 17.0202 17.0202C17.2155 16.825 17.2155 16.5084 17.0202 16.3131L14.5755 13.8684C15.6704 12.61 16.3333 10.9657 16.3333 9.16667C16.3333 5.20863 13.1247 2 9.16667 2Z"
                                                                                                                          fill="currentColor" />
</svg>