<svg xmlns="http://www.w3.org/2000/svg" width="53" height="53" viewBox="0 0 53 53" fill="none">
<path d="M6.625 23.0034C6.625 15.9421 6.625 12.4114 7.45868 11.2236C8.29236 10.0358 11.6121 8.89945 18.2517 6.62671L19.5166 6.19371C22.9777 5.00899 24.7082 4.41663 26.5 4.41663C28.2918 4.41663 30.0223 5.00899 33.4834 6.19371L34.7483 6.62671C41.3879 8.89945 44.7076 10.0358 45.5413 11.2236C46.375 12.4114 46.375 15.9421 46.375 23.0034C46.375 24.07 46.375 25.2267 46.375 26.4809C46.375 38.9316 37.014 44.9737 31.1407 47.5394C29.5475 48.2353 28.7509 48.5833 26.5 48.5833C24.2491 48.5833 23.4525 48.2353 21.8593 47.5394C15.986 44.9737 6.625 38.9316 6.625 26.4809C6.625 25.2267 6.625 24.07 6.625 23.0034Z" stroke="black" stroke-width="1.5"/>
<path d="M26.5 17.6666V26.5" stroke="black" stroke-width="1.5" stroke-linecap="round"/>
<circle cx="26.5003" cy="33.125" r="2.20833" fill="black"/>
</svg>