<svg xmlns="http://www.w3.org/2000/svg" width="24" height="17" viewBox="0 0 24 17" fill="none">
  <path d="M17.75 0C18.2057 -2.12514e-10 18.5851 -0.000668115 18.8955 0.0205078C19.2126 0.0421471 19.5124 0.0887172 19.8027 0.208984C20.4764 0.488089 21.0119 1.02358 21.291 1.69727C21.4113 1.98762 21.4579 2.28744 21.4795 2.60449C21.49 2.75789 21.4946 2.92819 21.4971 3.11621C21.6689 3.1582 21.8356 3.21709 21.998 3.2998C22.5155 3.56346 22.9365 3.98451 23.2002 4.50195C23.3719 4.8391 23.4397 5.19546 23.4707 5.5752C23.501 5.94632 23.5 6.40252 23.5 6.9502V12.5498C23.5 13.0975 23.501 13.5537 23.4707 13.9248C23.4397 14.3045 23.3719 14.6609 23.2002 14.998C22.9365 15.5155 22.5155 15.9365 21.998 16.2002C21.6609 16.3719 21.3045 16.4397 20.9248 16.4707C20.5537 16.501 20.0975 16.5 19.5498 16.5H1.75C0.783502 16.5 1.61064e-08 15.7165 0 14.75V12.75C5.15403e-07 12.3358 0.335787 12 0.75 12H2V3.9502C2 3.40252 1.99897 2.94632 2.0293 2.5752C2.06033 2.19546 2.12809 1.8391 2.2998 1.50195C2.56346 0.984508 2.98451 0.563456 3.50195 0.299805C3.8391 0.128092 4.19546 0.0603287 4.5752 0.0292969C4.94632 -0.00102559 5.40252 0 5.9502 0H17.75ZM1.5 14.75C1.5 14.8881 1.61193 15 1.75 15H14.3008L14.2998 14.998C14.1281 14.6609 14.0603 14.3045 14.0293 13.9248C14.0186 13.7939 14.0129 13.6523 14.0088 13.5H1.5V14.75ZM17.9502 4.5C17.3778 4.5 16.9931 4.50024 16.6973 4.52441C16.4103 4.54788 16.2732 4.59059 16.1826 4.63672C15.9475 4.75655 15.7565 4.9475 15.6367 5.18262C15.5906 5.27316 15.5479 5.41027 15.5244 5.69727C15.5002 5.99314 15.5 6.37777 15.5 6.9502V12.5498L15.5029 13.2803C15.5061 13.4847 15.5123 13.6549 15.5244 13.8027C15.5479 14.0897 15.5906 14.2268 15.6367 14.3174C15.7565 14.5525 15.9475 14.7435 16.1826 14.8633C16.2732 14.9094 16.4103 14.9521 16.6973 14.9756C16.9931 14.9998 17.3778 15 17.9502 15H19.5498C20.1222 15 20.5069 14.9998 20.8027 14.9756C21.0897 14.9521 21.2268 14.9094 21.3174 14.8633C21.5525 14.7435 21.7435 14.5525 21.8633 14.3174C21.9094 14.2268 21.9521 14.0897 21.9756 13.8027C21.9998 13.5069 22 13.1222 22 12.5498V6.9502C22 6.37777 21.9998 5.99314 21.9756 5.69727C21.9521 5.41027 21.9094 5.27316 21.8633 5.18262C21.7435 4.9475 21.5525 4.75655 21.3174 4.63672C21.2268 4.59059 21.0897 4.54788 20.8027 4.52441C20.5069 4.50024 20.1222 4.5 19.5498 4.5H17.9502ZM5.9502 1.5C5.37777 1.5 4.99314 1.50024 4.69727 1.52441C4.41027 1.54788 4.27316 1.59059 4.18262 1.63672C3.9475 1.75655 3.75655 1.9475 3.63672 2.18262C3.59059 2.27316 3.54788 2.41027 3.52441 2.69727C3.50024 2.99314 3.5 3.37777 3.5 3.9502V12H14V6.9502C14 6.40252 13.999 5.94632 14.0293 5.5752C14.0603 5.19546 14.1281 4.8391 14.2998 4.50195C14.5635 3.98451 14.9845 3.56346 15.502 3.2998C15.8391 3.12809 16.1955 3.06033 16.5752 3.0293C16.9463 2.99897 17.4025 3 17.9502 3H19.5498C19.7045 3 19.8519 3.00041 19.9922 3.00098C19.9896 2.89147 19.9884 2.79469 19.9824 2.70703C19.966 2.46632 19.9372 2.34864 19.9053 2.27148C19.7784 1.9652 19.5348 1.72159 19.2285 1.59473C19.1514 1.56277 19.0337 1.534 18.793 1.51758C18.5455 1.50071 18.226 1.5 17.75 1.5H5.9502ZM18.75 5.75C19.3023 5.75 19.75 6.19772 19.75 6.75C19.75 7.30228 19.3023 7.75 18.75 7.75C18.1977 7.75 17.75 7.30228 17.75 6.75C17.75 6.19772 18.1977 5.75 18.75 5.75Z" fill="currentColor"/>
</svg>