<svg width="34" height="34"  viewBox="0 0 34 34" fill="none" xmlns="http://www.w3.org/2000/svg">
<rect x="7.5" y="7.5" width="19" height="19" rx="3.5" stroke="currentColor"/>
<path  d="M13.502 12.5H22.5018M13.5025 17H22.502M13.5025 21.5H22.502" stroke="currentColor" stroke-width="1.2" stroke-linecap="round" stroke-linejoin="round"/>
<path d="M11.0805 13.2289C11.4831 13.2289 11.8094 12.9026 11.8094 12.5C11.8094 12.0974 11.4831 11.7711 11.0805 11.7711C10.6779 11.7711 10.3516 12.0974 10.3516 12.5C10.3516 12.9026 10.6779 13.2289 11.0805 13.2289Z" fill="currentColor"/>
<path d="M11.0805 17.6728C11.4831 17.6728 11.8094 17.3464 11.8094 16.9438C11.8094 16.5412 11.4831 16.2149 11.0805 16.2149C10.6779 16.2149 10.3516 16.5412 10.3516 16.9438C10.3516 17.3464 10.6779 17.6728 11.0805 17.6728Z" fill="currentColor"/>
<path d="M11.0805 22.2289C11.4831 22.2289 11.8094 21.9026 11.8094 21.5C11.8094 21.0974 11.4831 20.7711 11.0805 20.7711C10.6779 20.7711 10.3516 21.0974 10.3516 21.5C10.3516 21.9026 10.6779 22.2289 11.0805 22.2289Z" fill="currentColor"/>
</svg>
