<svg xmlns="http://www.w3.org/2000/svg" width="24" height="24" viewBox="0 0 24 24" fill="none">
<path fill-rule="evenodd" clip-rule="evenodd" d="M10.5 4C10.5 3.17157 11.1715 2.5 12 2.5C12.8284 2.5 13.5 3.17157 13.5 4V5.28988C13.5 5.51109 13.6453 5.70601 13.8573 5.76911C14.8453 6.06314 15.7354 6.5861 16.4659 7.27713C16.6266 7.4291 16.868 7.45748 17.0595 7.34691L18.1783 6.70097C18.8958 6.28675 19.8131 6.53257 20.2274 7.25001C20.6416 7.96745 20.3958 8.88483 19.6783 9.29905L18.5609 9.94419C18.3695 10.0547 18.2734 10.2777 18.3244 10.4927C18.4391 10.9759 18.5 11.4805 18.5 12C18.5 12.5195 18.4391 13.0241 18.3244 13.5073C18.2734 13.7223 18.3695 13.9453 18.5609 14.0558L19.6782 14.7009C20.3957 15.1151 20.6415 16.0325 20.2273 16.7499C19.8131 17.4674 18.8957 17.7132 18.1782 17.299L17.0595 16.6531C16.868 16.5425 16.6266 16.5709 16.4659 16.7229C15.7354 17.4139 14.8453 17.9369 13.8573 18.2309C13.6453 18.294 13.5 18.4889 13.5 18.7101V20C13.5 20.8284 12.8284 21.5 12 21.5C11.1715 21.5 10.5 20.8284 10.5 20V18.7101C10.5 18.4889 10.3546 18.294 10.1426 18.2309C9.1547 17.9369 8.26462 17.414 7.53413 16.723C7.37346 16.571 7.13205 16.5426 6.94053 16.6532L5.82191 17.299C5.10447 17.7133 4.18708 17.4674 3.77287 16.75C3.35866 16.0326 3.60447 15.1152 4.32191 14.701L5.43907 14.056C5.63044 13.9455 5.72659 13.7225 5.67555 13.5075C5.56081 13.0242 5.49996 12.5195 5.49996 12C5.49996 11.4805 5.56081 10.9758 5.67555 10.4925C5.72659 10.2775 5.63044 10.0545 5.43907 9.94403L4.32183 9.29898C3.60439 8.88477 3.35858 7.96739 3.77279 7.24995C4.187 6.53251 5.10439 6.2867 5.82183 6.70091L6.94053 7.34679C7.13205 7.45737 7.37347 7.42899 7.53413 7.27702C8.26462 6.58604 9.1547 6.06311 10.1426 5.7691C10.3546 5.706 10.5 5.51108 10.5 5.28988V4ZM12 1.5C10.6193 1.5 9.49998 2.61929 9.49998 4V4.9269C8.62184 5.23728 7.81913 5.70633 7.12618 6.29928L6.32183 5.83488C5.1261 5.14453 3.59712 5.55421 2.90677 6.74995C2.21641 7.94568 2.6261 9.47465 3.82183 10.165L4.62511 10.6288C4.54289 11.0737 4.49996 11.532 4.49996 12C4.49996 12.468 4.54289 12.9263 4.62511 13.3712L3.82191 13.8349C2.62618 14.5253 2.21649 16.0543 2.90684 17.25C3.5972 18.4457 5.12618 18.8554 6.32191 18.1651L7.12618 17.7007C7.81913 18.2937 8.62184 18.7627 9.49998 19.0731V20C9.49998 21.3807 10.6193 22.5 12 22.5C13.3807 22.5 14.5 21.3807 14.5 20V19.0731C15.3782 18.7627 16.1809 18.2936 16.8739 17.7006L17.6782 18.165C18.874 18.8554 20.4029 18.4457 21.0933 17.2499C21.7837 16.0542 21.374 14.5252 20.1782 13.8349L19.3748 13.371C19.4571 12.9262 19.5 12.4679 19.5 12C19.5 11.5321 19.4571 11.0738 19.3748 10.629L20.1783 10.1651C21.374 9.47471 21.7837 7.94574 21.0934 6.75001C20.403 5.55427 18.874 5.14459 17.6783 5.83494L16.8739 6.29939C16.1809 5.7064 15.3782 5.23731 14.5 4.92691V4C14.5 2.61929 13.3807 1.5 12 1.5ZM9.49996 12C9.49996 10.6193 10.6192 9.5 12 9.5C13.3807 9.5 14.5 10.6193 14.5 12C14.5 13.3807 13.3807 14.5 12 14.5C10.6192 14.5 9.49996 13.3807 9.49996 12ZM12 8.5C10.067 8.5 8.49996 10.067 8.49996 12C8.49996 13.933 10.067 15.5 12 15.5C13.933 15.5 15.5 13.933 15.5 12C15.5 10.067 13.933 8.5 12 8.5Z" fill="currentColor"/>
</svg>