<svg width="181" height="22" viewBox="0 0 181 22" fill="none" xmlns="http://www.w3.org/2000/svg">
<path d="M13.208 9.84C15.48 9.84 17.464 11.088 18.52 12.912C19 13.808 19.32 14.832 19.32 15.92C19.32 17.04 19 18.064 18.52 18.96C17.464 20.784 15.48 22 13.208 22H6.616C4.344 22 2.36 20.784 1.304 18.96C0.824 18.096 0.536 17.136 0.504 16.08H3.576C3.672 17.68 4.984 18.96 6.616 18.96H13.208C14.872 18.96 16.248 17.584 16.248 15.92C16.248 14.256 14.872 12.912 13.208 12.912H6.584C4.888 12.912 3.32 12.208 2.232 11.056C1.88 10.704 1.56 10.288 1.304 9.84C0.792 8.976 0.504 7.92 0.504 6.832C0.504 5.744 0.792 4.72 1.304 3.824C2.36 2 4.344 0.751999 6.584 0.751999H13.048C13.112 0.751999 13.176 0.751999 13.208 0.751999C13.272 0.751999 13.304 0.751999 13.368 0.751999C15.576 0.815998 17.464 2.032 18.488 3.824C18.52 3.824 18.52 3.824 18.52 3.824C19 4.656 19.288 5.648 19.32 6.672H16.248C16.152 5.104 14.904 3.888 13.336 3.824H6.584C4.92 3.824 3.576 5.168 3.576 6.832C3.576 8.4 4.76 9.68 6.296 9.84C6.392 9.84 6.488 9.84 6.616 9.84C6.776 9.84 6.968 9.84 7.128 9.84H13.208ZM37.8998 0.815998H40.9398V22H37.8998V12.208H25.4198V22H22.3478V0.815998H25.4198V9.136H37.8998V0.815998ZM54.852 22H51.78V5.36H54.852V22ZM62.98 3.824H44.004V0.751999H62.98V3.824ZM78.7795 11.024L85.4675 22H81.8835L75.7715 11.984L75.5795 11.696C75.5795 11.696 75.5795 11.696 75.5475 11.696C75.4835 11.728 75.4515 11.728 75.3875 11.76C75.3555 11.76 75.3555 11.76 75.3235 11.76C75.2595 11.792 75.1635 11.792 75.0995 11.824C74.9075 11.856 74.7155 11.888 74.5555 11.92C74.4915 11.952 74.4275 11.952 74.3955 11.952C74.3635 11.952 74.3315 11.952 74.2995 11.984C74.2355 11.984 74.1715 11.984 74.1075 11.984C74.0755 12.016 74.0435 12.016 74.0115 12.016C73.9475 12.016 73.8515 12.016 73.7875 12.048C73.6915 12.048 73.6275 12.048 73.5315 12.048C73.4355 12.08 73.3395 12.08 73.2755 12.08C73.2435 12.08 73.2435 12.08 73.2115 12.08C73.1795 12.08 73.1155 12.08 73.0515 12.08C73.0195 12.08 72.9555 12.08 72.9235 12.08C72.8595 12.08 72.7955 12.08 72.6995 12.08H68.7635V22H65.6915V0.688H83.3235C83.3555 0.943998 83.3555 1.2 83.3555 1.456C83.3555 2.256 83.2595 3.024 83.0995 3.76C82.6515 5.808 81.6275 7.6 80.1875 9.008C80.0595 9.168 79.9315 9.296 79.7715 9.392C79.7395 9.456 79.6755 9.488 79.6435 9.52L79.6115 9.552C79.5475 9.584 79.4835 9.648 79.4195 9.712C79.3875 9.744 79.3555 9.776 79.2915 9.808C79.2595 9.84 79.2275 9.872 79.1955 9.872C79.0995 9.968 78.9715 10.064 78.8435 10.16C78.7795 10.192 78.7155 10.224 78.6835 10.256H78.6515C78.6195 10.32 78.5555 10.352 78.4915 10.384C78.4915 10.384 78.4915 10.384 78.4595 10.384C78.4595 10.416 78.4275 10.416 78.3955 10.448L78.7795 11.024ZM75.7075 8.4C76.5715 8.048 77.3395 7.504 78.0435 6.832C78.9075 5.968 79.5475 4.912 79.9315 3.76H68.7635V9.008H72.6995C73.7555 9.008 74.7795 8.816 75.7075 8.4ZM86.7705 22L95.5705 6.16L97.5865 9.84L90.8345 22H86.7705ZM100.627 4.336L110.387 22H106.355L98.5785 7.984L96.5625 4.336L98.5785 0.688L100.627 4.336ZM131.794 9.936C131.858 10.416 131.89 10.928 131.89 11.44C131.89 11.952 131.858 12.496 131.794 13.008C131.09 17.712 127.314 21.424 122.546 22H112.754V5.36H115.826V18.96H122.322C125.49 18.48 128.018 16.08 128.658 13.008C128.786 12.496 128.85 11.952 128.85 11.44C128.85 10.928 128.786 10.416 128.69 9.936C128.306 8.08 127.282 6.48 125.81 5.36C124.626 4.464 123.154 3.92 121.554 3.824H112.754V0.751999H121.362C126.674 0.815998 131.058 4.784 131.794 9.936ZM134.973 22H138.045V0.719999H134.973V22ZM137.949 0.815998V21.904H135.069V0.815998H137.949ZM134.973 0.719999H138.045V22H134.973V0.719999ZM141.098 22V7.216L144.17 10.288V22H141.098ZM154.922 0.751999H157.962V21.904L154.922 18.864L144.17 8.112L141.098 5.04V0.719999L154.922 14.512V0.751999ZM180.756 9.136V22H171.572C168.595 22 165.876 20.848 163.924 18.96C161.94 17.04 160.692 14.352 160.692 11.408C160.692 8.464 161.94 5.776 163.924 3.856C165.876 1.968 168.595 0.815998 171.572 0.815998H180.692V3.856H170.484C166.644 4.368 163.7 7.568 163.7 11.408C163.7 15.248 166.644 18.448 170.484 18.96H177.684V12.208H171.636L170.196 9.136H180.756Z" fill="url(#paint0_linear_5009_62931)"/>
<defs>
<linearGradient id="paint0_linear_5009_62931" x1="-1" y1="-2" x2="3.98549" y2="53.5526" gradientUnits="userSpaceOnUse">
<stop stop-color="#FA9528"/>
<stop offset="1" stop-color="#F76F08"/>
</linearGradient>
</defs>
</svg>
