<?xml version="1.0" encoding="UTF-8"?>
<svg id="Main" xmlns="http://www.w3.org/2000/svg" xmlns:xlink="http://www.w3.org/1999/xlink" viewBox="0 0 2801.33 1003.48">
  <defs>
    <style>
      .cls-1 {
        font-size: 140px;
      }

      .cls-1, .cls-2, .cls-3 {
        fill: #fff;
      }

      .cls-4 {
        letter-spacing: -.05em;
      }

      .cls-5 {
        letter-spacing: -.13em;
      }

      .cls-6 {
        letter-spacing: -.06em;
      }

      .cls-7 {
        fill: none;
      }

      .cls-7, .cls-2, .cls-8, .cls-9, .cls-10, .cls-11, .cls-12, .cls-13 {
        stroke-width: 0px;
      }

      .cls-8 {
        fill: url(#radial-gradient-2);
      }

      .cls-9 {
        fill: url(#radial-gradient-5);
      }

      .cls-10 {
        fill: url(#radial-gradient);
      }

      .cls-14 {
        letter-spacing: -.06em;
      }

      .cls-3 {
        stroke: #fff;
        stroke-miterlimit: 10;
        stroke-width: 8px;
      }

      .cls-11 {
        fill: url(#radial-gradient-6);
      }

      .cls-12 {
        fill: url(#radial-gradient-3);
      }

      .cls-15 {
        letter-spacing: -.03em;
      }

      .cls-13 {
        fill: url(#radial-gradient-4);
      }
    </style>
    <radialGradient id="radial-gradient" cx="433.92" cy="248.89" fx="433.92" fy="248.89" r="241.37" gradientUnits="userSpaceOnUse">
      <stop offset="0" stop-color="#ff8a00"/>
      <stop offset=".31" stop-color="#fe8600"/>
      <stop offset=".57" stop-color="#fb7c00"/>
      <stop offset=".8" stop-color="#f76b00"/>
      <stop offset="1" stop-color="#f35700"/>
    </radialGradient>
    <radialGradient id="radial-gradient-2" cx="252.33" cy="423.46" fx="212.48" fy="268.26" r="160.23" gradientUnits="userSpaceOnUse">
      <stop offset="0" stop-color="#ffb628"/>
      <stop offset=".29" stop-color="#febd32"/>
      <stop offset=".78" stop-color="#fcd34f"/>
      <stop offset="1" stop-color="#fbde5e"/>
    </radialGradient>
    <radialGradient id="radial-gradient-3" cx="-8637.17" cy="392.15" fx="-8637.17" fy="392.15" r="244.41" gradientTransform="translate(-8441.31) rotate(-180) scale(1 -1)" xlink:href="#radial-gradient"/>
    <radialGradient id="radial-gradient-4" cx="-8757.49" cy="538.92" fx="-8865.58" fy="598.53" r="152.38" gradientTransform="translate(-8441.31) rotate(-180) scale(1 -1)" gradientUnits="userSpaceOnUse">
      <stop offset="0" stop-color="#fcb426"/>
      <stop offset=".49" stop-color="#fdbc31"/>
      <stop offset=".78" stop-color="#fbd24f"/>
      <stop offset="1" stop-color="#f9dd5e"/>
    </radialGradient>
    <radialGradient id="radial-gradient-5" cx="442.04" cy="510.52" fx="442.04" fy="510.52" r="258.55" xlink:href="#radial-gradient"/>
    <radialGradient id="radial-gradient-6" cx="173.89" cy="722.85" fx="173.89" fy="722.85" r="270.32" xlink:href="#radial-gradient-2"/>
  </defs>
  <g>
    <g>
      <path class="cls-10" d="m414.75,212.74v85c0,12.51-10.14,26.76-22.66,31.81l-45.34,18.32-67.99,27.47-45.34,18.31c-.07.03-.14.06-.21.09-12.42,5.13-22.45,19.29-22.45,31.73v-84.99c0-12.52,10.14-26.77,22.66-31.82l45.34-18.31,67.99-27.47,45.34-18.32.06-.03c12.49-5.08,22.6-19.29,22.6-31.79Z"/>
      <path class="cls-8" d="m414.75,297.76v84.99c0,12.52-10.14,26.76-22.66,31.82l-45.34,18.31-67.99,27.47-45.34,18.32c-12.52,5.05-22.66,19.3-22.66,31.82v-85c0-12.52,10.14-26.76,22.66-31.82l45.34-18.31,67.99-27.47,45.34-18.31.21-.09c12.42-5.13,22.45-19.29,22.45-31.73Z"/>
    </g>
    <g>
      <path class="cls-12" d="m210.68,345.2v87.91c0,12.94,10.49,27.26,23.44,31.97l46.89,17.06,70.33,25.6,46.89,17.06c12.95,4.71,23.44,19.03,23.44,31.97v-87.91c0-12.94-10.5-27.26-23.44-31.97l-46.89-17.06-70.33-25.6-46.89-17.06c-12.95-4.72-23.44-19.03-23.44-31.97Z"/>
      <path class="cls-13" d="m210.69,433.13v87.91c0,12.94,10.49,27.26,23.44,31.97l46.89,17.06,70.33,25.6,46.89,17.06c12.95,4.72,23.44,19.03,23.44,31.97v-87.91c0-12.94-10.5-27.26-23.44-31.97l-46.89-17.06-70.33-25.6-46.89-17.06c-12.95-4.71-23.44-19.03-23.44-31.97Z"/>
    </g>
    <g>
      <path class="cls-9" d="m421.5,471.79v91.05c0,13.4-10.87,28.67-24.28,34.08l-48.56,19.62-72.83,29.43-48.56,19.61c-.08.03-.15.07-.23.1-13.3,5.5-24.05,20.67-24.05,33.99v-91.04c0-13.41,10.87-28.68,24.28-34.09l48.56-19.61,72.83-29.43,48.56-19.62.07-.03c13.38-5.44,24.21-20.67,24.21-34.06Z"/>
      <path class="cls-11" d="m421.5,562.87v91.04c0,13.41-10.87,28.67-24.28,34.09l-48.56,19.61-72.83,29.43-48.56,19.62c-13.41,5.41-24.28,20.68-24.28,34.09v-91.05c0-13.41,10.87-28.67,24.28-34.09l48.56-19.61,72.83-29.43,48.56-19.61.23-.1c13.3-5.5,24.05-20.67,24.05-33.99Z"/>
    </g>
  </g>
  <g>
    <path class="cls-2" d="m1141.13,529.29c-5.21-8.74-11.93-15.99-19.95-21.55-7.86-5.59-16.24-10.07-24.89-13.3-8.47-3.2-16.28-5.74-23.2-7.56l-26.9-7.24c-4.83-1.27-10.21-2.95-15.98-4.98-5.71-2.1-11.24-4.78-16.43-7.96-5.09-3.2-9.33-7.23-12.58-11.95-3.13-4.73-4.71-10.49-4.71-17.12,0-7.97,2.31-15.19,6.85-21.43,4.68-6.32,11.28-11.37,19.61-15,8.5-3.67,18.58-5.52,29.97-5.52,15.56,0,28.85,3.54,39.5,10.53,10.61,6.96,16.49,16.47,17.98,29.07l.21,1.76h34.87l-.07-2.06c-.44-13.71-4.75-26.14-12.8-36.93-7.93-10.74-18.8-19.31-32.32-25.45-13.47-6.21-29.07-9.36-46.34-9.36s-32.82,3.19-46.71,9.48c-13.88,6.23-25.1,15.15-33.38,26.5-8.23,11.33-12.4,24.77-12.4,39.96,0,18.34,6.31,33.41,18.75,44.78,12.24,11.19,29.04,19.91,49.92,25.91l32.59,9.31c9.18,2.55,17.83,5.56,25.73,8.96,7.71,3.31,13.99,7.67,18.69,12.94,4.55,5.11,6.86,11.88,6.86,20.13,0,9.15-2.73,17.26-8.1,24.09-5.45,6.85-12.97,12.3-22.33,16.2-9.46,3.85-20.29,5.8-32.21,5.8-10.24,0-19.94-1.53-28.81-4.54-8.7-3.06-15.99-7.76-21.67-13.92-5.54-6.19-8.76-14.15-9.58-23.66l-.16-1.83h-37.08l.15,2.14c1.06,14.79,5.66,27.96,13.69,39.17,8.1,11.18,19.33,20.01,33.39,26.25,14.06,6.2,30.91,9.35,50.06,9.35,20.54,0,38.28-3.5,52.7-10.41,14.58-6.94,25.82-16.45,33.39-28.25,7.68-11.82,11.57-25.24,11.57-39.87,0-12.72-2.66-23.63-7.91-32.44Z"/>
    <path class="cls-2" d="m668.94,507.74c-7.86-5.59-16.24-10.07-24.89-13.3-8.47-3.2-16.28-5.74-23.2-7.56l-26.9-7.24c-4.84-1.27-10.22-2.95-15.98-4.98-5.71-2.1-11.24-4.78-16.43-7.96-5.09-3.2-9.33-7.23-12.58-11.95-3.12-4.73-4.71-10.49-4.71-17.12,0-7.98,2.31-15.19,6.85-21.43,4.68-6.32,11.28-11.37,19.61-15,8.5-3.67,18.58-5.52,29.97-5.52,15.56,0,28.85,3.54,39.49,10.53,10.61,6.96,16.49,16.47,17.98,29.07l.21,1.76h34.87l-.07-2.06c-.44-13.71-4.75-26.14-12.8-36.93-7.92-10.74-18.8-19.31-32.32-25.45-13.47-6.21-29.07-9.36-46.34-9.36s-32.82,3.19-46.71,9.48c-13.87,6.23-25.1,15.15-33.38,26.5-8.23,11.33-12.4,24.77-12.4,39.96,0,18.34,6.31,33.41,18.75,44.78,12.24,11.19,29.03,19.91,49.92,25.91l32.59,9.31c9.18,2.55,17.83,5.56,25.73,8.96,7.71,3.31,13.99,7.67,18.69,12.94,4.55,5.11,6.86,11.88,6.86,20.13,0,9.15-2.73,17.26-8.1,24.09-5.45,6.85-12.96,12.3-22.33,16.2-9.46,3.85-20.29,5.8-32.21,5.8-10.24,0-19.94-1.53-28.81-4.54-8.7-3.06-15.99-7.76-21.67-13.92-5.54-6.19-8.76-14.15-9.58-23.66l-.16-1.83h-37.08l.15,2.14c1.06,14.78,5.66,27.96,13.69,39.17,8.1,11.18,19.33,20.01,33.39,26.25,14.07,6.2,30.91,9.35,50.06,9.35,20.54,0,38.28-3.5,52.7-10.41,14.58-6.94,25.82-16.45,33.39-28.25,7.68-11.82,11.57-25.24,11.57-39.87,0-12.72-2.66-23.63-7.91-32.44-5.21-8.74-11.93-15.99-19.95-21.55Z"/>
    <polygon class="cls-2" points="894.02 482.94 756.86 482.94 756.86 365.04 720.8 365.04 720.8 633.79 756.86 633.79 756.86 515.38 894.02 515.38 894.02 633.79 930.08 633.79 930.08 365.04 894.02 365.04 894.02 482.94"/>
  </g>
  <line class="cls-3" x1="1249.04" y1="364.79" x2="1249.04" y2="637.18"/>
  <text class="cls-1" transform="translate(1349.04 480.68)"><tspan class="cls-15" x="0" y="0">K</tspan><tspan class="cls-6" x="87.65" y="0">iến tạo </tspan><tspan class="cls-5" x="0" y="152">T</tspan><tspan class="cls-14" x="71.15" y="152">ài chính </tspan><tspan class="cls-4" x="545.2" y="152">t</tspan><tspan class="cls-6" x="589.3" y="152">hịnh vượng</tspan></text>
  <rect class="cls-7" y="0" width="2801.33" height="1003.48"/>
</svg>