<svg xmlns="http://www.w3.org/2000/svg" width="220" height="30" viewBox="0 0 220 30" fill="none" class="mdl-js">
  <circle cx="15" cy="15" r="15" fill="white" />
  <mask id="mask0" mask-type="alpha" maskUnits="userSpaceOnUse" x="0" y="0" width="30" height="30">
    <circle cx="15" cy="15" r="15" fill="currentColor" />
  </mask>
  <g mask="url(#mask0)">
    <path d="M28.951 9.46997C30.9882 14.4536 30.2683 21.5927 24.9225 26.2706C19.4848 31.025 12.3162 30.7651 7.73621 28.1051C7.78216 27.9981 7.82811 27.8911 7.87407 27.7994C8.88502 25.6286 10.1717 23.6412 11.9485 22.0055C13.1893 20.859 14.5985 19.9876 16.1302 19.2844C16.7736 18.9939 17.4169 18.7187 18.0755 18.4589C18.2287 18.3977 18.3972 18.3671 18.5504 18.3671C20.557 18.3671 22.5636 18.3671 24.5702 18.3671C25.2748 18.3671 25.9334 18.199 26.5155 17.7709C27.0669 17.3429 27.4039 16.7926 27.5112 16.1046C27.5418 15.8753 27.5571 15.646 27.5265 15.4167C27.4346 14.6676 26.8985 14.2702 26.2704 13.9644C26.1785 13.9186 26.0866 13.888 25.9947 13.8574C26.1632 13.6128 26.3317 13.4141 26.6687 13.4752C26.8525 13.5058 27.0669 13.4752 27.2508 13.4905C27.4039 13.5058 27.4499 13.4294 27.4805 13.2918C27.5724 12.7414 27.6796 12.2064 27.7869 11.656C27.8022 11.5949 27.8175 11.5185 27.8481 11.4726C28.2004 10.7847 28.5681 10.1273 28.951 9.46997Z"
                                                                                                                            fill="#FF6A24" />
    <path d="M4.62676 15.5849C4.51954 15.753 4.397 15.8295 4.19787 15.8142C3.67707 15.7989 3.17159 15.8142 2.6508 15.8142C2.49762 15.8142 2.40571 15.8448 2.3904 16.0282C2.31381 16.7773 2.20659 17.5111 2.11468 18.2601C2.09936 18.3824 2.09936 18.5047 2.31381 18.4589C1.90024 19.1927 1.48666 19.8806 1.08841 20.5991C1.07309 20.5532 1.04245 20.5074 1.01182 20.4462C0.56761 19.2691 0.26126 18.0461 0.108084 16.7926C-0.014456 15.7683 -0.0297749 14.7594 0.0468128 13.7351C0.368481 9.97447 1.88492 6.76414 4.59612 4.15003C6.7559 2.07096 9.34456 0.786835 12.3008 0.236495C13.4956 0.0224734 14.6904 -0.0386746 15.9005 0.0224743C18.0909 0.144772 20.1741 0.740974 22.1041 1.78051C22.2113 1.84166 22.2419 1.88752 22.196 2.00981C21.5526 3.55383 20.7561 5.0214 19.6839 6.30553C18.6576 7.51322 17.4322 8.47632 16.0536 9.24068C14.9355 9.85217 13.7407 10.3414 12.5612 10.8305C12.4847 10.8611 12.4081 10.8764 12.3315 10.8917C11.9026 10.907 11.4584 10.9223 11.0295 10.9223C9.25266 10.9223 7.47582 10.9223 5.69899 10.9376C5.25478 10.9376 4.79525 10.9376 4.36636 11.0446C3.27881 11.3197 2.6508 12.3134 2.62016 13.3224C2.58953 14.1937 3.03373 14.8205 3.79961 15.2027C4.07533 15.3556 4.35104 15.4626 4.62676 15.5849Z"
                                                                                                                            fill="#FF6A24" />
    <path d="M11.535 12.9096C11.4431 12.9096 11.3665 12.8943 11.2899 12.8943C9.71222 12.8943 8.14983 12.8943 6.57212 12.8943C6.52617 12.8943 6.4649 12.879 6.43426 12.8943C6.35767 12.9402 6.23513 13.0013 6.21982 13.0778C6.2045 13.1542 6.28109 13.2918 6.35767 13.3376C6.51085 13.4294 6.69466 13.4752 6.86315 13.5364C7.75157 13.8574 8.65531 14.1784 9.54372 14.4995C10.0492 14.6829 10.4781 14.9581 10.6313 15.5237C10.8151 16.2269 10.4015 17.1136 9.6969 17.511C9.39055 17.6792 9.05356 17.7862 8.70126 17.7862C6.77125 17.8015 4.84124 17.8168 2.89591 17.8321C2.84996 17.8321 2.804 17.8321 2.72742 17.8168C2.78869 17.3429 2.83464 16.8843 2.89591 16.3951C3.03377 16.3951 3.17163 16.3951 3.29417 16.3951C4.62679 16.3798 5.95942 16.3645 7.29205 16.3645C7.4299 16.3645 7.56776 16.3645 7.58308 16.1964C7.61371 16.0282 7.49117 15.967 7.35331 15.9212C6.37299 15.5543 5.39267 15.2027 4.41235 14.8358C4.22854 14.7746 4.06004 14.6982 3.89155 14.6065C3.34012 14.2854 3.09504 13.781 3.20226 13.1389C3.3248 12.3134 3.8456 11.7478 4.62679 11.5796C4.77997 11.549 4.93314 11.549 5.08632 11.549C7.36863 11.5337 9.66626 11.5185 11.9486 11.5032C12.7757 11.5032 13.5876 11.4879 14.4147 11.4879C14.476 11.4879 14.5526 11.4879 14.6445 11.4879C14.5526 12.2675 14.476 13.0166 14.3841 13.7963C14.5679 13.7963 14.7211 13.7963 14.8895 13.7963C15.1653 13.7963 15.4563 13.7963 15.732 13.7963C15.8546 13.7963 15.9158 13.7657 15.9311 13.6281C15.9924 12.9707 16.069 12.3134 16.1456 11.656C16.1456 11.6102 16.1609 11.5796 16.1609 11.5185C17.1412 11.5185 18.1062 11.5185 19.1019 11.5185C18.9487 13.0778 18.7955 14.6371 18.6423 16.2269C18.7189 16.2269 18.7802 16.2422 18.8415 16.2422C20.4498 16.2422 22.0428 16.2422 23.6512 16.2422C23.789 16.2422 23.8963 16.2269 23.9269 16.0741C23.9575 15.9059 23.8809 15.8295 23.7278 15.7683C22.7934 15.432 21.8743 15.0804 20.94 14.7441C20.5877 14.6218 20.266 14.4383 19.9903 14.1784C19.2704 13.5211 19.592 12.2828 20.2201 11.8089C20.5877 11.549 20.9859 11.3809 21.4301 11.3809C23.3448 11.3656 25.2442 11.3809 27.1589 11.3809C27.1895 11.3809 27.2202 11.3809 27.2661 11.3962C27.1895 11.8701 27.0976 12.3287 27.0057 12.8179C26.9291 12.8179 26.8679 12.8179 26.7913 12.8179C25.5046 12.8179 24.2332 12.8179 22.9466 12.8179C22.7934 12.8179 22.5943 12.8026 22.5636 13.0166C22.533 13.2306 22.7168 13.2765 22.8547 13.3224C23.8963 13.6892 24.9379 14.0561 25.9794 14.4536C26.2092 14.5453 26.439 14.6829 26.6381 14.8358C27.067 15.1721 27.0517 15.646 26.9445 16.1046C26.7453 16.9913 25.9794 17.6334 25.0298 17.7251C24.9225 17.7404 24.8153 17.7404 24.7234 17.7404C21.7059 17.7404 18.7036 17.7404 15.6861 17.7404C15.6095 17.7404 15.5482 17.7404 15.441 17.7404C15.5176 16.976 15.5942 16.2269 15.6707 15.4626C15.5942 15.4626 15.5329 15.4473 15.4716 15.4473C15.104 15.4473 14.7517 15.4626 14.3841 15.4473C14.2003 15.432 14.139 15.5084 14.1237 15.6766C14.0471 16.3186 13.9552 16.9607 13.8786 17.6028C13.8633 17.6945 13.848 17.7556 13.7407 17.7556C12.8217 17.7404 11.9179 17.7404 10.9989 17.7404C10.9836 17.7404 10.9836 17.7404 10.9376 17.7251C11.1521 16.1199 11.3359 14.53 11.535 12.9096Z"
                                                                                                                            fill="#141285" />
    <path d="M12.7298 18.3213C9.4365 20.3545 7.29204 23.3202 5.66838 26.7598C5.4233 26.5611 5.20886 26.3777 4.99441 26.1789C4.96378 26.1484 4.96378 26.0414 4.99441 25.9802C5.4233 24.956 5.92878 23.9776 6.49553 23.0298C7.56776 21.2564 8.88507 19.7124 10.5547 18.4742C10.6925 18.3672 10.8304 18.3213 11.0142 18.3213C11.581 18.3366 12.163 18.3213 12.7298 18.3213Z"
                                                                                                                            fill="#FF6A24" />
    <path d="M24.3099 3.23285C24.5396 3.4163 24.7541 3.58445 24.9532 3.75261C24.9991 3.79848 24.9991 3.90549 24.9685 3.98192C24.6315 4.91444 24.2333 5.81639 23.7431 6.67248C23.0232 7.9566 22.1501 9.11843 21.0472 10.0968C20.6336 10.4637 20.2048 10.7847 19.7606 11.1516C19.7606 10.9439 19.745 10.9223 19.6684 10.9223C19.1936 10.9223 18.5811 10.9223 18.0909 10.907C21.0779 9.11844 22.9772 6.42788 24.3099 3.23285Z"
                                                                                                                            fill="#FF6A24" />
    <path d="M6.92443 18.4283C5.33141 20.1252 4.13664 22.082 3.14099 24.2069C2.92655 23.9165 2.74274 23.6566 2.57425 23.3814C2.54361 23.3355 2.54361 23.2438 2.57425 23.198C3.29417 21.5316 4.18259 19.9571 5.31609 18.5354C5.36204 18.4895 5.42331 18.4283 5.46926 18.4283C5.92879 18.4283 6.41895 18.4283 6.92443 18.4283Z"
                                                                                                                            fill="#FF6A24" />
    <path d="M23.8197 10.8306C25.1523 9.31712 26.0867 7.62023 26.8679 5.78577C27.067 6.07622 27.2508 6.32082 27.4346 6.59599C27.4653 6.64185 27.45 6.71829 27.4346 6.76415C26.9138 8.14 26.2552 9.4547 25.4127 10.6777C25.3208 10.8 25.2442 10.8458 25.0911 10.8306C24.6775 10.8153 24.2792 10.8306 23.8197 10.8306Z"
                                                                                                                            fill="#FF6A24" />
  </g>
  <path d="M44.0294 8.45197V9.59446C44.0294 10.2906 43.8574 10.827 43.5135 11.2038C43.1777 11.5723 42.6781 11.7566 42.0147 11.7566C41.3513 11.7566 40.8477 11.5723 40.5037 11.2038C40.1679 10.827 40 10.2906 40 9.59446V5.12278C40 4.42664 40.1679 3.89429 40.5037 3.52575C40.8477 3.14901 41.3513 2.96065 42.0147 2.96065C42.6781 2.96065 43.1777 3.14901 43.5135 3.52575C43.8574 3.89429 44.0294 4.42664 44.0294 5.12278V5.95815H42.7518V5.03678C42.7518 4.72557 42.6863 4.50854 42.5552 4.38569C42.4324 4.25465 42.2645 4.18913 42.0516 4.18913C41.8386 4.18913 41.6666 4.25465 41.5356 4.38569C41.4128 4.50854 41.3513 4.72557 41.3513 5.03678V9.68045C41.3513 9.99167 41.4128 10.2087 41.5356 10.3316C41.6666 10.4544 41.8386 10.5158 42.0516 10.5158C42.2645 10.5158 42.4324 10.4544 42.5552 10.3316C42.6863 10.2087 42.7518 9.99167 42.7518 9.68045V8.45197H44.0294Z"
                                                                                                                          fill="currentColor" />
  <path d="M46.0901 9.68045C46.0901 9.99167 46.1515 10.2128 46.2744 10.3438C46.4054 10.4667 46.5774 10.5281 46.7904 10.5281C47.0033 10.5281 47.1712 10.4667 47.294 10.3438C47.4251 10.2128 47.4906 9.99167 47.4906 9.68045V5.03678C47.4906 4.72557 47.4251 4.50854 47.294 4.38569C47.1712 4.25465 47.0033 4.18913 46.7904 4.18913C46.5774 4.18913 46.4054 4.25465 46.2744 4.38569C46.1515 4.50854 46.0901 4.72557 46.0901 5.03678V9.68045ZM44.7388 5.12278C44.7388 4.42664 44.9149 3.89429 45.267 3.52575C45.6192 3.14901 46.127 2.96065 46.7904 2.96065C47.4537 2.96065 47.9615 3.14901 48.3137 3.52575C48.6658 3.89429 48.8419 4.42664 48.8419 5.12278V9.59446C48.8419 10.2906 48.6658 10.827 48.3137 11.2038C47.9615 11.5723 47.4537 11.7566 46.7904 11.7566C46.127 11.7566 45.6192 11.5723 45.267 11.2038C44.9149 10.827 44.7388 10.2906 44.7388 9.59446V5.12278ZM45.0828 2.60439L46.1761 1.24077H47.3923L48.4857 2.60439H47.3309L46.7781 1.92872L46.2375 2.60439H45.0828Z"
                                                                                                                          fill="currentColor" />
  <path d="M50.924 5.4299V11.6583H49.7078V3.05893H51.4031L52.7913 8.20627V3.05893H53.9952V11.6583H52.607L50.924 5.4299Z"
                                                                                                                          fill="currentColor" />
  <path d="M56.9897 6.86723H58.8816V9.59446C58.8816 10.2906 58.7096 10.827 58.3656 11.2038C58.0299 11.5723 57.5303 11.7566 56.8669 11.7566C56.2035 11.7566 55.6998 11.5723 55.3559 11.2038C55.0201 10.827 54.8522 10.2906 54.8522 9.59446V5.12278C54.8522 4.42664 55.0201 3.89429 55.3559 3.52575C55.6998 3.14901 56.2035 2.96065 56.8669 2.96065C57.5303 2.96065 58.0299 3.14901 58.3656 3.52575C58.7096 3.89429 58.8816 4.42664 58.8816 5.12278V5.95815H57.604V5.03678C57.604 4.72557 57.5385 4.50854 57.4074 4.38569C57.2846 4.25465 57.1167 4.18913 56.9037 4.18913C56.6908 4.18913 56.5188 4.25465 56.3878 4.38569C56.2649 4.50854 56.2035 4.72557 56.2035 5.03678V9.68045C56.2035 9.99167 56.2649 10.2087 56.3878 10.3316C56.5188 10.4544 56.6908 10.5158 56.9037 10.5158C57.1167 10.5158 57.2846 10.4544 57.4074 10.3316C57.5385 10.2087 57.604 9.99167 57.604 9.68045V8.09571H56.9897V6.86723Z"
                                                                                                                          fill="currentColor" />
  <path d="M61.2639 3.05893H65.4408V4.28741H64.028V11.6583H62.6767V4.28741H61.2639V3.05893Z" fill="currentColor" />
  <path d="M67.3012 8.80823L65.5936 3.05893H67.0064L68.0383 6.97779L69.0703 3.05893H70.3602L68.6526 8.80823V11.6583H67.3012V8.80823Z"
                                                                                                                          fill="currentColor" />
  <path d="M76.733 8.45197V9.59446C76.733 10.2906 76.561 10.827 76.2171 11.2038C75.8813 11.5723 75.3817 11.7566 74.7183 11.7566C74.0549 11.7566 73.5512 11.5723 73.2073 11.2038C72.8715 10.827 72.7036 10.2906 72.7036 9.59446V5.12278C72.7036 4.42664 72.8715 3.89429 73.2073 3.52575C73.5512 3.14901 74.0549 2.96065 74.7183 2.96065C75.3817 2.96065 75.8813 3.14901 76.2171 3.52575C76.561 3.89429 76.733 4.42664 76.733 5.12278V5.95815H75.4554V5.03678C75.4554 4.72557 75.3899 4.50854 75.2588 4.38569C75.136 4.25465 74.9681 4.18913 74.7552 4.18913C74.5422 4.18913 74.3702 4.25465 74.2392 4.38569C74.1163 4.50854 74.0549 4.72557 74.0549 5.03678V9.68045C74.0549 9.99167 74.1163 10.2087 74.2392 10.3316C74.3702 10.4544 74.5422 10.5158 74.7552 10.5158C74.9681 10.5158 75.136 10.4544 75.2588 10.3316C75.3899 10.2087 75.4554 9.99167 75.4554 9.68045V8.45197H76.733Z"
                                                                                                                          fill="currentColor" />
  <path d="M78.7937 9.68045C78.7937 9.99167 78.8551 10.2128 78.978 10.3438C79.109 10.4667 79.281 10.5281 79.4939 10.5281C79.7069 10.5281 79.8748 10.4667 79.9976 10.3438C80.1287 10.2128 80.1942 9.99167 80.1942 9.68045V5.03678C80.1942 4.72557 80.1287 4.50854 79.9976 4.38569C79.8748 4.25465 79.7069 4.18913 79.4939 4.18913C79.281 4.18913 79.109 4.25465 78.978 4.38569C78.8551 4.50854 78.7937 4.72557 78.7937 5.03678V9.68045ZM77.4424 5.12278C77.4424 4.42664 77.6185 3.89429 77.9706 3.52575C78.3228 3.14901 78.8306 2.96065 79.4939 2.96065C80.1573 2.96065 80.6651 3.14901 81.0173 3.52575C81.3694 3.89429 81.5455 4.42664 81.5455 5.12278V9.59446C81.5455 10.2906 81.3694 10.827 81.0173 11.2038C80.6651 11.5723 80.1573 11.7566 79.4939 11.7566C78.8306 11.7566 78.3228 11.5723 77.9706 11.2038C77.6185 10.827 77.4424 10.2906 77.4424 9.59446V5.12278ZM81.6069 0C81.8035 0 81.9632 0.0327596 82.086 0.0982789C82.2171 0.163798 82.3195 0.245697 82.3932 0.343976C82.4669 0.434065 82.5201 0.536438 82.5529 0.651097C82.5856 0.757566 82.602 0.859939 82.602 0.958218C82.602 1.15478 82.5488 1.32676 82.4423 1.47418C82.344 1.61341 82.2089 1.74035 82.0369 1.85501C82.0205 1.87139 82.0082 1.88368 82 1.89187C81.9919 1.90006 81.9837 1.92053 81.9755 1.95329H81.1647C81.2138 1.69121 81.2752 1.51513 81.349 1.42504C81.4227 1.33495 81.4923 1.26943 81.5578 1.22848C81.7216 1.15478 81.8035 1.06469 81.8035 0.958218C81.8035 0.925458 81.7912 0.892698 81.7666 0.859939C81.7503 0.818989 81.697 0.798515 81.6069 0.798515C81.566 0.798515 81.5209 0.818989 81.4718 0.859939C81.4309 0.900889 81.3899 0.945933 81.349 0.995072H81.3367L80.7347 0.540533C80.8248 0.393115 80.9395 0.266172 81.0787 0.159703C81.2179 0.0532344 81.394 0 81.6069 0ZM77.7495 2.60439L78.8428 1.24077H80.059L81.1524 2.60439H79.9976L79.4448 1.92872L78.9043 2.60439H77.7495Z"
                                                                                                                          fill="currentColor" />
  <path d="M86.3213 3.05893C87.0011 3.05893 87.5048 3.2391 87.8324 3.59946C88.1682 3.95981 88.3361 4.48806 88.3361 5.1842V6.30212C88.3361 6.99826 88.1682 7.52651 87.8324 7.88687C87.5048 8.24722 87.0011 8.4274 86.3213 8.4274H85.6825V11.6583H84.3312V3.05893H86.3213ZM85.6825 4.28741V7.19892H86.3213C86.5343 7.19892 86.6981 7.14159 86.8127 7.02693C86.9274 6.91227 86.9847 6.69933 86.9847 6.38812V5.09821C86.9847 4.78699 86.9274 4.57406 86.8127 4.4594C86.6981 4.34474 86.5343 4.28741 86.3213 4.28741H85.6825Z"
                                                                                                                          fill="currentColor" />
  <path d="M90.3133 11.6583H88.962V3.05893H90.3133V6.74438H91.8489V3.05893H93.2248V11.6583H91.8489V7.97286H90.3133V11.6583Z"
                                                                                                                          fill="currentColor" />
  <path d="M98.5781 11.6583H97.2144L96.981 10.0981H95.3226L95.0892 11.6583H93.8484L95.2243 3.05893H97.2022L98.5781 11.6583ZM95.4946 8.93108H96.7968L96.1457 4.58225L95.4946 8.93108ZM94.5118 2.60439L95.6051 1.24077H96.8213L97.9147 2.60439H96.7599L96.2071 1.92872L95.6666 2.60439H94.5118ZM98.2587 0.577387L99.094 1.94101H98.1235L96.8705 0.577387H98.2587Z"
                                                                                                                          fill="currentColor" />
  <path d="M100.411 5.4299V11.6583H99.1951V3.05893H100.89L102.279 8.20627V3.05893H103.482V11.6583H102.094L100.411 5.4299Z"
                                                                                                                          fill="currentColor" />
  <path d="M110.276 8.45197V9.59446C110.276 10.2906 110.104 10.827 109.76 11.2038C109.425 11.5723 108.925 11.7566 108.262 11.7566C107.598 11.7566 107.095 11.5723 106.751 11.2038C106.415 10.827 106.247 10.2906 106.247 9.59446V5.12278C106.247 4.42664 106.415 3.89429 106.751 3.52575C107.095 3.14901 107.598 2.96065 108.262 2.96065C108.925 2.96065 109.425 3.14901 109.76 3.52575C110.104 3.89429 110.276 4.42664 110.276 5.12278V5.95815H108.999V5.03678C108.999 4.72557 108.933 4.50854 108.802 4.38569C108.679 4.25465 108.511 4.18913 108.299 4.18913C108.086 4.18913 107.914 4.25465 107.783 4.38569C107.66 4.50854 107.598 4.72557 107.598 5.03678V9.68045C107.598 9.99167 107.66 10.2087 107.783 10.3316C107.914 10.4544 108.086 10.5158 108.299 10.5158C108.511 10.5158 108.679 10.4544 108.802 10.3316C108.933 10.2087 108.999 9.99167 108.999 9.68045V8.45197H110.276Z"
                                                                                                                          fill="currentColor" />
  <path d="M112.448 11.6583H111.096V3.05893H112.448V6.74438H113.983V3.05893H115.359V11.6583H113.983V7.97286H112.448V11.6583Z"
                                                                                                                          fill="currentColor" />
  <path d="M117.629 3.05893V9.69274C117.629 10.004 117.69 10.221 117.813 10.3438C117.944 10.4667 118.116 10.5281 118.329 10.5281C118.542 10.5281 118.71 10.4667 118.833 10.3438C118.964 10.221 119.029 10.004 119.029 9.69274V3.05893H120.307C120.34 3.05893 120.372 3.05074 120.405 3.03436C120.438 3.01798 120.458 2.98522 120.467 2.93608C120.483 2.87875 120.487 2.82551 120.479 2.77637C120.479 2.72723 120.475 2.674 120.467 2.61667H121.302C121.302 2.93608 121.265 3.20225 121.191 3.41519C121.118 3.61993 120.983 3.75916 120.786 3.83287C120.696 3.85744 120.61 3.87382 120.528 3.88201C120.454 3.8902 120.381 3.89429 120.307 3.89429V9.60675C120.307 10.3029 120.135 10.8393 119.791 11.2161C119.455 11.5846 118.956 11.7689 118.292 11.7689C117.629 11.7689 117.125 11.5846 116.781 11.2161C116.445 10.8393 116.278 10.3029 116.278 9.60675V3.05893H117.629ZM119.742 1.24077L118.489 2.60439H117.58L118.415 1.24077H119.742Z"
                                                                                                                          fill="currentColor" />
  <path d="M122.438 5.4299V11.6583H121.221V3.05893H122.917L124.305 8.20627V3.05893H125.509V11.6583H124.121L122.438 5.4299Z"
                                                                                                                          fill="currentColor" />
  <path d="M128.503 6.86723H130.395V9.59446C130.395 10.2906 130.223 10.827 129.879 11.2038C129.543 11.5723 129.044 11.7566 128.381 11.7566C127.717 11.7566 127.213 11.5723 126.869 11.2038C126.534 10.827 126.366 10.2906 126.366 9.59446V5.12278C126.366 4.42664 126.534 3.89429 126.869 3.52575C127.213 3.14901 127.717 2.96065 128.381 2.96065C129.044 2.96065 129.543 3.14901 129.879 3.52575C130.223 3.89429 130.395 4.42664 130.395 5.12278V5.95815H129.118V5.03678C129.118 4.72557 129.052 4.50854 128.921 4.38569C128.798 4.25465 128.63 4.18913 128.417 4.18913C128.204 4.18913 128.032 4.25465 127.901 4.38569C127.779 4.50854 127.717 4.72557 127.717 5.03678V9.68045C127.717 9.99167 127.779 10.2087 127.901 10.3316C128.032 10.4544 128.204 10.5158 128.417 10.5158C128.63 10.5158 128.798 10.4544 128.921 10.3316C129.052 10.2087 129.118 9.99167 129.118 9.68045V8.09571H128.503V6.86723Z"
                                                                                                                          fill="currentColor" />
  <path d="M134.94 8.23084L134.522 9.01707V11.6583H133.171V3.05893H134.522V6.8058L136.291 3.05893H137.642L135.763 6.8918L137.642 11.6583H136.254L134.94 8.23084Z"
                                                                                                                          fill="currentColor" />
  <path d="M139.609 11.6583H138.257V3.05893H139.609V6.74438H141.144V3.05893H142.52V11.6583H141.144V7.97286H139.609V11.6583Z"
                                                                                                                          fill="currentColor" />
  <path d="M144.741 9.68045C144.741 9.99167 144.802 10.2128 144.925 10.3438C145.056 10.4667 145.228 10.5281 145.441 10.5281C145.654 10.5281 145.822 10.4667 145.945 10.3438C146.076 10.2128 146.141 9.99167 146.141 9.68045V5.03678C146.141 4.72557 146.076 4.50854 145.945 4.38569C145.822 4.25465 145.654 4.18913 145.441 4.18913C145.228 4.18913 145.056 4.25465 144.925 4.38569C144.802 4.50854 144.741 4.72557 144.741 5.03678V9.68045ZM143.389 5.12278C143.389 4.42664 143.566 3.89429 143.918 3.52575C144.27 3.14901 144.778 2.96065 145.441 2.96065C146.104 2.96065 146.612 3.14901 146.964 3.52575C147.316 3.89429 147.493 4.42664 147.493 5.12278V9.59446C147.493 10.2906 147.316 10.827 146.964 11.2038C146.612 11.5723 146.104 11.7566 145.441 11.7566C144.778 11.7566 144.27 11.5723 143.918 11.2038C143.566 10.827 143.389 10.2906 143.389 9.59446V5.12278Z"
                                                                                                                          fill="currentColor" />
  <path d="M152.732 11.6583H151.369L151.135 10.0981H149.477L149.243 11.6583H148.002L149.378 3.05893H151.356L152.732 11.6583ZM149.649 8.93108H150.951L150.3 4.58225L149.649 8.93108ZM151.811 1.24077L150.558 2.60439H149.649L150.484 1.24077H151.811Z"
                                                                                                                          fill="currentColor" />
  <path d="M154.565 5.4299V11.6583H153.349V3.05893H155.044L156.433 8.20627V3.05893H157.637V11.6583H156.248L154.565 5.4299Z"
                                                                                                                          fill="currentColor" />
  <path d="M160.34 5.12278C160.34 4.42664 160.503 3.89429 160.831 3.52575C161.167 3.14901 161.666 2.96065 162.33 2.96065C162.993 2.96065 163.489 3.14901 163.816 3.52575C164.152 3.89429 164.32 4.42664 164.32 5.12278V5.39304H163.042V5.03678C163.042 4.72557 162.981 4.50854 162.858 4.38569C162.743 4.25465 162.58 4.18913 162.367 4.18913C162.154 4.18913 161.986 4.25465 161.863 4.38569C161.748 4.50854 161.691 4.72557 161.691 5.03678C161.691 5.33162 161.756 5.5937 161.888 5.82302C162.019 6.04414 162.182 6.25708 162.379 6.46183C162.575 6.65838 162.784 6.85904 163.005 7.06378C163.235 7.26034 163.448 7.47737 163.644 7.71488C163.841 7.95239 164.005 8.22265 164.136 8.52568C164.267 8.82871 164.332 9.18497 164.332 9.59446C164.332 10.2906 164.16 10.827 163.816 11.2038C163.48 11.5723 162.981 11.7566 162.317 11.7566C161.654 11.7566 161.15 11.5723 160.806 11.2038C160.471 10.827 160.303 10.2906 160.303 9.59446V9.06621H161.58V9.68045C161.58 9.99167 161.642 10.2087 161.765 10.3316C161.896 10.4544 162.068 10.5158 162.281 10.5158C162.494 10.5158 162.661 10.4544 162.784 10.3316C162.915 10.2087 162.981 9.99167 162.981 9.68045C162.981 9.38562 162.915 9.12764 162.784 8.90651C162.653 8.67719 162.489 8.46426 162.293 8.2677C162.096 8.06295 161.883 7.8623 161.654 7.66574C161.433 7.46099 161.224 7.23987 161.028 7.00236C160.831 6.76485 160.667 6.49459 160.536 6.19156C160.405 5.88853 160.34 5.53227 160.34 5.12278Z"
                                                                                                                          fill="currentColor" />
  <path d="M169.48 11.6583H168.116L167.883 10.0981H166.224L165.991 11.6583H164.75L166.126 3.05893H168.104L169.48 11.6583ZM166.396 8.93108H167.699L167.047 4.58225L166.396 8.93108ZM167.023 1.24077L167.858 2.60439H166.888L165.635 1.24077H167.023Z"
                                                                                                                          fill="currentColor" />
  <path d="M170.109 3.05893H171.46V11.6583H170.109V3.05893Z" fill="currentColor" />
  <path d="M176.383 6.86723H178.275V9.59446C178.275 10.2906 178.103 10.827 177.759 11.2038C177.423 11.5723 176.924 11.7566 176.26 11.7566C175.597 11.7566 175.093 11.5723 174.749 11.2038C174.413 10.827 174.245 10.2906 174.245 9.59446V5.12278C174.245 4.42664 174.413 3.89429 174.749 3.52575C175.093 3.14901 175.597 2.96065 176.26 2.96065C176.924 2.96065 177.423 3.14901 177.759 3.52575C178.103 3.89429 178.275 4.42664 178.275 5.12278V5.95815H176.997V5.03678C176.997 4.72557 176.932 4.50854 176.801 4.38569C176.678 4.25465 176.51 4.18913 176.297 4.18913C176.084 4.18913 175.912 4.25465 175.781 4.38569C175.658 4.50854 175.597 4.72557 175.597 5.03678V9.68045C175.597 9.99167 175.658 10.2087 175.781 10.3316C175.912 10.4544 176.084 10.5158 176.297 10.5158C176.51 10.5158 176.678 10.4544 176.801 10.3316C176.932 10.2087 176.997 9.99167 176.997 9.68045V8.09571H176.383V6.86723Z"
                                                                                                                          fill="currentColor" />
  <path d="M180.384 9.68045C180.384 9.99167 180.445 10.2128 180.568 10.3438C180.699 10.4667 180.871 10.5281 181.084 10.5281C181.297 10.5281 181.465 10.4667 181.588 10.3438C181.719 10.2128 181.784 9.99167 181.784 9.68045V5.03678C181.784 4.72557 181.719 4.50854 181.588 4.38569C181.465 4.25465 181.297 4.18913 181.084 4.18913C180.871 4.18913 180.699 4.25465 180.568 4.38569C180.445 4.50854 180.384 4.72557 180.384 5.03678V9.68045ZM179.032 5.12278C179.032 4.42664 179.208 3.89429 179.561 3.52575C179.913 3.14901 180.42 2.96065 181.084 2.96065C181.747 2.96065 182.255 3.14901 182.607 3.52575C182.959 3.89429 183.135 4.42664 183.135 5.12278V9.59446C183.135 10.2906 182.959 10.827 182.607 11.2038C182.255 11.5723 181.747 11.7566 181.084 11.7566C180.42 11.7566 179.913 11.5723 179.561 11.2038C179.208 10.827 179.032 10.2906 179.032 9.59446V5.12278ZM180.986 1.24077L181.821 2.60439H180.85L179.597 1.24077H180.986Z"
                                                                                                                          fill="currentColor" />
  <path d="M185.217 5.4299V11.6583H184.001V3.05893H185.697L187.085 8.20627V3.05893H188.289V11.6583H186.901L185.217 5.4299Z"
                                                                                                                          fill="currentColor" />
  <path d="M191.102 6.74438H193.559V7.97286H191.102V6.74438Z" fill="currentColor" />
  <path d="M197.734 11.6583H196.382V3.05893H197.734V6.74438H199.269V3.05893H200.645V11.6583H199.269V7.97286H197.734V11.6583Z"
                                                                                                                          fill="currentColor" />
  <path d="M205.998 11.6583H204.635L204.401 10.0981H202.743L202.51 11.6583H201.269L202.645 3.05893H204.623L205.998 11.6583ZM202.915 8.93108H204.217L203.566 4.58225L202.915 8.93108ZM203.541 1.24077L204.377 2.60439H203.406L202.153 1.24077H203.541Z"
                                                                                                                          fill="currentColor" />
  <path d="M209.739 5.4299V11.6583H208.523V3.05893H210.218L211.606 8.20627V3.05893H212.81V11.6583H211.422L209.739 5.4299Z"
                                                                                                                          fill="currentColor" />
  <path d="M215.019 9.68045C215.019 9.99167 215.08 10.2128 215.203 10.3438C215.334 10.4667 215.506 10.5281 215.719 10.5281C215.932 10.5281 216.1 10.4667 216.223 10.3438C216.354 10.2128 216.419 9.99167 216.419 9.68045V5.03678C216.419 4.72557 216.354 4.50854 216.223 4.38569C216.1 4.25465 215.932 4.18913 215.719 4.18913C215.506 4.18913 215.334 4.25465 215.203 4.38569C215.08 4.50854 215.019 4.72557 215.019 5.03678V9.68045ZM213.667 5.12278C213.667 4.42664 213.843 3.89429 214.196 3.52575C214.548 3.14901 215.056 2.96065 215.719 2.96065C216.382 2.96065 216.89 3.14901 217.242 3.52575C217.594 3.89429 217.771 4.42664 217.771 5.12278V9.59446C217.771 10.2906 217.594 10.827 217.242 11.2038C216.89 11.5723 216.382 11.7566 215.719 11.7566C215.056 11.7566 214.548 11.5723 214.196 11.2038C213.843 10.827 213.667 10.2906 213.667 9.59446V5.12278ZM216.21 12.1866V13.1939H215.252V12.1866H216.21ZM214.048 2.60439L215.142 1.24077H216.358L217.451 2.60439H216.296L215.743 1.92872L215.203 2.60439H214.048Z"
                                                                                                                          fill="currentColor" />
  <path d="M218.649 3.05893H220V11.6583H218.649V3.05893Z" fill="currentColor" />
  <path d="M40.0307 20.8018C40.0307 20.2217 40.1672 19.778 40.4402 19.4709C40.72 19.157 41.1363 19 41.6892 19C42.242 19 42.6549 19.157 42.9279 19.4709C43.2077 19.778 43.3476 20.2217 43.3476 20.8018V21.027H42.2829V20.7301C42.2829 20.4708 42.2317 20.2899 42.1294 20.1875C42.0338 20.0783 41.8973 20.0237 41.7199 20.0237C41.5424 20.0237 41.4025 20.0783 41.3001 20.1875C41.2046 20.2899 41.1568 20.4708 41.1568 20.7301C41.1568 20.9758 41.2114 21.1942 41.3206 21.3853C41.4298 21.5696 41.5663 21.747 41.7301 21.9176C41.8939 22.0814 42.0679 22.2487 42.2522 22.4193C42.4433 22.5831 42.6208 22.7639 42.7846 22.9619C42.9484 23.1598 43.0849 23.385 43.1941 23.6375C43.3033 23.89 43.3579 24.1869 43.3579 24.5282C43.3579 25.1083 43.2145 25.5553 42.9279 25.8693C42.6481 26.1764 42.2317 26.33 41.6789 26.33C41.1261 26.33 40.7064 26.1764 40.4197 25.8693C40.1399 25.5553 40 25.1083 40 24.5282V24.088H41.0647V24.5998C41.0647 24.8592 41.1159 25.04 41.2182 25.1424C41.3274 25.2448 41.4708 25.296 41.6482 25.296C41.8257 25.296 41.9656 25.2448 42.0679 25.1424C42.1771 25.04 42.2317 24.8592 42.2317 24.5998C42.2317 24.3541 42.1771 24.1392 42.0679 23.9549C41.9587 23.7638 41.8223 23.5863 41.6585 23.4225C41.4947 23.2519 41.3172 23.0847 41.1261 22.9209C40.9418 22.7503 40.7678 22.566 40.604 22.3681C40.4402 22.1702 40.3037 21.9449 40.1945 21.6924C40.0853 21.4399 40.0307 21.143 40.0307 20.8018Z"
                                                                                                                          fill="currentColor" />
  <path d="M48.2106 26.2481H47.0743L46.8798 24.9479H45.4977L45.3032 26.2481H44.2692L45.4158 19.0819H47.064L48.2106 26.2481ZM45.641 23.9754H46.7262L46.1836 20.3513L45.641 23.9754Z"
                                                                                                                          fill="currentColor" />
  <path d="M49.2981 19.0819H50.4242V26.2481H49.2981V19.0819Z" fill="currentColor" />
  <path d="M53.4998 22.2555H55.0764V24.5282C55.0764 25.1083 54.933 25.5553 54.6464 25.8693C54.3666 26.1764 53.9503 26.33 53.3974 26.33C52.8446 26.33 52.4249 26.1764 52.1382 25.8693C51.8584 25.5553 51.7185 25.1083 51.7185 24.5282V20.8018C51.7185 20.2217 51.8584 19.778 52.1382 19.4709C52.4249 19.157 52.8446 19 53.3974 19C53.9503 19 54.3666 19.157 54.6464 19.4709C54.933 19.778 55.0764 20.2217 55.0764 20.8018V21.4979H54.0117V20.7301C54.0117 20.4708 53.9571 20.2899 53.8479 20.1875C53.7455 20.0783 53.6056 20.0237 53.4281 20.0237C53.2507 20.0237 53.1074 20.0783 52.9982 20.1875C52.8958 20.2899 52.8446 20.4708 52.8446 20.7301V24.5998C52.8446 24.8592 52.8958 25.04 52.9982 25.1424C53.1074 25.2448 53.2507 25.296 53.4281 25.296C53.6056 25.296 53.7455 25.2448 53.8479 25.1424C53.9571 25.04 54.0117 24.8592 54.0117 24.5998V23.2792H53.4998V22.2555Z"
                                                                                                                          fill="currentColor" />
  <path d="M57.3966 24.5998C57.3966 24.8592 57.4478 25.0435 57.5502 25.1527C57.6594 25.255 57.8027 25.3062 57.9802 25.3062C58.1576 25.3062 58.2975 25.255 58.3999 25.1527C58.5091 25.0435 58.5637 24.8592 58.5637 24.5998V20.7301C58.5637 20.4708 58.5091 20.2899 58.3999 20.1875C58.2975 20.0783 58.1576 20.0237 57.9802 20.0237C57.8027 20.0237 57.6594 20.0783 57.5502 20.1875C57.4478 20.2899 57.3966 20.4708 57.3966 20.7301V24.5998ZM56.2705 20.8018C56.2705 20.2217 56.4173 19.778 56.7107 19.4709C57.0042 19.157 57.4274 19 57.9802 19C58.533 19 58.9561 19.157 59.2496 19.4709C59.5431 19.778 59.6898 20.2217 59.6898 20.8018V24.5282C59.6898 25.1083 59.5431 25.5553 59.2496 25.8693C58.9561 26.1764 58.533 26.33 57.9802 26.33C57.4274 26.33 57.0042 26.1764 56.7107 25.8693C56.4173 25.5553 56.2705 25.1083 56.2705 24.5282V20.8018Z"
                                                                                                                          fill="currentColor" />
  <path d="M61.9879 21.0577V26.2481H60.9744V19.0819H62.3872L63.544 23.3714V19.0819H64.5473V26.2481H63.3905L61.9879 21.0577Z"
                                                                                                                          fill="currentColor" />
  <path d="M68.0181 22.1531H70.0656V23.1768H68.0181V22.1531Z" fill="currentColor" />
  <path d="M74.6704 26.2481H73.5443V19.0819H74.6704V22.1531H75.95V19.0819H77.0966V26.2481H75.95V23.1768H74.6704V26.2481Z"
                                                                                                                          fill="currentColor" />
  <path d="M82.1207 26.2481H80.9843L80.7898 24.9479H79.4078L79.2133 26.2481H78.1793L79.3259 19.0819H80.9741L82.1207 26.2481ZM79.5511 23.9754H80.6363L80.0937 20.3513L79.5511 23.9754Z"
                                                                                                                          fill="currentColor" />
  <path d="M84.2114 21.0577V26.2481H83.1979V19.0819H84.6107L85.7675 23.3714V19.0819H86.7708V26.2481H85.614L84.2114 21.0577Z"
                                                                                                                          fill="currentColor" />
  <path d="M89.1741 24.5998C89.1741 24.8592 89.2253 25.0435 89.3276 25.1527C89.4368 25.255 89.5802 25.3062 89.7576 25.3062C89.9351 25.3062 90.075 25.255 90.1773 25.1527C90.2865 25.0435 90.3411 24.8592 90.3411 24.5998V20.7301C90.3411 20.4708 90.2865 20.2899 90.1773 20.1875C90.075 20.0783 89.9351 20.0237 89.7576 20.0237C89.5802 20.0237 89.4368 20.0783 89.3276 20.1875C89.2253 20.2899 89.1741 20.4708 89.1741 20.7301V24.5998ZM88.048 20.8018C88.048 20.2217 88.1947 19.778 88.4882 19.4709C88.7816 19.157 89.2048 19 89.7576 19C90.3104 19 90.7336 19.157 91.027 19.4709C91.3205 19.778 91.4673 20.2217 91.4673 20.8018V24.5282C91.4673 25.1083 91.3205 25.5553 91.027 25.8693C90.7336 26.1764 90.3104 26.33 89.7576 26.33C89.2048 26.33 88.7816 26.1764 88.4882 25.8693C88.1947 25.5553 88.048 25.1083 88.048 24.5282V20.8018Z"
                                                                                                                          fill="currentColor" />
  <path d="M92.7621 19.0819H93.8882V26.2481H92.7621V19.0819Z" fill="currentColor" />
  <path d="M97.284 20.8018C97.284 20.2217 97.4205 19.778 97.6935 19.4709C97.9733 19.157 98.3896 19 98.9425 19C99.4953 19 99.9082 19.157 100.181 19.4709C100.461 19.778 100.601 20.2217 100.601 20.8018V21.027H99.5362V20.7301C99.5362 20.4708 99.485 20.2899 99.3827 20.1875C99.2871 20.0783 99.1506 20.0237 98.9732 20.0237C98.7957 20.0237 98.6558 20.0783 98.5534 20.1875C98.4579 20.2899 98.4101 20.4708 98.4101 20.7301C98.4101 20.9758 98.4647 21.1942 98.5739 21.3853C98.6831 21.5696 98.8196 21.747 98.9834 21.9176C99.1472 22.0814 99.3212 22.2487 99.5055 22.4193C99.6966 22.5831 99.8741 22.7639 100.038 22.9619C100.202 23.1598 100.338 23.385 100.447 23.6375C100.557 23.89 100.611 24.1869 100.611 24.5282C100.611 25.1083 100.468 25.5553 100.181 25.8693C99.9013 26.1764 99.485 26.33 98.9322 26.33C98.3794 26.33 97.9597 26.1764 97.673 25.8693C97.3932 25.5553 97.2533 25.1083 97.2533 24.5282V24.088H98.318V24.5998C98.318 24.8592 98.3692 25.04 98.4715 25.1424C98.5807 25.2448 98.7241 25.296 98.9015 25.296C99.0789 25.296 99.2189 25.2448 99.3212 25.1424C99.4304 25.04 99.485 24.8592 99.485 24.5998C99.485 24.3541 99.4304 24.1392 99.3212 23.9549C99.212 23.7638 99.0755 23.5863 98.9117 23.4225C98.7479 23.2519 98.5705 23.0847 98.3794 22.9209C98.1951 22.7503 98.0211 22.566 97.8573 22.3681C97.6935 22.1702 97.557 21.9449 97.4478 21.6924C97.3386 21.4399 97.284 21.143 97.284 20.8018Z"
                                                                                                                          fill="currentColor" />
  <path d="M102.945 22.1019H104.491V23.1257H102.945V25.2243H104.891V26.2481H101.819V19.0819H104.891V20.1056H102.945V22.1019Z"
                                                                                                                          fill="currentColor" />
  <path d="M109.417 23.5761V24.5282C109.417 25.1083 109.274 25.5553 108.987 25.8693C108.707 26.1764 108.291 26.33 107.738 26.33C107.185 26.33 106.766 26.1764 106.479 25.8693C106.199 25.5553 106.059 25.1083 106.059 24.5282V20.8018C106.059 20.2217 106.199 19.778 106.479 19.4709C106.766 19.157 107.185 19 107.738 19C108.291 19 108.707 19.157 108.987 19.4709C109.274 19.778 109.417 20.2217 109.417 20.8018V21.4979H108.353V20.7301C108.353 20.4708 108.298 20.2899 108.189 20.1875C108.086 20.0783 107.946 20.0237 107.769 20.0237C107.592 20.0237 107.448 20.0783 107.339 20.1875C107.237 20.2899 107.185 20.4708 107.185 20.7301V24.5998C107.185 24.8592 107.237 25.04 107.339 25.1424C107.448 25.2448 107.592 25.296 107.769 25.296C107.946 25.296 108.086 25.2448 108.189 25.1424C108.298 25.04 108.353 24.8592 108.353 24.5998V23.5761H109.417Z"
                                                                                                                          fill="currentColor" />
  <path d="M111.738 19.0819V24.6101C111.738 24.8694 111.79 25.0503 111.892 25.1527C112.001 25.255 112.145 25.3062 112.322 25.3062C112.499 25.3062 112.639 25.255 112.742 25.1527C112.851 25.0503 112.905 24.8694 112.905 24.6101V19.0819H113.97V24.5384C113.97 25.1185 113.827 25.5656 113.54 25.8795C113.26 26.1866 112.844 26.3402 112.291 26.3402C111.738 26.3402 111.319 26.1866 111.032 25.8795C110.752 25.5656 110.612 25.1185 110.612 24.5384V19.0819H111.738Z"
                                                                                                                          fill="currentColor" />
  <path d="M117.66 26.2481C117.646 26.2003 117.633 26.1559 117.619 26.115C117.606 26.074 117.592 26.0228 117.578 25.9614C117.571 25.9 117.565 25.8215 117.558 25.7259C117.558 25.6304 117.558 25.511 117.558 25.3676V24.2415C117.558 23.9071 117.5 23.6717 117.384 23.5352C117.268 23.3987 117.08 23.3304 116.821 23.3304H116.432V26.2481H115.306V19.0819H117.005C117.592 19.0819 118.015 19.2184 118.274 19.4914C118.541 19.7644 118.674 20.1773 118.674 20.7301V21.2932C118.674 22.0303 118.428 22.5148 117.937 22.7469C118.223 22.8629 118.418 23.054 118.52 23.3202C118.629 23.5795 118.684 23.8969 118.684 24.2722V25.3779C118.684 25.5553 118.691 25.7123 118.704 25.8488C118.718 25.9785 118.752 26.1116 118.807 26.2481H117.66ZM116.432 20.1056V22.3067H116.872C117.083 22.3067 117.247 22.2521 117.363 22.1429C117.486 22.0337 117.547 21.8358 117.547 21.5491V20.8427C117.547 20.5834 117.5 20.3957 117.404 20.2797C117.315 20.1636 117.172 20.1056 116.974 20.1056H116.432Z"
                                                                                                                          fill="currentColor" />
  <path d="M119.988 19.0819H121.114V26.2481H119.988V19.0819Z" fill="currentColor" />
  <path d="M122.172 19.0819H125.653V20.1056H124.476V26.2481H123.35V20.1056H122.172V19.0819Z" fill="currentColor" />
  <path d="M126.712 19.0819H127.838V26.2481H126.712V19.0819Z" fill="currentColor" />
  <path d="M130.351 22.1019H131.897V23.1257H130.351V25.2243H132.296V26.2481H129.225V19.0819H132.296V20.1056H130.351V22.1019Z"
                                                                                                                          fill="currentColor" />
  <path d="M133.414 20.8018C133.414 20.2217 133.55 19.778 133.823 19.4709C134.103 19.157 134.519 19 135.072 19C135.625 19 136.038 19.157 136.311 19.4709C136.59 19.778 136.73 20.2217 136.73 20.8018V21.027H135.666V20.7301C135.666 20.4708 135.615 20.2899 135.512 20.1875C135.417 20.0783 135.28 20.0237 135.103 20.0237C134.925 20.0237 134.785 20.0783 134.683 20.1875C134.587 20.2899 134.54 20.4708 134.54 20.7301C134.54 20.9758 134.594 21.1942 134.703 21.3853C134.813 21.5696 134.949 21.747 135.113 21.9176C135.277 22.0814 135.451 22.2487 135.635 22.4193C135.826 22.5831 136.004 22.7639 136.167 22.9619C136.331 23.1598 136.468 23.385 136.577 23.6375C136.686 23.89 136.741 24.1869 136.741 24.5282C136.741 25.1083 136.597 25.5553 136.311 25.8693C136.031 26.1764 135.615 26.33 135.062 26.33C134.509 26.33 134.089 26.1764 133.803 25.8693C133.523 25.5553 133.383 25.1083 133.383 24.5282V24.088H134.447V24.5998C134.447 24.8592 134.499 25.04 134.601 25.1424C134.71 25.2448 134.854 25.296 135.031 25.296C135.208 25.296 135.348 25.2448 135.451 25.1424C135.56 25.04 135.615 24.8592 135.615 24.5998C135.615 24.3541 135.56 24.1392 135.451 23.9549C135.342 23.7638 135.205 23.5863 135.041 23.4225C134.877 23.2519 134.7 23.0847 134.509 22.9209C134.325 22.7503 134.151 22.566 133.987 22.3681C133.823 22.1702 133.686 21.9449 133.577 21.6924C133.468 21.4399 133.414 21.143 133.414 20.8018Z"
                                                                                                                          fill="currentColor" />
  <path d="M139.794 25.2243C139.856 25.2311 139.921 25.2346 139.989 25.2346C140.057 25.2346 140.122 25.2346 140.183 25.2346C140.361 25.2346 140.511 25.1902 140.634 25.1015C140.764 25.0127 140.828 24.8285 140.828 24.5487V19.0819H141.955V24.4668C141.955 24.8285 141.91 25.1254 141.821 25.3574C141.733 25.5895 141.613 25.7737 141.463 25.9102C141.313 26.0399 141.139 26.132 140.941 26.1866C140.75 26.2412 140.549 26.2685 140.337 26.2685C140.235 26.2685 140.142 26.2685 140.061 26.2685C139.979 26.2685 139.89 26.2617 139.794 26.2481V25.2243Z"
                                                                                                                          fill="currentColor" />
  <path d="M144.318 24.5998C144.318 24.8592 144.369 25.0435 144.471 25.1527C144.581 25.255 144.724 25.3062 144.901 25.3062C145.079 25.3062 145.219 25.255 145.321 25.1527C145.43 25.0435 145.485 24.8592 145.485 24.5998V20.7301C145.485 20.4708 145.43 20.2899 145.321 20.1875C145.219 20.0783 145.079 20.0237 144.901 20.0237C144.724 20.0237 144.581 20.0783 144.471 20.1875C144.369 20.2899 144.318 20.4708 144.318 20.7301V24.5998ZM143.192 20.8018C143.192 20.2217 143.339 19.778 143.632 19.4709C143.925 19.157 144.349 19 144.901 19C145.454 19 145.877 19.157 146.171 19.4709C146.464 19.778 146.611 20.2217 146.611 20.8018V24.5282C146.611 25.1083 146.464 25.5553 146.171 25.8693C145.877 26.1764 145.454 26.33 144.901 26.33C144.349 26.33 143.925 26.1764 143.632 25.8693C143.339 25.5553 143.192 25.1083 143.192 24.5282V20.8018Z"
                                                                                                                          fill="currentColor" />
  <path d="M147.906 19.0819H149.032V26.2481H147.906V19.0819Z" fill="currentColor" />
  <path d="M151.422 21.0577V26.2481H150.408V19.0819H151.821L152.978 23.3714V19.0819H153.981V26.2481H152.824L151.422 21.0577Z"
                                                                                                                          fill="currentColor" />
  <path d="M155.023 19.0819H158.504V20.1056H157.326V26.2481H156.2V20.1056H155.023V19.0819Z" fill="currentColor" />
  <path d="M161.572 20.8018C161.572 20.2217 161.708 19.778 161.981 19.4709C162.261 19.157 162.677 19 163.23 19C163.783 19 164.196 19.157 164.469 19.4709C164.749 19.778 164.889 20.2217 164.889 20.8018V21.027H163.824V20.7301C163.824 20.4708 163.773 20.2899 163.671 20.1875C163.575 20.0783 163.438 20.0237 163.261 20.0237C163.084 20.0237 162.944 20.0783 162.841 20.1875C162.746 20.2899 162.698 20.4708 162.698 20.7301C162.698 20.9758 162.753 21.1942 162.862 21.3853C162.971 21.5696 163.107 21.747 163.271 21.9176C163.435 22.0814 163.609 22.2487 163.793 22.4193C163.984 22.5831 164.162 22.7639 164.326 22.9619C164.49 23.1598 164.626 23.385 164.735 23.6375C164.844 23.89 164.899 24.1869 164.899 24.5282C164.899 25.1083 164.756 25.5553 164.469 25.8693C164.189 26.1764 163.773 26.33 163.22 26.33C162.667 26.33 162.248 26.1764 161.961 25.8693C161.681 25.5553 161.541 25.1083 161.541 24.5282V24.088H162.606V24.5998C162.606 24.8592 162.657 25.04 162.759 25.1424C162.869 25.2448 163.012 25.296 163.189 25.296C163.367 25.296 163.507 25.2448 163.609 25.1424C163.718 25.04 163.773 24.8592 163.773 24.5998C163.773 24.3541 163.718 24.1392 163.609 23.9549C163.5 23.7638 163.363 23.5863 163.2 23.4225C163.036 23.2519 162.858 23.0847 162.667 22.9209C162.483 22.7503 162.309 22.566 162.145 22.3681C161.981 22.1702 161.845 21.9449 161.736 21.6924C161.626 21.4399 161.572 21.143 161.572 20.8018Z"
                                                                                                                          fill="currentColor" />
  <path d="M165.78 19.0819H169.26V20.1056H168.083V26.2481H166.957V20.1056H165.78V19.0819Z" fill="currentColor" />
  <path d="M171.353 24.5998C171.353 24.8592 171.405 25.0435 171.507 25.1527C171.616 25.255 171.759 25.3062 171.937 25.3062C172.114 25.3062 172.254 25.255 172.357 25.1527C172.466 25.0435 172.52 24.8592 172.52 24.5998V20.7301C172.52 20.4708 172.466 20.2899 172.357 20.1875C172.254 20.0783 172.114 20.0237 171.937 20.0237C171.759 20.0237 171.616 20.0783 171.507 20.1875C171.405 20.2899 171.353 20.4708 171.353 20.7301V24.5998ZM170.227 20.8018C170.227 20.2217 170.374 19.778 170.667 19.4709C170.961 19.157 171.384 19 171.937 19C172.49 19 172.913 19.157 173.206 19.4709C173.5 19.778 173.647 20.2217 173.647 20.8018V24.5282C173.647 25.1083 173.5 25.5553 173.206 25.8693C172.913 26.1764 172.49 26.33 171.937 26.33C171.384 26.33 170.961 26.1764 170.667 25.8693C170.374 25.5553 170.227 25.1083 170.227 24.5282V20.8018Z"
                                                                                                                          fill="currentColor" />
  <path d="M178.207 23.5761V24.5282C178.207 25.1083 178.064 25.5553 177.777 25.8693C177.497 26.1764 177.081 26.33 176.528 26.33C175.975 26.33 175.556 26.1764 175.269 25.8693C174.989 25.5553 174.849 25.1083 174.849 24.5282V20.8018C174.849 20.2217 174.989 19.778 175.269 19.4709C175.556 19.157 175.975 19 176.528 19C177.081 19 177.497 19.157 177.777 19.4709C178.064 19.778 178.207 20.2217 178.207 20.8018V21.4979H177.142V20.7301C177.142 20.4708 177.088 20.2899 176.979 20.1875C176.876 20.0783 176.736 20.0237 176.559 20.0237C176.381 20.0237 176.238 20.0783 176.129 20.1875C176.027 20.2899 175.975 20.4708 175.975 20.7301V24.5998C175.975 24.8592 176.027 25.04 176.129 25.1424C176.238 25.2448 176.381 25.296 176.559 25.296C176.736 25.296 176.876 25.2448 176.979 25.1424C177.088 25.04 177.142 24.8592 177.142 24.5998V23.5761H178.207Z"
                                                                                                                          fill="currentColor" />
  <path d="M180.928 23.3918L180.58 24.047V26.2481H179.453V19.0819H180.58V22.2043L182.054 19.0819H183.18L181.614 22.276L183.18 26.2481H182.023L180.928 23.3918Z"
                                                                                                                          fill="currentColor" />
  <path d="M189.674 23.5761V24.5282C189.674 25.1083 189.53 25.5553 189.244 25.8693C188.964 26.1764 188.548 26.33 187.995 26.33C187.442 26.33 187.022 26.1764 186.736 25.8693C186.456 25.5553 186.316 25.1083 186.316 24.5282V20.8018C186.316 20.2217 186.456 19.778 186.736 19.4709C187.022 19.157 187.442 19 187.995 19C188.548 19 188.964 19.157 189.244 19.4709C189.53 19.778 189.674 20.2217 189.674 20.8018V21.4979H188.609V20.7301C188.609 20.4708 188.554 20.2899 188.445 20.1875C188.343 20.0783 188.203 20.0237 188.026 20.0237C187.848 20.0237 187.705 20.0783 187.596 20.1875C187.493 20.2899 187.442 20.4708 187.442 20.7301V24.5998C187.442 24.8592 187.493 25.04 187.596 25.1424C187.705 25.2448 187.848 25.296 188.026 25.296C188.203 25.296 188.343 25.2448 188.445 25.1424C188.554 25.04 188.609 24.8592 188.609 24.5998V23.5761H189.674Z"
                                                                                                                          fill="currentColor" />
  <path d="M191.954 24.5998C191.954 24.8592 192.005 25.0435 192.108 25.1527C192.217 25.255 192.36 25.3062 192.538 25.3062C192.715 25.3062 192.855 25.255 192.957 25.1527C193.067 25.0435 193.121 24.8592 193.121 24.5998V20.7301C193.121 20.4708 193.067 20.2899 192.957 20.1875C192.855 20.0783 192.715 20.0237 192.538 20.0237C192.36 20.0237 192.217 20.0783 192.108 20.1875C192.005 20.2899 191.954 20.4708 191.954 20.7301V24.5998ZM190.828 20.8018C190.828 20.2217 190.975 19.778 191.268 19.4709C191.562 19.157 191.985 19 192.538 19C193.09 19 193.514 19.157 193.807 19.4709C194.1 19.778 194.247 20.2217 194.247 20.8018V24.5282C194.247 25.1083 194.1 25.5553 193.807 25.8693C193.514 26.1764 193.09 26.33 192.538 26.33C191.985 26.33 191.562 26.1764 191.268 25.8693C190.975 25.5553 190.828 25.1083 190.828 24.5282V20.8018Z"
                                                                                                                          fill="currentColor" />
  <path d="M197.927 24.1699L198.695 19.0819H200.262V26.2481H199.197V21.1089L198.419 26.2481H197.354L196.515 21.1806V26.2481H195.532V19.0819H197.098L197.927 24.1699Z"
                                                                                                                          fill="currentColor" />
  <path d="M203.302 19.0819C203.869 19.0819 204.288 19.232 204.561 19.5323C204.841 19.8326 204.981 20.2728 204.981 20.853V21.7846C204.981 22.3647 204.841 22.8049 204.561 23.1052C204.288 23.4055 203.869 23.5556 203.302 23.5556H202.77V26.2481H201.644V19.0819H203.302ZM202.77 20.1056V22.5319H203.302C203.48 22.5319 203.616 22.4841 203.712 22.3886C203.807 22.293 203.855 22.1156 203.855 21.8562V20.7813C203.855 20.522 203.807 20.3445 203.712 20.249C203.616 20.1534 203.48 20.1056 203.302 20.1056H202.77Z"
                                                                                                                          fill="currentColor" />
  <path d="M209.58 26.2481H208.444L208.249 24.9479H206.867L206.673 26.2481H205.639L206.786 19.0819H208.434L209.58 26.2481ZM207.011 23.9754H208.096L207.553 20.3513L207.011 23.9754Z"
                                                                                                                          fill="currentColor" />
  <path d="M211.671 21.0577V26.2481H210.658V19.0819H212.07L213.227 23.3714V19.0819H214.23V26.2481H213.074L211.671 21.0577Z"
                                                                                                                          fill="currentColor" />
  <path d="M216.654 23.873L215.231 19.0819H216.408L217.268 22.3476L218.128 19.0819H219.203L217.78 23.873V26.2481H216.654V23.873Z"
                                                                                                                          fill="currentColor" />
</svg>