<svg width="64" height="64" viewBox="0 0 64 64" fill="none" xmlns="http://www.w3.org/2000/svg">
<path d="M31.9595 59.8333H28.1821L28.6948 59.469C36.2901 54.2886 40.2159 50.066 41.8617 46.491C43.4806 42.9429 42.8465 40.0289 41.3356 37.3982C39.6223 34.4302 36.425 31.867 33.2816 29.3577C30.1248 26.835 27.0219 24.3527 25.5245 21.4926C24.3238 19.1857 24.4452 16.609 26.3609 13.6141C28.2361 10.6866 31.8381 7.35436 37.6256 3.45554C37.6931 3.41507 37.9359 3.26667 38.0034 3.21271H38.7319L38.2192 3.54998C38.2192 3.54998 37.9359 3.73885 37.882 3.77932C32.9039 7.42182 30.1248 10.5112 28.8971 13.2228C27.6695 15.921 27.9933 18.2549 29.2209 20.3729C30.8803 23.2464 34.172 25.7557 37.5042 28.3055C39.1366 29.5466 40.7555 30.8012 42.226 32.1098C43.6965 33.4184 44.9916 34.7945 45.9359 36.2785C47.7032 39.0711 48.2159 42.2279 46.2732 46.0727C44.3575 49.8771 40.027 54.356 32.0944 59.8063L31.9865 59.8468L31.9595 59.8333ZM32.9174 3.21271H33.5919L33.0928 3.57696C28.0472 7.17898 24.9039 10.2684 23.2985 12.9935C21.7201 15.6781 21.6526 17.9851 22.7319 20.0626C24.2293 22.9227 27.3727 25.4319 30.57 27.9817C32.1214 29.2228 33.6863 30.464 35.0759 31.7861C36.4789 33.0947 37.6931 34.4842 38.543 35.9547C40.1754 38.7878 40.7825 41.9446 38.8128 45.8299C36.8567 49.6613 32.3643 54.1942 23.7976 59.7928L23.6897 59.8333H20.4384L20.9781 59.469C28.5329 54.3965 32.7825 50.2279 34.7791 46.6528C36.7622 43.1318 36.5329 40.2178 35.1703 37.6275C34.3879 36.1436 33.2277 34.7675 31.8786 33.4454C30.5295 32.1233 29.0051 30.8552 27.4806 29.5871C25.9696 28.3324 24.4587 27.0778 23.1636 25.7827C21.855 24.4876 20.7622 23.1385 20.0877 21.7085C18.968 19.3611 18.941 16.7844 20.8297 13.749C22.6914 10.754 26.4283 7.31389 32.8634 3.2262L32.9174 3.19922V3.21271ZM43.0489 3.21271H64V59.8333H36.4384L36.9241 59.469C43.9123 54.4235 47.7032 50.2684 49.3221 46.7068C50.9275 43.1992 50.4014 40.2852 48.769 37.7085C47.8246 36.2245 46.5295 34.8485 45.0455 33.5129C43.5616 32.1773 41.9022 30.9227 40.2563 29.6545C36.9511 27.1318 33.7133 24.6495 32.054 21.7894C30.6914 19.4421 30.3946 16.8518 31.973 13.8029C33.5379 10.7945 36.9511 7.34087 43.0084 3.23969L43.0624 3.19922L43.0489 3.21271ZM0.202361 3.21271H28.5329L27.9933 3.57696C22.5025 7.28691 19.3457 10.4302 17.8078 13.1689C16.2968 15.867 16.3777 18.2009 17.3895 20.3189C18.0641 21.749 19.1568 23.0845 20.4654 24.3931C21.7875 25.7017 23.312 26.9699 24.8499 28.2515C26.3474 29.4926 27.8449 30.7338 29.1804 32.0424C30.516 33.3645 31.6762 34.7405 32.4587 36.2245C33.9427 39.0171 34.118 42.1874 31.7707 46.0458C29.4503 49.8501 24.6341 54.3426 16.1079 59.8063L16 59.8468H0V3.21271H0.202361Z" fill="#F58220"/>
</svg>
