<svg width="24" height="24" viewBox="0 0 24 24" fill="none" xmlns="http://www.w3.org/2000/svg">
<path d="M8.5 19H8C4 19 2 18 2 13V8C2 4 4 2 8 2H16C20 2 22 4 22 8V13C22 17 20 19 16 19H15.5C15.19 19 14.89 19.15 14.7 19.4L13.2 21.4C12.54 22.28 11.46 22.28 10.8 21.4L9.3 19.4C9.14 19.18 8.77 19 8.5 19Z" stroke="#AAAAAA" stroke-miterlimit="10" stroke-linecap="round" stroke-linejoin="round"/>
<path d="M7.752 13.06C7.456 13.06 7.196 13.016 6.972 12.928C6.748 12.84 6.532 12.7 6.324 12.508C6.296 12.48 6.272 12.45 6.252 12.418C6.236 12.382 6.228 12.344 6.228 12.304C6.228 12.24 6.25 12.184 6.294 12.136C6.342 12.084 6.4 12.058 6.468 12.058C6.524 12.058 6.574 12.08 6.618 12.124C6.774 12.276 6.942 12.392 7.122 12.472C7.306 12.552 7.512 12.592 7.74 12.592C7.916 12.592 8.074 12.564 8.214 12.508C8.358 12.452 8.472 12.374 8.556 12.274C8.64 12.174 8.682 12.058 8.682 11.926C8.678 11.766 8.63 11.634 8.538 11.53C8.45 11.426 8.326 11.34 8.166 11.272C8.01 11.2 7.828 11.14 7.62 11.092C7.436 11.048 7.266 10.994 7.11 10.93C6.958 10.866 6.826 10.788 6.714 10.696C6.602 10.6 6.514 10.486 6.45 10.354C6.39 10.218 6.36 10.06 6.36 9.88C6.36 9.652 6.42 9.452 6.54 9.28C6.66 9.108 6.826 8.976 7.038 8.884C7.25 8.788 7.494 8.74 7.77 8.74C8.014 8.74 8.244 8.78 8.46 8.86C8.68 8.94 8.856 9.05 8.988 9.19C9.068 9.266 9.108 9.34 9.108 9.412C9.108 9.472 9.082 9.528 9.03 9.58C8.982 9.628 8.926 9.652 8.862 9.652C8.818 9.652 8.778 9.636 8.742 9.604C8.674 9.528 8.588 9.46 8.484 9.4C8.38 9.34 8.266 9.292 8.142 9.256C8.018 9.22 7.894 9.202 7.77 9.202C7.586 9.202 7.424 9.23 7.284 9.286C7.144 9.338 7.034 9.414 6.954 9.514C6.878 9.61 6.84 9.726 6.84 9.862C6.84 10.014 6.884 10.14 6.972 10.24C7.06 10.336 7.178 10.416 7.326 10.48C7.474 10.54 7.638 10.594 7.818 10.642C8.014 10.69 8.194 10.746 8.358 10.81C8.526 10.87 8.67 10.946 8.79 11.038C8.91 11.13 9.002 11.248 9.066 11.392C9.134 11.532 9.168 11.706 9.168 11.914C9.168 12.134 9.106 12.33 8.982 12.502C8.858 12.674 8.688 12.81 8.472 12.91C8.26 13.006 8.02 13.056 7.752 13.06ZM10.2193 8.794C10.2553 8.794 10.2933 8.804 10.3333 8.824C10.3773 8.844 10.4113 8.87 10.4353 8.902L12.0253 11.308L11.8153 11.302L13.4233 8.902C13.4753 8.826 13.5433 8.79 13.6273 8.794C13.6913 8.798 13.7473 8.822 13.7953 8.866C13.8433 8.91 13.8673 8.968 13.8673 9.04V12.754C13.8673 12.822 13.8433 12.88 13.7953 12.928C13.7473 12.976 13.6873 13 13.6153 13C13.5433 13 13.4833 12.976 13.4353 12.928C13.3873 12.88 13.3633 12.822 13.3633 12.754V9.496L13.5133 9.526L12.0973 11.68C12.0733 11.708 12.0433 11.732 12.0073 11.752C11.9753 11.772 11.9413 11.782 11.9053 11.782C11.8693 11.782 11.8333 11.772 11.7973 11.752C11.7613 11.732 11.7313 11.708 11.7073 11.68L10.3093 9.526L10.4353 9.37V12.754C10.4353 12.822 10.4133 12.88 10.3693 12.928C10.3253 12.976 10.2693 13 10.2013 13C10.1333 13 10.0773 12.976 10.0333 12.928C9.99331 12.88 9.97331 12.822 9.97331 12.754V9.04C9.97331 8.976 9.99531 8.92 10.0393 8.872C10.0873 8.82 10.1473 8.794 10.2193 8.794ZM16.1426 13.06C15.8466 13.06 15.5866 13.016 15.3626 12.928C15.1386 12.84 14.9226 12.7 14.7146 12.508C14.6866 12.48 14.6626 12.45 14.6426 12.418C14.6266 12.382 14.6186 12.344 14.6186 12.304C14.6186 12.24 14.6406 12.184 14.6846 12.136C14.7326 12.084 14.7906 12.058 14.8586 12.058C14.9146 12.058 14.9646 12.08 15.0086 12.124C15.1646 12.276 15.3326 12.392 15.5126 12.472C15.6966 12.552 15.9026 12.592 16.1306 12.592C16.3066 12.592 16.4646 12.564 16.6046 12.508C16.7486 12.452 16.8626 12.374 16.9466 12.274C17.0306 12.174 17.0726 12.058 17.0726 11.926C17.0686 11.766 17.0206 11.634 16.9286 11.53C16.8406 11.426 16.7166 11.34 16.5566 11.272C16.4006 11.2 16.2186 11.14 16.0106 11.092C15.8266 11.048 15.6566 10.994 15.5006 10.93C15.3486 10.866 15.2166 10.788 15.1046 10.696C14.9926 10.6 14.9046 10.486 14.8406 10.354C14.7806 10.218 14.7506 10.06 14.7506 9.88C14.7506 9.652 14.8106 9.452 14.9306 9.28C15.0506 9.108 15.2166 8.976 15.4286 8.884C15.6406 8.788 15.8846 8.74 16.1606 8.74C16.4046 8.74 16.6346 8.78 16.8506 8.86C17.0706 8.94 17.2466 9.05 17.3786 9.19C17.4586 9.266 17.4986 9.34 17.4986 9.412C17.4986 9.472 17.4726 9.528 17.4206 9.58C17.3726 9.628 17.3166 9.652 17.2526 9.652C17.2086 9.652 17.1686 9.636 17.1326 9.604C17.0646 9.528 16.9786 9.46 16.8746 9.4C16.7706 9.34 16.6566 9.292 16.5326 9.256C16.4086 9.22 16.2846 9.202 16.1606 9.202C15.9766 9.202 15.8146 9.23 15.6746 9.286C15.5346 9.338 15.4246 9.414 15.3446 9.514C15.2686 9.61 15.2306 9.726 15.2306 9.862C15.2306 10.014 15.2746 10.14 15.3626 10.24C15.4506 10.336 15.5686 10.416 15.7166 10.48C15.8646 10.54 16.0286 10.594 16.2086 10.642C16.4046 10.69 16.5846 10.746 16.7486 10.81C16.9166 10.87 17.0606 10.946 17.1806 11.038C17.3006 11.13 17.3926 11.248 17.4566 11.392C17.5246 11.532 17.5586 11.706 17.5586 11.914C17.5586 12.134 17.4966 12.33 17.3726 12.502C17.2486 12.674 17.0786 12.81 16.8626 12.91C16.6506 13.006 16.4106 13.056 16.1426 13.06Z" fill="#AAAAAA"/>
</svg>
