<svg xmlns="http://www.w3.org/2000/svg" width="12" height="12" viewBox="0 0 12 12" fill="none">
  <path d="M9.75 2C9.75 2.13807 9.63807 2.25 9.5 2.25H1C0.861929 2.25 0.75 2.13807 0.75 2C0.75 1.86193 0.861929 1.75 1 1.75H9.5C9.63807 1.75 9.75 1.86193 9.75 2Z" fill="#09E384"/>
  <path d="M6.25 5.5C6.25 5.63807 6.13807 5.75 6 5.75H1C0.861929 5.75 0.75 5.63807 0.75 5.5C0.75 5.36193 0.861929 5.25 1 5.25H6C6.13807 5.25 6.25 5.36193 6.25 5.5Z" fill="#09E384"/>
  <path d="M2.5 9.25C2.63807 9.25 2.75 9.13807 2.75 9C2.75 8.86193 2.63807 8.75 2.5 8.75H1C0.861929 8.75 0.75 8.86193 0.75 9C0.75 9.13807 0.861929 9.25 1 9.25H2.5Z" fill="#09E384"/>
  <path d="M6.82322 7.17678C6.72559 7.07915 6.72559 6.92085 6.82322 6.82322L8.82322 4.82322C8.87011 4.77634 8.9337 4.75 9 4.75C9.0663 4.75 9.12989 4.77634 9.17678 4.82322L11.1768 6.82322C11.2744 6.92086 11.2744 7.07915 11.1768 7.17678C11.0791 7.27441 10.9209 7.27441 10.8232 7.17678L9.25 5.60355L9.25 10C9.25 10.1381 9.13807 10.25 9 10.25C8.86193 10.25 8.75 10.1381 8.75 10L8.75 5.60355L7.17678 7.17678C7.07915 7.27441 6.92085 7.27441 6.82322 7.17678Z" fill="#09E384"/>
</svg>