<svg xmlns="http://www.w3.org/2000/svg" width="32" height="32" viewBox="0 0 32 32" fill="none">
  <path d="M3.05727 9.72382C2.53657 10.2445 2.53657 11.0887 3.05727 11.6094C3.57797 12.1301 4.42219 12.1301 4.94289 11.6094L10.6668 5.88558L10.6667 24C10.6667 24.7363 11.2637 25.3333 12.0001 25.3333C12.7365 25.3333 13.3334 24.7363 13.3334 24L13.3334 2.66662C13.3334 2.12734 13.0086 1.64116 12.5103 1.43479C12.0121 1.22841 11.4386 1.34248 11.0573 1.72381L3.05727 9.72382Z" fill="currentColor"/>
  <path d="M28.9429 22.2761C29.4636 21.7554 29.4636 20.9112 28.9429 20.3905C28.4222 19.8698 27.578 19.8698 27.0573 20.3905L21.3334 26.1143V7.99995C21.3334 7.26357 20.7365 6.66662 20.0001 6.66662C19.2637 6.66662 18.6667 7.26357 18.6667 7.99995L18.6667 29.3333C18.6667 29.8726 18.9916 30.3587 19.4898 30.5651C19.9881 30.7715 20.5616 30.6574 20.9429 30.2761L28.9429 22.2761Z" fill="currentColor"/>
</svg>