<svg width="18" height="18" viewBox="0 0 18 18" fill="none" xmlns="http://www.w3.org/2000/svg">
<path d="M10.2974 2.63224L11.6174 5.27224C11.7974 5.63974 12.2774 5.99224 12.6824 6.05974L15.0749 6.45724C16.6049 6.71224 16.9649 7.82224 15.8624 8.91724L14.0024 10.7772C13.6874 11.0922 13.5149 11.6997 13.6124 12.1347L14.1449 14.4372C14.5649 16.2597 13.5974 16.9647 11.9849 16.0122L9.74243 14.6847C9.33743 14.4447 8.66993 14.4447 8.25743 14.6847L6.01493 16.0122C4.40993 16.9647 3.43493 16.2522 3.85493 14.4372L4.38743 12.1347C4.48493 11.6997 4.31243 11.0922 3.99743 10.7772L2.13743 8.91724C1.04243 7.82224 1.39493 6.71224 2.92493 6.45724L5.31743 6.05974C5.71493 5.99224 6.19493 5.63974 6.37493 5.27224L7.69493 2.63224C8.41493 1.19974 9.58493 1.19974 10.2974 2.63224Z" stroke="currentColor" stroke-linecap="round" stroke-linejoin="round"/>
</svg>