<svg width="30" height="29" viewBox="0 0 30 29" fill="none" xmlns="http://www.w3.org/2000/svg">
<path d="M17.3065 3.17953L19.6532 7.87287C19.9732 8.5262 20.8265 9.15287 21.5465 9.27287L25.7999 9.97953C28.5199 10.4329 29.1599 12.4062 27.1999 14.3529L23.8932 17.6595C23.3332 18.2195 23.0265 19.2995 23.1999 20.0729L24.1465 24.1662C24.8932 27.4062 23.1732 28.6595 20.3065 26.9662L16.3199 24.6062C15.5999 24.1795 14.4132 24.1795 13.6799 24.6062L9.69321 26.9662C6.83988 28.6595 5.10655 27.3929 5.85321 24.1662L6.79988 20.0729C6.97321 19.2995 6.66655 18.2195 6.10655 17.6595L2.79988 14.3529C0.853212 12.4062 1.47988 10.4329 4.19988 9.97953L8.45321 9.27287C9.15988 9.15287 10.0132 8.5262 10.3332 7.87287L12.6799 3.17953C13.9599 0.632865 16.0399 0.632865 17.3065 3.17953Z" fill="#FED604" stroke="#FED604" stroke-width="1.5" stroke-linecap="round" stroke-linejoin="round"/>
</svg>
