<svg xmlns="http://www.w3.org/2000/svg" width="249" height="249" viewBox="0 0 249 249" fill="none">
<path d="M124.5 0.900391C56.2418 0.900391 0.899902 56.2423 0.899902 124.5C0.899902 192.758 56.2418 248.1 124.5 248.1C192.758 248.1 248.1 192.758 248.1 124.5C248.1 56.2423 192.758 0.900391 124.5 0.900391ZM193.582 100.882L115.714 178.751C113.778 180.687 111.161 181.768 108.432 181.768C105.702 181.768 103.076 180.687 101.15 178.751L65.5839 143.185C61.5566 139.157 61.5566 132.648 65.5839 128.62C69.6112 124.593 76.1208 124.593 80.1481 128.62L108.432 156.904L179.018 86.3183C183.045 82.291 189.555 82.291 193.582 86.3183C197.609 90.3456 197.609 96.8552 193.582 100.882Z" fill="#29F417"/>
</svg>