<svg width="16" height="16" viewBox="0 0 16 16" fill="none" xmlns="http://www.w3.org/2000/svg">
  <path d="M7.99996 12.3334C10.3932 12.3334 12.3333 10.3933 12.3333 8.00002C12.3333 5.60679 10.3932 3.66669 7.99996 3.66669C5.60673 3.66669 3.66663 5.60679 3.66663 8.00002C3.66663 10.3933 5.60673 12.3334 7.99996 12.3334Z"
                                                                                                                          stroke="black"
                                                                                                                          stroke-width="1.5"
                                                                                                                          stroke-linecap="round"
                                                                                                                          stroke-linejoin="round" />
  <path d="M12.76 12.76L12.6734 12.6733M12.6734 3.32665L12.76 3.23998L12.6734 3.32665ZM3.24004 12.76L3.32671 12.6733L3.24004 12.76ZM8.00004 1.38665V1.33331V1.38665ZM8.00004 14.6666V14.6133V14.6666ZM1.38671 7.99998H1.33337H1.38671ZM14.6667 7.99998H14.6134H14.6667ZM3.32671 3.32665L3.24004 3.23998L3.32671 3.32665Z"
                                                                                                                          stroke="#FF6A24"
                                                                                                                          stroke-width="2"
                                                                                                                          stroke-linecap="round"
                                                                                                                          stroke-linejoin="round" />
</svg>