<svg width="20" height="18" viewBox="0 0 20 18" fill="none" xmlns="http://www.w3.org/2000/svg">
<path d="M19.4353 1.10296C19.0585 0.726306 18.606 0.538086 18.077 0.538086H1.92312C1.39429 0.538086 0.941522 0.726306 0.564871 1.10296C0.188304 1.47969 0 1.93229 0 2.46125V15.5382C0 16.0672 0.188304 16.5195 0.564871 16.8964C0.941522 17.2731 1.39424 17.4611 1.92312 17.4611H18.077C18.606 17.4611 19.0585 17.2731 19.4353 16.8964C19.8118 16.5195 20 16.067 20 15.5382V2.46125C20 1.93229 19.8118 1.47957 19.4353 1.10296ZM6.15401 15.5378C6.15401 15.6503 6.11785 15.7422 6.04565 15.8144C5.97358 15.8865 5.88151 15.9223 5.76919 15.9223H1.92312C1.81106 15.9223 1.71882 15.8864 1.64666 15.8144C1.57455 15.7422 1.53856 15.6503 1.53856 15.5378V13.23C1.53856 13.1176 1.57455 13.0257 1.64666 12.9538C1.71882 12.8815 1.81106 12.8455 1.92312 12.8455H5.76932C5.8816 12.8455 5.97383 12.8815 6.04578 12.9538C6.11781 13.0257 6.15397 13.1176 6.15397 13.23V15.5378H6.15401ZM6.15401 10.9227C6.15401 11.0348 6.11785 11.127 6.04565 11.199C5.97358 11.2711 5.88151 11.3071 5.76919 11.3071H1.92312C1.81106 11.3071 1.71882 11.2711 1.64666 11.199C1.57455 11.127 1.53856 11.0348 1.53856 10.9227V8.61488C1.53856 8.50273 1.57455 8.41054 1.64666 8.33842C1.71882 8.26648 1.81106 8.23044 1.92312 8.23044H5.76932C5.8816 8.23044 5.97366 8.26644 6.04578 8.33842C6.11781 8.41054 6.15397 8.50273 6.15397 8.61488V10.9227H6.15401ZM6.15401 6.30728C6.15401 6.41951 6.11785 6.51158 6.04565 6.58374C5.97358 6.65568 5.88151 6.69184 5.76919 6.69184H1.92312C1.81106 6.69184 1.71882 6.65568 1.64666 6.58374C1.57455 6.51154 1.53856 6.41951 1.53856 6.30728V3.99959C1.53856 3.88736 1.57455 3.79517 1.64666 3.72314C1.71882 3.65102 1.81106 3.61503 1.92312 3.61503H5.76932C5.8816 3.61503 5.97366 3.65102 6.04578 3.72314C6.11781 3.79517 6.15397 3.88736 6.15397 3.99959V6.30728H6.15401ZM12.3079 15.5378C12.3079 15.6503 12.2719 15.7422 12.2 15.8144C12.1279 15.8865 12.0358 15.9223 11.9234 15.9223H8.07692C7.96481 15.9223 7.87262 15.8864 7.80046 15.8144C7.72835 15.7422 7.69236 15.6503 7.69236 15.5378V13.23C7.69236 13.1176 7.72835 13.0257 7.80046 12.9538C7.87262 12.8815 7.96481 12.8455 8.07692 12.8455H11.9232C12.0356 12.8455 12.1278 12.8815 12.1998 12.9538C12.2715 13.0257 12.3076 13.1176 12.3076 13.23V15.5378H12.3079V15.5378ZM12.3079 10.9227C12.3079 11.0348 12.2719 11.127 12.2 11.199C12.1279 11.2711 12.0358 11.3071 11.9234 11.3071H8.07692C7.96481 11.3071 7.87262 11.2711 7.80046 11.199C7.72835 11.127 7.69236 11.0348 7.69236 10.9227V8.61488C7.69236 8.50273 7.72835 8.41054 7.80046 8.33842C7.87262 8.26648 7.96481 8.23044 8.07692 8.23044H11.9232C12.0356 8.23044 12.1278 8.26644 12.1998 8.33842C12.2715 8.41054 12.3076 8.50273 12.3076 8.61488V10.9227H12.3079ZM12.3079 6.30728C12.3079 6.41951 12.2719 6.51158 12.2 6.58374C12.1279 6.65568 12.0358 6.69184 11.9234 6.69184H8.07692C7.96481 6.69184 7.87262 6.65568 7.80046 6.58374C7.72835 6.51154 7.69236 6.41951 7.69236 6.30728V3.99959C7.69236 3.88736 7.72835 3.79517 7.80046 3.72314C7.87262 3.65102 7.96481 3.61503 8.07692 3.61503H11.9232C12.0356 3.61503 12.1278 3.65102 12.1998 3.72314C12.2715 3.79517 12.3076 3.88736 12.3076 3.99959V6.30728H12.3079ZM18.4615 15.5378C18.4615 15.6503 18.4255 15.7422 18.3536 15.8144C18.2813 15.8865 18.1891 15.9223 18.077 15.9223H14.2312C14.1187 15.9223 14.0265 15.8864 13.9546 15.8144C13.8826 15.7422 13.8468 15.6503 13.8468 15.5378V13.23C13.8468 13.1176 13.8826 13.0257 13.9546 12.9538C14.0265 12.8815 14.1187 12.8455 14.2312 12.8455H18.077C18.1891 12.8455 18.2813 12.8815 18.3536 12.9538C18.4255 13.0257 18.4615 13.1176 18.4615 13.23V15.5378ZM18.4615 10.9227C18.4615 11.0348 18.4255 11.127 18.3536 11.199C18.2813 11.2711 18.1891 11.3071 18.077 11.3071H14.2312C14.1187 11.3071 14.0265 11.2711 13.9546 11.199C13.8826 11.127 13.8468 11.0348 13.8468 10.9227V8.61488C13.8468 8.50273 13.8826 8.41054 13.9546 8.33842C14.0265 8.26648 14.1187 8.23044 14.2312 8.23044H18.077C18.1891 8.23044 18.2813 8.26644 18.3536 8.33842C18.4255 8.41054 18.4615 8.50273 18.4615 8.61488V10.9227ZM18.4615 6.30728C18.4615 6.41951 18.4255 6.51158 18.3536 6.58374C18.2813 6.65568 18.1891 6.69184 18.077 6.69184H14.2312C14.1187 6.69184 14.0265 6.65568 13.9546 6.58374C13.8826 6.51154 13.8468 6.41951 13.8468 6.30728V3.99959C13.8468 3.88736 13.8826 3.79517 13.9546 3.72314C14.0265 3.65102 14.1187 3.61503 14.2312 3.61503H18.077C18.1891 3.61503 18.2813 3.65102 18.3536 3.72314C18.4255 3.79517 18.4615 3.88736 18.4615 3.99959V6.30728Z" fill="currentColor"/>
</svg>
