<svg width="16" height="16" viewBox="0 0 16 16" strocke="currentColor" fill="currentColor"  xmlns="http://www.w3.org/2000/svg">
<path d="M14.5937 2.81251H9.13163L11.1439 0.800232C11.327 0.61717 11.327 0.32039 11.1439 0.137328C10.9609 -0.0457342 10.6641 -0.0457342 10.481 0.137328L7.99998 2.61835L5.51895 0.137296C5.33592 -0.0457655 5.03911 -0.0457655 4.85605 0.137296C4.67299 0.320358 4.67299 0.617139 4.85605 0.8002L6.86832 2.81251H1.40625C0.630842 2.81251 0 3.44335 0 4.21875V13.6562C0 14.4316 0.630842 15.0625 1.40625 15.0625H2.81249V15.5312C2.81249 15.7901 3.02237 16 3.28124 16C3.54011 16 3.74999 15.7901 3.74999 15.5312V15.0625H12.25V15.5312C12.25 15.7901 12.4598 16 12.7187 16C12.9776 16 13.1875 15.7901 13.1875 15.5312V15.0625H14.5937C15.3691 15.0625 16 14.4316 16 13.6562V4.21875C16 3.44335 15.3691 2.81251 14.5937 2.81251ZM15.0625 13.6562C15.0625 13.9147 14.8522 14.125 14.5937 14.125H1.40625C1.14778 14.125 0.937497 13.9147 0.937497 13.6562V4.21875C0.937497 3.96028 1.14778 3.75 1.40625 3.75H14.5937C14.8522 3.75 15.0625 3.96028 15.0625 4.21875V13.6562Z"/>
<path d="M0.5 12L1.88305 9.64956L3.56434 12.1624L4.99999 11L5.96299 12.1624L7.21836 7.41595L8.78756 10.208L10.396 6L12 12.5L13.1813 9.64956L15.5 11"  stroke-width="0.7"/>
</svg>
