<svg width="24" height="24" viewBox="0 0 24 24" fill="none" xmlns="http://www.w3.org/2000/svg">
<path d="M16.1715 2.25C18.6213 2.25024 19.848 5.21198 18.1159 6.94434L6.944 18.1162C6.15716 18.9036 6.71472 20.2495 7.82779 20.25H16.1715C17.2849 20.2498 17.8425 18.9036 17.0553 18.1162L13.7194 14.7803C13.4267 14.4874 13.4267 14.0126 13.7194 13.7197C14.0122 13.4269 14.487 13.427 14.7799 13.7197L18.1159 17.0557C19.848 18.788 18.6213 21.7498 16.1715 21.75H7.82779C5.37838 21.7495 4.15166 18.788 5.88345 17.0557L17.0553 5.88379C17.8425 5.09638 17.2849 3.75024 16.1715 3.75H7.82779C6.71473 3.75051 6.15716 5.09644 6.944 5.88379L10.2799 9.21973C10.5728 9.51262 10.5728 9.98738 10.2799 10.2803C9.98703 10.573 9.51223 10.5731 9.21939 10.2803L5.88345 6.94434C4.15166 5.21204 5.37837 2.25051 7.82779 2.25H16.1715Z" fill="currentColor"/>
</svg>
