<svg width="24" height="24" viewBox="0 0 24 24" fill="none" xmlns="http://www.w3.org/2000/svg">
<path d="M22 10V15C22 20 20 22 15 22H9C4 22 2 20 2 15V9C2 4 4 2 9 2H14" stroke="url(#paint0_linear_1339_23830)" stroke-linecap="round" stroke-linejoin="round"/>
<path d="M22 10H18C15 10 14 9 14 6V2L22 10Z" stroke="url(#paint1_linear_1339_23830)" stroke-linecap="round" stroke-linejoin="round"/>
<path d="M7 13H13" stroke="url(#paint2_linear_1339_23830)" stroke-linecap="round" stroke-linejoin="round"/>
<path d="M7 17H11" stroke="url(#paint3_linear_1339_23830)" stroke-linecap="round" stroke-linejoin="round"/>
<defs>
<linearGradient id="paint0_linear_1339_23830" x1="2" y1="2" x2="22" y2="22" gradientUnits="userSpaceOnUse">
<stop stop-color="currentColor"/>
<stop offset="1" stop-color="currentColor"/>
</linearGradient>
<linearGradient id="paint1_linear_1339_23830" x1="14" y1="2" x2="22" y2="10" gradientUnits="userSpaceOnUse">
<stop stop-color="currentColor"/>
<stop offset="1" stop-color="currentColor"/>
</linearGradient>
<linearGradient id="paint2_linear_1339_23830" x1="7" y1="13" x2="7.32432" y2="14.9459" gradientUnits="userSpaceOnUse">
<stop stop-color="currentColor"/>
<stop offset="1" stop-color="currentColor"/>
</linearGradient>
<linearGradient id="paint3_linear_1339_23830" x1="7" y1="17" x2="7.47059" y2="18.8824" gradientUnits="userSpaceOnUse">
<stop stop-color="currentColor"/>
<stop offset="1" stop-color="currentColor"/>
</linearGradient>
</defs>
</svg>
