<svg xmlns="http://www.w3.org/2000/svg" width="16" height="16" viewBox="0 0 16 16" fill="none">
<path fill-rule="evenodd" clip-rule="evenodd" d="M8.35355 4.31442C8.15829 4.11915 7.84171 4.11915 7.64645 4.31442L3.64645 8.31442C3.45118 8.50968 3.45118 8.82626 3.64645 9.02152C3.84171 9.21678 4.15829 9.21678 4.35355 9.02152L8 5.37508L11.6464 9.02152C11.8417 9.21678 12.1583 9.21678 12.3536 9.02152C12.5488 8.82626 12.5488 8.50968 12.3536 8.31442L8.35355 4.31442ZM11.0202 10.9811L8.35355 8.31442C8.15829 8.11915 7.84171 8.11915 7.64645 8.31442L4.97978 10.9811C4.78452 11.1763 4.78452 11.4929 4.97978 11.6882C5.17504 11.8835 5.49162 11.8835 5.68689 11.6882L8 9.37508L10.3131 11.6882C10.5084 11.8835 10.825 11.8835 11.0202 11.6882C11.2155 11.4929 11.2155 11.1763 11.0202 10.9811Z" fill="#09E384"/>
</svg>