<svg width="18" height="18" viewBox="0 0 18 18" fill="none" xmlns="http://www.w3.org/2000/svg">
<path className="theme" d="M15 5.25V12.75C15 15.75 14.25 16.5 11.25 16.5H6.75C3.75 16.5 3 15.75 3 12.75V5.25C3 2.25 3.75 1.5 6.75 1.5H11.25C14.25 1.5 15 2.25 15 5.25Z" stroke="#DEDEDE" stroke-width="1.5" stroke-linecap="round" stroke-linejoin="round"/>
<path d="M10.5 5H7.5" stroke="#FF6A24" stroke-width="1.5" stroke-linecap="round" stroke-linejoin="round"/>
<path d="M9 13C9.55228 13 10 12.5523 10 12C10 11.4477 9.55228 11 9 11C8.44772 11 8 11.4477 8 12C8 12.5523 8.44772 13 9 13Z" stroke="#FF6A24" stroke-width="1.5" stroke-linecap="round" stroke-linejoin="round"/>
</svg>
