<svg width="19" height="18" viewBox="0 0 19 18" fill="none" xmlns="http://www.w3.org/2000/svg">
<path d="M14.4792 17.6683H5.4376C2.94312 17.6683 0.916689 15.7073 0.916689 13.2933V4.54334C0.916689 2.12909 2.94312 0.168259 5.4376 0.168259H14.4792C16.9739 0.168259 19.0001 2.12909 19.0001 4.54334V13.2933C19.0001 15.7073 16.9739 17.6683 14.4792 17.6683Z" fill="#8CA0B4"/>
<path d="M13 4.5L13 3L3 3L3 4.5L13 4.5Z" fill="white"/>
<path d="M11 7L11 8.5L3 8.5L3 7L11 7Z" fill="white"/>
<path d="M7 16L7 14.5L3 14.5L3 16L7 16Z" fill="white"/>
<path d="M9 11L9 12.5L3 12.5L3 11L9 11Z" fill="white"/>
<path d="M15.6647 15.6454L13.8088 12.3454C13.7612 12.2608 13.7136 12.1762 13.714 12.0918C13.7143 12.0074 13.7151 11.8386 13.7154 11.7541C13.7158 11.6697 13.812 11.5857 13.9082 11.5017C13.9565 11.4175 14.0044 11.4177 14.1003 11.4181L14.8673 11.4213L14.8805 4.06769C15.4078 4.06988 16.8445 4.06149 16.8445 4.06149C16.9092 4.06129 16.9113 4.08551 16.9075 5.01408L16.8807 11.4297L17.7436 11.4333C17.7915 11.4335 17.8874 11.4339 17.935 11.5185C17.9826 11.6031 18.0302 11.6877 18.0298 11.7721C18.0295 11.8565 18.0771 11.9412 18.0284 12.1098C18.0281 12.1942 17.9798 12.2784 17.9315 12.3626L16.0482 15.647C16.0478 15.7315 15.9516 15.8155 15.9037 15.8153C15.8078 15.8149 15.7123 15.7301 15.6647 15.6454Z" fill="#F58220"/>
</svg>
