<svg width="24" height="24" viewBox="0 0 24 24" fill="none" xmlns="http://www.w3.org/2000/svg">
<path d="M11.7568 3.52848C12.8295 2.43101 14.7495 3.17585 14.75 4.7609L14.75 19.2375C14.7497 20.8227 12.8295 21.5676 11.7568 20.4699L11.6553 20.3576L9.02344 17.1994C8.78599 16.9145 8.43431 16.7493 8.06347 16.7492L5 16.7492C3.48122 16.7492 2.25 15.518 2.25 13.9992L2.25 9.99918C2.25012 8.48051 3.48129 7.24918 5 7.24918L8.06348 7.24918C8.43437 7.24912 8.78599 7.08392 9.02344 6.79899L11.6553 3.64079L11.7568 3.52848ZM13.25 4.7609C13.2496 4.55675 13.0262 4.45045 12.8701 4.54704L12.8076 4.60075L10.1758 7.75993C9.65335 8.38674 8.87946 8.74912 8.06348 8.74918L5 8.74918C4.30972 8.74918 3.75012 9.30893 3.75 9.99918L3.75 13.9992C3.75 14.6895 4.30964 15.2492 5 15.2492L8.06347 15.2492C8.8794 15.2493 9.65335 15.6117 10.1758 16.2384L12.8076 19.3976L12.8701 19.4513C13.0263 19.5481 13.2498 19.4418 13.25 19.2375L13.25 4.7609ZM17.376 5.58219C17.5917 5.25957 18.0149 5.15816 18.3506 5.3361L18.417 5.37516L18.6035 5.50505C20.5165 6.87922 21.7499 9.29387 21.75 11.9992C21.75 14.7916 20.4361 17.2747 18.417 18.6232C18.0726 18.8532 17.6061 18.7605 17.376 18.4162C17.1461 18.0718 17.2387 17.6052 17.583 17.3752C19.1505 16.3283 20.25 14.3342 20.25 11.9992C20.2499 9.81026 19.2842 7.92044 17.8721 6.83024L17.583 6.62321L17.5215 6.57731C17.2285 6.3353 17.1604 5.90504 17.376 5.58219ZM16.376 9.58219C16.5917 9.25957 17.0149 9.15816 17.3506 9.3361L17.417 9.37516L17.5674 9.48356C18.302 10.0495 18.7499 10.9837 18.75 11.9992C18.75 13.0824 18.2405 14.0731 17.417 14.6232C17.0726 14.8532 16.6061 14.7605 16.376 14.4162C16.1461 14.0718 16.2387 13.6052 16.583 13.3752C16.9549 13.1268 17.25 12.625 17.25 11.9992C17.2499 11.4516 17.0243 10.9987 16.7187 10.7277L16.583 10.6232L16.5215 10.5773C16.2285 10.3353 16.1604 9.90504 16.376 9.58219Z" fill="white"/>
</svg>
