<svg width="19" height="18" viewBox="0 0 19 18" fill="none" xmlns="http://www.w3.org/2000/svg">
<path d="M14.4792 17.6683H5.4376C2.94312 17.6683 0.916689 15.7073 0.916689 13.2933V4.54334C0.916689 2.12909 2.94312 0.168259 5.4376 0.168259H14.4792C16.9739 0.168259 19.0001 2.12909 19.0001 4.54334V13.2933C19.0001 15.7073 16.9739 17.6683 14.4792 17.6683Z" fill="#8CA0B4"/>
<path d="M13 4.5L13 3L3 3L3 4.5L13 4.5Z" fill="white"/>
<path d="M11 7L11 8.5L3 8.5L3 7L11 7Z" fill="white"/>
<path d="M7 16L7 14.5L3 14.5L3 16L7 16Z" fill="white"/>
<path d="M9 11L9 12.5L3 12.5L3 11L9 11Z" fill="white"/>
<path d="M16.0933 4.2264L17.9629 7.51864C18.0108 7.60306 18.0588 7.68747 18.0588 7.77189C18.0588 7.8563 18.0588 8.02514 18.0588 8.10955C18.0588 8.19397 17.9629 8.27839 17.867 8.3628C17.8191 8.44722 17.7711 8.44722 17.6753 8.44722H16.9082L16.9257 15.8008C16.3984 15.8008 14.9618 15.8152 14.9618 15.8152C14.8971 15.8156 14.8948 15.7914 14.8948 14.8629L14.8948 8.44722H14.0319C13.984 8.44722 13.8881 8.44722 13.8402 8.3628C13.7922 8.27839 13.7443 8.19397 13.7443 8.10955C13.7443 8.02514 13.6964 7.94072 13.7443 7.77189C13.7443 7.68747 13.7922 7.60306 13.8402 7.51864L15.7098 4.2264C15.7098 4.14198 15.8057 4.05757 15.8536 4.05757C15.9495 4.05757 16.0454 4.14198 16.0933 4.2264Z" fill="#F58220"/>
</svg>
