<svg width="24" height="24" viewBox="0 0 24 24" fill="none" xmlns="http://www.w3.org/2000/svg">
<path d="M22 6V8.42C22 10 21 11 19.42 11H16V4.01C16 2.9 16.91 2 18.02 2C19.11 2.01 20.11 2.45 20.83 3.17C21.55 3.9 22 4.9 22 6Z" stroke="url(#paint0_linear_1339_28222)" stroke-miterlimit="10" stroke-linecap="round" stroke-linejoin="round"/>
<path d="M2 7V21C2 21.83 2.94 22.3 3.6 21.8L5.31 20.52C5.71 20.22 6.27 20.26 6.63 20.62L8.29 22.29C8.68 22.68 9.32 22.68 9.71 22.29L11.39 20.61C11.74 20.26 12.3 20.22 12.69 20.52L14.4 21.8C15.06 22.29 16 21.82 16 21V4C16 2.9 16.9 2 18 2H7H6C3 2 2 3.79 2 6V7Z" stroke="url(#paint1_linear_1339_28222)" stroke-miterlimit="10" stroke-linecap="round" stroke-linejoin="round"/>
<path d="M9 13.0098H12" stroke="url(#paint2_linear_1339_28222)" stroke-linecap="round" stroke-linejoin="round"/>
<path d="M9 9.00977H12" stroke="url(#paint3_linear_1339_28222)" stroke-linecap="round" stroke-linejoin="round"/>
<path d="M5.99609 13H6.00508" stroke="url(#paint4_linear_1339_28222)" stroke-linecap="round" stroke-linejoin="round"/>
<path d="M5.99609 9H6.00508" stroke="url(#paint5_linear_1339_28222)" stroke-linecap="round" stroke-linejoin="round"/>
<defs>
<linearGradient id="paint0_linear_1339_28222" x1="16" y1="2" x2="24.3077" y2="7.53846" gradientUnits="userSpaceOnUse">
<stop stop-color="currentColor"/>
<stop offset="1" stop-color="currentColor"/>
</linearGradient>
<linearGradient id="paint1_linear_1339_28222" x1="2" y1="2" x2="21.9465" y2="17.5056" gradientUnits="userSpaceOnUse">
<stop stop-color="currentColor"/>
<stop offset="1" stop-color="currentColor"/>
</linearGradient>
<linearGradient id="paint2_linear_1339_28222" x1="9" y1="13.0098" x2="9.6" y2="14.8098" gradientUnits="userSpaceOnUse">
<stop stop-color="currentColor"/>
<stop offset="1" stop-color="currentColor"/>
</linearGradient>
<linearGradient id="paint3_linear_1339_28222" x1="9" y1="9.00977" x2="9.6" y2="10.8098" gradientUnits="userSpaceOnUse">
<stop stop-color="currentColor"/>
<stop offset="1" stop-color="currentColor"/>
</linearGradient>
<linearGradient id="paint4_linear_1339_28222" x1="5.99609" y1="13" x2="6.01406" y2="13.0002" gradientUnits="userSpaceOnUse">
<stop stop-color="currentColor"/>
<stop offset="1" stop-color="currentColor"/>
</linearGradient>
<linearGradient id="paint5_linear_1339_28222" x1="5.99609" y1="9" x2="6.01406" y2="9.00016" gradientUnits="userSpaceOnUse">
<stop stop-color="currentColor"/>
<stop offset="1" stop-color="currentColor"/>
</linearGradient>
</defs>
</svg>
