<svg width="24" height="24" viewBox="0 0 24 24" fill="none" xmlns="http://www.w3.org/2000/svg">
<path fill-rule="evenodd" clip-rule="evenodd" d="M14.8 3.5C15.3683 3.5 15.7645 3.50039 16.0729 3.52559C16.3755 3.55031 16.5493 3.5964 16.681 3.66349C16.9632 3.8073 17.1927 4.03677 17.3365 4.31901C17.4036 4.45069 17.4497 4.62454 17.4744 4.92712C17.4996 5.23554 17.5 5.6317 17.5 6.2V6.5H17.2598H17.2222H17.2H12H4C3.17157 6.5 2.5 5.82843 2.5 5C2.5 4.17157 3.17157 3.5 4 3.5H14.8ZM1.5 5C1.5 3.61929 2.61929 2.5 4 2.5H14.8H14.8214C15.3633 2.5 15.8004 2.49999 16.1543 2.52891C16.5187 2.55868 16.8388 2.62159 17.135 2.77248C17.6054 3.01217 17.9878 3.39462 18.2275 3.86502C18.3784 4.16117 18.4413 4.48126 18.4711 4.84569C18.5 5.19963 18.5 5.6367 18.5 6.17859V6.2V6.50865C18.7607 6.5147 18.9966 6.52501 19.2111 6.54253C19.7423 6.58593 20.1859 6.67609 20.589 6.88148C21.2475 7.21703 21.783 7.75247 22.1185 8.41103C22.3239 8.81414 22.4141 9.25771 22.4575 9.78889C22.5 10.3095 22.5 10.9565 22.5 11.7778V11.8V12V16V16.2V16.2222C22.5 17.0435 22.5 17.6905 22.4575 18.2111C22.4141 18.7423 22.3239 19.1859 22.1185 19.589C21.783 20.2475 21.2475 20.783 20.589 21.1185C20.1859 21.3239 19.7423 21.4141 19.2111 21.4575C18.6905 21.5 18.0435 21.5 17.2222 21.5H17.2H6.8H6.77778C5.95651 21.5 5.30954 21.5 4.78889 21.4575C4.25771 21.4141 3.81413 21.3239 3.41103 21.1185C2.75247 20.783 2.21703 20.2475 1.88148 19.589C1.67609 19.1859 1.58593 18.7423 1.54253 18.2111C1.49999 17.6905 1.5 17.0435 1.5 16.2222V16.2222V16.2V5ZM21.5 15.5V12.5H20C19.1716 12.5 18.5 13.1716 18.5 14C18.5 14.8284 19.1716 15.5 20 15.5H21.5ZM21.4999 11.5H20C18.6193 11.5 17.5 12.6193 17.5 14C17.5 15.3807 18.6193 16.5 20 16.5H21.4999C21.4993 17.1943 21.4949 17.7125 21.4608 18.1297C21.4224 18.599 21.3491 18.8963 21.2275 19.135C20.9878 19.6054 20.6054 19.9878 20.135 20.2275C19.8963 20.3491 19.599 20.4224 19.1297 20.4608C18.6545 20.4996 18.0483 20.5 17.2 20.5H6.8C5.95167 20.5 5.34549 20.4996 4.87032 20.4608C4.40099 20.4224 4.10366 20.3491 3.86502 20.2275C3.39462 19.9878 3.01217 19.6054 2.77248 19.135C2.65089 18.8963 2.57756 18.599 2.53921 18.1297C2.50039 17.6545 2.5 17.0483 2.5 16.2V7.00018C2.91783 7.31403 3.4372 7.5 4 7.5H12H17.2C18.0483 7.5 18.6545 7.50039 19.1297 7.53921C19.599 7.57756 19.8963 7.65089 20.135 7.77248C20.6054 8.01217 20.9878 8.39462 21.2275 8.86502C21.3491 9.10366 21.4224 9.40099 21.4608 9.87032C21.4949 10.2875 21.4993 10.8057 21.4999 11.5ZM7 14C7 13.7239 7.22386 13.5 7.5 13.5H12.5C12.7761 13.5 13 13.7239 13 14C13 14.2761 12.7761 14.5 12.5 14.5H7.5C7.22386 14.5 7 14.2761 7 14Z" fill="currentColor"/>
</svg>
