<svg xmlns="http://www.w3.org/2000/svg" width="44" height="42" viewBox="0 0 44 42" fill="none">
  <path d="M19.8623 4.30859C20.8355 2.70415 23.1642 2.70442 24.1377 4.30859L40.752 31.7012C41.7624 33.3672 40.5628 35.498 38.6143 35.498H5.38477C3.43669 35.4974 2.23769 33.367 3.24805 31.7012L19.8623 4.30859ZM23.2822 4.82715C22.6981 3.86486 21.3007 3.86458 20.7168 4.82715L4.10254 32.2197C3.49638 33.2191 4.21612 34.4974 5.38477 34.498H38.6143C39.7834 34.498 40.5028 33.2194 39.8965 32.2197L23.2822 4.82715ZM22 26.248C23.0124 26.248 23.8328 27.0317 23.833 27.998C23.833 28.9645 23.0125 29.748 22 29.748C20.9875 29.748 20.167 28.9645 20.167 27.998C20.1672 27.0318 20.9877 26.2481 22 26.248ZM22 15.248C22.276 15.248 22.4998 15.4721 22.5 15.748V22.748C22.5 23.0242 22.2761 23.248 22 23.248C21.7239 23.248 21.5 23.0241 21.5 22.748V15.748C21.5002 15.4721 21.724 15.2481 22 15.248Z" fill="#F2B132"/>
</svg>