<svg width="40" height="40" viewBox="0 0 40 40" fill="none" xmlns="http://www.w3.org/2000/svg">
<circle cx="20" cy="20" r="20" fill="#FFE8F0"/>
<path d="M20 10C25.5228 10 30 14.4772 30 20C30 25.5228 25.5228 30 20 30C14.4772 30 10 25.5228 10 20C10 14.4772 14.4772 10 20 10ZM23.5303 16.4697C23.2374 16.1768 22.7626 16.1768 22.4697 16.4697L20 18.9395L17.5303 16.4697C17.2374 16.1768 16.7626 16.1768 16.4697 16.4697C16.1768 16.7626 16.1768 17.2374 16.4697 17.5303L18.9395 20L16.4697 22.4697C16.1768 22.7626 16.1768 23.2374 16.4697 23.5303C16.7626 23.8232 17.2374 23.8232 17.5303 23.5303L20 21.0605L22.4697 23.5303C22.7626 23.8232 23.2374 23.8232 23.5303 23.5303C23.8232 23.2374 23.8232 22.7626 23.5303 22.4697L21.0605 20L23.5303 17.5303C23.8232 17.2374 23.8232 16.7626 23.5303 16.4697Z" fill="#FF2D49"/>
</svg>
