<svg xmlns="http://www.w3.org/2000/svg" width="40" height="40" viewBox="0 0 40 40" fill="none">
  <path fill-rule="evenodd" clip-rule="evenodd" d="M5.75 20C5.75 12.1299 12.1299 5.75 20 5.75C27.8701 5.75 34.25 12.1299 34.25 20C34.25 27.8701 27.8701 34.25 20 34.25C12.1299 34.25 5.75 27.8701 5.75 20ZM20 4.25C11.3015 4.25 4.25 11.3015 4.25 20C4.25 28.6985 11.3015 35.75 20 35.75C28.6985 35.75 35.75 28.6985 35.75 20C35.75 11.3015 28.6985 4.25 20 4.25ZM15.5303 14.4697C15.2374 14.1768 14.7626 14.1768 14.4697 14.4697C14.1768 14.7626 14.1768 15.2374 14.4697 15.5303L18.9393 20L14.4697 24.4697C14.1768 24.7626 14.1768 25.2374 14.4697 25.5303C14.7626 25.8232 15.2374 25.8232 15.5303 25.5303L20 21.0607L24.4697 25.5303C24.7626 25.8232 25.2374 25.8232 25.5303 25.5303C25.8232 25.2374 25.8232 24.7626 25.5303 24.4697L21.0607 20L25.5303 15.5303C25.8232 15.2374 25.8232 14.7626 25.5303 14.4697C25.2374 14.1768 24.7626 14.1768 24.4697 14.4697L20 18.9393L15.5303 14.4697Z" fill="currentColor"/>
</svg>