<svg width="30" height="30" viewBox="0 0 30 30" fill="currentColor" xmlns="http://www.w3.org/2000/svg">
<path d="M5.625 3.75H24.375C24.8721 3.75049 25.3488 3.94819 25.7003 4.29972C26.0518 4.65124 26.2495 5.12787 26.25 5.625V24.375C26.2495 24.8721 26.0518 25.3488 25.7003 25.7003C25.3488 26.0518 24.8721 26.2495 24.375 26.25H5.625C5.12787 26.2495 4.65124 26.0518 4.29972 25.7003C3.94819 25.3488 3.75049 24.8721 3.75 24.375V5.625C3.75049 5.12787 3.94819 4.65124 4.29972 4.29972C4.65124 3.94819 5.12787 3.75049 5.625 3.75Z" fill="#404040"/>
<path d="M18.3856 7.70574L19.6309 9.04L17.674 10.9969C17.3182 11.3527 17.3182 11.8864 17.674 12.2422C18.0298 12.598 18.5635 12.598 18.9193 12.2422L20.8762 10.2853L22.2105 11.5306C22.5663 11.8864 23.011 11.6196 23.011 11.2638V7.43889C23.011 7.17204 22.8331 6.99414 22.5663 6.99414H18.7414C18.3856 6.99414 18.1188 7.43889 18.3856 7.70574V7.70574ZM7.7116 11.5306L8.95691 10.2853L10.9138 12.2422C11.2696 12.598 11.8033 12.598 12.1591 12.2422C12.5149 11.8864 12.5149 11.3527 12.1591 10.9969L10.2912 9.04L11.5365 7.70574C11.8923 7.43889 11.6254 6.99414 11.2696 6.99414H7.44475C7.1779 6.99414 7 7.17204 7 7.43889V11.2638C7 11.6196 7.44475 11.8864 7.7116 11.5306V11.5306ZM11.5365 22.2046L10.2022 20.9593L12.1591 19.0024C12.5149 18.6466 12.5149 18.1129 12.1591 17.7571C11.8033 17.4013 11.2696 17.4013 10.9138 17.7571L8.95691 19.714L7.62265 18.4687C7.44475 18.1129 7 18.3798 7 18.7356V22.5604C7 22.8273 7.1779 23.0052 7.44475 23.0052H11.2696C11.6254 23.0052 11.8923 22.5604 11.5365 22.2046V22.2046ZM22.2994 18.3798L20.9652 19.6251L19.0083 17.6682C18.6525 17.3124 18.1188 17.3124 17.763 17.6682C17.4072 18.024 17.4072 18.5577 17.763 18.9135L19.7199 20.8704L18.4746 22.2046C18.2077 22.4715 18.3856 23.0052 18.8304 23.0052H22.6552C22.9221 23.0052 23.1 22.8273 23.1 22.5604V18.7356C23.0111 18.3798 22.5663 18.1129 22.2994 18.3798V18.3798Z" fill="white"/>
</svg>
