<svg width="20" height="20" viewBox="0 0 20 20" fill="none" xmlns="http://www.w3.org/2000/svg">
<path d="M15.3888 16.2746C15.6329 16.5187 16.0286 16.5187 16.2727 16.2746C16.5167 16.0305 16.5167 15.6348 16.2727 15.3907L10.8813 9.99935L16.2727 4.60796C16.5167 4.36388 16.5167 3.96815 16.2727 3.72407C16.0286 3.48 15.6329 3.48 15.3888 3.72407L9.9974 9.11547L4.606 3.72407C4.36193 3.48 3.9662 3.48 3.72212 3.72407C3.47804 3.96815 3.47804 4.36388 3.72212 4.60796L9.11351 9.99935L3.72212 15.3907C3.47804 15.6348 3.47804 16.0305 3.72212 16.2746C3.9662 16.5187 4.36193 16.5187 4.606 16.2746L9.9974 10.8832L15.3888 16.2746Z" fill="currentColor"/>
</svg>
