<svg width="30" height="30" viewBox="0 0 30 30" fill="none" xmlns="http://www.w3.org/2000/svg">
<circle cx="15" cy="15" r="15" fill="currentColor"/>
<path d="M20.3927 21.2756C20.6368 21.5197 21.0325 21.5197 21.2766 21.2756C21.5207 21.0315 21.5207 20.6358 21.2766 20.3917L15.8852 15.0003L21.2766 9.60893C21.5207 9.36486 21.5207 8.96913 21.2766 8.72505C21.0325 8.48097 20.6368 8.48097 20.3927 8.72505L15.0013 14.1164L9.60991 8.72505C9.36583 8.48097 8.97011 8.48097 8.72603 8.72505C8.48195 8.96913 8.48195 9.36486 8.72603 9.60893L14.1174 15.0003L8.72603 20.3917C8.48195 20.6358 8.48195 21.0315 8.72603 21.2756C8.9701 21.5197 9.36583 21.5197 9.60991 21.2756L15.0013 15.8842L20.3927 21.2756Z" fill="#6E6E6E"/>
</svg>
