<svg width="30" height="30" viewBox="0 0 30 30" fill="none" xmlns="http://www.w3.org/2000/svg">
<path d="M22.7007 23.7317C23.0457 24.0825 23.605 24.0825 23.95 23.7317C24.2949 23.381 24.2949 22.8122 23.95 22.4615L16.3301 14.7132L23.95 6.965C24.2949 6.61422 24.2949 6.0455 23.95 5.69472C23.605 5.34395 23.0457 5.34395 22.7007 5.69472L15.0809 13.443L7.46107 5.69472C7.11611 5.34395 6.55681 5.34395 6.21185 5.69472C5.86688 6.0455 5.86688 6.61422 6.21185 6.965L13.8317 14.7132L6.21185 22.4615C5.86688 22.8122 5.86688 23.381 6.21185 23.7317C6.55681 24.0825 7.11611 24.0825 7.46107 23.7317L15.0809 15.9835L22.7007 23.7317Z" fill="#ED3636"/>
</svg>
