<svg width="22" height="22" viewBox="0 0 22 22" fill="none" xmlns="http://www.w3.org/2000/svg">
<g clip-path="url(#clip0_19765_154369)">
<path d="M14.2335 14.2355C13.965 14.504 13.5297 14.504 13.2613 14.2355L10.9974 11.9716L8.73352 14.2355C8.46504 14.504 8.02974 14.504 7.76125 14.2355C7.49277 13.967 7.49277 13.5317 7.76125 13.2632L10.0251 10.9993L7.76126 8.73549C7.49277 8.46701 7.49277 8.03171 7.76126 7.76322C8.02974 7.49473 8.46505 7.49474 8.73353 7.76322L10.9974 10.0271L13.2613 7.76321C13.5297 7.49473 13.965 7.49473 14.2335 7.76321C14.502 8.0317 14.502 8.467 14.2335 8.73548L11.9697 10.9993L14.2335 13.2632C14.502 13.5317 14.502 13.967 14.2335 14.2355Z" fill="currentColor"/>
<path fill-rule="evenodd" clip-rule="evenodd" d="M0.226562 10.9993C0.226562 5.05078 5.04883 0.228516 10.9974 0.228516C16.946 0.228516 21.7682 5.05078 21.7682 10.9993C21.7682 16.9479 16.946 21.7702 10.9974 21.7702C5.04883 21.7702 0.226562 16.9479 0.226562 10.9993ZM10.9974 1.60352C5.80822 1.60352 1.60156 5.81017 1.60156 10.9993C1.60156 16.1885 5.80822 20.3952 10.9974 20.3952C16.1866 20.3952 20.3932 16.1885 20.3932 10.9993C20.3932 5.81017 16.1866 1.60352 10.9974 1.60352Z" fill="currentColor"/>
</g>
<defs>
<clipPath id="clip0_19765_154369">
<rect width="22" height="22" fill="white"/>
</clipPath>
</defs>
</svg>
