<svg width="26" height="26" viewBox="0 0 26 26" fill="none" xmlns="http://www.w3.org/2000/svg">
<path d="M21.125 3.25H4.875C4.44415 3.25043 4.03108 3.42177 3.72642 3.72642C3.42177 4.03108 3.25043 4.44415 3.25 4.875V21.125C3.25043 21.5558 3.42177 21.9689 3.72642 22.2736C4.03108 22.5782 4.44415 22.7496 4.875 22.75H21.125C21.5558 22.7496 21.9689 22.5782 22.2736 22.2736C22.5782 21.9689 22.7496 21.5558 22.75 21.125V4.875C22.7496 4.44415 22.5782 4.03108 22.2736 3.72642C21.9689 3.42177 21.5558 3.25043 21.125 3.25ZM16.8245 15.6755C16.9 15.7509 16.96 15.8405 17.0009 15.9391C17.0419 16.0377 17.063 16.1434 17.063 16.2502C17.0631 16.3569 17.0421 16.4627 17.0013 16.5613C16.9604 16.66 16.9006 16.7496 16.8251 16.8251C16.7496 16.9006 16.66 16.9604 16.5613 17.0013C16.4627 17.0421 16.3569 17.0631 16.2502 17.063C16.1434 17.063 16.0377 17.0419 15.9391 17.0009C15.8405 16.96 15.7509 16.9 15.6755 16.8245L13 14.1489L10.3245 16.8245C10.172 16.9766 9.9655 17.0619 9.75018 17.0618C9.53486 17.0617 9.3284 16.9761 9.17615 16.8239C9.0239 16.6716 8.93831 16.4651 8.9382 16.2498C8.93808 16.0345 9.02345 15.828 9.17554 15.6755L11.8511 13L9.17554 10.3245C9.02345 10.172 8.93808 9.96549 8.9382 9.75018C8.93831 9.53486 9.0239 9.3284 9.17615 9.17615C9.3284 9.0239 9.53486 8.93831 9.75018 8.9382C9.9655 8.93808 10.172 9.02345 10.3245 9.17554L13 11.8511L15.6755 9.17554C15.828 9.02345 16.0345 8.93808 16.2498 8.9382C16.4651 8.93831 16.6716 9.0239 16.8239 9.17615C16.9761 9.3284 17.0617 9.53486 17.0618 9.75018C17.0619 9.96549 16.9766 10.172 16.8245 10.3245L14.1489 13L16.8245 15.6755Z" fill="#777777"/>
</svg>
