<svg width="20" height="20" viewBox="0 0 20 20" fill="none" xmlns="http://www.w3.org/2000/svg">
<path d="M15.3907 16.2751C15.6348 16.5192 16.0305 16.5192 16.2746 16.2751C16.5187 16.031 16.5187 15.6353 16.2746 15.3912L10.8832 9.99984L16.2746 4.60845C16.5187 4.36437 16.5187 3.96864 16.2746 3.72456C16.0305 3.48049 15.6348 3.48049 15.3907 3.72456L9.99935 9.11595L4.60796 3.72456C4.36388 3.48048 3.96815 3.48048 3.72407 3.72456C3.48 3.96864 3.48 4.36437 3.72407 4.60845L9.11547 9.99984L3.72407 15.3912C3.48 15.6353 3.48 16.031 3.72407 16.2751C3.96815 16.5192 4.36388 16.5192 4.60796 16.2751L9.99935 10.8837L15.3907 16.2751Z" fill="#6E6E6E"/>
</svg>
