<svg width="24" height="24" viewBox="0 0 24 24" fill="none" xmlns="http://www.w3.org/2000/svg">
<path d="M10.4475 14.47C10.3675 14.29 10.2275 14.14 10.0375 14.06C9.94751 14.02 9.84747 14 9.74747 14H5.74747C5.33747 14 4.99747 14.34 4.99747 14.75C4.99747 15.16 5.33747 15.5 5.74747 15.5H7.93747L3.2175 20.22C2.9275 20.51 2.9275 20.99 3.2175 21.28C3.3675 21.43 3.55747 21.5 3.74747 21.5C3.93747 21.5 4.1275 21.43 4.2775 21.28L8.99747 16.56V18.76C8.99747 19.17 9.33747 19.51 9.74747 19.51C10.1575 19.51 10.4975 19.17 10.4975 18.76V14.76C10.5075 14.66 10.4875 14.57 10.4475 14.47Z" fill="#FF6A24"/>
<path d="M13.5525 9.52997C13.6325 9.70997 13.7725 9.86 13.9625 9.94C14.0525 9.98 14.1525 10 14.2525 10H18.2525C18.6625 10 19.0025 9.66 19.0025 9.25C19.0025 8.84 18.6625 8.5 18.2525 8.5H16.0625L20.7825 3.77997C21.0725 3.48997 21.0725 3.00997 20.7825 2.71997C20.6325 2.56997 20.4425 2.5 20.2525 2.5C20.0625 2.5 19.8725 2.56997 19.7225 2.71997L15.0025 7.44V5.23999C15.0025 4.82999 14.6625 4.48999 14.2525 4.48999C13.8425 4.48999 13.5025 4.82999 13.5025 5.23999V9.23999C13.4925 9.33999 13.5125 9.42997 13.5525 9.52997Z" fill="#FF6A24"/>
<path className="theme" d="M12 12.0533V12" stroke="#DEDEDE" stroke-width="2" stroke-linecap="round" stroke-linejoin="round"/>
</svg>
