<svg width="24" height="24" viewBox="0 0 24 24" fill="none" xmlns="http://www.w3.org/2000/svg">
<path d="M20.9475 3.47003C20.8675 3.29003 20.7275 3.14 20.5375 3.06C20.4475 3.02 20.3475 3 20.2475 3H16.2475C15.8375 3 15.4975 3.34 15.4975 3.75C15.4975 4.16 15.8375 4.5 16.2475 4.5H18.4375L13.7175 9.22003C13.4275 9.51003 13.4275 9.99003 13.7175 10.28C13.8675 10.43 14.0575 10.5 14.2475 10.5C14.4375 10.5 14.6275 10.43 14.7775 10.28L19.4975 5.56V7.76001C19.4975 8.17001 19.8375 8.51001 20.2475 8.51001C20.6575 8.51001 20.9975 8.17001 20.9975 7.76001V3.76001C21.0075 3.66001 20.9875 3.57003 20.9475 3.47003Z" fill="#FF6A24"/>
<path d="M3.05252 20.53C3.13252 20.71 3.27249 20.86 3.46249 20.94C3.55249 20.98 3.65253 21 3.75253 21H7.75253C8.16253 21 8.50253 20.66 8.50253 20.25C8.50253 19.84 8.16253 19.5 7.75253 19.5H5.56253L10.2825 14.78C10.5725 14.49 10.5725 14.01 10.2825 13.72C10.1325 13.57 9.94253 13.5 9.75253 13.5C9.56253 13.5 9.3725 13.57 9.2225 13.72L4.50253 18.44V16.24C4.50253 15.83 4.16253 15.49 3.75253 15.49C3.34253 15.49 3.00253 15.83 3.00253 16.24V20.24C2.99253 20.34 3.01252 20.43 3.05252 20.53Z" fill="#FF6A24"/>
<path className="theme" d="M12 12.0533V12" stroke="#DEDEDE" stroke-width="2" stroke-linecap="round" stroke-linejoin="round"/>
</svg>
