<svg width="16" height="16" viewBox="0 0 16 16" fill="none" xmlns="http://www.w3.org/2000/svg">
<path d="M13.9998 4.16699C14.2759 4.16712 14.4998 4.39093 14.4998 4.66699V8.66699C14.4997 8.94289 14.2758 9.16686 13.9998 9.16699C13.7238 9.16699 13.5 8.94297 13.4998 8.66699V5.87402L10.3534 9.02051C9.4218 9.952 7.91099 9.95185 6.97934 9.02051C6.43826 8.4796 5.56144 8.47961 5.02035 9.02051L2.35336 11.6875C2.15824 11.8824 1.84155 11.8822 1.64633 11.6875C1.45115 11.4923 1.4513 11.1757 1.64633 10.9805L4.31332 8.31348C5.24493 7.38205 6.75477 7.38204 7.68637 8.31348C8.2275 8.85429 9.1053 8.85444 9.64633 8.31348L12.7928 5.16699H9.99985C9.72382 5.16699 9.50003 4.94298 9.49985 4.66699C9.49985 4.39085 9.7237 4.16699 9.99985 4.16699H13.9998Z" fill="currentColor"/>
</svg>
