<svg xmlns="http://www.w3.org/2000/svg" width="12" height="12" viewBox="0 0 12 12" fill="none">
<path fill-rule="evenodd" clip-rule="evenodd" d="M4.35355 3.64645C4.15829 3.45118 3.84171 3.45118 3.64645 3.64645C3.45118 3.84171 3.45118 4.15829 3.64645 4.35355L5.64645 6.35355C5.74021 6.44732 5.86739 6.5 6 6.5C6.13261 6.5 6.25978 6.44732 6.35355 6.35355L8.35355 4.35355C8.54882 4.15829 8.54882 3.84171 8.35355 3.64645C8.15829 3.45118 7.84171 3.45118 7.64645 3.64645L6 5.29289L4.35355 3.64645ZM3.35355 5.64645C3.15829 5.45118 2.84171 5.45118 2.64645 5.64645C2.45118 5.84171 2.45118 6.15829 2.64645 6.35355L5.50503 9.21213C5.77839 9.4855 6.22161 9.4855 6.49497 9.21213L9.35355 6.35355C9.54882 6.15829 9.54882 5.84171 9.35355 5.64645C9.15829 5.45118 8.84171 5.45118 8.64645 5.64645L6 8.29289L3.35355 5.64645Z" fill="#ED3636"/>
</svg>