<svg width="16" height="16" viewBox="0 0 16 16" fill="none" xmlns="http://www.w3.org/2000/svg">
<path d="M1.64645 4.3134C1.84171 4.11821 2.15824 4.11816 2.35348 4.3134L5.02047 6.9804C5.56153 7.52077 6.43852 7.52097 6.97945 6.9804C7.91111 6.04882 9.42185 6.04877 10.3535 6.9804L13.5 10.1269V7.33391C13.5 7.05777 13.7238 6.83391 14 6.83391C14.2759 6.8341 14.5 7.05789 14.5 7.33391V11.3339C14.4997 11.6097 14.2757 11.8337 14 11.8339H9.99996C9.72401 11.8339 9.50027 11.6098 9.49996 11.3339C9.49996 11.0578 9.72382 10.8339 9.99996 10.8339H12.7929L9.64645 7.68743C9.10535 7.14633 8.22761 7.14637 7.68649 7.68743C6.75502 8.61853 5.24503 8.61832 4.31344 7.68743L1.64645 5.02043C1.45118 4.82517 1.45118 4.50867 1.64645 4.3134Z" fill="currentColor"/>
</svg>
